<svg xmlns="http://www.w3.org/2000/svg" width="708" height="469" fill="none" stroke-linecap="square" stroke-miterlimit="10" viewBox="0 0 708 469"><path fill="#fff" d="M0 0h708v469H0z"/><path stroke="#333" stroke-linecap="butt" d="M75.5 407.5h493"/><path stroke="#ccc" stroke-linecap="butt" d="M75.5 360.5h493m-493-47h493m-493-47h493m-493-47h493m-493-48h493m-493-47h493m-493-47h493"/><path stroke="#e6e6e6" stroke-linecap="butt" d="M75.5 372.5h493m-493 12h493m-493 11h493m-493-70h493m-493 11h493m-493 12h493m-493-71h493m-493 12h493m-493 12h493m-493-71h493m-493 12h493m-493 12h493m-493-71h493m-493 12h493m-493 12h493m-493-71h493m-493 12h493m-493 12h493m-493-71h493m-493 12h493m-493 11h493"/><clipPath id="a"><path d="M75.512 68.043H568.5V407.73H75.512z"/></clipPath><path stroke="#b7b7b7" stroke-linecap="butt" stroke-width="2" d="M106.324 341.68s41.082-39.316 61.623-56.615c20.541-17.298 41.083-32.238 61.624-47.178q30.811-22.41 61.623-42.461t61.624-37.743c20.541-11.795 41.082-22.017 61.623-33.025 20.541-11.009 41.083-23.59 61.624-33.025 20.54-9.436 61.623-23.59 61.623-23.59" clip-path="url(#a)"/><path stroke="#ea4335" stroke-linecap="butt" stroke-width="2" d="M106.324 379.423s41.082-40.102 61.623-56.615c20.541-16.512 41.083-27.52 61.624-42.46q30.811-22.41 61.623-47.18c20.541-16.512 41.083-36.956 61.624-51.896s41.082-26.734 61.623-37.743c20.541-11.008 41.083-18.871 61.624-28.307l61.623-28.307" clip-path="url(#a)"/><path stroke="#fbbc04" stroke-linecap="butt" stroke-width="2" d="M106.324 398.294s41.082-5.504 61.623-9.435 41.083-7.077 61.624-14.154 41.082-14.94 61.623-28.307c20.541-13.368 41.083-37.743 61.624-51.897s41.082-30.666 61.623-33.025 41.083 17.299 61.624 18.872c20.54 1.572 61.623-9.436 61.623-9.436" clip-path="url(#a)"/><path stroke="#90f" stroke-linecap="butt" stroke-width="2" d="M106.324 398.294s41.082-5.504 61.623-9.435 41.083-7.864 61.624-14.154 41.082-11.008 61.623-23.59c20.541-12.58 41.083-33.81 61.624-51.896s41.082-39.316 61.623-56.614c20.541-17.3 41.083-31.453 61.624-47.18l61.623-47.178" clip-path="url(#a)"/><path stroke="#ff6d01" stroke-linecap="butt" stroke-width="2" d="M106.324 398.294s41.082-5.504 61.623-9.435 41.083-6.29 61.624-14.154q30.811-11.794 61.623-33.025c20.541-14.154 41.083-34.598 61.624-51.897s41.082-37.743 61.623-51.896c20.541-14.154 41.083-21.23 61.624-33.025 20.54-11.795 61.623-37.743 61.623-37.743" clip-path="url(#a)"/><path stroke="#46bdc6" stroke-linecap="butt" stroke-width="2" d="M106.324 360.551s41.082-26.734 61.623-37.743c20.541-11.008 41.083-19.657 61.624-28.307s41.082-12.58 61.623-23.59c20.541-11.008 41.083-29.093 61.624-42.46s41.082-24.376 61.623-37.743 41.083-29.094 61.624-42.46c20.54-13.368 61.623-37.744 61.623-37.744" clip-path="url(#a)"/><path stroke="#38761d" stroke-linecap="butt" stroke-width="2" d="m106.324 398.294 61.623-14.153c20.541-4.718 41.083-8.65 61.624-14.154s41.082-7.077 61.623-18.871c20.541-11.795 41.083-33.812 61.624-51.897s41.082-38.53 61.623-56.614c20.541-18.086 41.083-34.598 61.624-51.897l61.623-51.897" clip-path="url(#a)"/><path d="M109.324 341.68a3 3 0 1 1-6 0 3 3 0 0 1 6 0m61.623-56.615a3 3 0 1 1-6 0 3 3 0 0 1 6 0m61.623-47.178a3 3 0 1 1-6 0 3 3 0 0 1 6 0m61.624-42.461a3 3 0 1 1-6 0 3 3 0 0 1 6 0m61.624-37.743a3 3 0 1 1-6 0 3 3 0 0 1 6 0m61.623-33.025a3 3 0 1 1-6 0 3 3 0 0 1 6 0m61.624-33.025a3 3 0 1 1-6 0 3 3 0 0 1 6 0m61.623-23.59a3 3 0 1 1-6 0 3 3 0 0 1 6 0" clip-path="url(#a)"/><path fill="#ea4335" d="M108.324 379.423a2 2 0 1 1-4 0 2 2 0 0 1 4 0m61.623-56.615a2 2 0 1 1-4 0 2 2 0 0 1 4 0m61.623-42.46a2 2 0 1 1-4 0 2 2 0 0 1 4 0m61.624-47.179a2 2 0 1 1-4 0 2 2 0 0 1 4 0m61.624-51.897a2 2 0 1 1-4 0 2 2 0 0 1 4 0m61.623-37.742a2 2 0 1 1-4 0 2 2 0 0 1 4 0m61.624-28.308a2 2 0 1 1-4 0 2 2 0 0 1 4 0m61.623-28.307a2 2 0 1 1-4 0 2 2 0 0 1 4 0" clip-path="url(#a)"/><path fill="#fbbc04" d="M108.324 398.294a2 2 0 1 1-4 0 2 2 0 0 1 4 0m61.623-9.435a2 2 0 1 1-4 0 2 2 0 0 1 4 0m61.623-14.154a2 2 0 1 1-4 0 2 2 0 0 1 4 0m61.624-28.307a2 2 0 1 1-4 0 2 2 0 0 1 4 0m61.624-51.897a2 2 0 1 1-4 0 2 2 0 0 1 4 0m61.623-33.025a2 2 0 1 1-4 0 2 2 0 0 1 4 0m61.624 18.872a2 2 0 1 1-4 0 2 2 0 0 1 4 0m61.623-9.436a2 2 0 1 1-4 0 2 2 0 0 1 4 0" clip-path="url(#a)"/><path fill="#90f" d="M108.324 398.294a2 2 0 1 1-4 0 2 2 0 0 1 4 0m61.623-9.435a2 2 0 1 1-4 0 2 2 0 0 1 4 0m61.623-14.154a2 2 0 1 1-4 0 2 2 0 0 1 4 0m61.624-23.589a2 2 0 1 1-4 0 2 2 0 0 1 4 0m61.624-51.896a2 2 0 1 1-4-.001 2 2 0 0 1 4 0m61.623-56.614a2 2 0 1 1-4 0 2 2 0 0 1 4 0m61.624-47.179a2 2 0 1 1-4 0 2 2 0 0 1 4 0m61.623-47.179a2 2 0 1 1-4 0 2 2 0 0 1 4 0" clip-path="url(#a)"/><path fill="#ff6d01" d="M108.324 398.294a2 2 0 1 1-4 0 2 2 0 0 1 4 0m61.623-9.435a2 2 0 1 1-4 0 2 2 0 0 1 4 0m61.623-14.154a2 2 0 1 1-4 0 2 2 0 0 1 4 0m61.624-33.025a2 2 0 1 1-4 0 2 2 0 0 1 4 0m61.624-51.897a2 2 0 1 1-4 0 2 2 0 0 1 4 0m61.623-51.896a2 2 0 1 1-4 0 2 2 0 0 1 4 0m61.624-33.025a2 2 0 1 1-4 0 2 2 0 0 1 4 0m61.623-37.743a2 2 0 1 1-4 0 2 2 0 0 1 4 0" clip-path="url(#a)"/><path fill="#46bdc6" d="M108.324 360.551a2 2 0 1 1-4 0 2 2 0 0 1 4 0m61.623-37.743a2 2 0 1 1-4 0 2 2 0 0 1 4 0m61.623-28.307a2 2 0 1 1-4 0 2 2 0 0 1 4 0m61.624-23.589a2 2 0 1 1-4 0 2 2 0 0 1 4 0m61.624-42.461a2 2 0 1 1-4 0 2 2 0 0 1 4 0m61.623-37.743a2 2 0 1 1-4 0 2 2 0 0 1 4 0m61.624-42.461a2 2 0 1 1-4 0 2 2 0 0 1 4 0m61.623-37.743a2 2 0 1 1-4 0 2 2 0 0 1 4 0" clip-path="url(#a)"/><path fill="#38761d" d="M108.324 398.294a2 2 0 1 1-4 0 2 2 0 0 1 4 0m61.623-14.154a2 2 0 1 1-4 0 2 2 0 0 1 4 0m61.623-14.153a2 2 0 1 1-4 0 2 2 0 0 1 4 0m61.624-18.871a2 2 0 1 1-4 0 2 2 0 0 1 4 0m61.624-51.896a2 2 0 1 1-4-.001 2 2 0 0 1 4 0m61.623-56.614a2 2 0 1 1-4 0 2 2 0 0 1 4 0m61.624-51.897a2 2 0 1 1-4 0 2 2 0 0 1 4 0m61.623-51.897a2 2 0 1 1-4 0 2 2 0 0 1 4 0" clip-path="url(#a)"/><path fill="#000" d="M302.365 449.817q.579 0 1.016-.344.438-.36.484-.89h1.032q-.032.546-.391 1.046-.344.485-.922.782-.562.297-1.219.297-1.296 0-2.062-.86-.75-.875-.75-2.375v-.187q0-.922.328-1.64.344-.72.969-1.11.64-.407 1.515-.407 1.063 0 1.766.641.719.625.766 1.656h-1.032q-.046-.625-.468-1.015t-1.032-.39q-.828 0-1.28.593-.454.594-.454 1.719v.203q0 1.093.453 1.687t1.281.594m7.375.766q-.093-.188-.156-.672-.75.797-1.797.797-.937 0-1.547-.532-.593-.53-.593-1.359 0-.984.75-1.531t2.125-.547h1.047v-.5q0-.563-.344-.89-.328-.345-1-.345-.578 0-.969.297-.39.282-.39.703h-1.094q0-.484.328-.921.344-.438.922-.688.578-.266 1.265-.266 1.11 0 1.719.547.625.547.656 1.5v2.922q0 .875.219 1.39v.095zm-1.796-.829q.515 0 .968-.265.453-.266.657-.688v-1.297h-.844q-2 0-2 1.172 0 .5.344.797.343.281.875.281m10.234-2.265q0 1.437-.656 2.328-.657.89-1.797.89-1.156 0-1.813-.734v3.047h-1.078v-8.781h.985l.046.703q.672-.813 1.844-.813 1.14 0 1.797.86.672.86.672 2.39zm-1.078-.125q0-1.078-.469-1.688-.453-.625-1.25-.625-.984 0-1.469.86v3.031q.485.875 1.485.875.78 0 1.234-.61.469-.624.469-1.843m6.64 3.219q-.093-.188-.156-.672-.75.797-1.797.797-.937 0-1.547-.532-.593-.53-.593-1.359 0-.984.75-1.531t2.125-.547h1.047v-.5q0-.563-.344-.89-.328-.345-1-.345-.578 0-.969.297-.39.282-.39.703h-1.094q0-.484.328-.921.344-.438.922-.688.578-.266 1.265-.266 1.11 0 1.719.547.625.547.656 1.5v2.922q0 .875.219 1.39v.095zm-1.796-.829q.515 0 .968-.265.453-.266.657-.688v-1.297h-.844q-2 0-2 1.172 0 .5.344.797.343.281.875.281m7.421.063q.579 0 1.016-.344.438-.36.484-.89h1.032q-.032.546-.391 1.046-.344.485-.922.782-.562.297-1.219.297-1.296 0-2.062-.86-.75-.875-.75-2.375v-.187q0-.922.328-1.64.344-.72.969-1.11.64-.407 1.515-.407 1.063 0 1.766.641.719.625.766 1.656h-1.032q-.046-.625-.468-1.015t-1.032-.39q-.828 0-1.28.593-.454.594-.454 1.719v.203q0 1.093.453 1.687t1.281.594m4.641.766h-1.078v-6.344h1.078zm-1.172-8.016q0-.266.156-.453.172-.188.485-.188.312 0 .469.188.171.187.171.453 0 .25-.171.437-.157.172-.47.172t-.484-.172q-.156-.187-.156-.437m4.469.14v1.532h1.172v.844h-1.172v3.921q0 .391.156.579t.531.187q.188 0 .516-.062v.875q-.422.125-.828.125-.719 0-1.094-.438-.375-.453-.375-1.266v-3.921h-1.156v-.844h1.156v-1.531zm4.594 6.282 1.484-4.75h1.156l-2.547 7.328q-.593 1.578-1.875 1.578l-.218-.016-.391-.078v-.875l.281.016q.563 0 .86-.219.312-.219.515-.812l.235-.657-2.266-6.265h1.188zM27.145 265.287q-.875-.719-.875-1.875 0-2.016 2.265-2.031h4.188v1.093H28.52q-.672 0-1 .313-.329.297-.329.953 0 .531.282.938.281.39.734.609h4.516v1.078h-9v-1.078zm5.578-7.094v1.078h-6.344v-1.078zm-8.016 1.172q-.266 0-.453-.156-.188-.172-.188-.485 0-.312.188-.468.187-.172.453-.172.25 0 .438.172.171.156.171.468t-.171.485q-.188.156-.438.156m.14-4.469h1.532v-1.172h.844v1.172h3.922q.39 0 .578-.156t.187-.531q0-.188-.062-.516h.875q.125.422.125.828 0 .72-.438 1.094-.453.375-1.265.375h-3.922v1.156h-.844v-1.156h-1.531zm2.5-8.593q-.03.25-.03.53 0 1.079.906 1.454h4.5v1.078h-6.344v-1.047l.734-.015q-.843-.532-.843-1.516 0-.313.078-.484zm5.376-4.844q-.188.094-.672.156.797.75.797 1.797 0 .937-.532 1.547-.53.594-1.359.594-.984 0-1.531-.75t-.547-2.125v-1.047h-.5q-.563 0-.89.343-.344.329-.344 1 0 .579.296.97.282.39.704.39v1.094q-.485 0-.922-.329-.438-.343-.688-.921-.265-.579-.265-1.266 0-1.11.546-1.719.547-.625 1.5-.656h2.922q.875 0 1.391-.219h.094zm-.828 1.797q0-.516-.266-.97-.266-.452-.688-.655h-1.296v.843q0 2 1.171 2 .5 0 .797-.343.282-.344.282-.875m-7.047-6.36h1.531v-1.172h.844v1.172h3.922q.39 0 .578-.156t.187-.531q0-.188-.062-.516h.875q.125.422.125.828 0 .72-.438 1.094-.453.375-1.265.375h-3.922v1.156h-.844v-1.156h-1.531zm7.875-3.703v1.078h-6.344v-1.078zm-8.016 1.172q-.266 0-.453-.156-.188-.172-.188-.485 0-.312.188-.468.187-.172.453-.172.25 0 .438.172.171.156.171.468t-.171.485q-.188.156-.438.156m4.781-2.703q-.922 0-1.672-.36-.75-.374-1.14-1.03-.406-.657-.406-1.485 0-1.297.89-2.094.89-.812 2.39-.812h.079q.922 0 1.656.36.735.358 1.156 1.015.407.656.407 1.515 0 1.282-.89 2.094-.907.797-2.392.797zm.141-1.094q1.047 0 1.687-.484.641-.5.641-1.313 0-.828-.64-1.312-.657-.485-1.829-.485-1.03 0-1.672.5-.656.485-.656 1.313 0 .797.64 1.297.626.484 1.829.484M59.575 408.59q0 1.906-.657 2.843-.64.922-2.03.922-1.36 0-2.017-.906t-.687-2.719v-1.437q0-1.891.64-2.797.657-.922 2.047-.922 1.375 0 2.032.89.656.875.672 2.72zm-1.094-1.485q0-1.375-.39-2-.376-.64-1.22-.64-.828 0-1.218.64-.375.625-.375 1.922v1.734q0 1.375.39 2.047.407.656 1.22.656.796 0 1.187-.625.39-.625.406-1.953zm2.64-1.766q0-.765.485-1.265.5-.5 1.265-.5.782 0 1.266.5t.484 1.297v.422q0 .765-.5 1.265-.484.485-1.234.485-.766 0-1.266-.485-.5-.5-.5-1.312zm.813.454q0 .453.25.75.266.296.703.296.422 0 .672-.28.25-.298.25-.798v-.422q0-.453-.25-.75-.25-.312-.688-.312t-.687.312q-.25.297-.25.766zm3.344 4.343q0-.765.484-1.25.5-.5 1.266-.5.765 0 1.25.5.5.485.5 1.297v.406q0 .766-.485 1.266-.484.5-1.25.5-.765 0-1.265-.484-.5-.5-.5-1.313zm.812.453q0 .47.25.766.266.297.703.297.422 0 .672-.281.25-.297.25-.797v-.438q0-.468-.265-.75-.25-.297-.672-.297t-.688.297q-.25.282-.25.782zm-2.953 1-.625-.39 4.172-6.672.61.39zm-12.359-46.538H49.7v-7.218l-2.188.796v-.984l3.11-1.172h.156zm8.797-3.64q0 1.906-.657 2.844-.64.921-2.03.921-1.36 0-2.017-.906t-.687-2.719v-1.437q0-1.89.64-2.797.657-.922 2.047-.922 1.375 0 2.032.89.656.876.672 2.72zm-1.094-1.485q0-1.375-.39-2-.376-.64-1.22-.64-.828 0-1.218.64-.375.625-.375 1.922v1.735q0 1.375.39 2.046.407.657 1.22.657.796 0 1.187-.625.39-.625.406-1.953zm2.64-1.765q0-.766.485-1.266.5-.5 1.265-.5.782 0 1.266.5t.484 1.297v.422q0 .766-.5 1.266-.484.484-1.234.484-.766 0-1.266-.484-.5-.5-.5-1.313zm.813.453q0 .453.25.75.266.297.703.297.422 0 .672-.281.25-.297.25-.797v-.422q0-.453-.25-.75-.25-.313-.688-.313t-.687.313q-.25.297-.25.765zm3.344 4.344q0-.766.484-1.25.5-.5 1.266-.5.765 0 1.25.5.5.484.5 1.296v.407q0 .765-.485 1.265-.484.5-1.25.5-.765 0-1.265-.484-.5-.5-.5-1.312zm.812.453q0 .469.25.765.266.297.703.297.422 0 .672-.281.25-.297.25-.797v-.437q0-.47-.265-.75-.25-.297-.672-.297t-.688.297q-.25.28-.25.78zm-2.953 1-.625-.39 4.172-6.673.61.39zm-10.328-46.538h-5.594v-.782l2.953-3.28q.657-.75.907-1.204.25-.469.25-.969 0-.672-.407-1.093-.39-.438-1.078-.438-.797 0-1.25.469-.453.453-.453 1.281H47.06q0-1.187.75-1.906.766-.735 2.031-.735 1.203 0 1.89.625.688.625.688 1.672 0 1.25-1.609 3l-2.281 2.469h4.281zm6.766-3.641q0 1.906-.657 2.844-.64.922-2.03.922-1.36 0-2.017-.907-.656-.906-.687-2.718v-1.438q0-1.89.64-2.797.657-.922 2.047-.922 1.375 0 2.032.891.656.875.672 2.719zm-1.094-1.484q0-1.375-.39-2-.376-.641-1.22-.641-.828 0-1.218.64-.375.626-.375 1.923v1.734q0 1.375.39 2.047.407.656 1.22.656.796 0 1.187-.625.39-.625.406-1.953zm2.64-1.766q0-.766.485-1.266.5-.5 1.265-.5.782 0 1.266.5t.484 1.297v.422q0 .766-.5 1.266-.484.484-1.234.484-.766 0-1.266-.484-.5-.5-.5-1.313zm.813.453q0 .453.25.75.266.297.703.297.422 0 .672-.281.25-.297.25-.797v-.422q0-.453-.25-.75-.25-.312-.688-.312t-.687.312q-.25.297-.25.766zm3.344 4.344q0-.766.484-1.25.5-.5 1.266-.5.765 0 1.25.5.5.484.5 1.297v.406q0 .766-.485 1.266-.484.5-1.25.5-.765 0-1.265-.485-.5-.5-.5-1.312zm.812.453q0 .469.25.766.266.297.703.297.422 0 .672-.282.25-.297.25-.797v-.437q0-.469-.265-.75-.25-.297-.672-.297t-.688.297q-.25.281-.25.781zm-2.953 1-.625-.39 4.172-6.672.61.39zm-14.344-51.335h.813q.781-.016 1.219-.406.437-.39.437-1.063 0-1.5-1.5-1.5-.703 0-1.125.407-.406.406-.406 1.062h-1.094q0-1.016.734-1.687.75-.672 1.891-.672 1.203 0 1.89.64.688.641.688 1.782 0 .562-.36 1.078-.359.515-.984.781.704.219 1.079.734.39.516.39 1.266 0 1.14-.75 1.828-.75.672-1.953.672-1.187 0-1.953-.656-.75-.657-.75-1.719h1.094q0 .672.437 1.078.438.406 1.188.406.781 0 1.187-.406.422-.422.422-1.187 0-.735-.453-1.125-.453-.407-1.328-.422h-.813zm10.782 1.156q0 1.907-.657 2.844-.64.922-2.03.922-1.36 0-2.017-.906-.656-.907-.687-2.719v-1.438q0-1.89.64-2.796.657-.922 2.047-.922 1.375 0 2.032.89.656.875.672 2.72zm-1.094-1.484q0-1.375-.39-2-.376-.64-1.22-.64-.828 0-1.218.64-.375.625-.375 1.922v1.734q0 1.375.39 2.047.407.656 1.22.656.796 0 1.187-.625.39-.625.406-1.953zm2.64-1.766q0-.765.485-1.265.5-.5 1.265-.5.782 0 1.266.5t.484 1.297v.421q0 .766-.5 1.266-.484.484-1.234.484-.766 0-1.266-.484-.5-.5-.5-1.312zm.813.453q0 .454.25.75.266.297.703.297.422 0 .672-.28.25-.298.25-.798v-.422q0-.453-.25-.75-.25-.312-.688-.312t-.687.312q-.25.297-.25.766zm3.344 4.344q0-.765.484-1.25.5-.5 1.266-.5.765 0 1.25.5.5.485.5 1.297v.406q0 .766-.485 1.266-.484.5-1.25.5-.765 0-1.265-.484-.5-.5-.5-1.313zm.812.453q0 .47.25.766.266.297.703.297.422 0 .672-.281.25-.297.25-.797v-.438q0-.469-.265-.75-.25-.297-.672-.297t-.688.297q-.25.281-.25.781zm-2.953 1-.625-.39 4.172-6.672.61.39zm-11.344-49.397h1.188v.875h-1.188v1.984h-1.078v-1.984h-3.89v-.64l3.812-5.907h1.156zm-3.734 0h2.656v-4.188l-.14.235zm11.516-.781q0 1.906-.657 2.843-.64.922-2.03.922-1.36 0-2.017-.906t-.687-2.719v-1.437q0-1.89.64-2.797.657-.922 2.047-.922 1.375 0 2.032.89.656.876.672 2.72zm-1.094-1.485q0-1.375-.39-2-.376-.64-1.22-.64-.828 0-1.218.64-.375.625-.375 1.922v1.735q0 1.375.39 2.046.407.657 1.22.657.796 0 1.187-.625.39-.625.406-1.953zm2.64-1.765q0-.766.485-1.266.5-.5 1.265-.5.782 0 1.266.5t.484 1.297v.422q0 .765-.5 1.265-.484.485-1.234.485-.766 0-1.266-.485-.5-.5-.5-1.312zm.813.453q0 .453.25.75.266.297.703.297.422 0 .672-.282.25-.296.25-.796v-.422q0-.453-.25-.75-.25-.313-.688-.313t-.687.313q-.25.297-.25.765zm3.344 4.344q0-.766.484-1.25.5-.5 1.266-.5.765 0 1.25.5.5.484.5 1.296v.407q0 .765-.485 1.265-.484.5-1.25.5-.765 0-1.265-.484-.5-.5-.5-1.313zm.812.453q0 .468.25.765.266.297.703.297.422 0 .672-.281.25-.297.25-.797v-.437q0-.47-.265-.75-.25-.297-.672-.297t-.688.297q-.25.28-.25.78zm-2.953 1-.625-.391 4.172-6.672.61.39zm-15.422-50.82.438-4.25h4.375v1h-3.453l-.266 2.328q.64-.375 1.437-.375 1.157 0 1.844.782.688.765.688 2.078t-.719 2.078q-.703.766-1.984.766-1.125 0-1.844-.625-.719-.641-.813-1.75h1.016q.11.734.531 1.109t1.11.375q.75 0 1.187-.516.438-.515.438-1.422 0-.859-.47-1.375-.468-.515-1.25-.515-.702 0-1.109.297l-.28.234zm11.86.64q0 1.907-.657 2.845-.64.922-2.03.922-1.36 0-2.017-.907-.656-.906-.687-2.718v-1.438q0-1.89.64-2.797.657-.922 2.047-.922 1.375 0 2.032.89.656.876.672 2.72zm-1.094-1.483q0-1.375-.39-2-.376-.641-1.22-.641-.828 0-1.218.64-.375.626-.375 1.922v1.735q0 1.375.39 2.047.407.656 1.22.656.796 0 1.187-.625.39-.625.406-1.953zm2.64-1.766q0-.766.485-1.266.5-.5 1.265-.5.782 0 1.266.5t.484 1.297v.422q0 .766-.5 1.266-.484.484-1.234.484-.766 0-1.266-.484-.5-.5-.5-1.313zm.813.453q0 .453.25.75.266.297.703.297.422 0 .672-.281.25-.297.25-.797v-.422q0-.453-.25-.75-.25-.313-.688-.313t-.687.313q-.25.297-.25.766zm3.344 4.344q0-.766.484-1.25.5-.5 1.266-.5.765 0 1.25.5.5.484.5 1.297v.406q0 .766-.485 1.266-.484.5-1.25.5-.765 0-1.265-.485-.5-.5-.5-1.312zm.812.453q0 .469.25.766.266.296.703.296.422 0 .672-.28.25-.298.25-.798v-.437q0-.469-.265-.75-.25-.297-.672-.297t-.688.297q-.25.281-.25.781zm-2.953 1-.625-.39 4.172-6.673.61.391zM51.48 120.627v.906h-.202q-1.266.031-2.016.765-.75.72-.875 2.032.688-.766 1.844-.766 1.11 0 1.781.781.672.782.672 2.032 0 1.312-.719 2.109t-1.937.797-1.985-.938q-.75-.953-.75-2.437v-.406q0-2.36 1-3.61t2.985-1.265zm-1.421 3.843q-.563 0-1.031.328-.469.329-.657.844v.39q0 1.063.47 1.704.484.64 1.187.64.734 0 1.156-.53.422-.548.422-1.423t-.422-1.406q-.422-.547-1.125-.547m9.516 1.047q0 1.906-.657 2.844-.64.922-2.03.922-1.36 0-2.017-.906-.656-.907-.687-2.72v-1.437q0-1.89.64-2.797.657-.921 2.047-.921 1.375 0 2.032.89.656.875.672 2.719zm-1.094-1.484q0-1.375-.39-2-.376-.64-1.22-.64-.828 0-1.218.64-.375.625-.375 1.922v1.734q0 1.375.39 2.047.407.656 1.22.656.796 0 1.187-.625.39-.625.406-1.953zm2.64-1.766q0-.765.485-1.265.5-.5 1.265-.5.782 0 1.266.5t.484 1.296v.422q0 .766-.5 1.266-.484.484-1.234.484-.766 0-1.266-.484-.5-.5-.5-1.313zm.813.453q0 .453.25.75.266.297.703.297.422 0 .672-.281.25-.297.25-.797v-.422q0-.453-.25-.75-.25-.312-.688-.312t-.687.312q-.25.297-.25.766zm3.344 4.344q0-.766.484-1.25.5-.5 1.266-.5.765 0 1.25.5.5.484.5 1.297v.406q0 .766-.485 1.266-.484.5-1.25.5-.765 0-1.265-.485-.5-.5-.5-1.312zm.812.453q0 .469.25.766.266.297.703.297.422 0 .672-.282.25-.296.25-.796v-.438q0-.469-.265-.75-.25-.297-.672-.297t-.688.297q-.25.281-.25.781zm-2.953 1-.625-.39 4.172-6.672.61.39zM52.73 74.057 49.2 81.98h-1.141l3.516-7.64h-4.61v-.891h5.766zm6.845 4.282q0 1.906-.657 2.843-.64.922-2.03.922-1.36 0-2.017-.906t-.687-2.719v-1.437q0-1.891.64-2.797.657-.922 2.047-.922 1.375 0 2.032.89.656.876.672 2.72zm-1.094-1.485q0-1.375-.39-2-.376-.64-1.22-.64-.828 0-1.218.64-.375.625-.375 1.922v1.734q0 1.375.39 2.047.407.657 1.22.657.796 0 1.187-.625.39-.625.406-1.954zm2.64-1.765q0-.766.485-1.266.5-.5 1.265-.5.782 0 1.266.5t.484 1.297v.422q0 .765-.5 1.265-.484.485-1.234.485-.766 0-1.266-.485-.5-.5-.5-1.312zm.813.453q0 .453.25.75.266.297.703.297.422 0 .672-.282.25-.297.25-.797v-.421q0-.454-.25-.75-.25-.313-.688-.313t-.687.313q-.25.296-.25.765zm3.344 4.343q0-.765.484-1.25.5-.5 1.266-.5.765 0 1.25.5.5.485.5 1.297v.407q0 .765-.485 1.265-.484.5-1.25.5-.765 0-1.265-.484-.5-.5-.5-1.313zm.812.454q0 .468.25.765.266.297.703.297.422 0 .672-.281.25-.297.25-.797v-.438q0-.468-.265-.75-.25-.296-.672-.296t-.688.296q-.25.282-.25.782zm-2.953 1-.625-.391 4.172-6.672.61.39zM88.59 425.73h-1.08v-7.219l-2.187.797v-.984l3.11-1.172h.155zm8.796-3.64q0 1.906-.656 2.843-.64.922-2.031.922-1.36 0-2.016-.906t-.687-2.719v-1.437q0-1.891.64-2.797.657-.922 2.047-.922 1.375 0 2.031.89.657.875.672 2.72zm-1.093-1.485q0-1.375-.391-2-.375-.64-1.219-.64-.828 0-1.219.64-.375.625-.375 1.922v1.734q0 1.375.391 2.047.406.656 1.219.656.797 0 1.187-.625.391-.625.407-1.953zm8.093 1.484q0 1.907-.656 2.844-.64.922-2.031.922-1.36 0-2.016-.906t-.687-2.719v-1.437q0-1.891.64-2.797.657-.922 2.047-.922 1.375 0 2.031.89.657.875.672 2.72zm-1.093-1.484q0-1.375-.391-2-.375-.64-1.219-.64-.828 0-1.219.64-.375.625-.375 1.922v1.734q0 1.375.391 2.047.406.656 1.219.656.797 0 1.187-.625.391-.625.407-1.953zm2.812 6.828-.61-.422q.548-.765.579-1.593v-.97h1.062v.845q0 .593-.297 1.187-.296.594-.734.953m7.281-5.344q0 1.907-.656 2.844-.64.922-2.031.922-1.36 0-2.016-.906t-.687-2.719v-1.437q0-1.891.64-2.797.657-.922 2.047-.922 1.375 0 2.031.89.657.875.672 2.72zm-1.093-1.484q0-1.375-.391-2-.375-.64-1.219-.64-.828 0-1.219.64-.375.625-.375 1.922v1.734q0 1.375.391 2.047.406.656 1.219.656.797 0 1.187-.625.391-.625.407-1.953zm8.093 1.484q0 1.907-.656 2.844-.64.922-2.031.922-1.36 0-2.016-.906t-.687-2.719v-1.437q0-1.891.64-2.797.657-.922 2.047-.922 1.375 0 2.031.89.657.875.672 2.72zm-1.093-1.484q0-1.375-.391-2-.375-.64-1.219-.64-.828 0-1.219.64-.375.625-.375 1.922v1.734q0 1.375.391 2.047.406.656 1.219.656.797 0 1.187-.625.391-.625.407-1.953zm8.093 1.484q0 1.907-.656 2.844-.64.922-2.031.922-1.36 0-2.016-.906t-.687-2.719v-1.437q0-1.891.64-2.797.657-.922 2.047-.922 1.375 0 2.031.89.657.875.672 2.72zm-1.093-1.484q0-1.375-.391-2-.375-.64-1.219-.64-.828 0-1.219.64-.375.625-.375 1.922v1.734q0 1.375.391 2.047.406.656 1.219.656.797 0 1.187-.625.391-.625.407-1.953zm25.951 5.125h-5.594v-.781l2.954-3.281q.656-.75.906-1.204.25-.468.25-.968 0-.672-.406-1.094-.391-.438-1.079-.438-.796 0-1.25.47-.453.452-.453 1.28h-1.078q0-1.187.75-1.906.766-.734 2.031-.734 1.204 0 1.891.625t.688 1.672q0 1.25-1.61 3l-2.281 2.468h4.281zm6.766-3.64q0 1.906-.656 2.843-.641.922-2.032.922-1.36 0-2.015-.906-.657-.906-.688-2.719v-1.437q0-1.891.64-2.797.657-.922 2.048-.922 1.375 0 2.03.89.657.875.673 2.72zm-1.094-1.485q0-1.375-.39-2-.376-.64-1.22-.64-.827 0-1.218.64-.375.625-.375 1.922v1.734q0 1.375.39 2.047.407.656 1.22.656.796 0 1.187-.625.39-.625.406-1.953zm8.094 1.484q0 1.907-.656 2.844-.641.922-2.032.922-1.36 0-2.015-.906-.657-.906-.688-2.719v-1.437q0-1.891.64-2.797.657-.922 2.048-.922 1.375 0 2.03.89.657.875.673 2.72zm-1.094-1.484q0-1.375-.39-2-.376-.64-1.22-.64-.827 0-1.218.64-.375.625-.375 1.922v1.734q0 1.375.39 2.047.407.656 1.22.656.796 0 1.187-.625.39-.625.406-1.953zm2.813 6.828-.61-.422q.547-.765.578-1.593v-.97h1.063v.845q0 .593-.297 1.187t-.734.953m7.28-5.344q0 1.907-.655 2.844-.641.922-2.032.922-1.36 0-2.015-.906-.657-.906-.688-2.719v-1.437q0-1.891.64-2.797.657-.922 2.048-.922 1.375 0 2.03.89.657.875.673 2.72zm-1.093-1.484q0-1.375-.39-2-.376-.64-1.22-.64-.827 0-1.218.64-.375.625-.375 1.922v1.734q0 1.375.39 2.047.407.656 1.22.656.796 0 1.187-.625.39-.625.406-1.953zm8.094 1.484q0 1.907-.656 2.844-.641.922-2.032.922-1.36 0-2.015-.906-.657-.906-.688-2.719v-1.437q0-1.891.64-2.797.657-.922 2.048-.922 1.375 0 2.03.89.657.875.673 2.72zm-1.094-1.484q0-1.375-.39-2-.376-.64-1.22-.64-.827 0-1.218.64-.375.625-.375 1.922v1.734q0 1.375.39 2.047.407.656 1.22.656.796 0 1.187-.625.39-.625.406-1.953zm8.094 1.484q0 1.907-.656 2.844-.641.922-2.032.922-1.36 0-2.015-.906-.657-.906-.688-2.719v-1.437q0-1.891.64-2.797.657-.922 2.048-.922 1.375 0 2.03.89.657.875.673 2.72zm-1.094-1.484q0-1.375-.39-2-.376-.64-1.22-.64-.827 0-1.218.64-.375.625-.375 1.922v1.734q0 1.375.39 2.047.407.656 1.22.656.796 0 1.187-.625.39-.625.406-1.953zm21.936.328h.813q.78-.015 1.218-.406.438-.39.438-1.063 0-1.5-1.5-1.5-.703 0-1.125.407-.406.406-.406 1.062h-1.094q0-1.015.734-1.687.75-.672 1.89-.672 1.204 0 1.891.64.688.641.688 1.782 0 .562-.36 1.078-.359.515-.984.781.703.219 1.078.734.39.516.39 1.266 0 1.14-.75 1.828-.75.672-1.952.672-1.188 0-1.953-.656-.75-.656-.75-1.719h1.093q0 .672.438 1.078.437.406 1.187.406.782 0 1.188-.406.422-.422.422-1.187 0-.735-.453-1.125-.453-.407-1.328-.422h-.813zm10.781 1.156q0 1.907-.656 2.844-.64.922-2.031.922-1.36 0-2.016-.906t-.687-2.719v-1.437q0-1.891.64-2.797.657-.922 2.047-.922 1.375 0 2.031.89.657.875.672 2.72zm-1.093-1.484q0-1.375-.391-2-.375-.64-1.219-.64-.828 0-1.219.64-.375.625-.375 1.922v1.734q0 1.375.391 2.047.406.656 1.219.656.797 0 1.187-.625t.407-1.953zm8.093 1.484q0 1.907-.656 2.844-.64.922-2.031.922-1.36 0-2.016-.906t-.687-2.719v-1.437q0-1.891.64-2.797.657-.922 2.047-.922 1.375 0 2.031.89.657.875.672 2.72zm-1.093-1.484q0-1.375-.391-2-.375-.64-1.219-.64-.828 0-1.219.64-.375.625-.375 1.922v1.734q0 1.375.391 2.047.406.656 1.219.656.797 0 1.187-.625t.407-1.953zm2.812 6.828-.61-.422q.548-.765.579-1.593v-.97h1.062v.845q0 .593-.297 1.187-.296.594-.734.953m7.281-5.344q0 1.907-.656 2.844-.64.922-2.031.922-1.36 0-2.016-.906t-.687-2.719v-1.437q0-1.891.64-2.797.657-.922 2.047-.922 1.375 0 2.031.89.657.875.672 2.72zm-1.093-1.484q0-1.375-.391-2-.375-.64-1.219-.64-.828 0-1.219.64-.375.625-.375 1.922v1.734q0 1.375.391 2.047.406.656 1.219.656.797 0 1.187-.625t.407-1.953zm8.093 1.484q0 1.907-.656 2.844-.64.922-2.031.922-1.36 0-2.016-.906t-.687-2.719v-1.437q0-1.891.64-2.797.657-.922 2.047-.922 1.375 0 2.031.89.657.875.672 2.72zm-1.093-1.484q0-1.375-.391-2-.375-.64-1.219-.64-.828 0-1.219.64-.375.625-.375 1.922v1.734q0 1.375.391 2.047.406.656 1.219.656.797 0 1.187-.625t.407-1.953zm8.093 1.484q0 1.907-.656 2.844-.64.922-2.031.922-1.36 0-2.016-.906t-.687-2.719v-1.437q0-1.891.64-2.797.657-.922 2.047-.922 1.375 0 2.031.89.657.875.672 2.72zm-1.093-1.484q0-1.375-.391-2-.375-.64-1.219-.64-.828 0-1.219.64-.375.625-.375 1.922v1.734q0 1.375.391 2.047.406.656 1.219.656.797 0 1.187-.625t.407-1.953zm24.936 2.265h1.187v.876h-1.187v1.984h-1.079v-1.984h-3.89v-.64l3.812-5.907h1.157zm-3.735 0h2.656v-4.187l-.14.235zm11.516-.78q0 1.906-.656 2.843-.641.922-2.032.922-1.36 0-2.015-.906-.657-.906-.688-2.719v-1.437q0-1.891.64-2.797.657-.922 2.048-.922 1.375 0 2.03.89.657.875.673 2.72zm-1.094-1.485q0-1.375-.39-2-.376-.64-1.22-.64-.827 0-1.218.64-.375.625-.375 1.922v1.734q0 1.375.39 2.047.407.656 1.22.656.796 0 1.187-.625.39-.625.406-1.953zm8.094 1.484q0 1.907-.656 2.844-.641.922-2.032.922-1.36 0-2.015-.906-.657-.906-.688-2.719v-1.437q0-1.891.64-2.797.657-.922 2.048-.922 1.375 0 2.03.89.657.875.673 2.72zm-1.094-1.484q0-1.375-.39-2-.376-.64-1.22-.64-.827 0-1.218.64-.375.625-.375 1.922v1.734q0 1.375.39 2.047.407.656 1.22.656.796 0 1.187-.625.39-.625.406-1.953zm2.813 6.828-.61-.422q.547-.765.578-1.593v-.97h1.063v.845q0 .593-.297 1.187t-.734.953m7.28-5.344q0 1.907-.655 2.844-.641.922-2.032.922-1.36 0-2.015-.906-.657-.906-.688-2.719v-1.437q0-1.891.64-2.797.657-.922 2.048-.922 1.375 0 2.03.89.657.875.673 2.72zm-1.093-1.484q0-1.375-.39-2-.376-.64-1.22-.64-.827 0-1.218.64-.375.625-.375 1.922v1.734q0 1.375.39 2.047.407.656 1.22.656.796 0 1.187-.625.39-.625.406-1.953zm8.094 1.484q0 1.907-.656 2.844-.641.922-2.032.922-1.36 0-2.015-.906-.657-.906-.688-2.719v-1.437q0-1.891.64-2.797.657-.922 2.048-.922 1.375 0 2.03.89.657.875.673 2.72zm-1.094-1.484q0-1.375-.39-2-.376-.64-1.22-.64-.827 0-1.218.64-.375.625-.375 1.922v1.734q0 1.375.39 2.047.407.656 1.22.656.796 0 1.187-.625.39-.625.406-1.953zm8.094 1.484q0 1.907-.656 2.844-.641.922-2.032.922-1.36 0-2.015-.906-.657-.906-.688-2.719v-1.437q0-1.891.64-2.797.657-.922 2.048-.922 1.375 0 2.03.89.657.875.673 2.72zm-1.094-1.484q0-1.375-.39-2-.376-.64-1.22-.64-.827 0-1.218.64-.375.625-.375 1.922v1.734q0 1.375.39 2.047.407.656 1.22.656.796 0 1.187-.625.39-.625.406-1.953zm20.857.844.438-4.25h4.375v1h-3.453l-.265 2.328q.64-.375 1.437-.375 1.156 0 1.844.781.687.766.687 2.078 0 1.313-.718 2.078-.703.766-1.985.766-1.125 0-1.843-.625-.72-.64-.813-1.75h1.016q.109.734.53 1.11.423.374 1.11.374.75 0 1.188-.515.437-.516.437-1.422 0-.86-.468-1.375-.47-.516-1.25-.516-.704 0-1.11.297l-.281.235zm11.86.64q0 1.907-.656 2.844-.64.922-2.031.922-1.36 0-2.016-.906t-.687-2.719v-1.437q0-1.891.64-2.797.657-.922 2.047-.922 1.375 0 2.031.89.657.875.672 2.72zm-1.093-1.484q0-1.375-.391-2-.375-.64-1.219-.64-.828 0-1.219.64-.375.625-.375 1.922v1.734q0 1.375.391 2.047.406.656 1.219.656.797 0 1.187-.625t.407-1.953zm8.093 1.484q0 1.907-.656 2.844-.64.922-2.031.922-1.36 0-2.016-.906t-.687-2.719v-1.437q0-1.891.64-2.797.657-.922 2.047-.922 1.375 0 2.031.89.657.875.672 2.72zm-1.093-1.484q0-1.375-.391-2-.375-.64-1.219-.64-.828 0-1.219.64-.375.625-.375 1.922v1.734q0 1.375.391 2.047.406.656 1.219.656.797 0 1.187-.625t.407-1.953zm2.812 6.828-.61-.422q.548-.765.579-1.593v-.97h1.062v.845q0 .593-.297 1.187-.296.594-.734.953m7.281-5.344q0 1.907-.656 2.844-.64.922-2.031.922-1.36 0-2.016-.906t-.687-2.719v-1.437q0-1.891.64-2.797.657-.922 2.047-.922 1.375 0 2.031.89.657.875.672 2.72zm-1.093-1.484q0-1.375-.391-2-.375-.64-1.219-.64-.828 0-1.219.64-.375.625-.375 1.922v1.734q0 1.375.391 2.047.406.656 1.219.656.797 0 1.187-.625t.407-1.953zm8.093 1.484q0 1.907-.656 2.844-.64.922-2.031.922-1.36 0-2.016-.906t-.687-2.719v-1.437q0-1.891.64-2.797.657-.922 2.047-.922 1.375 0 2.031.89.657.875.672 2.72zm-1.093-1.484q0-1.375-.391-2-.375-.64-1.219-.64-.828 0-1.219.64-.375.625-.375 1.922v1.734q0 1.375.391 2.047.406.656 1.219.656.797 0 1.187-.625t.407-1.953zm8.093 1.484q0 1.907-.656 2.844-.64.922-2.031.922-1.36 0-2.016-.906t-.687-2.719v-1.437q0-1.891.64-2.797.657-.922 2.047-.922 1.375 0 2.031.89.657.875.672 2.72zm-1.093-1.484q0-1.375-.391-2-.375-.64-1.219-.64-.828 0-1.219.64-.375.625-.375 1.922v1.734q0 1.375.391 2.047.406.656 1.219.656.797 0 1.187-.625t.407-1.953zm24.623-3.406v.906h-.203q-1.266.031-2.016.766-.75.718-.875 2.031.688-.766 1.844-.766 1.11 0 1.781.782.672.78.672 2.03 0 1.313-.719 2.11-.718.797-1.937.797t-1.984-.937q-.75-.954-.75-2.438v-.406q0-2.36 1-3.61t2.984-1.265zm-1.422 3.844q-.562 0-1.031.328t-.656.843v.391q0 1.063.468 1.703.485.64 1.188.64.734 0 1.156-.53.422-.547.422-1.422t-.422-1.407q-.422-.546-1.125-.546m9.516 1.046q0 1.907-.656 2.844-.641.922-2.032.922-1.36 0-2.015-.906-.657-.906-.688-2.719v-1.437q0-1.891.64-2.797.657-.922 2.048-.922 1.375 0 2.03.89.657.875.673 2.72zm-1.094-1.484q0-1.375-.39-2-.376-.64-1.22-.64-.827 0-1.218.64-.375.625-.375 1.922v1.734q0 1.375.39 2.047.407.656 1.22.656.796 0 1.187-.625.39-.625.406-1.953zm8.094 1.484q0 1.907-.656 2.844-.641.922-2.032.922-1.36 0-2.015-.906-.657-.906-.688-2.719v-1.437q0-1.891.64-2.797.657-.922 2.048-.922 1.375 0 2.03.89.657.875.673 2.72zm-1.094-1.484q0-1.375-.39-2-.376-.64-1.22-.64-.827 0-1.218.64-.375.625-.375 1.922v1.734q0 1.375.39 2.047.407.656 1.22.656.796 0 1.187-.625.39-.625.406-1.953zm2.813 6.828-.61-.422q.547-.765.578-1.593v-.97h1.063v.845q0 .593-.297 1.187t-.734.953m7.28-5.344q0 1.907-.655 2.844-.641.922-2.032.922-1.36 0-2.015-.906-.657-.906-.688-2.719v-1.437q0-1.891.64-2.797.657-.922 2.048-.922 1.375 0 2.03.89.657.875.673 2.72zm-1.093-1.484q0-1.375-.39-2-.376-.64-1.22-.64-.827 0-1.218.64-.375.625-.375 1.922v1.734q0 1.375.39 2.047.407.656 1.22.656.796 0 1.187-.625.39-.625.406-1.953zm8.094 1.484q0 1.907-.656 2.844-.641.922-2.032.922-1.36 0-2.015-.906-.657-.906-.688-2.719v-1.437q0-1.891.64-2.797.657-.922 2.048-.922 1.375 0 2.03.89.657.875.673 2.72zm-1.094-1.484q0-1.375-.39-2-.376-.64-1.22-.64-.827 0-1.218.64-.375.625-.375 1.922v1.734q0 1.375.39 2.047.407.656 1.22.656.796 0 1.187-.625.39-.625.406-1.953zm8.094 1.484q0 1.907-.656 2.844-.641.922-2.032.922-1.36 0-2.015-.906-.657-.906-.688-2.719v-1.437q0-1.891.64-2.797.657-.922 2.048-.922 1.375 0 2.03.89.657.875.673 2.72zm-1.094-1.484q0-1.375-.39-2-.376-.64-1.22-.64-.827 0-1.218.64-.375.625-.375 1.922v1.734q0 1.375.39 2.047.407.656 1.22.656.796 0 1.187-.625.39-.625.406-1.953zm25.874-2.797-3.532 7.922h-1.14l3.515-7.64h-4.61v-.891h5.767zm6.843 4.281q0 1.907-.656 2.844-.64.922-2.031.922-1.36 0-2.016-.906t-.687-2.719v-1.437q0-1.891.64-2.797.656-.922 2.047-.922 1.375 0 2.031.89.657.875.672 2.72zm-1.094-1.484q0-1.375-.39-2-.375-.64-1.219-.64-.828 0-1.219.64-.375.625-.375 1.922v1.734q0 1.375.391 2.047.406.656 1.219.656.797 0 1.187-.625t.406-1.953zm8.094 1.484q0 1.907-.656 2.844-.64.922-2.031.922-1.36 0-2.016-.906t-.687-2.719v-1.437q0-1.891.64-2.797.656-.922 2.047-.922 1.375 0 2.031.89.657.875.672 2.72zm-1.094-1.484q0-1.375-.39-2-.375-.64-1.219-.64-.828 0-1.219.64-.375.625-.375 1.922v1.734q0 1.375.391 2.047.406.656 1.219.656.797 0 1.187-.625t.406-1.953zm2.813 6.828-.61-.422q.548-.765.579-1.593v-.97h1.062v.845q0 .593-.297 1.187-.296.594-.734.953m7.281-5.344q0 1.907-.656 2.844-.64.922-2.031.922-1.36 0-2.016-.906t-.687-2.719v-1.437q0-1.891.64-2.797.656-.922 2.047-.922 1.375 0 2.031.89.657.875.672 2.72zm-1.094-1.484q0-1.375-.39-2-.375-.64-1.219-.64-.828 0-1.219.64-.375.625-.375 1.922v1.734q0 1.375.391 2.047.406.656 1.219.656.797 0 1.187-.625t.406-1.953zm8.094 1.484q0 1.907-.656 2.844-.64.922-2.031.922-1.36 0-2.016-.906t-.687-2.719v-1.437q0-1.891.64-2.797.656-.922 2.047-.922 1.375 0 2.031.89.657.875.672 2.72zm-1.094-1.484q0-1.375-.39-2-.375-.64-1.219-.64-.828 0-1.219.64-.375.625-.375 1.922v1.734q0 1.375.391 2.047.406.656 1.219.656.797 0 1.187-.625t.406-1.953zm8.094 1.484q0 1.907-.656 2.844-.64.922-2.031.922-1.36 0-2.016-.906t-.687-2.719v-1.437q0-1.891.64-2.797.656-.922 2.047-.922 1.375 0 2.031.89.657.875.672 2.72zm-1.094-1.484q0-1.375-.39-2-.375-.64-1.219-.64-.828 0-1.219.64-.375.625-.375 1.922v1.734q0 1.375.391 2.047.406.656 1.219.656.797 0 1.187-.625t.406-1.953zm25.546-1.187q0 .64-.344 1.14t-.906.781q.656.282 1.047.844.39.547.39 1.25 0 1.094-.75 1.766-.734.656-1.953.656-1.234 0-1.984-.656-.734-.672-.734-1.766 0-.703.375-1.25.375-.562 1.046-.844-.562-.28-.89-.78t-.328-1.141q0-1.079.687-1.704.688-.64 1.828-.64 1.125 0 1.813.64.703.625.703 1.704m-.89 3.984q0-.719-.454-1.156-.453-.453-1.187-.453-.735 0-1.188.453-.437.437-.437 1.172 0 .718.437 1.14.438.406 1.203.406.75 0 1.188-.421.437-.422.437-1.141m-1.626-5.438q-.64 0-1.047.407-.39.39-.39 1.078 0 .64.39 1.047.391.406 1.032.406.656 0 1.047-.406t.39-1.047q0-.656-.406-1.063-.406-.422-1.016-.422m9.688 4.125q0 1.907-.656 2.844-.641.922-2.032.922-1.36 0-2.015-.906-.657-.906-.688-2.719v-1.437q0-1.891.64-2.797.657-.922 2.048-.922 1.375 0 2.03.89.657.875.673 2.72zm-1.094-1.484q0-1.375-.39-2-.376-.64-1.22-.64-.827 0-1.218.64-.375.625-.375 1.922v1.734q0 1.375.39 2.047.407.656 1.22.656.796 0 1.187-.625.39-.625.406-1.953zm8.094 1.484q0 1.907-.656 2.844-.641.922-2.032.922-1.36 0-2.015-.906-.657-.906-.688-2.719v-1.437q0-1.891.64-2.797.657-.922 2.048-.922 1.375 0 2.03.89.657.875.673 2.72zm-1.094-1.484q0-1.375-.39-2-.376-.64-1.22-.64-.827 0-1.218.64-.375.625-.375 1.922v1.734q0 1.375.39 2.047.407.656 1.22.656.796 0 1.187-.625.39-.625.406-1.953zm2.813 6.828-.61-.422q.547-.765.578-1.593v-.97h1.063v.845q0 .593-.297 1.187t-.734.953m7.28-5.344q0 1.907-.655 2.844-.641.922-2.032.922-1.36 0-2.015-.906-.657-.906-.688-2.719v-1.437q0-1.891.64-2.797.657-.922 2.048-.922 1.375 0 2.03.89.657.875.673 2.72zm-1.093-1.484q0-1.375-.39-2-.376-.64-1.22-.64-.827 0-1.218.64-.375.625-.375 1.922v1.734q0 1.375.39 2.047.407.656 1.22.656.796 0 1.187-.625.39-.625.406-1.953zm8.094 1.484q0 1.907-.656 2.844-.641.922-2.032.922-1.36 0-2.015-.906-.657-.906-.688-2.719v-1.437q0-1.891.64-2.797.657-.922 2.048-.922 1.375 0 2.03.89.657.875.673 2.72zm-1.094-1.484q0-1.375-.39-2-.376-.64-1.22-.64-.827 0-1.218.64-.375.625-.375 1.922v1.734q0 1.375.39 2.047.407.656 1.22.656.796 0 1.187-.625.39-.625.406-1.953zm8.094 1.484q0 1.907-.656 2.844-.641.922-2.032.922-1.36 0-2.015-.906-.657-.906-.688-2.719v-1.437q0-1.891.64-2.797.657-.922 2.048-.922 1.375 0 2.03.89.657.875.673 2.72zm-1.094-1.484q0-1.375-.39-2-.376-.64-1.22-.64-.827 0-1.218.64-.375.625-.375 1.922v1.734q0 1.375.39 2.047.407.656 1.22.656.796 0 1.187-.625.39-.625.406-1.953z"/><path stroke="#b7b7b7" stroke-linecap="butt" stroke-width="4" d="M596.41 75.543h12"/><path fill="#1a1a1a" d="M616.941 76.809q0-.922.36-1.672.375-.75 1.031-1.14.656-.407 1.484-.407 1.297 0 2.094.89.813.892.813 2.392v.078q0 .922-.36 1.656t-1.015 1.156q-.657.406-1.516.406-1.281 0-2.094-.89-.797-.906-.797-2.39zm1.094.14q0 1.048.485 1.688.5.64 1.312.64.828 0 1.313-.64.484-.656.484-1.828 0-1.031-.5-1.672-.484-.656-1.313-.656-.796 0-1.296.64-.485.626-.485 1.829m11.547 0q0 1.438-.656 2.329-.656.89-1.797.89-1.156 0-1.813-.734v3.047h-1.078V73.7h.985l.047.703q.671-.813 1.843-.813 1.14 0 1.797.86.672.859.672 2.39zm-1.078-.124q0-1.078-.469-1.688-.453-.625-1.25-.625-.984 0-1.469.86v3.03q.485.876 1.485.876.781 0 1.234-.61.469-.625.469-1.843m4.203-4.657V73.7h1.172v.843h-1.172v3.922q0 .39.156.578.157.188.532.188.187 0 .515-.063v.875q-.422.125-.828.125-.719 0-1.094-.437-.375-.453-.375-1.266v-3.922h-1.156V73.7h1.156v-1.532zm3.703 7.875h-1.078V73.7h1.078zm-1.172-8.015q0-.266.157-.453.171-.188.484-.188t.469.188q.172.187.172.453 0 .25-.172.437-.157.172-.47.172t-.483-.172q-.157-.187-.157-.437m4.016 1.672.031.703q.688-.813 1.875-.813 1.328 0 1.813 1.016.312-.453.812-.734.516-.282 1.203-.282 2.094 0 2.125 2.203v4.25h-1.078v-4.187q0-.672-.312-1-.313-.344-1.047-.344-.61 0-1.016.36-.39.359-.453.968v4.203h-1.078v-4.156q0-1.375-1.36-1.375-1.062 0-1.453.906v4.625h-1.093V73.7zm13.89 6.343q-.093-.187-.156-.671-.75.796-1.797.796-.937 0-1.546-.53-.594-.532-.594-1.36 0-.985.75-1.531.75-.547 2.125-.547h1.047v-.5q0-.563-.344-.891-.328-.344-1-.344-.578 0-.969.297-.39.281-.39.703h-1.094q0-.484.328-.922.344-.437.922-.687.578-.266 1.265-.266 1.11 0 1.72.547.624.547.655 1.5v2.922q0 .875.22 1.39v.094zm-1.796-.828q.515 0 .968-.265.454-.266.657-.688v-1.297h-.844q-2 0-2 1.172 0 .5.344.797.343.281.875.281m6.062.828h-1.078v-9h1.078z"/><path fill="#ea4335" d="M608.41 100.543a6 6 0 1 1-12 0 6 6 0 0 1 12 0"/><path fill="#1a1a1a" d="M620.3 99.668q-.25-.03-.53-.03-1.079 0-1.454.905v4.5h-1.078V98.7h1.047l.016.734q.531-.844 1.515-.844.313 0 .485.078zm2.11 5.375h-1.078V98.7h1.078zm-1.172-8.015q0-.266.157-.453.171-.188.484-.188t.469.188q.172.187.172.453 0 .25-.172.437-.157.172-.47.172t-.483-.172q-.157-.187-.157-.437m6.688 6.328q0-.438-.344-.672-.328-.25-1.156-.422-.813-.172-1.297-.422t-.719-.578q-.219-.344-.219-.812 0-.782.657-1.313.656-.547 1.687-.547 1.078 0 1.735.563.671.547.671 1.406h-1.078q0-.437-.39-.75-.375-.328-.938-.328-.594 0-.937.266-.328.25-.328.656 0 .39.312.594.313.203 1.125.39.813.172 1.313.422t.734.61q.25.359.25.859 0 .86-.688 1.375-.671.515-1.75.515-.765 0-1.359-.265-.578-.281-.906-.766-.328-.484-.328-1.047h1.078q.031.547.437.875.407.313 1.078.313.61 0 .985-.25t.375-.672m3.781-6.188V98.7h1.172v.843h-1.172v3.922q0 .39.156.578.157.188.532.188.187 0 .515-.063v.875q-.422.125-.828.125-.719 0-1.094-.437-.375-.453-.375-1.266v-3.922h-1.156V98.7h1.156v-1.532zm5.594 2.5q-.25-.03-.531-.03-1.079 0-1.454.905v4.5h-1.078V98.7h1.047l.016.734q.531-.844 1.515-.844.313 0 .485.078zm3.562 5.5q-1.297 0-2.11-.843-.796-.86-.796-2.282v-.187q0-.953.36-1.688.359-.75 1-1.156.656-.422 1.406-.422 1.234 0 1.922.813t.687 2.328v.453h-4.297q.031.938.547 1.516.531.578 1.344.578.562 0 .953-.235.406-.234.719-.625l.656.516q-.797 1.234-2.39 1.234m-.14-5.687q-.657 0-1.11.484-.437.469-.531 1.328h3.172v-.078q-.047-.828-.453-1.281-.39-.453-1.078-.453m4.984-2.313V98.7h1.172v.843h-1.172v3.922q0 .39.156.578.157.188.532.188.187 0 .515-.063v.875q-.422.125-.828.125-.719 0-1.094-.437-.375-.453-.375-1.266v-3.922h-1.156V98.7h1.156v-1.532zm4 0V98.7h1.172v.843h-1.172v3.922q0 .39.156.578.157.188.532.188.187 0 .515-.063v.875q-.422.125-.828.125-.719 0-1.094-.437-.375-.453-.375-1.266v-3.922h-1.156V98.7h1.156v-1.532zm2.234 4.641q0-.922.36-1.672.375-.75 1.031-1.14.656-.407 1.484-.407 1.297 0 2.094.89.813.892.813 2.392v.078q0 .922-.36 1.656t-1.015 1.156q-.657.406-1.516.406-1.281 0-2.094-.89-.797-.906-.797-2.39zm1.094.14q0 1.048.485 1.688.5.64 1.312.64.828 0 1.313-.64.484-.656.484-1.828 0-1.031-.5-1.672-.484-.656-1.313-.656-.796 0-1.296.64-.485.626-.485 1.829"/><path fill="#fbbc04" d="M608.41 125.543a6 6 0 1 1-12 0 6 6 0 0 1 12 0"/><path fill="#1a1a1a" d="M622.598 126.95q0 1.453-.672 2.343-.656.875-1.781.875-1.204 0-1.86-.859l-.062.734h-.985v-9h1.078v3.36q.657-.813 1.813-.813t1.812.875q.657.86.657 2.39zm-1.078-.125q0-1.11-.438-1.703-.422-.61-1.219-.61-1.078 0-1.547.985v2.75q.5 1 1.547 1 .782 0 1.219-.61t.438-1.812m3.89 3.218h-1.078V123.7h1.078zm-1.172-8.015q0-.266.157-.453.171-.188.484-.188t.469.188q.172.187.172.453 0 .25-.172.437-.157.172-.47.172t-.483-.172q-.157-.187-.157-.437m2.735 4.797q0-1.485.687-2.36t1.813-.875q1.156 0 1.812.813l.047-.703h1v6.187q0 1.235-.734 1.938-.735.718-1.953.718-.688 0-1.344-.296-.656-.297-1-.797l.562-.657q.688.86 1.703.86.782 0 1.22-.453.452-.438.452-1.25v-.547q-.656.765-1.781.765-1.11 0-1.797-.89-.687-.906-.687-2.453m1.093.125q0 1.062.438 1.687.437.61 1.234.61 1.016 0 1.5-.938v-2.89q-.5-.907-1.5-.907-.781 0-1.234.61-.438.609-.438 1.828m8.704 2.328q.578 0 1.015-.344.438-.36.485-.89h1.03q-.03.546-.39 1.046-.344.485-.922.782-.562.296-1.218.296-1.297 0-2.063-.859-.75-.875-.75-2.375v-.187q0-.922.328-1.641.344-.719.969-1.11.64-.406 1.516-.406 1.062 0 1.765.64.719.626.766 1.657h-1.031q-.047-.625-.47-1.015-.421-.391-1.03-.391-.829 0-1.282.594-.453.593-.453 1.718v.204q0 1.093.453 1.687t1.282.594m7.375.765q-.094-.187-.157-.671-.75.796-1.797.796-.937 0-1.546-.53-.594-.532-.594-1.36 0-.985.75-1.531.75-.547 2.125-.547h1.047v-.5q0-.563-.344-.891-.328-.344-1-.344-.578 0-.969.297-.39.281-.39.703h-1.094q0-.484.328-.922.344-.437.922-.687.578-.266 1.265-.266 1.11 0 1.72.547.624.547.655 1.5v2.922q0 .875.22 1.39v.094zm-1.797-.828q.515 0 .968-.265.454-.266.657-.688v-1.297h-.844q-2 0-2 1.172 0 .5.344.797.343.281.875.281m7.422.063q.578 0 1.015-.344.438-.36.485-.89h1.03q-.03.546-.39 1.046-.344.485-.922.782-.562.296-1.218.296-1.297 0-2.063-.859-.75-.875-.75-2.375v-.187q0-.922.328-1.641.344-.719.969-1.11.64-.406 1.516-.406 1.062 0 1.765.64.719.626.766 1.657h-1.031q-.047-.625-.47-1.015-.421-.391-1.03-.391-.829 0-1.282.594-.453.593-.453 1.718v.204q0 1.093.453 1.687t1.282.594m4.546-4.813q.72-.875 1.875-.875 2.016 0 2.032 2.266v4.187h-1.094v-4.203q0-.672-.313-1-.296-.328-.953-.328-.531 0-.937.281-.39.282-.61.735v4.515h-1.078v-9h1.078zm8.547 5.703q-1.297 0-2.11-.843-.796-.86-.796-2.282v-.187q0-.953.36-1.688.359-.75 1-1.156.656-.422 1.406-.422 1.234 0 1.922.813t.687 2.328v.453h-4.297q.031.938.547 1.516.531.578 1.344.578.562 0 .953-.235.406-.234.719-.625l.656.516q-.797 1.234-2.39 1.234m-.14-5.687q-.657 0-1.11.484-.437.469-.531 1.328h3.172v-.078q-.047-.828-.453-1.281-.39-.453-1.078-.453"/><path fill="#90f" d="M608.41 150.543a6 6 0 1 1-12 0 6 6 0 0 1 12 0"/><path fill="#1a1a1a" d="M617.77 155.043v-5.5h-1v-.843h1v-.641q0-1.031.53-1.578.548-.563 1.548-.563.375 0 .75.094l-.063.89q-.281-.062-.578-.062-.531 0-.828.313-.281.312-.281.875v.672h1.359v.843h-1.36v5.5zm6.53-5.375q-.25-.03-.53-.03-1.079 0-1.454.905v4.5h-1.078V148.7h1.047l.016.734q.531-.844 1.515-.844.313 0 .485.078zm3.563 5.5q-1.297 0-2.11-.843-.796-.86-.796-2.282v-.187q0-.953.36-1.688.359-.75 1-1.156.656-.422 1.406-.422 1.234 0 1.922.813t.687 2.328v.453h-4.297q.031.938.547 1.516.531.578 1.344.578.562 0 .953-.235.406-.234.719-.625l.656.516q-.797 1.234-2.39 1.234m-.14-5.687q-.657 0-1.11.484-.437.469-.531 1.328h3.172v-.078q-.047-.828-.453-1.281-.39-.453-1.078-.453m6.14 5.687q-1.297 0-2.11-.843-.796-.86-.796-2.282v-.187q0-.953.36-1.688.359-.75 1-1.156.656-.422 1.406-.422 1.234 0 1.922.813t.687 2.328v.453h-4.297q.031.938.547 1.516.531.578 1.344.578.562 0 .953-.235.406-.234.719-.625l.656.516q-.797 1.234-2.39 1.234m-.14-5.687q-.657 0-1.11.484-.437.469-.531 1.328h3.172v-.078q-.047-.828-.453-1.281-.39-.453-1.078-.453m6.047 4.797q.578 0 1.015-.344.438-.36.485-.89h1.03q-.03.546-.39 1.046-.344.485-.922.782-.562.296-1.218.296-1.297 0-2.063-.859-.75-.875-.75-2.375v-.187q0-.922.328-1.641.344-.719.969-1.11.64-.406 1.516-.406 1.062 0 1.765.64.719.626.766 1.657h-1.031q-.047-.625-.47-1.015-.421-.391-1.03-.391-.829 0-1.282.594-.453.593-.453 1.718v.204q0 1.093.453 1.687t1.282.594m7.375.765q-.094-.187-.157-.671-.75.796-1.797.796-.937 0-1.546-.53-.594-.532-.594-1.36 0-.985.75-1.531.75-.547 2.125-.547h1.047v-.5q0-.563-.344-.891-.328-.344-1-.344-.578 0-.969.297-.39.281-.39.703h-1.094q0-.484.328-.922.344-.437.922-.687.578-.266 1.265-.266 1.11 0 1.72.547.624.547.655 1.5v2.922q0 .875.22 1.39v.094zm-1.797-.828q.515 0 .968-.265.454-.266.657-.688v-1.297h-.844q-2 0-2 1.172 0 .5.344.797.343.281.875.281m7.422.063q.578 0 1.015-.344.438-.36.485-.89h1.03q-.03.546-.39 1.046-.344.485-.922.782-.562.296-1.218.296-1.297 0-2.063-.859-.75-.875-.75-2.375v-.187q0-.922.328-1.641.344-.719.969-1.11.64-.406 1.516-.406 1.062 0 1.765.64.719.626.766 1.657h-1.031q-.047-.625-.47-1.015-.421-.391-1.03-.391-.829 0-1.282.594-.453.593-.453 1.718v.204q0 1.093.453 1.687t1.282.594m4.546-4.813q.72-.875 1.875-.875 2.016 0 2.032 2.266v4.187h-1.094v-4.203q0-.672-.313-1-.296-.328-.953-.328-.531 0-.937.281-.39.282-.61.735v4.515h-1.078v-9h1.078zm8.547 5.703q-1.297 0-2.11-.843-.796-.86-.796-2.282v-.187q0-.953.36-1.688.359-.75 1-1.156.656-.422 1.406-.422 1.234 0 1.922.813t.687 2.328v.453h-4.297q.031.938.547 1.516.531.578 1.344.578.562 0 .953-.235.406-.234.719-.625l.656.516q-.797 1.234-2.39 1.234m-.14-5.687q-.657 0-1.11.484-.437.469-.531 1.328h3.172v-.078q-.047-.828-.453-1.281-.39-.453-1.078-.453"/><path fill="#ff6d01" d="M608.41 175.543a6 6 0 1 1-12 0 6 6 0 0 1 12 0"/><path fill="#1a1a1a" d="M617.77 180.043v-5.5h-1v-.843h1v-.641q0-1.031.53-1.578.548-.563 1.548-.563.375 0 .75.094l-.063.89q-.281-.062-.578-.062-.531 0-.828.313-.281.312-.281.875v.672h1.359v.843h-1.36v5.5zm7.375 0q-.094-.187-.157-.671-.75.796-1.797.796-.937 0-1.546-.53-.594-.532-.594-1.36 0-.985.75-1.531.75-.547 2.125-.547h1.047v-.5q0-.563-.344-.891-.328-.344-1-.344-.578 0-.969.297-.39.281-.39.703h-1.094q0-.484.328-.922.344-.437.922-.687.578-.266 1.265-.266 1.11 0 1.72.547.624.547.655 1.5v2.922q0 .875.22 1.39v.094zm-1.797-.828q.515 0 .968-.265.454-.266.657-.688v-1.297h-.844q-2 0-2 1.172 0 .5.344.797.343.281.875.281m8.578-.86q0-.437-.344-.671-.328-.25-1.156-.422-.813-.172-1.297-.422t-.719-.578q-.219-.344-.219-.812 0-.782.657-1.313.656-.547 1.687-.547 1.078 0 1.735.563.671.547.671 1.406h-1.078q0-.437-.39-.75-.375-.328-.938-.328-.594 0-.937.266-.328.25-.328.656 0 .39.312.594.313.203 1.125.39.813.172 1.313.422t.734.61q.25.359.25.859 0 .86-.688 1.375-.671.515-1.75.515-.765 0-1.359-.265-.578-.281-.906-.766-.328-.484-.328-1.047h1.078q.031.547.437.875.407.313 1.078.313.61 0 .985-.25t.375-.672m3.781-6.187v1.532h1.172v.843h-1.172v3.922q0 .39.156.578.157.188.532.188.187 0 .515-.063v.875q-.422.125-.828.125-.719 0-1.094-.437-.375-.453-.375-1.266v-3.922h-1.156v-.843h1.156v-1.532zm5.063 7.11q.578 0 1.015-.344.438-.36.485-.89h1.03q-.03.546-.39 1.046-.344.485-.922.782-.562.296-1.218.296-1.297 0-2.063-.859-.75-.875-.75-2.375v-.187q0-.922.328-1.641.344-.719.969-1.11.64-.406 1.516-.406 1.062 0 1.765.64.719.626.766 1.657h-1.031q-.047-.625-.47-1.015-.421-.391-1.03-.391-.829 0-1.282.594-.453.593-.453 1.718v.204q0 1.093.453 1.687t1.282.594m7.375.765q-.094-.187-.157-.671-.75.796-1.797.796-.937 0-1.546-.53-.594-.532-.594-1.36 0-.985.75-1.531.75-.547 2.125-.547h1.047v-.5q0-.563-.344-.891-.328-.344-1-.344-.578 0-.969.297-.39.281-.39.703h-1.094q0-.484.328-.922.344-.437.922-.687.578-.266 1.265-.266 1.11 0 1.72.547.624.547.655 1.5v2.922q0 .875.22 1.39v.094zm-1.797-.828q.515 0 .968-.265.454-.266.657-.688v-1.297h-.844q-2 0-2 1.172 0 .5.344.797.343.281.875.281m7.422.063q.578 0 1.015-.344.438-.36.485-.89h1.03q-.03.546-.39 1.046-.344.485-.922.782-.562.296-1.218.296-1.297 0-2.063-.859-.75-.875-.75-2.375v-.187q0-.922.328-1.641.344-.719.969-1.11.64-.406 1.516-.406 1.062 0 1.765.64.719.626.766 1.657h-1.031q-.047-.625-.47-1.015-.421-.391-1.03-.391-.829 0-1.282.594-.453.593-.453 1.718v.204q0 1.093.453 1.687t1.282.594m4.546-4.813q.72-.875 1.875-.875 2.016 0 2.032 2.266v4.187h-1.094v-4.203q0-.672-.313-1-.296-.328-.953-.328-.531 0-.937.281-.39.282-.61.735v4.515h-1.078v-9h1.078zm8.547 5.703q-1.297 0-2.11-.843-.796-.86-.796-2.282v-.187q0-.953.36-1.688.359-.75 1-1.156.656-.422 1.406-.422 1.234 0 1.922.813t.687 2.328v.453h-4.297q.031.938.547 1.516.531.578 1.344.578.562 0 .953-.235.406-.234.719-.625l.656.516q-.797 1.234-2.39 1.234m-.14-5.687q-.657 0-1.11.484-.437.469-.531 1.328h3.172v-.078q-.047-.828-.453-1.281-.39-.453-1.078-.453"/><path fill="#46bdc6" d="M608.41 200.543a6 6 0 1 1-12 0 6 6 0 0 1 12 0"/><path fill="#1a1a1a" d="M616.973 201.825q0-1.485.687-2.36t1.813-.875q1.156 0 1.812.813l.047-.703h1v6.187q0 1.235-.734 1.938-.735.718-1.953.718-.688 0-1.344-.296-.656-.297-1-.797l.562-.657q.688.86 1.703.86.782 0 1.22-.453.452-.438.452-1.25v-.547q-.656.765-1.781.765-1.11 0-1.797-.89-.687-.906-.687-2.453m1.093.125q0 1.062.438 1.687.437.61 1.234.61 1.016 0 1.5-.938v-2.89q-.5-.907-1.5-.907-.781 0-1.234.61-.438.609-.438 1.828m5.875-.141q0-.922.36-1.672.375-.75 1.031-1.14.656-.407 1.484-.407 1.297 0 2.094.89.813.892.813 2.392v.078q0 .922-.36 1.656t-1.015 1.156q-.657.406-1.516.406-1.281 0-2.094-.89-.797-.906-.797-2.39zm1.094.14q0 1.048.485 1.688.5.64 1.312.64.828 0 1.313-.64.484-.656.484-1.828 0-1.031-.5-1.672-.484-.656-1.313-.656-.796 0-1.296.64-.485.626-.485 1.829m11.563 0q0 1.454-.672 2.344-.656.875-1.781.875-1.204 0-1.86-.859l-.062.734h-.985v-9h1.078v3.36q.657-.813 1.813-.813t1.812.875q.657.86.657 2.39zm-1.078-.124q0-1.11-.438-1.703-.422-.61-1.219-.61-1.078 0-1.547.985v2.75q.5 1 1.547 1 .782 0 1.219-.61t.438-1.812m6.625 2.593q-.625.75-1.86.75-1.015 0-1.547-.593-.531-.594-.531-1.75V198.7h1.078v4.093q0 1.454 1.172 1.454 1.25 0 1.656-.938v-4.61h1.094v6.344h-1.031zm6.156-4.75q-.25-.03-.531-.03-1.079 0-1.454.905v4.5h-1.078V198.7h1.047l.016.734q.531-.844 1.515-.844.313 0 .485.078zm4 0q-.25-.03-.531-.03-1.079 0-1.454.905v4.5h-1.078V198.7h1.047l.016.734q.531-.844 1.515-.844.313 0 .485.078zm.64 2.141q0-.922.36-1.672.375-.75 1.031-1.14.656-.407 1.484-.407 1.297 0 2.094.89.813.892.813 2.392v.078q0 .922-.36 1.656t-1.015 1.156q-.657.406-1.516.406-1.281 0-2.094-.89-.797-.906-.797-2.39zm1.094.14q0 1.048.485 1.688.5.64 1.312.64.828 0 1.313-.64.484-.656.484-1.828 0-1.031-.5-1.672-.484-.656-1.313-.656-.796 0-1.296.64-.485.626-.485 1.829m11.813 1.594 1.218-4.843h1.079l-1.844 6.343h-.875l-1.547-4.812-1.5 4.812h-.875l-1.844-6.343h1.078l1.25 4.75 1.485-4.75h.859z"/><path fill="#38761d" d="M608.41 225.543a6 6 0 1 1-12 0 6 6 0 0 1 12 0"/><path fill="#1a1a1a" d="M616.973 226.825q0-1.485.687-2.36t1.813-.875q1.156 0 1.812.813l.047-.703h1v6.187q0 1.235-.734 1.938-.735.718-1.953.718-.688 0-1.344-.296-.656-.297-1-.797l.562-.657q.688.86 1.703.86.782 0 1.22-.453.452-.438.452-1.25v-.547q-.656.765-1.781.765-1.11 0-1.797-.89-.687-.906-.687-2.453m1.093.125q0 1.062.438 1.687.437.61 1.234.61 1.016 0 1.5-.938v-2.89q-.5-.907-1.5-.907-.781 0-1.234.61-.438.609-.438 1.828m9.235-2.282q-.25-.03-.531-.03-1.079 0-1.454.905v4.5h-1.078V223.7h1.047l.016.734q.531-.844 1.515-.844.313 0 .485.078zm.64 2.141q0-.922.36-1.672.375-.75 1.031-1.14.656-.407 1.484-.407 1.297 0 2.094.89.813.892.813 2.392v.078q0 .922-.36 1.656t-1.015 1.156q-.657.406-1.516.406-1.281 0-2.094-.89-.797-.906-.797-2.39zm1.094.14q0 1.048.485 1.688.5.64 1.312.64.828 0 1.313-.64.484-.656.484-1.828 0-1.031-.5-1.672-.484-.656-1.313-.656-.796 0-1.296.64-.485.626-.485 1.829m10.11 2.47q-.625.75-1.86.75-1.015 0-1.547-.594-.531-.594-.531-1.75V223.7h1.078v4.093q0 1.454 1.172 1.454 1.25 0 1.656-.938v-4.61h1.094v6.344h-1.031zm8.437-2.47q0 1.438-.656 2.329-.656.89-1.797.89-1.156 0-1.813-.734v3.047h-1.078V223.7h.985l.047.703q.671-.813 1.843-.813 1.14 0 1.797.86.672.859.672 2.39zm-1.078-.124q0-1.078-.469-1.688-.453-.625-1.25-.625-.984 0-1.469.86v3.03q.485.876 1.485.876.781 0 1.234-.61.469-.625.469-1.843m5.266 2.453q.578 0 1.015-.344.438-.36.485-.89h1.03q-.03.546-.39 1.046-.344.485-.922.782-.562.296-1.218.296-1.297 0-2.063-.859-.75-.875-.75-2.375v-.187q0-.922.328-1.641.344-.719.969-1.11.64-.406 1.516-.406 1.062 0 1.765.64.719.626.766 1.657h-1.031q-.047-.625-.47-1.015-.421-.391-1.03-.391-.829 0-1.282.594-.453.593-.453 1.718v.204q0 1.093.453 1.687t1.282.594m7.375.765q-.094-.187-.157-.671-.75.796-1.797.796-.937 0-1.546-.53-.594-.532-.594-1.36 0-.985.75-1.531.75-.547 2.125-.547h1.047v-.5q0-.563-.344-.891-.328-.344-1-.344-.578 0-.969.297-.39.281-.39.703h-1.094q0-.484.328-.922.344-.437.922-.687.578-.266 1.265-.266 1.11 0 1.72.547.624.547.655 1.5v2.922q0 .875.22 1.39v.094zm-1.797-.828q.515 0 .968-.265.454-.266.657-.688v-1.297h-.844q-2 0-2 1.172 0 .5.344.797.343.281.875.281m7.422.063q.578 0 1.015-.344.438-.36.485-.89h1.03q-.03.546-.39 1.046-.344.485-.922.782-.562.296-1.218.296-1.297 0-2.063-.859-.75-.875-.75-2.375v-.187q0-.922.328-1.641.344-.719.969-1.11.64-.406 1.516-.406 1.062 0 1.765.64.719.626.766 1.657h-1.031q-.047-.625-.47-1.015-.421-.391-1.03-.391-.829 0-1.282.594-.453.593-.453 1.718v.204q0 1.093.453 1.687t1.282.594m4.546-4.813q.72-.875 1.875-.875 2.016 0 2.032 2.266v4.187h-1.094v-4.203q0-.672-.313-1-.296-.328-.953-.328-.531 0-.937.281-.39.282-.61.735v4.515h-1.078v-9h1.078zm8.547 5.703q-1.297 0-2.11-.843-.796-.86-.796-2.282v-.187q0-.953.36-1.688.359-.75 1-1.156.656-.422 1.406-.422 1.234 0 1.922.813t.687 2.328v.453h-4.297q.031.938.547 1.516.531.578 1.344.578.562 0 .953-.235.406-.234.719-.625l.656.516q-.797 1.234-2.39 1.234m-.14-5.687q-.657 0-1.11.484-.437.469-.531 1.328h3.172v-.078q-.047-.828-.453-1.281-.39-.453-1.078-.453"/><path fill="#757575" d="M33.3 41.606h-1.89v-6.578h-7.156v6.578h-1.875V27.387h1.875v6.11h7.156v-6.11h1.89zm4.75 0h-1.796V31.044h1.797zm-1.952-13.375q0-.437.265-.734.282-.313.797-.313.531 0 .797.313.281.297.281.734 0 .438-.28.735-.267.296-.798.296-.515 0-.797-.296-.265-.297-.265-.735m7.437.25v2.563h1.985v1.39h-1.985v6.547q0 .64.266.969.265.312.906.312.313 0 .86-.125v1.47q-.72.202-1.391.202-1.203 0-1.828-.734-.61-.734-.61-2.094v-6.547h-1.922v-1.39h1.922V28.48zm15.047 7.375h-3.328v5.75h-1.89V27.387h4.702q2.407 0 3.704 1.094 1.296 1.094 1.296 3.188 0 1.328-.718 2.312-.719.985-2 1.469l3.343 6.031v.125h-2.015zm-3.328-1.531h2.875q1.39 0 2.219-.719.828-.734.828-1.937 0-1.328-.797-2.032-.781-.703-2.266-.703h-2.859zm16.36 7.281q-.157-.312-.25-1.11-1.266 1.313-3.016 1.313-1.563 0-2.563-.89-1-.891-1-2.25 0-1.641 1.25-2.547 1.266-.922 3.531-.922h1.766v-.828q0-.953-.578-1.516-.563-.562-1.656-.562-.969 0-1.625.5-.657.484-.657 1.172h-1.812q0-.782.562-1.516.563-.75 1.516-1.172.969-.437 2.125-.437 1.828 0 2.86.921 1.03.907 1.078 2.516v4.86q0 1.453.359 2.312v.156zm-3-1.375q.859 0 1.609-.437.765-.438 1.11-1.141v-2.172H69.91q-3.312 0-3.312 1.938 0 .859.562 1.343.563.47 1.453.47m9.921-11.75v2.563h1.985v1.39h-1.985v6.547q0 .64.266.969.265.312.906.312.313 0 .86-.125v1.47q-.72.202-1.391.202-1.203 0-1.828-.734-.61-.734-.61-2.094v-6.547h-1.922v-1.39h1.922V28.48zm6.516 13.125h-1.797V31.044h1.797zm-1.953-13.375q0-.437.265-.734.282-.313.797-.313.531 0 .797.313.281.297.281.734 0 .438-.28.735-.267.296-.798.296-.515 0-.797-.296-.265-.297-.265-.735m4.515 8q0-1.562.61-2.797.61-1.25 1.687-1.922 1.094-.671 2.5-.671 2.156 0 3.485 1.5 1.343 1.484 1.343 3.968v.125q0 1.547-.593 2.782-.594 1.218-1.704 1.906-1.093.687-2.515.687-2.14 0-3.485-1.5-1.328-1.5-1.328-3.953zm1.813.203q0 1.766.812 2.828.828 1.063 2.188 1.063 1.375 0 2.187-1.078.813-1.078.813-3.016 0-1.75-.828-2.828t-2.188-1.078q-1.344 0-2.172 1.062-.812 1.063-.812 3.047m15.812 2.375q0-.734-.547-1.14-.546-.407-1.921-.703-1.375-.297-2.188-.704-.797-.406-1.187-.968-.375-.578-.375-1.36 0-1.297 1.093-2.187 1.094-.906 2.813-.906 1.797 0 2.906.937 1.125.922 1.125 2.36h-1.828q0-.735-.625-1.266-.625-.547-1.578-.547-1 0-1.563.437-.547.422-.547 1.125 0 .641.516.985.516.328 1.875.64 1.36.297 2.188.72.843.405 1.25 1 .406.593.406 1.437 0 1.422-1.14 2.28-1.126.86-2.938.86-1.266 0-2.25-.453-.969-.453-1.532-1.25-.546-.812-.546-1.75h1.812q.047.906.719 1.438.687.53 1.797.53 1.031 0 1.64-.405.625-.422.625-1.11m12.61-2.5h-4.766v-1.484h4.766zm11.718-1.047q-2.421-.687-3.515-1.687-1.094-1.016-1.094-2.5 0-1.688 1.344-2.781 1.344-1.11 3.484-1.11 1.469 0 2.61.578 1.156.563 1.78 1.563.626.984.626 2.172h-1.875q0-1.281-.828-2.016-.813-.75-2.313-.75-1.39 0-2.172.61-.765.609-.765 1.703 0 .859.734 1.468.734.594 2.5 1.094 1.781.5 2.781 1.11 1 .593 1.485 1.39.484.797.484 1.89 0 1.72-1.344 2.766-1.343 1.047-3.609 1.047-1.453 0-2.734-.562-1.266-.563-1.954-1.531-.687-.985-.687-2.235h1.89q0 1.297.954 2.047.953.734 2.531.734 1.484 0 2.281-.593.797-.61.797-1.657 0-1.046-.734-1.609-.735-.578-2.657-1.14m11.907 6.547q-2.14 0-3.5-1.406-1.344-1.422-1.344-3.781v-.344q0-1.562.594-2.797.61-1.234 1.687-1.937 1.078-.703 2.344-.703 2.063 0 3.203 1.359 1.14 1.36 1.14 3.89v.75h-7.156q.032 1.563.907 2.532.875.953 2.218.953.97 0 1.625-.39.672-.391 1.172-1.032l1.094.86q-1.328 2.046-3.984 2.046m-.219-9.484q-1.094 0-1.844.797-.734.797-.906 2.234h5.281v-.14q-.078-1.375-.75-2.125-.656-.766-1.781-.766m13.36 9.281q-.157-.312-.25-1.11-1.266 1.313-3.016 1.313-1.563 0-2.563-.89-1-.891-1-2.25 0-1.641 1.25-2.547 1.266-.922 3.531-.922h1.766v-.828q0-.953-.578-1.516-.562-.562-1.656-.562-.969 0-1.625.5-.657.484-.657 1.172h-1.812q0-.782.563-1.516.562-.75 1.515-1.172.969-.437 2.125-.437 1.828 0 2.86.921 1.03.907 1.078 2.516v4.86q0 1.453.359 2.312v.156zm-3-1.375q.859 0 1.609-.437.765-.438 1.11-1.141v-2.172h-1.423q-3.312 0-3.312 1.938 0 .859.562 1.343.563.47 1.453.47m12.577-7.578q-.406-.062-.875-.062-1.78 0-2.421 1.515v7.5h-1.797V31.044h1.75l.031 1.218q.89-1.421 2.516-1.421.53 0 .796.14zm6.141 7.672q.969 0 1.688-.578.718-.594.796-1.469h1.72q-.063.906-.641 1.734-.563.813-1.532 1.313-.953.484-2.03.484-2.157 0-3.438-1.437-1.266-1.453-1.266-3.953v-.297q0-1.547.563-2.75t1.624-1.86q1.063-.671 2.5-.671 1.782 0 2.954 1.062 1.187 1.063 1.265 2.766h-1.719q-.078-1.016-.78-1.672-.688-.672-1.72-.672-1.375 0-2.14 1-.75.984-.75 2.86v.343q0 1.828.75 2.813.75.984 2.156.984m7.563-8q1.203-1.484 3.125-1.484 3.359 0 3.375 3.78v6.985h-1.797v-7q-.016-1.14-.532-1.687-.5-.547-1.593-.547-.875 0-1.547.469-.656.468-1.031 1.234v7.531h-1.797v-15h1.797zm14.125 3.516q0-2.22.593-4.25.594-2.032 1.766-3.688t2.422-2.344l.375 1.188q-1.422 1.094-2.344 3.344-.906 2.25-1 5.03v.829q0 3.766 1.375 6.547.828 1.656 1.969 2.594L196.8 46.2q-1.297-.719-2.469-2.422-2.312-3.328-2.312-7.937m15.203 2.046h-5.953l-1.344 3.72h-1.922l5.422-14.22h1.64l5.438 14.22h-1.922zm-5.39-1.53h4.843l-2.422-6.657zm15.75-.5h-3.329v5.75h-1.89v-14.22h4.702q2.407 0 3.704 1.094 1.296 1.094 1.296 3.188 0 1.328-.718 2.312-.719.985-2 1.469l3.343 6.031v.125h-2.015zm-3.329-1.532h2.875q1.39 0 2.219-.719.828-.734.828-1.937 0-1.328-.797-2.032-.781-.703-2.266-.703h-2.859zm20.578 2.766q-.266 2.265-1.672 3.5-1.39 1.218-3.719 1.218-2.515 0-4.046-1.812-1.516-1.813-1.516-4.844v-1.36q0-1.984.703-3.484.719-1.5 2.016-2.312 1.297-.813 3.015-.813 2.266 0 3.625 1.266 1.375 1.266 1.594 3.5h-1.89q-.235-1.688-1.063-2.453-.812-.766-2.266-.766-1.797 0-2.828 1.328-1.015 1.328-1.015 3.782v1.375q0 2.312.968 3.687.97 1.36 2.703 1.36 1.563 0 2.391-.704.844-.703 1.11-2.468zm6.016-.782h-4.766v-1.484h4.766zm6.718-1.047q-2.421-.687-3.515-1.687-1.094-1.016-1.094-2.5 0-1.688 1.344-2.781 1.344-1.11 3.484-1.11 1.469 0 2.61.578 1.156.563 1.78 1.563.626.984.626 2.172h-1.875q0-1.281-.828-2.016-.813-.75-2.313-.75-1.39 0-2.172.61-.765.609-.765 1.703 0 .859.734 1.468.734.594 2.5 1.094 1.781.5 2.781 1.11 1 .593 1.485 1.39.484.797.484 1.89 0 1.72-1.344 2.766-1.343 1.047-3.609 1.047-1.453 0-2.734-.562-1.266-.563-1.954-1.531-.687-.985-.687-2.235h1.89q0 1.297.954 2.047.953.734 2.531.734 1.484 0 2.281-.593.797-.61.797-1.657 0-1.046-.734-1.609-.735-.578-2.657-1.14m9.97-1.64h1.359q1.28-.031 2-.672.734-.656.734-1.781 0-2.5-2.484-2.5-1.172 0-1.875.672-.688.671-.688 1.78h-1.812q0-1.687 1.234-2.812t3.14-1.125q2.016 0 3.157 1.078 1.14 1.063 1.14 2.954 0 .921-.609 1.796-.594.875-1.625 1.297 1.172.375 1.813 1.235.64.859.64 2.093 0 1.922-1.25 3.047t-3.265 1.125q-2 0-3.25-1.078-1.25-1.094-1.25-2.875h1.812q0 1.125.735 1.797.734.672 1.968.672 1.297 0 1.985-.672.703-.687.703-1.969 0-1.25-.766-1.906-.75-.672-2.187-.687h-1.36zm12.718 2.312q0 2.172-.578 4.172-.563 2-1.734 3.688-1.172 1.687-2.47 2.406l-.374-1.11q1.5-1.156 2.406-3.578.922-2.421.938-5.39v-.313q0-2.047-.438-3.812-.422-1.766-1.187-3.156t-1.72-2.172l.376-1.11q1.297.719 2.453 2.39 1.172 1.657 1.75 3.673t.578 4.312"/></svg>