<svg xmlns="http://www.w3.org/2000/svg" width="708" height="469" fill="none" stroke-linecap="square" stroke-miterlimit="10" viewBox="0 0 708 469"><path fill="#fff" d="M0 0h708v469H0z"/><path stroke="#333" stroke-linecap="butt" d="M75.5 409.5h487"/><path stroke="#ccc" stroke-linecap="butt" d="M75.5 360.5h487m-487-49h487m-487-49h487m-487-49h487m-487-49h487m-487-49h487m-487-49h487"/><path stroke="#e6e6e6" stroke-linecap="butt" d="M75.5 372.5h487m-487 12h487m-487 13h487m-487-74h487m-487 12h487m-487 13h487m-487-74h487m-487 12h487m-487 13h487m-487-74h487m-487 12h487m-487 13h487m-487-74h487m-487 12h487m-487 13h487m-487-74h487m-487 12h487m-487 13h487m-487-74h487m-487 13h487m-487 12h487"/><clipPath id="a"><path d="M75.52 66.519H562.5v342.789H75.52z"/></clipPath><path stroke="#b7b7b7" stroke-linecap="butt" stroke-width="2" d="M105.956 321.162s40.582-55.5 60.873-78.352 40.582-43.256 60.872-58.764c20.291-15.507 40.582-25.3 60.873-34.278q30.436-13.468 60.872-19.588c20.291-4.081 40.582-4.081 60.873-4.897 20.29-.817 40.581 0 60.872 0h60.873" clip-path="url(#a)"/><path stroke="#ea4335" stroke-linecap="butt" stroke-width="2" d="M105.956 321.162s40.582-21.22 60.873-39.176c20.29-17.955 40.582-52.234 60.872-68.558 20.291-16.323 40.582-20.404 60.873-29.382 20.29-8.977 40.582-17.955 60.872-24.484 20.291-6.53 40.582-10.61 60.873-14.691a787 787 0 0 1 60.872-9.794c20.291-2.449 60.873-4.897 60.873-4.897" clip-path="url(#a)"/><path stroke="#46bdc6" stroke-linecap="butt" stroke-width="2" d="M105.956 404.41h60.873c20.29 0 40.582 24.486 60.872 0 20.291-24.484 40.582-114.262 60.873-146.909s40.582-31.83 60.872-48.97c20.291-17.14 40.582-42.44 60.873-53.866s40.581-10.61 60.872-14.691 60.873-9.794 60.873-9.794" clip-path="url(#a)"/><path stroke="#38761d" stroke-linecap="butt" stroke-width="2" d="M105.956 404.41h60.873c20.29 0 40.582 8.162 60.872 0 20.291-8.16 40.582-32.646 60.873-48.97 20.29-16.322 40.582-27.749 60.872-48.969 20.291-21.22 40.582-58.764 60.873-78.352s40.581-22.852 60.872-39.176c20.291-16.323 60.873-58.763 60.873-58.763" clip-path="url(#a)"/><path d="M108.956 321.162a3 3 0 1 1-6 0 3 3 0 0 1 6 0m60.873-78.352a3 3 0 1 1-6 0 3 3 0 0 1 6 0m60.872-58.764a3 3 0 1 1-6 0 3 3 0 0 1 6 0m60.873-34.278a3 3 0 1 1-6 0 3 3 0 0 1 6 0m60.872-19.588a3 3 0 1 1-6 0 3 3 0 0 1 6 0m60.873-4.897a3 3 0 1 1-6 0 3 3 0 0 1 6 0m60.872 0a3 3 0 1 1-6 0 3 3 0 0 1 6 0m60.873 0a3 3 0 1 1-6 0 3 3 0 0 1 6 0" clip-path="url(#a)"/><path fill="#ea4335" d="M107.956 321.162a2 2 0 1 1-4 0 2 2 0 0 1 4 0m60.873-39.176a2 2 0 1 1-4 0 2 2 0 0 1 4 0m60.872-68.558a2 2 0 1 1-4 0 2 2 0 0 1 4 0m60.873-29.382a2 2 0 1 1-4 0 2 2 0 0 1 4 0m60.872-24.484a2 2 0 1 1-4 0 2 2 0 0 1 4 0m60.873-14.692a2 2 0 1 1-4 0 2 2 0 0 1 4 0m60.872-9.793a2 2 0 1 1-4 0 2 2 0 0 1 4 0m60.873-4.897a2 2 0 1 1-4 0 2 2 0 0 1 4 0" clip-path="url(#a)"/><path fill="#46bdc6" d="M107.956 404.41a2 2 0 1 1-4 0 2 2 0 0 1 4 0m60.873 0a2 2 0 1 1-4 0 2 2 0 0 1 4 0m60.872 0a2 2 0 1 1-4 0 2 2 0 0 1 4 0m60.873-146.909a2 2 0 1 1-4 0 2 2 0 0 1 4 0m60.872-48.97a2 2 0 1 1-4 0 2 2 0 0 1 4 0m60.873-53.866a2 2 0 1 1-4 0 2 2 0 0 1 4 0m60.872-14.691a2 2 0 1 1-4 0 2 2 0 0 1 4 0m60.873-9.794a2 2 0 1 1-4 0 2 2 0 0 1 4 0" clip-path="url(#a)"/><path fill="#38761d" d="M107.956 404.41a2 2 0 1 1-4 0 2 2 0 0 1 4 0m60.873 0a2 2 0 1 1-4 0 2 2 0 0 1 4 0m60.872 0a2 2 0 1 1-4 0 2 2 0 0 1 4 0m60.873-48.97a2 2 0 1 1-4 0 2 2 0 0 1 4 0m60.872-48.969a2 2 0 1 1-4 0 2 2 0 0 1 4 0m60.873-78.351a2 2 0 1 1-4 0 2 2 0 0 1 4 0m60.872-39.177a2 2 0 1 1-4 0 2 2 0 0 1 4 0m60.873-58.763a2 2 0 1 1-4 0 2 2 0 0 1 4 0" clip-path="url(#a)"/><path fill="#000" d="M299.37 450.6q.578 0 1.015-.344.438-.359.484-.89h1.032q-.032.547-.39 1.047-.345.484-.923.781-.562.297-1.219.297-1.296 0-2.062-.86-.75-.875-.75-2.375v-.187q0-.922.328-1.64.344-.72.969-1.11.64-.406 1.515-.406 1.063 0 1.766.64.719.625.766 1.657h-1.032q-.046-.625-.468-1.016-.422-.39-1.032-.39-.828 0-1.28.593-.454.594-.454 1.719v.203q0 1.094.453 1.687.453.594 1.281.594m7.374.766q-.093-.188-.156-.672-.75.797-1.797.797-.937 0-1.547-.531-.593-.532-.593-1.36 0-.984.75-1.531t2.125-.547h1.047v-.5q0-.562-.344-.89-.328-.344-1-.344-.578 0-.969.297-.39.28-.39.703h-1.094q0-.485.328-.922.344-.438.922-.688.578-.265 1.265-.265 1.11 0 1.72.547.624.546.655 1.5v2.921q0 .875.22 1.391v.094zm-1.796-.828q.515 0 .968-.266t.657-.687v-1.297h-.844q-2 0-2 1.172 0 .5.344.796.343.282.875.282m10.234-2.266q0 1.438-.656 2.328-.657.89-1.797.89-1.156 0-1.813-.734v3.047h-1.078v-8.78h.985l.046.702q.672-.812 1.844-.812 1.14 0 1.797.86.672.858.672 2.39zm-1.078-.125q0-1.078-.469-1.687-.453-.625-1.25-.625-.984 0-1.469.859v3.031q.485.875 1.485.875.78 0 1.234-.61.469-.624.469-1.843m6.64 3.219q-.093-.188-.156-.672-.75.797-1.797.797-.937 0-1.547-.531-.593-.532-.593-1.36 0-.984.75-1.531t2.125-.547h1.047v-.5q0-.562-.344-.89-.328-.344-1-.344-.578 0-.969.297-.39.28-.39.703h-1.094q0-.485.328-.922.344-.438.922-.688.578-.265 1.265-.265 1.11 0 1.72.547.624.546.655 1.5v2.921q0 .875.22 1.391v.094zm-1.796-.828q.515 0 .968-.266t.657-.687v-1.297h-.844q-2 0-2 1.172 0 .5.344.796.343.282.875.282m7.421.062q.579 0 1.016-.344.438-.359.484-.89h1.032q-.032.547-.39 1.047-.345.484-.923.781-.562.297-1.219.297-1.296 0-2.062-.86-.75-.875-.75-2.375v-.187q0-.922.328-1.64.344-.72.969-1.11.64-.406 1.515-.406 1.063 0 1.766.64.719.625.766 1.657h-1.032q-.046-.625-.468-1.016-.422-.39-1.032-.39-.828 0-1.28.593-.454.594-.454 1.719v.203q0 1.094.453 1.687.453.594 1.281.594m4.641.766h-1.078v-6.344h1.078zm-1.172-8.016q0-.265.156-.453.172-.187.485-.187.312 0 .469.187.171.188.171.453 0 .25-.171.438-.157.172-.47.172t-.484-.172q-.156-.188-.156-.438m4.469.14v1.532h1.172v.844h-1.172v3.922q0 .39.156.578t.531.187q.188 0 .516-.062v.875q-.422.125-.828.125-.719 0-1.094-.438-.375-.453-.375-1.265v-3.922h-1.156v-.844h1.156v-1.531zm4.594 6.282 1.484-4.75h1.156l-2.547 7.328q-.593 1.578-1.875 1.578l-.218-.015-.39-.078v-.875l.28.015q.563 0 .86-.219.312-.218.515-.812l.235-.656-2.266-6.266h1.188zM27.147 265.1q-.875-.72-.875-1.875 0-2.016 2.265-2.032h4.188v1.094h-4.203q-.672 0-1 .313-.328.296-.328.953 0 .531.281.937.281.39.734.61h4.516v1.078h-9V265.1zm5.578-7.094v1.078h-6.344v-1.078zm-8.016 1.172q-.265 0-.453-.157-.187-.171-.187-.484t.187-.469q.188-.172.453-.172.25 0 .438.172.172.157.172.47t-.172.483q-.188.157-.438.157m.141-4.47h1.531v-1.17h.844v1.17h3.922q.39 0 .578-.155.187-.157.187-.532 0-.187-.062-.515h.875q.125.422.125.828 0 .719-.438 1.094-.453.375-1.265.375h-3.922v1.156h-.844v-1.156H24.85zm2.5-8.593q-.031.25-.031.531 0 1.079.906 1.454h4.5v1.078h-6.344v-1.047l.735-.016q-.844-.531-.844-1.515 0-.313.078-.485zm5.375-4.844q-.188.094-.672.157.797.75.797 1.797 0 .937-.531 1.546-.532.594-1.36.594-.984 0-1.53-.75-.548-.75-.548-2.125v-1.047h-.5q-.562 0-.89.344-.344.328-.344 1 0 .578.297.969.281.39.703.39v1.094q-.485 0-.922-.328-.438-.344-.688-.922-.265-.578-.265-1.265 0-1.11.547-1.72.547-.624 1.5-.655h2.922q.875 0 1.39-.22h.094zm-.828 1.797q0-.515-.266-.968-.265-.454-.687-.657h-1.297v.844q0 2 1.172 2 .5 0 .797-.344.28-.343.28-.875m-7.047-6.36h1.531v-1.17h.844v1.17h3.922q.39 0 .578-.155.187-.157.187-.532 0-.187-.062-.515h.875q.125.422.125.828 0 .719-.438 1.094-.453.375-1.265.375h-3.922v1.156h-.844v-1.156h-1.53zm7.875-3.702v1.078H26.38v-1.078zm-8.016 1.172q-.265 0-.453-.157-.187-.171-.187-.484t.187-.469q.188-.172.453-.172.25 0 .438.172.172.157.172.47t-.172.483q-.188.157-.438.157m4.782-2.703q-.922 0-1.672-.36-.75-.375-1.14-1.031-.407-.656-.407-1.484 0-1.297.89-2.094.891-.813 2.391-.813h.078q.922 0 1.656.36.735.36 1.157 1.015.406.657.406 1.516 0 1.281-.89 2.094-.907.797-2.391.797zm.14-1.094q1.047 0 1.688-.485.64-.5.64-1.312 0-.828-.64-1.313-.657-.484-1.828-.484-1.032 0-1.672.5-.657.484-.657 1.313 0 .796.641 1.296.625.485 1.828.485m29.953 179.786q0 1.906-.657 2.844-.64.922-2.03.922-1.36 0-2.017-.906-.656-.907-.687-2.72v-1.437q0-1.89.64-2.797.657-.921 2.047-.921 1.375 0 2.032.89.656.875.672 2.719zm-1.094-1.484q0-1.375-.39-2-.376-.64-1.22-.64-.828 0-1.218.64-.375.625-.375 1.922v1.734q0 1.375.39 2.047.407.656 1.22.656.796 0 1.187-.625.39-.625.406-1.953zm2.64-1.766q0-.765.485-1.265.5-.5 1.265-.5.782 0 1.266.5t.484 1.296v.422q0 .766-.5 1.266-.484.484-1.234.484-.766 0-1.266-.484-.5-.5-.5-1.313zm.813.453q0 .453.25.75.266.297.703.297.422 0 .672-.281.25-.297.25-.797v-.422q0-.453-.25-.75-.25-.312-.688-.312t-.687.312q-.25.297-.25.766zm3.344 4.344q0-.766.484-1.25.5-.5 1.266-.5.765 0 1.25.5.5.484.5 1.297v.406q0 .766-.485 1.266-.484.5-1.25.5-.765 0-1.265-.485-.5-.5-.5-1.312zm.812.453q0 .469.25.766.266.297.703.297.422 0 .672-.282.25-.296.25-.796v-.438q0-.469-.265-.75-.25-.297-.672-.297t-.688.297q-.25.281-.25.781zm-2.953 1-.625-.39 4.172-6.672.61.39zm-12.359-48.329h-1.078v-7.219l-2.188.797v-.984l3.11-1.172h.156zm8.797-3.64q0 1.906-.657 2.843-.64.922-2.03.922-1.36 0-2.017-.906-.656-.907-.687-2.72V359.9q0-1.89.64-2.796.657-.922 2.047-.922 1.375 0 2.032.89.656.875.672 2.719zm-1.094-1.485q0-1.375-.39-2-.376-.64-1.22-.64-.828 0-1.218.64-.375.625-.375 1.922v1.734q0 1.375.39 2.047.407.656 1.22.656.796 0 1.187-.625.39-.625.406-1.953zm2.64-1.766q0-.765.485-1.265.5-.5 1.265-.5.782 0 1.266.5t.484 1.297v.421q0 .766-.5 1.266-.484.484-1.234.484-.766 0-1.266-.484-.5-.5-.5-1.312zm.813.453q0 .454.25.75.266.297.703.297.422 0 .672-.281.25-.297.25-.797v-.422q0-.453-.25-.75-.25-.312-.688-.312t-.687.312q-.25.297-.25.766zm3.344 4.344q0-.765.484-1.25.5-.5 1.266-.5.765 0 1.25.5.5.485.5 1.297v.406q0 .766-.485 1.266-.484.5-1.25.5-.765 0-1.265-.484-.5-.5-.5-1.313zm.812.453q0 .469.25.766.266.297.703.297.422 0 .672-.281.25-.297.25-.797v-.438q0-.469-.265-.75-.25-.297-.672-.297t-.688.297q-.25.281-.25.781zm-2.953 1-.625-.39 4.172-6.672.61.39zm-10.328-48.329h-5.594v-.781l2.953-3.281q.657-.75.907-1.204.25-.468.25-.968 0-.672-.407-1.094-.39-.438-1.078-.438-.797 0-1.25.47-.453.452-.453 1.28h-1.078q0-1.187.75-1.906.766-.734 2.031-.734 1.203 0 1.89.625.688.625.688 1.672 0 1.25-1.609 3l-2.281 2.468h4.281zm6.766-3.64q0 1.906-.657 2.843-.64.922-2.03.922-1.36 0-2.017-.906t-.687-2.719v-1.437q0-1.891.64-2.797.657-.922 2.047-.922 1.375 0 2.032.89.656.875.672 2.72zm-1.094-1.485q0-1.375-.39-2-.376-.64-1.22-.64-.828 0-1.218.64-.375.625-.375 1.922v1.734q0 1.375.39 2.047.407.656 1.22.656.796 0 1.187-.625.39-.625.406-1.953zm2.64-1.766q0-.765.485-1.265.5-.5 1.265-.5.782 0 1.266.5t.484 1.297v.422q0 .765-.5 1.265-.484.485-1.234.485-.766 0-1.266-.485-.5-.5-.5-1.312zm.813.454q0 .453.25.75.266.296.703.296.422 0 .672-.28.25-.298.25-.798v-.422q0-.453-.25-.75-.25-.312-.688-.312t-.687.312q-.25.297-.25.766zm3.344 4.343q0-.765.484-1.25.5-.5 1.266-.5.765 0 1.25.5.5.485.5 1.297v.406q0 .766-.485 1.266-.484.5-1.25.5-.765 0-1.265-.484-.5-.5-.5-1.313zm.812.453q0 .47.25.766.266.297.703.297.422 0 .672-.281.25-.297.25-.797v-.438q0-.468-.265-.75-.25-.297-.672-.297t-.688.297q-.25.282-.25.782zm-2.953 1-.625-.39 4.172-6.672.61.39zm-14.344-53.126h.813q.781-.015 1.219-.406.437-.39.437-1.062 0-1.5-1.5-1.5-.703 0-1.125.406-.406.406-.406 1.062h-1.094q0-1.015.734-1.687.75-.672 1.891-.672 1.203 0 1.89.64.688.641.688 1.782 0 .562-.36 1.078-.359.516-.984.781.704.219 1.079.735.39.515.39 1.265 0 1.14-.75 1.828-.75.672-1.953.672-1.187 0-1.953-.656-.75-.656-.75-1.719h1.094q0 .672.437 1.078.438.407 1.188.407.781 0 1.187-.407.422-.422.422-1.187 0-.735-.453-1.125-.453-.406-1.328-.422H48.8zm10.782 1.157q0 1.906-.657 2.843-.64.922-2.03.922-1.36 0-2.017-.906t-.687-2.719v-1.437q0-1.89.64-2.797.657-.922 2.047-.922 1.375 0 2.032.89.656.876.672 2.72zm-1.094-1.485q0-1.375-.39-2-.376-.64-1.22-.64-.828 0-1.218.64-.375.625-.375 1.922v1.734q0 1.375.39 2.047.407.657 1.22.657.796 0 1.187-.625.39-.625.406-1.954zm2.64-1.765q0-.766.485-1.266.5-.5 1.265-.5.782 0 1.266.5t.484 1.297v.422q0 .765-.5 1.265-.484.485-1.234.485-.766 0-1.266-.485-.5-.5-.5-1.312zm.813.453q0 .453.25.75.266.297.703.297.422 0 .672-.282.25-.297.25-.797v-.421q0-.454-.25-.75-.25-.313-.688-.313t-.687.313q-.25.296-.25.765zm3.344 4.343q0-.765.484-1.25.5-.5 1.266-.5.765 0 1.25.5.5.485.5 1.297v.407q0 .765-.485 1.265-.484.5-1.25.5-.765 0-1.265-.484-.5-.5-.5-1.313zm.812.454q0 .468.25.765.266.297.703.297.422 0 .672-.281.25-.297.25-.797v-.438q0-.468-.265-.75-.25-.296-.672-.296t-.688.296q-.25.282-.25.782zm-2.953 1-.625-.391 4.172-6.672.61.39zm-11.344-51.189h1.188v.875H51.8v1.984h-1.078v-1.984h-3.89v-.64l3.812-5.907H51.8zm-3.734 0h2.656v-4.188l-.14.235zm11.516-.781q0 1.906-.657 2.843-.64.922-2.03.922-1.36 0-2.017-.906t-.687-2.719v-1.437q0-1.89.64-2.797.657-.922 2.047-.922 1.375 0 2.032.89.656.876.672 2.72zm-1.094-1.485q0-1.375-.39-2-.376-.64-1.22-.64-.828 0-1.218.64-.375.625-.375 1.922v1.735q0 1.375.39 2.046.407.657 1.22.657.796 0 1.187-.625.39-.625.406-1.953zm2.64-1.765q0-.766.485-1.266.5-.5 1.265-.5.782 0 1.266.5t.484 1.297v.422q0 .765-.5 1.265-.484.485-1.234.485-.766 0-1.266-.485-.5-.5-.5-1.312zm.813.453q0 .453.25.75.266.297.703.297.422 0 .672-.282.25-.296.25-.796v-.422q0-.453-.25-.75-.25-.313-.688-.313t-.687.313q-.25.297-.25.765zm3.344 4.344q0-.766.484-1.25.5-.5 1.266-.5.765 0 1.25.5.5.484.5 1.296v.407q0 .765-.485 1.265-.484.5-1.25.5-.765 0-1.265-.484-.5-.5-.5-1.313zm.812.453q0 .468.25.765.266.297.703.297.422 0 .672-.281.25-.297.25-.797v-.437q0-.47-.265-.75-.25-.297-.672-.297t-.688.297q-.25.28-.25.78zm-2.953 1-.625-.39 4.172-6.673.61.39zm-15.422-52.611.438-4.25h4.375v1h-3.453l-.266 2.328q.64-.375 1.437-.375 1.157 0 1.844.782.688.765.688 2.078t-.719 2.078q-.703.765-1.984.765-1.125 0-1.844-.625-.719-.64-.813-1.75h1.016q.11.735.531 1.11t1.11.375q.75 0 1.187-.516.438-.515.438-1.422 0-.859-.47-1.375-.468-.515-1.25-.515-.702 0-1.109.297l-.28.234zm11.86.64q0 1.907-.657 2.845-.64.921-2.03.921-1.36 0-2.017-.906t-.687-2.719v-1.437q0-1.89.64-2.797.657-.922 2.047-.922 1.375 0 2.032.89.656.876.672 2.72zm-1.094-1.484q0-1.375-.39-2-.376-.64-1.22-.64-.828 0-1.218.64-.375.625-.375 1.922v1.735q0 1.375.39 2.047.407.656 1.22.656.796 0 1.187-.625.39-.625.406-1.953zm2.64-1.765q0-.766.485-1.266.5-.5 1.265-.5.782 0 1.266.5t.484 1.297v.422q0 .766-.5 1.266-.484.484-1.234.484-.766 0-1.266-.484-.5-.5-.5-1.313zm.813.453q0 .453.25.75.266.297.703.297.422 0 .672-.281.25-.297.25-.797v-.422q0-.453-.25-.75-.25-.313-.688-.313t-.687.313q-.25.297-.25.765zm3.344 4.344q0-.766.484-1.25.5-.5 1.266-.5.765 0 1.25.5.5.484.5 1.297v.406q0 .765-.485 1.265-.484.5-1.25.5-.765 0-1.265-.484-.5-.5-.5-1.312zm.812.453q0 .469.25.765.266.297.703.297.422 0 .672-.28.25-.298.25-.798v-.437q0-.469-.265-.75-.25-.297-.672-.297t-.688.297q-.25.281-.25.781zm-2.953 1-.625-.39 4.172-6.673.61.391zm-11.656-56.861v.907h-.203q-1.266.03-2.016.765-.75.719-.875 2.031.688-.765 1.844-.765 1.11 0 1.781.781.672.781.672 2.031 0 1.313-.719 2.11t-1.937.797-1.985-.938q-.75-.953-.75-2.437v-.407q0-2.359 1-3.609t2.985-1.266zm-1.422 3.844q-.563 0-1.031.328-.469.328-.657.844v.39q0 1.063.47 1.704.484.64 1.187.64.734 0 1.156-.53.422-.548.422-1.423t-.422-1.406q-.422-.547-1.125-.547m9.516 1.047q0 1.906-.657 2.844-.64.922-2.03.922-1.36 0-2.017-.907-.656-.906-.687-2.718v-1.438q0-1.89.64-2.797.657-.922 2.047-.922 1.375 0 2.032.891.656.875.672 2.719zm-1.094-1.484q0-1.375-.39-2-.376-.641-1.22-.641-.828 0-1.218.64-.375.626-.375 1.922v1.735q0 1.375.39 2.047.407.656 1.22.656.796 0 1.187-.625.39-.625.406-1.953zm2.64-1.766q0-.766.485-1.266.5-.5 1.265-.5.782 0 1.266.5t.484 1.297v.422q0 .766-.5 1.266-.484.484-1.234.484-.766 0-1.266-.484-.5-.5-.5-1.313zm.813.453q0 .453.25.75.266.297.703.297.422 0 .672-.281.25-.297.25-.797v-.422q0-.453-.25-.75-.25-.312-.688-.312t-.687.312q-.25.297-.25.766zm3.344 4.344q0-.766.484-1.25.5-.5 1.266-.5.765 0 1.25.5.5.484.5 1.297v.406q0 .766-.485 1.266-.484.5-1.25.5-.765 0-1.265-.485-.5-.5-.5-1.312zm.812.453q0 .469.25.766.266.296.703.296.422 0 .672-.28.25-.298.25-.798v-.437q0-.469-.265-.75-.25-.297-.672-.297t-.688.297q-.25.281-.25.781zm-2.953 1-.625-.39 4.172-6.672.61.39zM52.739 63.097l-3.531 7.922h-1.141l3.516-7.64h-4.61v-.891h5.766zm6.844 4.281q0 1.906-.657 2.844-.64.922-2.03.922-1.36 0-2.017-.906-.656-.907-.687-2.72v-1.437q0-1.89.64-2.797.657-.921 2.047-.921 1.375 0 2.032.89.656.875.672 2.719zm-1.094-1.484q0-1.375-.39-2-.376-.64-1.22-.64-.828 0-1.218.64-.375.625-.375 1.922v1.734q0 1.375.39 2.047.407.656 1.22.656.796 0 1.187-.625.39-.625.406-1.953zm2.64-1.766q0-.765.485-1.265.5-.5 1.265-.5.782 0 1.266.5t.484 1.296v.422q0 .766-.5 1.266-.484.484-1.234.484-.766 0-1.266-.484-.5-.5-.5-1.313zm.813.453q0 .453.25.75.266.297.703.297.422 0 .672-.281.25-.297.25-.797v-.422q0-.453-.25-.75-.25-.312-.688-.312t-.687.312q-.25.297-.25.766zm3.344 4.344q0-.766.484-1.25.5-.5 1.266-.5.765 0 1.25.5.5.484.5 1.297v.406q0 .766-.485 1.266-.484.5-1.25.5-.765 0-1.265-.485-.5-.5-.5-1.312zm.812.453q0 .469.25.766.266.297.703.297.422 0 .672-.282.25-.296.25-.796v-.438q0-.469-.265-.75-.25-.297-.672-.297t-.688.297q-.25.281-.25.781zm-2.953 1-.625-.39 4.172-6.672.61.39zm38.608 356.93H96.16v-.781l2.954-3.282q.656-.75.906-1.203.25-.469.25-.969 0-.671-.406-1.093-.391-.438-1.079-.438-.796 0-1.25.469-.453.453-.453 1.281h-1.078q0-1.187.75-1.906.766-.734 2.031-.734 1.204 0 1.891.625t.688 1.671q0 1.25-1.61 3l-2.281 2.47h4.281zm1.906-4.281.438-4.25h4.375v1h-3.453l-.266 2.328q.64-.375 1.438-.375 1.156 0 1.843.78.688.767.688 2.079t-.719 2.078q-.703.766-1.984.766-1.125 0-1.844-.625-.719-.64-.812-1.75h1.015q.11.734.531 1.11.422.374 1.11.374.75 0 1.187-.515.438-.516.438-1.422 0-.86-.469-1.375-.469-.516-1.25-.516-.703 0-1.11.297l-.28.234zm11.86.64q0 1.906-.656 2.844-.641.922-2.032.922-1.359 0-2.015-.906-.657-.907-.688-2.72v-1.437q0-1.89.64-2.797.657-.921 2.048-.921 1.375 0 2.031.89.656.875.672 2.719zm-1.094-1.484q0-1.375-.39-2-.376-.64-1.22-.64-.827 0-1.218.64-.375.625-.375 1.922v1.734q0 1.375.39 2.047.407.656 1.22.656.796 0 1.187-.625.39-.625.406-1.953zm43.107.844.437-4.25h4.375v1h-3.453l-.265 2.328q.64-.375 1.437-.375 1.156 0 1.844.78.687.767.687 2.079t-.718 2.078q-.703.766-1.985.766-1.125 0-1.843-.625-.72-.64-.813-1.75h1.016q.11.734.531 1.11.422.374 1.11.374.75 0 1.187-.515.437-.516.437-1.422 0-.86-.468-1.375-.47-.516-1.25-.516-.704 0-1.11.297l-.281.234zm11.86.64q0 1.906-.657 2.844-.64.922-2.031.922-1.36 0-2.016-.906-.656-.907-.687-2.72v-1.437q0-1.89.64-2.797.657-.921 2.047-.921 1.375 0 2.031.89.657.875.672 2.719zm-1.094-1.484q0-1.375-.391-2-.375-.64-1.219-.64-.828 0-1.219.64-.375.625-.375 1.922v1.734q0 1.375.391 2.047.406.656 1.219.656.797 0 1.187-.625.391-.625.407-1.953zm8.093 1.484q0 1.906-.656 2.844-.64.922-2.031.922-1.36 0-2.016-.906-.656-.907-.687-2.72v-1.437q0-1.89.64-2.797.657-.921 2.047-.921 1.375 0 2.031.89.657.875.672 2.719zm-1.093-1.484q0-1.375-.391-2-.375-.64-1.219-.64-.828 0-1.219.64-.375.625-.375 1.922v1.734q0 1.375.391 2.047.406.656 1.219.656.797 0 1.187-.625.391-.625.407-1.953zm48.122-2.797-3.531 7.922h-1.14l3.515-7.64h-4.61v-.891h5.766zm1.984 3.64.438-4.25h4.375v1h-3.453l-.266 2.329q.64-.375 1.438-.375 1.156 0 1.843.78.688.767.688 2.079t-.719 2.078q-.703.766-1.984.766-1.125 0-1.844-.625-.719-.64-.812-1.75h1.015q.11.734.531 1.11.422.374 1.11.374.75 0 1.187-.515.438-.516.438-1.422 0-.86-.469-1.375-.469-.516-1.25-.516-.703 0-1.11.297l-.28.234zm11.86.641q0 1.906-.656 2.844-.641.922-2.032.922-1.359 0-2.015-.906-.657-.907-.688-2.72v-1.437q0-1.89.64-2.797.657-.921 2.048-.921 1.375 0 2.031.89.656.875.672 2.719zm-1.094-1.484q0-1.375-.39-2-.376-.64-1.22-.64-.827 0-1.218.64-.375.625-.375 1.922v1.734q0 1.375.39 2.047.407.656 1.22.656.796 0 1.187-.625.39-.625.406-1.953zm41.67 5.125h-1.079v-7.219l-2.187.797v-.984l3.11-1.172h.155zm3.515 1.703-.61-.422q.548-.766.579-1.594v-.968h1.062v.843q0 .594-.297 1.188-.296.594-.734.953m7.281-5.344q0 1.906-.656 2.844-.64.922-2.031.922-1.36 0-2.016-.906-.656-.907-.687-2.72v-1.437q0-1.89.64-2.797.657-.921 2.047-.921 1.375 0 2.031.89.657.875.672 2.719zm-1.093-1.484q0-1.375-.391-2-.375-.64-1.219-.64-.828 0-1.219.64-.375.625-.375 1.922v1.734q0 1.375.391 2.047.406.656 1.219.656.797 0 1.187-.625t.407-1.953zm8.093 1.484q0 1.906-.656 2.844-.64.922-2.031.922-1.36 0-2.016-.906-.656-.907-.687-2.72v-1.437q0-1.89.64-2.797.657-.921 2.047-.921 1.375 0 2.031.89.657.875.672 2.719zm-1.093-1.484q0-1.375-.391-2-.375-.64-1.219-.64-.828 0-1.219.64-.375.625-.375 1.922v1.734q0 1.375.391 2.047.406.656 1.219.656.797 0 1.187-.625t.407-1.953zm8.093 1.484q0 1.906-.656 2.844-.64.922-2.031.922-1.36 0-2.016-.906-.656-.907-.687-2.72v-1.437q0-1.89.64-2.797.657-.921 2.047-.921 1.375 0 2.031.89.657.875.672 2.719zm-1.093-1.484q0-1.375-.391-2-.375-.64-1.219-.64-.828 0-1.219.64-.375.625-.375 1.922v1.734q0 1.375.391 2.047.406.656 1.219.656.797 0 1.187-.625t.407-1.953zm37.169 5.125h-1.078v-7.219l-2.188.797v-.984l3.11-1.172h.156zm3.516 1.703-.61-.422q.547-.766.578-1.594v-.968h1.063v.843q0 .594-.297 1.188t-.734.953m7.515-1.703h-5.594v-.781l2.954-3.282q.656-.75.906-1.203.25-.469.25-.969 0-.671-.406-1.093-.391-.438-1.079-.438-.796 0-1.25.469-.453.453-.453 1.281h-1.078q0-1.187.75-1.906.766-.734 2.031-.734 1.204 0 1.891.625t.688 1.671q0 1.25-1.61 3l-2.281 2.47h4.281zm1.906-4.281.438-4.25h4.375v1h-3.453l-.266 2.328q.64-.375 1.438-.375 1.156 0 1.843.78.688.767.688 2.079t-.719 2.078q-.703.766-1.984.766-1.125 0-1.844-.625-.719-.64-.812-1.75h1.015q.11.734.531 1.11.422.374 1.11.374.75 0 1.187-.515.438-.516.438-1.422 0-.86-.469-1.375-.469-.516-1.25-.516-.703 0-1.11.297l-.28.234zm11.86.64q0 1.906-.656 2.844-.641.922-2.032.922-1.36 0-2.015-.906-.657-.907-.688-2.72v-1.437q0-1.89.64-2.797.657-.921 2.048-.921 1.375 0 2.03.89.657.875.673 2.719zm-1.094-1.484q0-1.375-.39-2-.376-.64-1.22-.64-.827 0-1.218.64-.375.625-.375 1.922v1.734q0 1.375.39 2.047.407.656 1.22.656.796 0 1.187-.625.39-.625.406-1.953zm37.169 5.125h-1.078v-7.219l-2.187.797v-.984l3.11-1.172h.155zm3.516 1.703-.61-.422q.548-.766.579-1.594v-.968h1.062v.843q0 .594-.297 1.188-.296.594-.734.953m2.422-5.984.437-4.25h4.375v1h-3.453l-.265 2.328q.64-.375 1.437-.375 1.156 0 1.844.78.687.767.687 2.079t-.718 2.078q-.703.766-1.985.766-1.125 0-1.843-.625-.72-.64-.813-1.75h1.016q.109.734.53 1.11.423.374 1.11.374.75 0 1.188-.515.437-.516.437-1.422 0-.86-.468-1.375-.47-.516-1.25-.516-.704 0-1.11.297l-.281.234zm11.86.64q0 1.906-.657 2.844-.64.922-2.031.922-1.36 0-2.016-.906-.656-.907-.687-2.72v-1.437q0-1.89.64-2.797.657-.921 2.047-.921 1.375 0 2.031.89.657.875.672 2.719zm-1.094-1.484q0-1.375-.391-2-.375-.64-1.219-.64-.828 0-1.219.64-.375.625-.375 1.922v1.734q0 1.375.391 2.047.406.656 1.219.656.797 0 1.187-.625t.407-1.953zm8.093 1.484q0 1.906-.656 2.844-.64.922-2.031.922-1.36 0-2.016-.906-.656-.907-.687-2.72v-1.437q0-1.89.64-2.797.657-.921 2.047-.921 1.375 0 2.031.89.657.875.672 2.719zm-1.093-1.484q0-1.375-.391-2-.375-.64-1.219-.64-.828 0-1.219.64-.375.625-.375 1.922v1.734q0 1.375.391 2.047.406.656 1.219.656.797 0 1.187-.625t.407-1.953zm37.169 5.125h-1.078v-7.219l-2.188.797v-.984l3.11-1.172h.156zm3.516 1.703-.61-.422q.547-.766.578-1.594v-.968h1.063v.843q0 .594-.297 1.188t-.734.953m7.437-9.625-3.531 7.922h-1.14l3.515-7.64h-4.61v-.891h5.766zm1.984 3.64.438-4.25h4.375v1h-3.453l-.266 2.329q.64-.375 1.438-.375 1.156 0 1.843.78.688.767.688 2.079t-.719 2.078q-.703.766-1.984.766-1.125 0-1.844-.625-.719-.64-.812-1.75h1.015q.11.734.531 1.11.422.374 1.11.374.75 0 1.187-.515.438-.516.438-1.422 0-.86-.469-1.375-.469-.516-1.25-.516-.703 0-1.11.297l-.28.234zm11.86.641q0 1.906-.656 2.844-.641.922-2.032.922-1.36 0-2.015-.906-.657-.907-.688-2.72v-1.437q0-1.89.64-2.797.657-.921 2.048-.921 1.375 0 2.03.89.657.875.673 2.719zm-1.094-1.484q0-1.375-.39-2-.376-.64-1.22-.64-.827 0-1.218.64-.375.625-.375 1.922v1.734q0 1.375.39 2.047.407.656 1.22.656.796 0 1.187-.625.39-.625.406-1.953zm39.2 5.125h-5.593v-.781l2.953-3.282q.656-.75.906-1.203.25-.469.25-.969 0-.671-.406-1.093-.39-.438-1.078-.438-.797 0-1.25.469-.453.453-.453 1.281h-1.078q0-1.187.75-1.906.765-.734 2.03-.734 1.204 0 1.892.625t.687 1.671q0 1.25-1.61 3l-2.28 2.47h4.28zm1.485 1.703-.61-.422q.548-.766.579-1.594v-.968h1.062v.843q0 .594-.297 1.188-.296.594-.734.953m7.281-5.344q0 1.906-.656 2.844-.64.922-2.031.922-1.36 0-2.016-.906-.656-.907-.687-2.72v-1.437q0-1.89.64-2.797.657-.921 2.047-.921 1.375 0 2.031.89.657.875.672 2.719zm-1.093-1.484q0-1.375-.391-2-.375-.64-1.219-.64-.828 0-1.219.64-.375.625-.375 1.922v1.734q0 1.375.391 2.047.406.656 1.219.656.797 0 1.187-.625t.407-1.953zm8.093 1.484q0 1.906-.656 2.844-.64.922-2.031.922-1.36 0-2.016-.906-.656-.907-.687-2.72v-1.437q0-1.89.64-2.797.657-.921 2.047-.921 1.375 0 2.031.89.657.875.672 2.719zm-1.093-1.484q0-1.375-.391-2-.375-.64-1.219-.64-.828 0-1.219.64-.375.625-.375 1.922v1.734q0 1.375.391 2.047.406.656 1.219.656.797 0 1.187-.625t.407-1.953zm8.093 1.484q0 1.906-.656 2.844-.64.922-2.031.922-1.36 0-2.016-.906-.656-.907-.687-2.72v-1.437q0-1.89.64-2.797.657-.921 2.047-.921 1.375 0 2.031.89.657.875.672 2.719zm-1.093-1.484q0-1.375-.391-2-.375-.64-1.219-.64-.828 0-1.219.64-.375.625-.375 1.922v1.734q0 1.375.391 2.047.406.656 1.219.656.797 0 1.187-.625t.407-1.953z"/><path stroke="#b7b7b7" stroke-linecap="butt" stroke-width="4" d="M592.62 74.019h12"/><path fill="#1a1a1a" d="M613.15 75.284q0-.921.36-1.671.375-.75 1.031-1.141.656-.406 1.484-.406 1.297 0 2.094.89.813.89.813 2.39v.079q0 .922-.36 1.656-.36.735-1.015 1.157-.657.406-1.516.406-1.281 0-2.094-.89-.797-.907-.797-2.391zm1.094.141q0 1.047.485 1.688.5.64 1.312.64.828 0 1.313-.64.484-.657.484-1.829 0-1.03-.5-1.671-.484-.657-1.313-.657-.796 0-1.296.64-.485.626-.485 1.829m11.547 0q0 1.438-.656 2.328t-1.797.89q-1.156 0-1.813-.734v3.047h-1.078v-8.781h.985l.047.703q.671-.812 1.843-.812 1.14 0 1.797.859.672.86.672 2.39zm-1.078-.125q0-1.078-.469-1.687-.453-.625-1.25-.625-.984 0-1.469.859v3.031q.485.875 1.485.875.781 0 1.234-.61.469-.624.469-1.843m4.203-4.656v1.531h1.172v.844h-1.172v3.922q0 .39.156.578.157.187.532.187.187 0 .515-.062v.875q-.422.125-.828.125-.719 0-1.094-.438-.375-.453-.375-1.265v-3.922h-1.156v-.844h1.156v-1.531zm3.703 7.875h-1.078v-6.344h1.078zm-1.172-8.016q0-.265.157-.453.171-.187.484-.187t.469.187q.172.188.172.453 0 .25-.172.438-.157.172-.47.172t-.483-.172q-.157-.188-.157-.438m4.016 1.672.031.703q.688-.812 1.875-.812 1.328 0 1.813 1.015.312-.453.812-.734.516-.281 1.203-.281 2.094 0 2.125 2.203v4.25h-1.078V74.33q0-.672-.312-1-.313-.343-1.047-.343-.61 0-1.016.359-.39.36-.453.969v4.203h-1.078v-4.156q0-1.375-1.36-1.375-1.062 0-1.453.906v4.625h-1.093v-6.344zm13.89 6.344q-.093-.188-.156-.672-.75.797-1.797.797-.937 0-1.546-.531-.594-.532-.594-1.36 0-.984.75-1.531t2.125-.547h1.047v-.5q0-.562-.344-.89-.328-.344-1-.344-.578 0-.969.297-.39.28-.39.703h-1.094q0-.485.328-.922.344-.438.922-.688.578-.265 1.265-.265 1.11 0 1.72.547.624.546.655 1.5v2.921q0 .875.22 1.391v.094zm-1.796-.828q.515 0 .968-.266.454-.266.657-.687V75.44h-.844q-2 0-2 1.172 0 .5.344.796.343.282.875.282m6.062.828h-1.078v-9h1.078z"/><path fill="#ea4335" d="M604.62 99.019a6 6 0 1 1-12 0 6 6 0 0 1 12 0"/><path fill="#1a1a1a" d="M616.51 98.144q-.25-.031-.531-.031-1.079 0-1.454.906v4.5h-1.078v-6.344h1.047l.016.734q.531-.843 1.515-.843.313 0 .485.078zm2.11 5.375h-1.079v-6.344h1.078zm-1.173-8.016q0-.265.157-.453.171-.187.484-.187t.469.187q.172.188.172.453 0 .25-.172.438-.157.172-.47.172t-.483-.172q-.157-.188-.157-.438m6.688 6.328q0-.437-.344-.672-.328-.25-1.156-.421-.813-.172-1.297-.422t-.719-.578q-.219-.344-.219-.813 0-.781.657-1.312.656-.547 1.687-.547 1.078 0 1.735.562.671.547.671 1.406h-1.078q0-.437-.39-.75-.375-.328-.938-.328-.594 0-.937.266-.328.25-.328.656 0 .39.312.594.313.203 1.125.39.813.172 1.313.422t.734.61q.25.36.25.86 0 .859-.688 1.374-.671.516-1.75.516-.765 0-1.359-.266-.578-.281-.906-.765-.328-.485-.328-1.047h1.078q.031.547.437.875.407.312 1.078.312.61 0 .985-.25t.375-.672m3.781-6.187v1.531h1.172v.844h-1.172v3.922q0 .39.156.578.157.187.532.187.187 0 .515-.062v.875q-.422.125-.828.125-.719 0-1.094-.438-.375-.453-.375-1.265v-3.922h-1.156v-.844h1.156v-1.531zm5.594 2.5q-.25-.031-.531-.031-1.079 0-1.454.906v4.5h-1.078v-6.344h1.047l.016.734q.531-.843 1.515-.843.313 0 .485.078zm3.562 5.5q-1.297 0-2.11-.844-.796-.86-.796-2.281v-.188q0-.953.36-1.687.359-.75 1-1.156.656-.422 1.406-.422 1.234 0 1.922.812t.687 2.328v.453h-4.297q.031.938.547 1.516.531.578 1.344.578.562 0 .953-.234.406-.235.719-.625l.656.515q-.797 1.235-2.39 1.235m-.14-5.688q-.657 0-1.11.485-.437.468-.531 1.328h3.172v-.078q-.047-.828-.453-1.282-.39-.453-1.078-.453m4.984-2.312v1.531h1.172v.844h-1.172v3.922q0 .39.156.578.157.187.532.187.187 0 .515-.062v.875q-.422.125-.828.125-.719 0-1.094-.438-.375-.453-.375-1.265v-3.922h-1.156v-.844h1.156v-1.531zm4 0v1.531h1.172v.844h-1.172v3.922q0 .39.156.578.157.187.532.187.187 0 .515-.062v.875q-.422.125-.828.125-.719 0-1.094-.438-.375-.453-.375-1.265v-3.922h-1.156v-.844h1.156v-1.531zm2.234 4.64q0-.921.36-1.671.375-.75 1.031-1.141.656-.406 1.484-.406 1.297 0 2.094.89.813.89.813 2.39v.079q0 .922-.36 1.656-.36.735-1.015 1.157-.657.406-1.516.406-1.281 0-2.094-.89-.797-.907-.797-2.391zm1.094.141q0 1.047.485 1.688.5.64 1.312.64.828 0 1.313-.64.484-.657.484-1.829 0-1.03-.5-1.671-.484-.657-1.313-.657-.796 0-1.296.64-.485.626-.485 1.829"/><path fill="#46bdc6" d="M604.62 124.019a6 6 0 1 1-12 0 6 6 0 0 1 12 0"/><path fill="#1a1a1a" d="M613.182 125.3q0-1.484.687-2.36.688-.874 1.813-.874 1.156 0 1.812.812l.047-.703h1v6.188q0 1.234-.734 1.937-.735.719-1.953.719-.688 0-1.344-.297t-1-.797l.562-.656q.688.86 1.703.86.782 0 1.22-.454.452-.437.452-1.25v-.547q-.656.766-1.781.766-1.11 0-1.797-.89-.687-.907-.687-2.454m1.093.125q0 1.063.438 1.688.437.609 1.234.609 1.016 0 1.5-.938v-2.89q-.5-.906-1.5-.906-.781 0-1.234.609-.438.61-.438 1.828m5.875-.14q0-.922.36-1.672.375-.75 1.031-1.141.656-.406 1.484-.406 1.297 0 2.094.89.813.89.813 2.39v.079q0 .922-.36 1.656-.36.735-1.015 1.157-.657.406-1.516.406-1.281 0-2.094-.89-.797-.907-.797-2.391zm1.094.14q0 1.047.485 1.688.5.64 1.312.64.828 0 1.313-.64.484-.657.484-1.829 0-1.03-.5-1.671-.484-.657-1.313-.657-.796 0-1.296.64-.485.626-.485 1.829m11.563 0q0 1.453-.672 2.344-.656.875-1.781.875-1.204 0-1.86-.86l-.062.735h-.985v-9h1.078v3.36q.657-.813 1.813-.813t1.812.875q.657.859.657 2.39zm-1.078-.125q0-1.11-.438-1.703-.422-.61-1.219-.61-1.078 0-1.547.985v2.75q.5 1 1.547 1 .782 0 1.219-.61.438-.609.438-1.812m6.625 2.594q-.625.75-1.86.75-1.015 0-1.547-.594-.531-.594-.531-1.75v-4.125h1.078v4.094q0 1.453 1.172 1.453 1.25 0 1.656-.938v-4.609h1.094v6.344h-1.031zm6.156-4.75q-.25-.031-.531-.031-1.079 0-1.454.906v4.5h-1.078v-6.344h1.047l.016.734q.531-.843 1.515-.843.313 0 .485.078zm4 0q-.25-.031-.531-.031-1.079 0-1.454.906v4.5h-1.078v-6.344h1.047l.016.734q.531-.843 1.515-.843.313 0 .485.078zm.64 2.14q0-.921.36-1.671.375-.75 1.031-1.141.656-.406 1.484-.406 1.297 0 2.094.89.813.89.813 2.39v.079q0 .922-.36 1.656-.36.735-1.015 1.157-.657.406-1.516.406-1.281 0-2.094-.89-.797-.907-.797-2.391zm1.094.141q0 1.047.485 1.688.5.64 1.312.64.828 0 1.313-.64.484-.657.484-1.829 0-1.03-.5-1.671-.484-.657-1.313-.657-.796 0-1.296.64-.485.626-.485 1.829m11.813 1.594 1.218-4.844h1.079l-1.844 6.344h-.875l-1.547-4.813-1.5 4.813h-.875l-1.844-6.344h1.078l1.25 4.75 1.485-4.75h.859z"/><path fill="#38761d" d="M604.62 149.019a6 6 0 1 1-12 0 6 6 0 0 1 12 0"/><path fill="#1a1a1a" d="M613.182 150.3q0-1.484.687-2.36.688-.874 1.813-.874 1.156 0 1.812.812l.047-.703h1v6.188q0 1.234-.734 1.937-.735.719-1.953.719-.688 0-1.344-.297t-1-.797l.562-.656q.688.86 1.703.86.782 0 1.22-.454.452-.437.452-1.25v-.547q-.656.766-1.781.766-1.11 0-1.797-.89-.687-.907-.687-2.454m1.093.125q0 1.063.438 1.688.437.609 1.234.609 1.016 0 1.5-.938v-2.89q-.5-.906-1.5-.906-.781 0-1.234.609-.438.61-.438 1.828m9.235-2.281q-.25-.031-.531-.031-1.079 0-1.454.906v4.5h-1.078v-6.344h1.047l.016.734q.531-.843 1.515-.843.313 0 .485.078zm.64 2.14q0-.921.36-1.671.375-.75 1.031-1.141.656-.406 1.484-.406 1.297 0 2.094.89.813.89.813 2.39v.079q0 .922-.36 1.656-.36.735-1.015 1.157-.657.406-1.516.406-1.281 0-2.094-.89-.797-.907-.797-2.391zm1.094.141q0 1.047.485 1.688.5.64 1.312.64.828 0 1.313-.64.484-.657.484-1.829 0-1.03-.5-1.671-.484-.657-1.313-.657-.796 0-1.296.64-.485.626-.485 1.829m10.11 2.469q-.625.75-1.86.75-1.015 0-1.547-.594-.531-.594-.531-1.75v-4.125h1.078v4.094q0 1.453 1.172 1.453 1.25 0 1.656-.938v-4.609h1.094v6.344h-1.031zm8.437-2.469q0 1.438-.656 2.328t-1.797.89q-1.156 0-1.813-.734v3.047h-1.078v-8.781h.985l.047.703q.671-.812 1.843-.812 1.14 0 1.797.859.672.86.672 2.39zm-1.078-.125q0-1.078-.469-1.687-.453-.625-1.25-.625-.984 0-1.469.859v3.031q.485.875 1.485.875.781 0 1.234-.61.469-.624.469-1.843m5.266 2.453q.578 0 1.015-.344.438-.359.485-.89h1.03q-.03.547-.39 1.047-.344.484-.922.78-.562.298-1.218.298-1.297 0-2.063-.86-.75-.875-.75-2.375v-.187q0-.922.328-1.64.344-.72.969-1.11.64-.406 1.516-.406 1.062 0 1.765.64.719.625.766 1.657h-1.031q-.047-.625-.47-1.016-.421-.39-1.03-.39-.829 0-1.282.593-.453.594-.453 1.719v.203q0 1.094.453 1.687.453.594 1.282.594m7.375.766q-.094-.188-.157-.672-.75.797-1.797.797-.937 0-1.546-.531-.594-.532-.594-1.36 0-.984.75-1.531t2.125-.547h1.047v-.5q0-.562-.344-.89-.328-.344-1-.344-.578 0-.969.297-.39.28-.39.703h-1.094q0-.485.328-.922.344-.438.922-.688.578-.265 1.265-.265 1.11 0 1.72.547.624.546.655 1.5v2.921q0 .875.22 1.391v.094zm-1.797-.828q.515 0 .968-.266.454-.266.657-.687v-1.297h-.844q-2 0-2 1.172 0 .5.344.796.343.282.875.282m7.422.062q.578 0 1.015-.344.438-.359.485-.89h1.03q-.03.547-.39 1.047-.344.484-.922.78-.562.298-1.218.298-1.297 0-2.063-.86-.75-.875-.75-2.375v-.187q0-.922.328-1.64.344-.72.969-1.11.64-.406 1.516-.406 1.062 0 1.765.64.719.625.766 1.657h-1.031q-.047-.625-.47-1.016-.421-.39-1.03-.39-.829 0-1.282.593-.453.594-.453 1.719v.203q0 1.094.453 1.687.453.594 1.282.594m4.546-4.812q.72-.875 1.875-.875 2.016 0 2.032 2.265v4.188h-1.094v-4.203q0-.672-.313-1-.296-.328-.953-.328-.531 0-.937.28-.39.282-.61.735v4.516h-1.078v-9h1.078zm8.547 5.703q-1.297 0-2.11-.844-.796-.86-.796-2.281v-.188q0-.953.36-1.687.359-.75 1-1.156.656-.422 1.406-.422 1.234 0 1.922.812t.687 2.328v.453h-4.297q.031.938.547 1.516.531.578 1.344.578.562 0 .953-.234.406-.235.719-.625l.656.515q-.797 1.235-2.39 1.235m-.14-5.688q-.657 0-1.11.485-.437.468-.531 1.328h3.172v-.078q-.047-.828-.453-1.282-.39-.453-1.078-.453"/><path fill="#757575" d="M33.303 41.1h-1.89v-6.578h-7.157V41.1h-1.875V26.88h1.875v6.11h7.156v-6.11h1.891zm4.75 0h-1.797V30.537h1.797zM36.1 27.725q0-.438.266-.735.28-.312.796-.312.532 0 .797.312.282.297.282.735 0 .437-.282.734-.265.297-.797.297-.515 0-.796-.297-.266-.297-.266-.734m7.437.25v2.562h1.985v1.39h-1.985v6.548q0 .64.266.968.266.313.906.313.313 0 .86-.125V41.1q-.72.203-1.39.203-1.204 0-1.83-.735-.608-.734-.608-2.093v-6.547h-1.922v-1.39h1.922v-2.563zm15.047 7.375h-3.328v5.75h-1.89V26.88h4.703q2.406 0 3.703 1.095 1.297 1.093 1.297 3.187 0 1.328-.72 2.313-.718.984-1.999 1.468l3.344 6.032v.125h-2.016zm-3.328-1.532h2.875q1.39 0 2.219-.718.828-.735.828-1.938 0-1.328-.797-2.031-.781-.703-2.265-.703h-2.86zm16.36 7.282q-.157-.313-.25-1.11-1.266 1.313-3.016 1.313-1.563 0-2.563-.89-1-.891-1-2.25 0-1.641 1.25-2.548 1.266-.922 3.532-.922h1.765v-.828q0-.953-.578-1.515-.562-.563-1.656-.563-.969 0-1.625.5-.656.485-.656 1.172h-1.813q0-.781.563-1.516.562-.75 1.515-1.172.97-.437 2.125-.437 1.828 0 2.86.922 1.03.906 1.078 2.516v4.859q0 1.453.36 2.312v.157zm-3-1.375q.859 0 1.609-.438.766-.437 1.11-1.14v-2.172h-1.423q-3.312 0-3.312 1.937 0 .86.562 1.344.563.469 1.454.469m9.921-11.75v2.562h1.985v1.39h-1.985v6.548q0 .64.266.968.266.313.906.313.313 0 .86-.125V41.1q-.72.203-1.39.203-1.204 0-1.83-.735-.608-.734-.608-2.093v-6.547h-1.922v-1.39h1.922v-2.563zM85.053 41.1h-1.797V30.537h1.797zM83.1 27.725q0-.438.266-.735.28-.312.796-.312.532 0 .797.312.282.297.282.735 0 .437-.282.734-.265.297-.797.297-.515 0-.796-.297-.266-.297-.266-.734m4.516 8q0-1.563.609-2.797.61-1.25 1.687-1.922 1.094-.672 2.5-.672 2.157 0 3.485 1.5 1.344 1.484 1.344 3.969v.125q0 1.547-.594 2.781-.594 1.219-1.703 1.906-1.094.688-2.516.688-2.14 0-3.484-1.5-1.328-1.5-1.328-3.953zm1.812.203q0 1.765.813 2.828.828 1.062 2.187 1.062 1.375 0 2.188-1.078.812-1.078.812-3.015 0-1.75-.828-2.828-.828-1.079-2.188-1.079-1.343 0-2.171 1.063-.813 1.062-.813 3.047m15.813 2.375q0-.735-.547-1.14-.547-.407-1.922-.704t-2.188-.703q-.797-.406-1.187-.969-.375-.578-.375-1.36 0-1.296 1.094-2.187 1.093-.906 2.812-.906 1.797 0 2.906.938 1.125.921 1.125 2.359h-1.828q0-.734-.625-1.266-.625-.547-1.578-.547-1 0-1.562.438-.547.422-.547 1.125 0 .64.515.984.516.328 1.875.64 1.36.298 2.188.72.844.406 1.25 1 .406.593.406 1.437 0 1.422-1.14 2.281-1.126.86-2.938.86-1.266 0-2.25-.453-.969-.453-1.531-1.25-.547-.813-.547-1.75h1.812q.047.906.72 1.437.687.531 1.796.531 1.031 0 1.64-.406.626-.422.626-1.11m12.609-2.5h-4.766v-1.485h4.766zm18.031 3.437q-.734 1.032-2.031 1.547-1.281.516-3 .516-1.75 0-3.094-.813-1.344-.828-2.078-2.328t-.766-3.484v-1.25q0-3.203 1.5-4.969 1.5-1.781 4.22-1.781 2.218 0 3.577 1.14 1.36 1.141 1.672 3.235h-1.875q-.531-2.828-3.36-2.828-1.89 0-2.859 1.328-.968 1.328-.984 3.828v1.172q0 2.39 1.094 3.797 1.094 1.406 2.953 1.406 1.062 0 1.844-.234.797-.235 1.312-.782v-3.203h-3.281v-1.515h5.156zm5.172 1.86h-1.797v-15h1.797zm5 0h-1.797V30.537h1.797zM144.1 27.725q0-.438.266-.735.28-.312.796-.312.532 0 .797.312.282.297.282.735 0 .437-.282.734-.265.297-.797.297-.515 0-.796-.297-.266-.297-.266-.734m6.687 2.812.047 1.172q1.172-1.375 3.141-1.375 2.219 0 3.016 1.703.53-.765 1.375-1.234.843-.469 2-.469 3.468 0 3.53 3.688V41.1h-1.812v-6.97q0-1.14-.515-1.702-.516-.563-1.735-.563-1 0-1.672.61-.656.593-.765 1.609V41.1h-1.813v-6.922q0-2.313-2.265-2.313-1.782 0-2.422 1.516V41.1h-1.813V30.537zm25.235 5.39q0 2.423-1.11 3.907-1.093 1.469-2.984 1.469-1.922 0-3.031-1.235v5.094H167.1V30.537h1.64l.094 1.172q1.094-1.375 3.063-1.375 1.906 0 3.015 1.438t1.11 4zm-1.813-.202q0-1.782-.765-2.813-.75-1.047-2.078-1.047-1.641 0-2.47 1.453v5.063q.813 1.437 2.485 1.437 1.297 0 2.063-1.03.765-1.032.765-3.063m10.032 2.578q0-.735-.547-1.14-.547-.407-1.922-.704t-2.188-.703q-.797-.406-1.187-.969-.375-.578-.375-1.36 0-1.296 1.094-2.187 1.093-.906 2.812-.906 1.797 0 2.906.938 1.125.921 1.125 2.359h-1.828q0-.734-.625-1.266-.625-.547-1.578-.547-1 0-1.562.438-.547.422-.547 1.125 0 .64.515.984.516.328 1.875.64 1.36.298 2.188.72.844.406 1.25 1 .406.593.406 1.437 0 1.422-1.14 2.281-1.126.86-2.938.86-1.266 0-2.25-.453-.969-.453-1.531-1.25-.547-.813-.547-1.75h1.812q.047.906.72 1.437.687.531 1.796.531 1.031 0 1.64-.406.626-.422.626-1.11m8.234 3q-2.14 0-3.5-1.406-1.344-1.422-1.344-3.782v-.343q0-1.563.594-2.797.61-1.235 1.687-1.938 1.079-.703 2.344-.703 2.063 0 3.203 1.36 1.141 1.359 1.141 3.89v.75h-7.156q.031 1.563.906 2.531.875.953 2.219.953.968 0 1.625-.39.672-.39 1.172-1.031l1.093.859q-1.328 2.047-3.984 2.047m-.219-9.485q-1.094 0-1.844.797-.734.797-.906 2.235h5.281v-.141q-.078-1.375-.75-2.125-.656-.766-1.78-.766m11.766 3.516q0-2.219.594-4.25.593-2.031 1.765-3.687 1.172-1.657 2.422-2.344l.375 1.187q-1.422 1.094-2.344 3.344-.906 2.25-1 5.031v.828q0 3.766 1.375 6.547.828 1.657 1.97 2.594l-.376 1.11q-1.297-.72-2.469-2.422-2.312-3.329-2.312-7.938m9.234 4.234h6.75V41.1h-8.625V26.88h1.875zm11.125 1.532h-1.875V26.88h1.875zm8.203-5.75h-3.328v5.75h-1.89V26.88h4.703q2.406 0 3.703 1.095 1.297 1.093 1.297 3.187 0 1.328-.719 2.313-.719.984-2 1.468l3.344 6.032v.125h-2.016zm-3.328-1.532h2.875q1.39 0 2.219-.718.828-.735.828-1.938 0-1.328-.797-2.031-.781-.703-2.265-.703h-2.86zm14.313.938q-2.422-.688-3.516-1.688-1.094-1.015-1.094-2.5 0-1.687 1.344-2.78 1.344-1.11 3.484-1.11 1.47 0 2.61.578 1.156.562 1.781 1.562.625.985.625 2.172h-1.875q0-1.281-.828-2.015-.813-.75-2.313-.75-1.39 0-2.171.609-.766.61-.766 1.703 0 .86.734 1.469.735.594 2.5 1.094 1.782.5 2.782 1.109 1 .594 1.484 1.39.484.798.484 1.891 0 1.719-1.343 2.766-1.344 1.047-3.61 1.047-1.453 0-2.734-.563-1.266-.562-1.953-1.531-.688-.984-.688-2.234h1.89q0 1.297.954 2.047.953.734 2.531.734 1.485 0 2.281-.594.797-.61.797-1.656 0-1.047-.734-1.61-.734-.578-2.656-1.14m11.281 1.047h-4.766v-1.485h4.766zm13.031 3.437q-.734 1.032-2.031 1.547-1.281.516-3 .516-1.75 0-3.094-.813-1.344-.828-2.078-2.328t-.766-3.484v-1.25q0-3.203 1.5-4.969 1.5-1.781 4.22-1.781 2.218 0 3.577 1.14 1.36 1.141 1.672 3.235h-1.875q-.531-2.828-3.36-2.828-1.89 0-2.859 1.328-.968 1.328-.984 3.828v1.172q0 2.39 1.094 3.797 1.094 1.406 2.953 1.406 1.062 0 1.844-.234.797-.235 1.312-.782v-3.203h-3.281v-1.515h5.156zm5.375.328h6.75V41.1h-8.625V26.88h1.875zm11.125 1.532h-1.875V26.88h1.875zm6.875-5.672q0 2.172-.578 4.172-.562 2-1.734 3.687-1.172 1.688-2.47 2.406l-.374-1.109q1.5-1.156 2.406-3.578.922-2.422.938-5.39v-.313q0-2.047-.438-3.813-.422-1.765-1.187-3.156-.766-1.39-1.72-2.172l.376-1.11q1.297.72 2.453 2.391 1.172 1.657 1.75 3.672t.578 4.313"/></svg>