<svg version="1.1" viewBox="0.0 0.0 707.0 469.0" fill="none" stroke="none" stroke-linecap="square" stroke-miterlimit="10" width="707" height="469" xmlns:xlink="http://www.w3.org/1999/xlink" xmlns="http://www.w3.org/2000/svg"><path fill="#ffffff" d="M0 0L707.0 0L707.0 469.0L0 469.0L0 0Z" fill-rule="nonzero"/><path stroke="#333333" stroke-width="1.0" stroke-linecap="butt" d="M85.5 391.5L574.5 391.5" fill-rule="nonzero"/><path stroke="#cccccc" stroke-width="1.0" stroke-linecap="butt" d="M85.5 345.5L574.5 345.5" fill-rule="nonzero"/><path stroke="#cccccc" stroke-width="1.0" stroke-linecap="butt" d="M85.5 299.5L574.5 299.5" fill-rule="nonzero"/><path stroke="#cccccc" stroke-width="1.0" stroke-linecap="butt" d="M85.5 253.5L574.5 253.5" fill-rule="nonzero"/><path stroke="#cccccc" stroke-width="1.0" stroke-linecap="butt" d="M85.5 208.5L574.5 208.5" fill-rule="nonzero"/><path stroke="#cccccc" stroke-width="1.0" stroke-linecap="butt" d="M85.5 162.5L574.5 162.5" fill-rule="nonzero"/><path stroke="#cccccc" stroke-width="1.0" stroke-linecap="butt" d="M85.5 116.5L574.5 116.5" fill-rule="nonzero"/><path stroke="#cccccc" stroke-width="1.0" stroke-linecap="butt" d="M85.5 70.5L574.5 70.5" fill-rule="nonzero"/><path stroke="#e6e6e6" stroke-width="1.0" stroke-linecap="butt" d="M85.5 380.5L574.5 380.5" fill-rule="nonzero"/><path stroke="#e6e6e6" stroke-width="1.0" stroke-linecap="butt" d="M85.5 368.5L574.5 368.5" fill-rule="nonzero"/><path stroke="#e6e6e6" stroke-width="1.0" stroke-linecap="butt" d="M85.5 357.5L574.5 357.5" fill-rule="nonzero"/><path stroke="#e6e6e6" stroke-width="1.0" stroke-linecap="butt" d="M85.5 334.5L574.5 334.5" fill-rule="nonzero"/><path stroke="#e6e6e6" stroke-width="1.0" stroke-linecap="butt" d="M85.5 322.5L574.5 322.5" fill-rule="nonzero"/><path stroke="#e6e6e6" stroke-width="1.0" stroke-linecap="butt" d="M85.5 311.5L574.5 311.5" fill-rule="nonzero"/><path stroke="#e6e6e6" stroke-width="1.0" stroke-linecap="butt" d="M85.5 288.5L574.5 288.5" fill-rule="nonzero"/><path stroke="#e6e6e6" stroke-width="1.0" stroke-linecap="butt" d="M85.5 276.5L574.5 276.5" fill-rule="nonzero"/><path stroke="#e6e6e6" stroke-width="1.0" stroke-linecap="butt" d="M85.5 265.5L574.5 265.5" fill-rule="nonzero"/><path stroke="#e6e6e6" stroke-width="1.0" stroke-linecap="butt" d="M85.5 242.5L574.5 242.5" fill-rule="nonzero"/><path stroke="#e6e6e6" stroke-width="1.0" stroke-linecap="butt" d="M85.5 231.5L574.5 231.5" fill-rule="nonzero"/><path stroke="#e6e6e6" stroke-width="1.0" stroke-linecap="butt" d="M85.5 219.5L574.5 219.5" fill-rule="nonzero"/><path stroke="#e6e6e6" stroke-width="1.0" stroke-linecap="butt" d="M85.5 196.5L574.5 196.5" fill-rule="nonzero"/><path stroke="#e6e6e6" stroke-width="1.0" stroke-linecap="butt" d="M85.5 185.5L574.5 185.5" fill-rule="nonzero"/><path stroke="#e6e6e6" stroke-width="1.0" stroke-linecap="butt" d="M85.5 173.5L574.5 173.5" fill-rule="nonzero"/><path stroke="#e6e6e6" stroke-width="1.0" stroke-linecap="butt" d="M85.5 150.5L574.5 150.5" fill-rule="nonzero"/><path stroke="#e6e6e6" stroke-width="1.0" stroke-linecap="butt" d="M85.5 139.5L574.5 139.5" fill-rule="nonzero"/><path stroke="#e6e6e6" stroke-width="1.0" stroke-linecap="butt" d="M85.5 127.5L574.5 127.5" fill-rule="nonzero"/><path stroke="#e6e6e6" stroke-width="1.0" stroke-linecap="butt" d="M85.5 104.5L574.5 104.5" fill-rule="nonzero"/><path stroke="#e6e6e6" stroke-width="1.0" stroke-linecap="butt" d="M85.5 93.5L574.5 93.5" fill-rule="nonzero"/><path stroke="#e6e6e6" stroke-width="1.0" stroke-linecap="butt" d="M85.5 82.5L574.5 82.5" fill-rule="nonzero"/><clipPath id="id_0"><path d="M85.45 70.583336L574.05225 70.583336L574.05225 391.55L85.45 391.55L85.45 70.583336Z" clip-rule="nonzero"/></clipPath><path stroke="#ea4335" stroke-width="2.0" stroke-linecap="butt" clip-path="url(#id_0)" d="M115.98764 318.1862C115.98764 318.1862 156.7045 296.78842 177.06291 290.67477C197.42134 284.5611 217.77977 284.5611 238.1382 281.50427C258.4966 278.44745 278.85504 276.15485 299.21347 272.3338C319.5719 268.5128 339.93033 260.87073 360.28876 258.5781C380.6472 256.28546 401.0056 260.1065 421.364 258.5781C441.72244 257.04968 462.08087 251.70024 482.4393 249.40762C502.79773 247.115 543.5146 244.82239 543.5146 244.82239" fill-rule="nonzero"/><path stroke="#46bdc6" stroke-width="2.0" stroke-linecap="butt" clip-path="url(#id_0)" d="M115.98764 322.77142C115.98764 322.77142 156.7045 286.08954 177.06291 272.3338C197.42134 258.5781 217.77977 248.64342 238.1382 240.23714C258.4966 231.83087 278.85504 226.48143 299.21347 221.8962C319.5719 217.31096 339.93033 215.78255 360.28876 212.72571C380.6472 209.66888 401.0056 205.84785 421.364 203.55524C441.72244 201.26262 462.08087 201.26262 482.4393 198.97C502.79773 196.67738 543.5146 189.79953 543.5146 189.79953" fill-rule="nonzero"/><path stroke="#38761d" stroke-width="2.0" stroke-linecap="butt" clip-path="url(#id_0)" d="M115.98764 318.1862C115.98764 318.1862 156.7045 295.26 177.06291 286.08954C197.42134 276.91904 217.77977 270.8054 238.1382 263.16333C258.4966 255.52127 278.85504 246.3508 299.21347 240.23714C319.5719 234.12349 339.93033 231.06667 360.28876 226.48143C380.6472 221.8962 401.0056 216.54675 421.364 212.72571C441.72244 208.90468 462.08087 206.61206 482.4393 203.55524C502.79773 200.49841 543.5146 194.38477 543.5146 194.38477" fill-rule="nonzero"/><path fill="#ea4335" clip-path="url(#id_0)" d="M117.98764 318.1862C117.98764 319.29077 117.09221 320.1862 115.98764 320.1862C114.88307 320.1862 113.98764 319.29077 113.98764 318.1862C113.98764 317.08163 114.88307 316.1862 115.98764 316.1862C117.09221 316.1862 117.98764 317.08163 117.98764 318.1862Z" fill-rule="nonzero"/><path fill="#ea4335" clip-path="url(#id_0)" d="M179.06291 290.67477C179.06291 291.77933 178.16748 292.67477 177.06291 292.67477C175.95834 292.67477 175.06291 291.77933 175.06291 290.67477C175.06291 289.5702 175.95834 288.67477 177.06291 288.67477C178.16748 288.67477 179.06291 289.5702 179.06291 290.67477Z" fill-rule="nonzero"/><path fill="#ea4335" clip-path="url(#id_0)" d="M240.1382 281.50427C240.1382 282.60886 239.24277 283.50427 238.1382 283.50427C237.03363 283.50427 236.1382 282.60886 236.1382 281.50427C236.1382 280.39972 237.03363 279.50427 238.1382 279.50427C239.24277 279.50427 240.1382 280.39972 240.1382 281.50427Z" fill-rule="nonzero"/><path fill="#ea4335" clip-path="url(#id_0)" d="M301.21347 272.3338C301.21347 273.4384 300.31805 274.3338 299.21347 274.3338C298.10892 274.3338 297.21347 273.4384 297.21347 272.3338C297.21347 271.22925 298.10892 270.3338 299.21347 270.3338C300.31805 270.3338 301.21347 271.22925 301.21347 272.3338Z" fill-rule="nonzero"/><path fill="#ea4335" clip-path="url(#id_0)" d="M362.28876 258.5781C362.28876 259.68268 361.3933 260.5781 360.28876 260.5781C359.18417 260.5781 358.28876 259.68268 358.28876 258.5781C358.28876 257.4735 359.18417 256.5781 360.28876 256.5781C361.3933 256.5781 362.28876 257.4735 362.28876 258.5781Z" fill-rule="nonzero"/><path fill="#ea4335" clip-path="url(#id_0)" d="M423.364 258.5781C423.364 259.68268 422.4686 260.5781 421.364 260.5781C420.25946 260.5781 419.364 259.68268 419.364 258.5781C419.364 257.4735 420.25946 256.5781 421.364 256.5781C422.4686 256.5781 423.364 257.4735 423.364 258.5781Z" fill-rule="nonzero"/><path fill="#ea4335" clip-path="url(#id_0)" d="M484.4393 249.40762C484.4393 250.51219 483.54388 251.40762 482.4393 251.40762C481.33475 251.40762 480.4393 250.51219 480.4393 249.40762C480.4393 248.30305 481.33475 247.40762 482.4393 247.40762C483.54388 247.40762 484.4393 248.30305 484.4393 249.40762Z" fill-rule="nonzero"/><path fill="#ea4335" clip-path="url(#id_0)" d="M545.5146 244.82239C545.5146 245.92696 544.61914 246.82239 543.5146 246.82239C542.41003 246.82239 541.5146 245.92696 541.5146 244.82239C541.5146 243.7178 542.41003 242.82239 543.5146 242.82239C544.61914 242.82239 545.5146 243.7178 545.5146 244.82239Z" fill-rule="nonzero"/><path fill="#46bdc6" clip-path="url(#id_0)" d="M117.98764 322.77142C117.98764 323.876 117.09221 324.77142 115.98764 324.77142C114.88307 324.77142 113.98764 323.876 113.98764 322.77142C113.98764 321.66687 114.88307 320.77142 115.98764 320.77142C117.09221 320.77142 117.98764 321.66687 117.98764 322.77142Z" fill-rule="nonzero"/><path fill="#46bdc6" clip-path="url(#id_0)" d="M179.06291 272.3338C179.06291 273.4384 178.16748 274.3338 177.06291 274.3338C175.95834 274.3338 175.06291 273.4384 175.06291 272.3338C175.06291 271.22925 175.95834 270.3338 177.06291 270.3338C178.16748 270.3338 179.06291 271.22925 179.06291 272.3338Z" fill-rule="nonzero"/><path fill="#46bdc6" clip-path="url(#id_0)" d="M240.1382 240.23714C240.1382 241.3417 239.24277 242.23714 238.1382 242.23714C237.03363 242.23714 236.1382 241.3417 236.1382 240.23714C236.1382 239.13257 237.03363 238.23714 238.1382 238.23714C239.24277 238.23714 240.1382 239.13257 240.1382 240.23714Z" fill-rule="nonzero"/><path fill="#46bdc6" clip-path="url(#id_0)" d="M301.21347 221.8962C301.21347 223.00076 300.31805 223.8962 299.21347 223.8962C298.10892 223.8962 297.21347 223.00076 297.21347 221.8962C297.21347 220.79163 298.10892 219.8962 299.21347 219.8962C300.31805 219.8962 301.21347 220.79163 301.21347 221.8962Z" fill-rule="nonzero"/><path fill="#46bdc6" clip-path="url(#id_0)" d="M362.28876 212.72571C362.28876 213.83028 361.3933 214.72571 360.28876 214.72571C359.18417 214.72571 358.28876 213.83028 358.28876 212.72571C358.28876 211.62114 359.18417 210.72571 360.28876 210.72571C361.3933 210.72571 362.28876 211.62114 362.28876 212.72571Z" fill-rule="nonzero"/><path fill="#46bdc6" clip-path="url(#id_0)" d="M423.364 203.55524C423.364 204.6598 422.4686 205.55524 421.364 205.55524C420.25946 205.55524 419.364 204.6598 419.364 203.55524C419.364 202.45067 420.25946 201.55524 421.364 201.55524C422.4686 201.55524 423.364 202.45067 423.364 203.55524Z" fill-rule="nonzero"/><path fill="#46bdc6" clip-path="url(#id_0)" d="M484.4393 198.97C484.4393 200.07457 483.54388 200.97 482.4393 200.97C481.33475 200.97 480.4393 200.07457 480.4393 198.97C480.4393 197.86543 481.33475 196.97 482.4393 196.97C483.54388 196.97 484.4393 197.86543 484.4393 198.97Z" fill-rule="nonzero"/><path fill="#46bdc6" clip-path="url(#id_0)" d="M545.5146 189.79953C545.5146 190.9041 544.61914 191.79953 543.5146 191.79953C542.41003 191.79953 541.5146 190.9041 541.5146 189.79953C541.5146 188.69496 542.41003 187.79953 543.5146 187.79953C544.61914 187.79953 545.5146 188.69496 545.5146 189.79953Z" fill-rule="nonzero"/><path fill="#38761d" clip-path="url(#id_0)" d="M117.98764 318.1862C117.98764 319.29077 117.09221 320.1862 115.98764 320.1862C114.88307 320.1862 113.98764 319.29077 113.98764 318.1862C113.98764 317.08163 114.88307 316.1862 115.98764 316.1862C117.09221 316.1862 117.98764 317.08163 117.98764 318.1862Z" fill-rule="nonzero"/><path fill="#38761d" clip-path="url(#id_0)" d="M179.06291 286.08954C179.06291 287.1941 178.16748 288.08954 177.06291 288.08954C175.95834 288.08954 175.06291 287.1941 175.06291 286.08954C175.06291 284.98495 175.95834 284.08954 177.06291 284.08954C178.16748 284.08954 179.06291 284.98495 179.06291 286.08954Z" fill-rule="nonzero"/><path fill="#38761d" clip-path="url(#id_0)" d="M240.1382 263.16333C240.1382 264.2679 239.24277 265.16333 238.1382 265.16333C237.03363 265.16333 236.1382 264.2679 236.1382 263.16333C236.1382 262.05878 237.03363 261.16333 238.1382 261.16333C239.24277 261.16333 240.1382 262.05878 240.1382 263.16333Z" fill-rule="nonzero"/><path fill="#38761d" clip-path="url(#id_0)" d="M301.21347 240.23714C301.21347 241.3417 300.31805 242.23714 299.21347 242.23714C298.10892 242.23714 297.21347 241.3417 297.21347 240.23714C297.21347 239.13257 298.10892 238.23714 299.21347 238.23714C300.31805 238.23714 301.21347 239.13257 301.21347 240.23714Z" fill-rule="nonzero"/><path fill="#38761d" clip-path="url(#id_0)" d="M362.28876 226.48143C362.28876 227.586 361.3933 228.48143 360.28876 228.48143C359.18417 228.48143 358.28876 227.586 358.28876 226.48143C358.28876 225.37686 359.18417 224.48143 360.28876 224.48143C361.3933 224.48143 362.28876 225.37686 362.28876 226.48143Z" fill-rule="nonzero"/><path fill="#38761d" clip-path="url(#id_0)" d="M423.364 212.72571C423.364 213.83028 422.4686 214.72571 421.364 214.72571C420.25946 214.72571 419.364 213.83028 419.364 212.72571C419.364 211.62114 420.25946 210.72571 421.364 210.72571C422.4686 210.72571 423.364 211.62114 423.364 212.72571Z" fill-rule="nonzero"/><path fill="#38761d" clip-path="url(#id_0)" d="M484.4393 203.55524C484.4393 204.6598 483.54388 205.55524 482.4393 205.55524C481.33475 205.55524 480.4393 204.6598 480.4393 203.55524C480.4393 202.45067 481.33475 201.55524 482.4393 201.55524C483.54388 201.55524 484.4393 202.45067 484.4393 203.55524Z" fill-rule="nonzero"/><path fill="#38761d" clip-path="url(#id_0)" d="M545.5146 194.38477C545.5146 195.48933 544.61914 196.38477 543.5146 196.38477C542.41003 196.38477 541.5146 195.48933 541.5146 194.38477C541.5146 193.2802 542.41003 192.38477 543.5146 192.38477C544.61914 192.38477 545.5146 193.2802 545.5146 194.38477Z" fill-rule="nonzero"/><path fill="#000000" d="M310.11047 441.78436Q310.6886 441.78436 311.1261 441.4406Q311.5636 441.08124 311.61047 440.55L312.64172 440.55Q312.61047 441.09686 312.2511 441.59686Q311.90735 442.08124 311.32922 442.3781Q310.76672 442.675 310.11047 442.675Q308.8136 442.675 308.04797 441.8156Q307.29797 440.9406 307.29797 439.4406L307.29797 439.2531Q307.29797 438.33124 307.6261 437.6125Q307.96985 436.89374 308.59485 436.5031Q309.23547 436.09686 310.11047 436.09686Q311.17297 436.09686 311.8761 436.7375Q312.59485 437.3625 312.64172 438.39374L311.61047 438.39374Q311.5636 437.76874 311.14172 437.3781Q310.71985 436.9875 310.11047 436.9875Q309.28235 436.9875 308.82922 437.58124Q308.3761 438.175 308.3761 439.3L308.3761 439.5031Q308.3761 440.59686 308.82922 441.1906Q309.28235 441.78436 310.11047 441.78436ZM317.48547 442.55Q317.39172 442.3625 317.32922 441.8781Q316.57922 442.675 315.53235 442.675Q314.59485 442.675 313.98547 442.14374Q313.39172 441.6125 313.39172 440.78436Q313.39172 439.8 314.14172 439.2531Q314.89172 438.70624 316.26672 438.70624L317.3136 438.70624L317.3136 438.20624Q317.3136 437.64374 316.96985 437.3156Q316.64172 436.97186 315.96985 436.97186Q315.39172 436.97186 315.0011 437.26874Q314.61047 437.55 314.61047 437.97186L313.51672 437.97186Q313.51672 437.4875 313.84485 437.05Q314.1886 436.6125 314.76672 436.3625Q315.34485 436.09686 316.03235 436.09686Q317.14172 436.09686 317.7511 436.64374Q318.3761 437.1906 318.40735 438.14374L318.40735 441.0656Q318.40735 441.9406 318.6261 442.45624L318.6261 442.55L317.48547 442.55ZM315.6886 441.72186Q316.20422 441.72186 316.65735 441.45624Q317.11047 441.1906 317.3136 440.76874L317.3136 439.47186L316.46985 439.47186Q314.46985 439.47186 314.46985 440.64374Q314.46985 441.14374 314.8136 441.4406Q315.15735 441.72186 315.6886 441.72186ZM325.92297 439.45624Q325.92297 440.89374 325.26672 441.78436Q324.61047 442.675 323.46985 442.675Q322.3136 442.675 321.65735 441.9406L321.65735 444.9875L320.57922 444.9875L320.57922 436.20624L321.5636 436.20624L321.61047 436.90936Q322.28235 436.09686 323.45422 436.09686Q324.59485 436.09686 325.2511 436.95624Q325.92297 437.8156 325.92297 439.34686L325.92297 439.45624ZM324.84485 439.33124Q324.84485 438.2531 324.3761 437.64374Q323.92297 437.01874 323.1261 437.01874Q322.14172 437.01874 321.65735 437.8781L321.65735 440.90936Q322.14172 441.78436 323.14172 441.78436Q323.92297 441.78436 324.3761 441.175Q324.84485 440.55 324.84485 439.33124ZM331.48547 442.55Q331.39172 442.3625 331.32922 441.8781Q330.57922 442.675 329.53235 442.675Q328.59485 442.675 327.98547 442.14374Q327.39172 441.6125 327.39172 440.78436Q327.39172 439.8 328.14172 439.2531Q328.89172 438.70624 330.26672 438.70624L331.3136 438.70624L331.3136 438.20624Q331.3136 437.64374 330.96985 437.3156Q330.64172 436.97186 329.96985 436.97186Q329.39172 436.97186 329.0011 437.26874Q328.61047 437.55 328.61047 437.97186L327.51672 437.97186Q327.51672 437.4875 327.84485 437.05Q328.1886 436.6125 328.76672 436.3625Q329.34485 436.09686 330.03235 436.09686Q331.14172 436.09686 331.7511 436.64374Q332.3761 437.1906 332.40735 438.14374L332.40735 441.0656Q332.40735 441.9406 332.6261 442.45624L332.6261 442.55L331.48547 442.55ZM329.6886 441.72186Q330.20422 441.72186 330.65735 441.45624Q331.11047 441.1906 331.3136 440.76874L331.3136 439.47186L330.46985 439.47186Q328.46985 439.47186 328.46985 440.64374Q328.46985 441.14374 328.8136 441.4406Q329.15735 441.72186 329.6886 441.72186ZM337.11047 441.78436Q337.6886 441.78436 338.1261 441.4406Q338.5636 441.08124 338.61047 440.55L339.64172 440.55Q339.61047 441.09686 339.2511 441.59686Q338.90735 442.08124 338.32922 442.3781Q337.76672 442.675 337.11047 442.675Q335.8136 442.675 335.04797 441.8156Q334.29797 440.9406 334.29797 439.4406L334.29797 439.2531Q334.29797 438.33124 334.6261 437.6125Q334.96985 436.89374 335.59485 436.5031Q336.23547 436.09686 337.11047 436.09686Q338.17297 436.09686 338.8761 436.7375Q339.59485 437.3625 339.64172 438.39374L338.61047 438.39374Q338.5636 437.76874 338.14172 437.3781Q337.71985 436.9875 337.11047 436.9875Q336.28235 436.9875 335.82922 437.58124Q335.3761 438.175 335.3761 439.3L335.3761 439.5031Q335.3761 440.59686 335.82922 441.1906Q336.28235 441.78436 337.11047 441.78436ZM341.7511 442.55L340.67297 442.55L340.67297 436.20624L341.7511 436.20624L341.7511 442.55ZM340.57922 434.53436Q340.57922 434.26874 340.73547 434.08124Q340.90735 433.89374 341.21985 433.89374Q341.53235 433.89374 341.6886 434.08124Q341.86047 434.26874 341.86047 434.53436Q341.86047 434.78436 341.6886 434.97186Q341.53235 435.14374 341.21985 435.14374Q340.90735 435.14374 340.73547 434.97186Q340.57922 434.78436 340.57922 434.53436ZM345.04797 434.675L345.04797 436.20624L346.21985 436.20624L346.21985 437.05L345.04797 437.05L345.04797 440.97186Q345.04797 441.3625 345.20422 441.55Q345.36047 441.7375 345.73547 441.7375Q345.92297 441.7375 346.2511 441.675L346.2511 442.55Q345.82922 442.675 345.42297 442.675Q344.70422 442.675 344.32922 442.2375Q343.95422 441.78436 343.95422 440.97186L343.95422 437.05L342.79797 437.05L342.79797 436.20624L343.95422 436.20624L343.95422 434.675L345.04797 434.675ZM349.64172 440.95624L351.1261 436.20624L352.28235 436.20624L349.73547 443.53436Q349.14172 445.1125 347.86047 445.1125L347.64172 445.09686L347.2511 445.01874L347.2511 444.14374L347.53235 444.15936Q348.09485 444.15936 348.39172 443.9406Q348.70422 443.72186 348.90735 443.1281L349.14172 442.47186L346.8761 436.20624L348.0636 436.20624L349.64172 440.95624Z" fill-rule="nonzero"/><path fill="#000000" d="M29.871862 256.9104Q28.996862 256.19165 28.996862 255.03542Q28.996862 253.01979 31.262487 253.00417L35.44999 253.00417L35.44999 254.09792L31.246862 254.09792Q30.574987 254.09792 30.246862 254.41042Q29.918737 254.70729 29.918737 255.36354Q29.918737 255.89479 30.199987 256.30103Q30.481237 256.69165 30.934362 256.9104L35.44999 256.9104L35.44999 257.98853L26.449987 257.98853L26.449987 256.9104L29.871862 256.9104ZM35.44999 249.81667L35.44999 250.89479L29.106237 250.89479L29.106237 249.81667L35.44999 249.81667ZM27.434362 250.98854Q27.168737 250.98854 26.981237 250.83229Q26.793737 250.66042 26.793737 250.34792Q26.793737 250.03542 26.981237 249.87917Q27.168737 249.70729 27.434362 249.70729Q27.684362 249.70729 27.871862 249.87917Q28.043737 250.03542 28.043737 250.34792Q28.043737 250.66042 27.871862 250.83229Q27.684362 250.98854 27.434362 250.98854ZM27.574987 246.51979L29.106237 246.51979L29.106237 245.34792L29.949987 245.34792L29.949987 246.51979L33.871864 246.51979Q34.26249 246.51979 34.44999 246.36354Q34.63749 246.20729 34.63749 245.83229Q34.63749 245.64479 34.57499 245.31667L35.44999 245.31667Q35.57499 245.73854 35.57499 246.14479Q35.57499 246.86354 35.13749 247.23854Q34.684364 247.61354 33.871864 247.61354L29.949987 247.61354L29.949987 248.76979L29.106237 248.76979L29.106237 247.61354L27.574987 247.61354L27.574987 246.51979ZM30.074987 237.92604Q30.043737 238.17604 30.043737 238.45729Q30.043737 239.53542 30.949987 239.91042L35.44999 239.91042L35.44999 240.98854L29.106237 240.98854L29.106237 239.94167L29.840612 239.92604Q28.996862 239.39479 28.996862 238.41042Q28.996862 238.09792 29.074987 237.92604L30.074987 237.92604ZM35.44999 233.08229Q35.26249 233.17604 34.778114 233.23854Q35.57499 233.98854 35.57499 235.03542Q35.57499 235.97292 35.04374 236.58229Q34.51249 237.17604 33.684364 237.17604Q32.69999 237.17604 32.153114 236.42604Q31.606237 235.67604 31.606237 234.30104L31.606237 233.25417L31.106237 233.25417Q30.543737 233.25417 30.215612 233.59792Q29.871862 233.92604 29.871862 234.59792Q29.871862 235.17604 30.168737 235.56667Q30.449987 235.95729 30.871862 235.95729L30.871862 237.05104Q30.387487 237.05104 29.949987 236.72292Q29.512487 236.37917 29.262487 235.80104Q28.996862 235.22292 28.996862 234.53542Q28.996862 233.42604 29.543737 232.81667Q30.090612 232.19167 31.043737 232.16042L33.965614 232.16042Q34.840614 232.16042 35.35624 231.94167L35.44999 231.94167L35.44999 233.08229ZM34.621864 234.87917Q34.621864 234.36354 34.35624 233.91042Q34.090614 233.45729 33.66874 233.25417L32.371864 233.25417L32.371864 234.09792Q32.371864 236.09792 33.54374 236.09792Q34.04374 236.09792 34.340614 235.75417Q34.621864 235.41042 34.621864 234.87917ZM27.574987 228.51979L29.106237 228.51979L29.106237 227.34792L29.949987 227.34792L29.949987 228.51979L33.871864 228.51979Q34.26249 228.51979 34.44999 228.36354Q34.63749 228.20729 34.63749 227.83229Q34.63749 227.64479 34.57499 227.31667L35.44999 227.31667Q35.57499 227.73854 35.57499 228.14479Q35.57499 228.86354 35.13749 229.23854Q34.684364 229.61354 33.871864 229.61354L29.949987 229.61354L29.949987 230.76979L29.106237 230.76979L29.106237 229.61354L27.574987 229.61354L27.574987 228.51979ZM35.44999 224.81667L35.44999 225.89479L29.106237 225.89479L29.106237 224.81667L35.44999 224.81667ZM27.434362 225.98854Q27.168737 225.98854 26.981237 225.83229Q26.793737 225.66042 26.793737 225.34792Q26.793737 225.03542 26.981237 224.87917Q27.168737 224.70729 27.434362 224.70729Q27.684362 224.70729 27.871862 224.87917Q28.043737 225.03542 28.043737 225.34792Q28.043737 225.66042 27.871862 225.83229Q27.684362 225.98854 27.434362 225.98854ZM32.215614 223.28542Q31.293737 223.28542 30.543737 222.92604Q29.793737 222.55104 29.403112 221.89479Q28.996862 221.23854 28.996862 220.41042Q28.996862 219.11354 29.887487 218.31667Q30.778112 217.50417 32.278114 217.50417L32.35624 217.50417Q33.278114 217.50417 34.01249 217.86354Q34.746864 218.22292 35.16874 218.87917Q35.57499 219.53542 35.57499 220.39479Q35.57499 221.67604 34.684364 222.48854Q33.778114 223.28542 32.29374 223.28542L32.215614 223.28542ZM32.35624 222.19167Q33.403114 222.19167 34.04374 221.70729Q34.684364 221.20729 34.684364 220.39479Q34.684364 219.56667 34.04374 219.08229Q33.38749 218.59792 32.215614 218.59792Q31.184362 218.59792 30.543737 219.09792Q29.887487 219.58229 29.887487 220.41042Q29.887487 221.20729 30.528112 221.70729Q31.153112 222.19167 32.35624 222.19167Z" fill-rule="nonzero"/><path fill="#000000" d="M69.5125 392.40936Q69.5125 394.3156 68.85625 395.2531Q68.21562 396.175 66.825 396.175Q65.46562 396.175 64.80937 395.26874Q64.15312 394.3625 64.12187 392.55L64.12187 391.1125Q64.12187 389.22186 64.7625 388.3156Q65.41875 387.39374 66.80937 387.39374Q68.18437 387.39374 68.84062 388.28436Q69.49687 389.15936 69.5125 391.0031L69.5125 392.40936ZM68.41875 390.925Q68.41875 389.55 68.02812 388.925Q67.65312 388.28436 66.80937 388.28436Q65.98125 388.28436 65.59062 388.925Q65.21562 389.55 65.21562 390.84686L65.21562 392.58124Q65.21562 393.95624 65.60625 394.6281Q66.0125 395.28436 66.825 395.28436Q67.62187 395.28436 68.0125 394.65936Q68.40312 394.03436 68.41875 392.70624L68.41875 390.925ZM71.05937 389.15936Q71.05937 388.39374 71.54375 387.89374Q72.04375 387.39374 72.80937 387.39374Q73.59062 387.39374 74.075 387.89374Q74.55937 388.39374 74.55937 389.1906L74.55937 389.6125Q74.55937 390.3781 74.05937 390.8781Q73.575 391.3625 72.825 391.3625Q72.05937 391.3625 71.55937 390.8781Q71.05937 390.3781 71.05937 389.5656L71.05937 389.15936ZM71.87187 389.6125Q71.87187 390.0656 72.12187 390.3625Q72.3875 390.65936 72.825 390.65936Q73.24687 390.65936 73.49687 390.3781Q73.74687 390.08124 73.74687 389.58124L73.74687 389.15936Q73.74687 388.70624 73.49687 388.40936Q73.24687 388.09686 72.80937 388.09686Q72.37187 388.09686 72.12187 388.40936Q71.87187 388.70624 71.87187 389.175L71.87187 389.6125ZM75.21562 393.95624Q75.21562 393.1906 75.7 392.70624Q76.2 392.20624 76.96562 392.20624Q77.73125 392.20624 78.21562 392.70624Q78.71562 393.1906 78.71562 394.0031L78.71562 394.40936Q78.71562 395.175 78.23125 395.675Q77.74687 396.175 76.98125 396.175Q76.21562 396.175 75.71562 395.6906Q75.21562 395.1906 75.21562 394.3781L75.21562 393.95624ZM76.02812 394.40936Q76.02812 394.8781 76.27812 395.175Q76.54375 395.47186 76.98125 395.47186Q77.40312 395.47186 77.65312 395.1906Q77.90312 394.89374 77.90312 394.39374L77.90312 393.95624Q77.90312 393.4875 77.6375 393.20624Q77.3875 392.90936 76.96562 392.90936Q76.54375 392.90936 76.27812 393.20624Q76.02812 393.4875 76.02812 393.9875L76.02812 394.40936ZM73.075 395.40936L72.45 395.01874L76.62187 388.34686L77.23125 388.7375L73.075 395.40936Z" fill-rule="nonzero"/><path fill="#000000" d="M60.715626 350.19763L59.6375 350.19763L59.6375 342.97888L57.45 343.77576L57.45 342.79138L60.559376 341.6195L60.715626 341.6195L60.715626 350.19763ZM69.5125 346.557Q69.5125 348.46326 68.85625 349.40076Q68.21562 350.32263 66.825 350.32263Q65.46562 350.32263 64.80937 349.41638Q64.15312 348.51013 64.12187 346.69763L64.12187 345.26013Q64.12187 343.3695 64.7625 342.46326Q65.41875 341.54138 66.80937 341.54138Q68.18437 341.54138 68.84062 342.432Q69.49687 343.307 69.5125 345.15076L69.5125 346.557ZM68.41875 345.07263Q68.41875 343.69763 68.02812 343.07263Q67.65312 342.432 66.80937 342.432Q65.98125 342.432 65.59062 343.07263Q65.21562 343.69763 65.21562 344.9945L65.21562 346.72888Q65.21562 348.10388 65.60625 348.77576Q66.0125 349.432 66.825 349.432Q67.62187 349.432 68.0125 348.807Q68.40312 348.182 68.41875 346.85388L68.41875 345.07263ZM71.05937 343.307Q71.05937 342.54138 71.54375 342.04138Q72.04375 341.54138 72.80937 341.54138Q73.59062 341.54138 74.075 342.04138Q74.55937 342.54138 74.55937 343.33826L74.55937 343.76013Q74.55937 344.52576 74.05937 345.02576Q73.575 345.51013 72.825 345.51013Q72.05937 345.51013 71.55937 345.02576Q71.05937 344.52576 71.05937 343.71326L71.05937 343.307ZM71.87187 343.76013Q71.87187 344.21326 72.12187 344.51013Q72.3875 344.807 72.825 344.807Q73.24687 344.807 73.49687 344.52576Q73.74687 344.22888 73.74687 343.72888L73.74687 343.307Q73.74687 342.85388 73.49687 342.557Q73.24687 342.2445 72.80937 342.2445Q72.37187 342.2445 72.12187 342.557Q71.87187 342.85388 71.87187 343.32263L71.87187 343.76013ZM75.21562 348.10388Q75.21562 347.33826 75.7 346.85388Q76.2 346.35388 76.96562 346.35388Q77.73125 346.35388 78.21562 346.85388Q78.71562 347.33826 78.71562 348.15076L78.71562 348.557Q78.71562 349.32263 78.23125 349.82263Q77.74687 350.32263 76.98125 350.32263Q76.21562 350.32263 75.71562 349.83826Q75.21562 349.33826 75.21562 348.52576L75.21562 348.10388ZM76.02812 348.557Q76.02812 349.02576 76.27812 349.32263Q76.54375 349.6195 76.98125 349.6195Q77.40312 349.6195 77.65312 349.33826Q77.90312 349.04138 77.90312 348.54138L77.90312 348.10388Q77.90312 347.63513 77.6375 347.35388Q77.3875 347.057 76.96562 347.057Q76.54375 347.057 76.27812 347.35388Q76.02812 347.63513 76.02812 348.13513L76.02812 348.557ZM73.075 349.557L72.45 349.16638L76.62187 342.4945L77.23125 342.88513L73.075 349.557Z" fill-rule="nonzero"/><path fill="#000000" d="M62.746876 304.34525L57.153126 304.34525L57.153126 303.564L60.10625 300.28275Q60.7625 299.53275 61.0125 299.07962Q61.2625 298.61087 61.2625 298.11087Q61.2625 297.439 60.85625 297.01712Q60.465626 296.57962 59.778126 296.57962Q58.98125 296.57962 58.528126 297.04837Q58.075 297.5015 58.075 298.32962L56.996876 298.32962Q56.996876 297.14212 57.746876 296.42337Q58.5125 295.689 59.778126 295.689Q60.98125 295.689 61.66875 296.314Q62.35625 296.939 62.35625 297.98587Q62.35625 299.23587 60.746876 300.98587L58.465626 303.45462L62.746876 303.45462L62.746876 304.34525ZM69.5125 300.70462Q69.5125 302.61087 68.85625 303.54837Q68.21562 304.47025 66.825 304.47025Q65.46562 304.47025 64.80937 303.564Q64.15312 302.65775 64.12187 300.84525L64.12187 299.40775Q64.12187 297.51712 64.7625 296.61087Q65.41875 295.689 66.80937 295.689Q68.18437 295.689 68.84062 296.57962Q69.49687 297.45462 69.5125 299.29837L69.5125 300.70462ZM68.41875 299.22025Q68.41875 297.84525 68.02812 297.22025Q67.65312 296.57962 66.80937 296.57962Q65.98125 296.57962 65.59062 297.22025Q65.21562 297.84525 65.21562 299.14212L65.21562 300.8765Q65.21562 302.2515 65.60625 302.92337Q66.0125 303.57962 66.825 303.57962Q67.62187 303.57962 68.0125 302.95462Q68.40312 302.32962 68.41875 301.0015L68.41875 299.22025ZM71.05937 297.45462Q71.05937 296.689 71.54375 296.189Q72.04375 295.689 72.80937 295.689Q73.59062 295.689 74.075 296.189Q74.55937 296.689 74.55937 297.48587L74.55937 297.90775Q74.55937 298.67337 74.05937 299.17337Q73.575 299.65775 72.825 299.65775Q72.05937 299.65775 71.55937 299.17337Q71.05937 298.67337 71.05937 297.86087L71.05937 297.45462ZM71.87187 297.90775Q71.87187 298.36087 72.12187 298.65775Q72.3875 298.95462 72.825 298.95462Q73.24687 298.95462 73.49687 298.67337Q73.74687 298.3765 73.74687 297.8765L73.74687 297.45462Q73.74687 297.0015 73.49687 296.70462Q73.24687 296.39212 72.80937 296.39212Q72.37187 296.39212 72.12187 296.70462Q71.87187 297.0015 71.87187 297.47025L71.87187 297.90775ZM75.21562 302.2515Q75.21562 301.48587 75.7 301.0015Q76.2 300.5015 76.96562 300.5015Q77.73125 300.5015 78.21562 301.0015Q78.71562 301.48587 78.71562 302.29837L78.71562 302.70462Q78.71562 303.47025 78.23125 303.97025Q77.74687 304.47025 76.98125 304.47025Q76.21562 304.47025 75.71562 303.98587Q75.21562 303.48587 75.21562 302.67337L75.21562 302.2515ZM76.02812 302.70462Q76.02812 303.17337 76.27812 303.47025Q76.54375 303.76712 76.98125 303.76712Q77.40312 303.76712 77.65312 303.48587Q77.90312 303.189 77.90312 302.689L77.90312 302.2515Q77.90312 301.78275 77.6375 301.5015Q77.3875 301.20462 76.96562 301.20462Q76.54375 301.20462 76.27812 301.5015Q76.02812 301.78275 76.02812 302.28275L76.02812 302.70462ZM73.075 303.70462L72.45 303.314L76.62187 296.64212L77.23125 297.03275L73.075 303.70462Z" fill-rule="nonzero"/><path fill="#000000" d="M58.73125 253.69598L59.54375 253.69598Q60.325 253.68036 60.7625 253.28973Q61.2 252.89911 61.2 252.22723Q61.2 250.72723 59.7 250.72723Q58.996876 250.72723 58.575 251.13348Q58.16875 251.53973 58.16875 252.19598L57.075 252.19598Q57.075 251.18036 57.809376 250.50848Q58.559376 249.83661 59.7 249.83661Q60.903126 249.83661 61.590626 250.47723Q62.278126 251.11786 62.278126 252.25848Q62.278126 252.82098 61.91875 253.33661Q61.559376 253.85223 60.934376 254.11786Q61.6375 254.33661 62.0125 254.85223Q62.403126 255.36786 62.403126 256.11786Q62.403126 257.25848 61.653126 257.94598Q60.903126 258.61786 59.7 258.61786Q58.5125 258.61786 57.746876 257.9616Q56.996876 257.30536 56.996876 256.24286L58.090626 256.24286Q58.090626 256.91473 58.528126 257.32098Q58.965626 257.72723 59.715626 257.72723Q60.496876 257.72723 60.903126 257.32098Q61.325 256.8991 61.325 256.13348Q61.325 255.39911 60.871876 255.00848Q60.41875 254.60223 59.54375 254.58661L58.73125 254.58661L58.73125 253.69598ZM69.5125 254.85223Q69.5125 256.75848 68.85625 257.69598Q68.21562 258.61786 66.825 258.61786Q65.46562 258.61786 64.80937 257.7116Q64.15312 256.80536 64.12187 254.99286L64.12187 253.55536Q64.12187 251.66473 64.7625 250.75848Q65.41875 249.83661 66.80937 249.83661Q68.18437 249.83661 68.84062 250.72723Q69.49687 251.60223 69.5125 253.44598L69.5125 254.85223ZM68.41875 253.36786Q68.41875 251.99286 68.02812 251.36786Q67.65312 250.72723 66.80937 250.72723Q65.98125 250.72723 65.59062 251.36786Q65.21562 251.99286 65.21562 253.28973L65.21562 255.02411Q65.21562 256.3991 65.60625 257.07098Q66.0125 257.72723 66.825 257.72723Q67.62187 257.72723 68.0125 257.10223Q68.40312 256.47723 68.41875 255.14911L68.41875 253.36786ZM71.05937 251.60223Q71.05937 250.83661 71.54375 250.33661Q72.04375 249.83661 72.80937 249.83661Q73.59062 249.83661 74.075 250.33661Q74.55937 250.83661 74.55937 251.63348L74.55937 252.05536Q74.55937 252.82098 74.05937 253.32098Q73.575 253.80536 72.825 253.80536Q72.05937 253.80536 71.55937 253.32098Q71.05937 252.82098 71.05937 252.00848L71.05937 251.60223ZM71.87187 252.05536Q71.87187 252.50848 72.12187 252.80536Q72.3875 253.10223 72.825 253.10223Q73.24687 253.10223 73.49687 252.82098Q73.74687 252.52411 73.74687 252.02411L73.74687 251.60223Q73.74687 251.14911 73.49687 250.85223Q73.24687 250.53973 72.80937 250.53973Q72.37187 250.53973 72.12187 250.85223Q71.87187 251.14911 71.87187 251.61786L71.87187 252.05536ZM75.21562 256.3991Q75.21562 255.63348 75.7 255.14911Q76.2 254.64911 76.96562 254.64911Q77.73125 254.64911 78.21562 255.14911Q78.71562 255.63348 78.71562 256.44598L78.71562 256.85223Q78.71562 257.61786 78.23125 258.11786Q77.74687 258.61786 76.98125 258.61786Q76.21562 258.61786 75.71562 258.13348Q75.21562 257.63348 75.21562 256.82098L75.21562 256.3991ZM76.02812 256.85223Q76.02812 257.32098 76.27812 257.61786Q76.54375 257.91473 76.98125 257.91473Q77.40312 257.91473 77.65312 257.63348Q77.90312 257.3366 77.90312 256.8366L77.90312 256.3991Q77.90312 255.93036 77.6375 255.64911Q77.3875 255.35223 76.96562 255.35223Q76.54375 255.35223 76.27812 255.64911Q76.02812 255.93036 76.02812 256.43036L76.02812 256.85223ZM73.075 257.85223L72.45 257.4616L76.62187 250.78973L77.23125 251.18036L73.075 257.85223Z" fill-rule="nonzero"/><path fill="#000000" d="M61.73125 209.7811L62.91875 209.7811L62.91875 210.6561L61.73125 210.6561L61.73125 212.64047L60.653126 212.64047L60.653126 210.6561L56.7625 210.6561L56.7625 210.01547L60.575 204.10922L61.73125 204.10922L61.73125 209.7811ZM57.996876 209.7811L60.653126 209.7811L60.653126 205.5936L60.5125 205.82797L57.996876 209.7811ZM69.5125 208.99985Q69.5125 210.9061 68.85625 211.8436Q68.21562 212.76547 66.825 212.76547Q65.46562 212.76547 64.80937 211.85922Q64.15312 210.95297 64.12187 209.14047L64.12187 207.70297Q64.12187 205.81235 64.7625 204.9061Q65.41875 203.98422 66.80937 203.98422Q68.18437 203.98422 68.84062 204.87485Q69.49687 205.74985 69.5125 207.5936L69.5125 208.99985ZM68.41875 207.51547Q68.41875 206.14047 68.02812 205.51547Q67.65312 204.87485 66.80937 204.87485Q65.98125 204.87485 65.59062 205.51547Q65.21562 206.14047 65.21562 207.43735L65.21562 209.17172Q65.21562 210.54672 65.60625 211.2186Q66.0125 211.87485 66.825 211.87485Q67.62187 211.87485 68.0125 211.24985Q68.40312 210.62485 68.41875 209.29672L68.41875 207.51547ZM71.05937 205.74985Q71.05937 204.98422 71.54375 204.48422Q72.04375 203.98422 72.80937 203.98422Q73.59062 203.98422 74.075 204.48422Q74.55937 204.98422 74.55937 205.7811L74.55937 206.20297Q74.55937 206.9686 74.05937 207.4686Q73.575 207.95297 72.825 207.95297Q72.05937 207.95297 71.55937 207.4686Q71.05937 206.9686 71.05937 206.1561L71.05937 205.74985ZM71.87187 206.20297Q71.87187 206.6561 72.12187 206.95297Q72.3875 207.24985 72.825 207.24985Q73.24687 207.24985 73.49687 206.9686Q73.74687 206.67172 73.74687 206.17172L73.74687 205.74985Q73.74687 205.29672 73.49687 204.99985Q73.24687 204.68735 72.80937 204.68735Q72.37187 204.68735 72.12187 204.99985Q71.87187 205.29672 71.87187 205.76547L71.87187 206.20297ZM75.21562 210.54672Q75.21562 209.7811 75.7 209.29672Q76.2 208.79672 76.96562 208.79672Q77.73125 208.79672 78.21562 209.29672Q78.71562 209.7811 78.71562 210.5936L78.71562 210.99985Q78.71562 211.76547 78.23125 212.26547Q77.74687 212.76547 76.98125 212.76547Q76.21562 212.76547 75.71562 212.2811Q75.21562 211.7811 75.21562 210.9686L75.21562 210.54672ZM76.02812 210.99985Q76.02812 211.4686 76.27812 211.76547Q76.54375 212.06235 76.98125 212.06235Q77.40312 212.06235 77.65312 211.7811Q77.90312 211.48422 77.90312 210.98422L77.90312 210.54672Q77.90312 210.07797 77.6375 209.79672Q77.3875 209.49985 76.96562 209.49985Q76.54375 209.49985 76.27812 209.79672Q76.02812 210.07797 76.02812 210.57797L76.02812 210.99985ZM73.075 211.99985L72.45 211.60922L76.62187 204.93735L77.23125 205.32797L73.075 211.99985Z" fill-rule="nonzero"/><path fill="#000000" d="M57.653126 162.50685L58.090626 158.25685L62.465626 158.25685L62.465626 159.25685L59.0125 159.25685L58.746876 161.58498Q59.3875 161.20998 60.184376 161.20998Q61.340626 161.20998 62.028126 161.99123Q62.715626 162.75685 62.715626 164.06935Q62.715626 165.38185 61.996876 166.14748Q61.29375 166.9131 60.0125 166.9131Q58.8875 166.9131 58.16875 166.2881Q57.45 165.64748 57.35625 164.5381L58.371876 164.5381Q58.48125 165.27248 58.903126 165.64748Q59.325 166.02248 60.0125 166.02248Q60.7625 166.02248 61.2 165.50685Q61.6375 164.99123 61.6375 164.08498Q61.6375 163.2256 61.16875 162.70998Q60.7 162.19435 59.91875 162.19435Q59.215626 162.19435 58.809376 162.49123L58.528126 162.7256L57.653126 162.50685ZM69.5125 163.14748Q69.5125 165.05373 68.85625 165.99123Q68.21562 166.9131 66.825 166.9131Q65.46562 166.9131 64.80937 166.00685Q64.15312 165.1006 64.12187 163.2881L64.12187 161.8506Q64.12187 159.95998 64.7625 159.05373Q65.41875 158.13185 66.80937 158.13185Q68.18437 158.13185 68.84062 159.02248Q69.49687 159.89748 69.5125 161.74123L69.5125 163.14748ZM68.41875 161.6631Q68.41875 160.2881 68.02812 159.6631Q67.65312 159.02248 66.80937 159.02248Q65.98125 159.02248 65.59062 159.6631Q65.21562 160.2881 65.21562 161.58498L65.21562 163.31935Q65.21562 164.69435 65.60625 165.36623Q66.0125 166.02248 66.825 166.02248Q67.62187 166.02248 68.0125 165.39748Q68.40312 164.77248 68.41875 163.44435L68.41875 161.6631ZM71.05937 159.89748Q71.05937 159.13185 71.54375 158.63185Q72.04375 158.13185 72.80937 158.13185Q73.59062 158.13185 74.075 158.63185Q74.55937 159.13185 74.55937 159.92873L74.55937 160.3506Q74.55937 161.11623 74.05937 161.61623Q73.575 162.1006 72.825 162.1006Q72.05937 162.1006 71.55937 161.61623Q71.05937 161.11623 71.05937 160.30373L71.05937 159.89748ZM71.87187 160.3506Q71.87187 160.80373 72.12187 161.1006Q72.3875 161.39748 72.825 161.39748Q73.24687 161.39748 73.49687 161.11623Q73.74687 160.81935 73.74687 160.31935L73.74687 159.89748Q73.74687 159.44435 73.49687 159.14748Q73.24687 158.83498 72.80937 158.83498Q72.37187 158.83498 72.12187 159.14748Q71.87187 159.44435 71.87187 159.9131L71.87187 160.3506ZM75.21562 164.69435Q75.21562 163.92873 75.7 163.44435Q76.2 162.94435 76.96562 162.94435Q77.73125 162.94435 78.21562 163.44435Q78.71562 163.92873 78.71562 164.74123L78.71562 165.14748Q78.71562 165.9131 78.23125 166.4131Q77.74687 166.9131 76.98125 166.9131Q76.21562 166.9131 75.71562 166.42873Q75.21562 165.92873 75.21562 165.11623L75.21562 164.69435ZM76.02812 165.14748Q76.02812 165.61623 76.27812 165.9131Q76.54375 166.20998 76.98125 166.20998Q77.40312 166.20998 77.65312 165.92873Q77.90312 165.63185 77.90312 165.13185L77.90312 164.69435Q77.90312 164.2256 77.6375 163.94435Q77.3875 163.64748 76.96562 163.64748Q76.54375 163.64748 76.27812 163.94435Q76.02812 164.2256 76.02812 164.7256L76.02812 165.14748ZM73.075 166.14748L72.45 165.75685L76.62187 159.08498L77.23125 159.4756L73.075 166.14748Z" fill-rule="nonzero"/><path fill="#000000" d="M61.41875 112.404465L61.41875 113.310715L61.215626 113.310715Q59.95 113.341965 59.2 114.07634Q58.45 114.79509 58.325 116.10759Q59.0125 115.341965 60.16875 115.341965Q61.278126 115.341965 61.95 116.123215Q62.621876 116.904465 62.621876 118.154465Q62.621876 119.466965 61.903126 120.26384Q61.184376 121.060715 59.965626 121.060715Q58.746876 121.060715 57.98125 120.123215Q57.23125 119.17009 57.23125 117.685715L57.23125 117.279465Q57.23125 114.92009 58.23125 113.67009Q59.23125 112.42009 61.215626 112.404465L61.41875 112.404465ZM59.996876 116.248215Q59.434376 116.248215 58.965626 116.57634Q58.496876 116.904465 58.309376 117.42009L58.309376 117.810715Q58.309376 118.873215 58.778126 119.51384Q59.2625 120.154465 59.965626 120.154465Q60.7 120.154465 61.121876 119.623215Q61.54375 119.07634 61.54375 118.20134Q61.54375 117.32634 61.121876 116.79509Q60.7 116.248215 59.996876 116.248215ZM69.5125 117.29509Q69.5125 119.20134 68.85625 120.13884Q68.21562 121.060715 66.825 121.060715Q65.46562 121.060715 64.80937 120.154465Q64.15312 119.248215 64.12187 117.435715L64.12187 115.998215Q64.12187 114.10759 64.7625 113.20134Q65.41875 112.279465 66.80937 112.279465Q68.18437 112.279465 68.84062 113.17009Q69.49687 114.04509 69.5125 115.88884L69.5125 117.29509ZM68.41875 115.810715Q68.41875 114.435715 68.02812 113.810715Q67.65312 113.17009 66.80937 113.17009Q65.98125 113.17009 65.59062 113.810715Q65.21562 114.435715 65.21562 115.73259L65.21562 117.466965Q65.21562 118.841965 65.60625 119.51384Q66.0125 120.17009 66.825 120.17009Q67.62187 120.17009 68.0125 119.54509Q68.40312 118.92009 68.41875 117.591965L68.41875 115.810715ZM71.05937 114.04509Q71.05937 113.279465 71.54375 112.779465Q72.04375 112.279465 72.80937 112.279465Q73.59062 112.279465 74.075 112.779465Q74.55937 113.279465 74.55937 114.07634L74.55937 114.498215Q74.55937 115.26384 74.05937 115.76384Q73.575 116.248215 72.825 116.248215Q72.05937 116.248215 71.55937 115.76384Q71.05937 115.26384 71.05937 114.45134L71.05937 114.04509ZM71.87187 114.498215Q71.87187 114.95134 72.12187 115.248215Q72.3875 115.54509 72.825 115.54509Q73.24687 115.54509 73.49687 115.26384Q73.74687 114.966965 73.74687 114.466965L73.74687 114.04509Q73.74687 113.591965 73.49687 113.29509Q73.24687 112.98259 72.80937 112.98259Q72.37187 112.98259 72.12187 113.29509Q71.87187 113.591965 71.87187 114.060715L71.87187 114.498215ZM75.21562 118.841965Q75.21562 118.07634 75.7 117.591965Q76.2 117.091965 76.96562 117.091965Q77.73125 117.091965 78.21562 117.591965Q78.71562 118.07634 78.71562 118.88884L78.71562 119.29509Q78.71562 120.060715 78.23125 120.560715Q77.74687 121.060715 76.98125 121.060715Q76.21562 121.060715 75.71562 120.57634Q75.21562 120.07634 75.21562 119.26384L75.21562 118.841965ZM76.02812 119.29509Q76.02812 119.76384 76.27812 120.060715Q76.54375 120.35759 76.98125 120.35759Q77.40312 120.35759 77.65312 120.07634Q77.90312 119.779465 77.90312 119.279465L77.90312 118.841965Q77.90312 118.373215 77.6375 118.091965Q77.3875 117.79509 76.96562 117.79509Q76.54375 117.79509 76.27812 118.091965Q76.02812 118.373215 76.02812 118.873215L76.02812 119.29509ZM73.075 120.29509L72.45 119.904465L76.62187 113.23259L77.23125 113.623215L73.075 120.29509Z" fill-rule="nonzero"/><path fill="#000000" d="M62.66875 67.16146L59.1375 75.083336L57.996876 75.083336L61.5125 67.44271L56.903126 67.44271L56.903126 66.552086L62.66875 66.552086L62.66875 67.16146ZM69.5125 71.44271Q69.5125 73.34896 68.85625 74.28646Q68.21562 75.208336 66.825 75.208336Q65.46562 75.208336 64.80937 74.302086Q64.15312 73.395836 64.12187 71.583336L64.12187 70.145836Q64.12187 68.25521 64.7625 67.34896Q65.41875 66.427086 66.80937 66.427086Q68.18437 66.427086 68.84062 67.31771Q69.49687 68.19271 69.5125 70.03646L69.5125 71.44271ZM68.41875 69.958336Q68.41875 68.583336 68.02812 67.958336Q67.65312 67.31771 66.80937 67.31771Q65.98125 67.31771 65.59062 67.958336Q65.21562 68.583336 65.21562 69.88021L65.21562 71.614586Q65.21562 72.989586 65.60625 73.66146Q66.0125 74.31771 66.825 74.31771Q67.62187 74.31771 68.0125 73.69271Q68.40312 73.06771 68.41875 71.739586L68.41875 69.958336ZM71.05937 68.19271Q71.05937 67.427086 71.54375 66.927086Q72.04375 66.427086 72.80937 66.427086Q73.59062 66.427086 74.075 66.927086Q74.55937 67.427086 74.55937 68.22396L74.55937 68.645836Q74.55937 69.41146 74.05937 69.91146Q73.575 70.395836 72.825 70.395836Q72.05937 70.395836 71.55937 69.91146Q71.05937 69.41146 71.05937 68.59896L71.05937 68.19271ZM71.87187 68.645836Q71.87187 69.09896 72.12187 69.395836Q72.3875 69.69271 72.825 69.69271Q73.24687 69.69271 73.49687 69.41146Q73.74687 69.114586 73.74687 68.614586L73.74687 68.19271Q73.74687 67.739586 73.49687 67.44271Q73.24687 67.13021 72.80937 67.13021Q72.37187 67.13021 72.12187 67.44271Q71.87187 67.739586 71.87187 68.208336L71.87187 68.645836ZM75.21562 72.989586Q75.21562 72.22396 75.7 71.739586Q76.2 71.239586 76.96562 71.239586Q77.73125 71.239586 78.21562 71.739586Q78.71562 72.22396 78.71562 73.03646L78.71562 73.44271Q78.71562 74.208336 78.23125 74.708336Q77.74687 75.208336 76.98125 75.208336Q76.21562 75.208336 75.71562 74.72396Q75.21562 74.22396 75.21562 73.41146L75.21562 72.989586ZM76.02812 73.44271Q76.02812 73.91146 76.27812 74.208336Q76.54375 74.50521 76.98125 74.50521Q77.40312 74.50521 77.65312 74.22396Q77.90312 73.927086 77.90312 73.427086L77.90312 72.989586Q77.90312 72.520836 77.6375 72.239586Q77.3875 71.94271 76.96562 71.94271Q76.54375 71.94271 76.27812 72.239586Q76.02812 72.520836 76.02812 73.020836L76.02812 73.44271ZM73.075 74.44271L72.45 74.052086L76.62187 67.38021L77.23125 67.770836L73.075 74.44271Z" fill-rule="nonzero"/><path fill="#000000" d="M111.784515 409.55L106.190765 409.55L106.190765 408.76874L109.14389 405.4875Q109.80014 404.7375 110.05014 404.28436Q110.30014 403.8156 110.30014 403.3156Q110.30014 402.64374 109.89389 402.22186Q109.503265 401.78436 108.815765 401.78436Q108.01889 401.78436 107.565765 402.2531Q107.11264 402.70624 107.11264 403.53436L106.034515 403.53436Q106.034515 402.34686 106.784515 401.6281Q107.55014 400.89374 108.815765 400.89374Q110.01889 400.89374 110.70639 401.51874Q111.39389 402.14374 111.39389 403.1906Q111.39389 404.4406 109.784515 406.1906L107.503265 408.65936L111.784515 408.65936L111.784515 409.55ZM113.690765 405.26874L114.128265 401.01874L118.503265 401.01874L118.503265 402.01874L115.05014 402.01874L114.784515 404.34686Q115.42514 403.97186 116.222015 403.97186Q117.378265 403.97186 118.065765 404.7531Q118.753265 405.51874 118.753265 406.83124Q118.753265 408.14374 118.034515 408.90936Q117.33139 409.675 116.05014 409.675Q114.92514 409.675 114.20639 409.05Q113.48764 408.40936 113.39389 407.3L114.409515 407.3Q114.51889 408.03436 114.940765 408.40936Q115.36264 408.78436 116.05014 408.78436Q116.80014 408.78436 117.23764 408.26874Q117.67514 407.7531 117.67514 406.84686Q117.67514 405.9875 117.20639 405.47186Q116.73764 404.95624 115.95639 404.95624Q115.253265 404.95624 114.847015 405.2531L114.565765 405.4875L113.690765 405.26874ZM125.55014 405.90936Q125.55014 407.8156 124.89389 408.7531Q124.253265 409.675 122.86264 409.675Q121.503265 409.675 120.847015 408.76874Q120.190765 407.8625 120.159515 406.05L120.159515 404.6125Q120.159515 402.72186 120.80014 401.8156Q121.45639 400.89374 122.847015 400.89374Q124.222015 400.89374 124.878265 401.78436Q125.534515 402.65936 125.55014 404.5031L125.55014 405.90936ZM124.45639 404.425Q124.45639 403.05 124.065765 402.425Q123.690765 401.78436 122.847015 401.78436Q122.01889 401.78436 121.628265 402.425Q121.253265 403.05 121.253265 404.34686L121.253265 406.08124Q121.253265 407.45624 121.64389 408.1281Q122.05014 408.78436 122.86264 408.78436Q123.659515 408.78436 124.05014 408.15936Q124.440765 407.53436 124.45639 406.20624L124.45639 404.425Z" fill-rule="nonzero"/><path fill="#000000" d="M167.76604 405.26874L168.20354 401.01874L172.57854 401.01874L172.57854 402.01874L169.12541 402.01874L168.85979 404.34686Q169.50041 403.97186 170.29729 403.97186Q171.45354 403.97186 172.14104 404.7531Q172.82854 405.51874 172.82854 406.83124Q172.82854 408.14374 172.10979 408.90936Q171.40666 409.675 170.12541 409.675Q169.00041 409.675 168.28166 409.05Q167.56291 408.40936 167.46916 407.3L168.48479 407.3Q168.59416 408.03436 169.01604 408.40936Q169.43791 408.78436 170.12541 408.78436Q170.87541 408.78436 171.31291 408.26874Q171.75041 407.7531 171.75041 406.84686Q171.75041 405.9875 171.28166 405.47186Q170.81291 404.95624 170.03166 404.95624Q169.32854 404.95624 168.92229 405.2531L168.64104 405.4875L167.76604 405.26874ZM179.62541 405.90936Q179.62541 407.8156 178.96916 408.7531Q178.32854 409.675 176.93791 409.675Q175.57854 409.675 174.92229 408.76874Q174.26604 407.8625 174.23479 406.05L174.23479 404.6125Q174.23479 402.72186 174.87541 401.8156Q175.53166 400.89374 176.92229 400.89374Q178.29729 400.89374 178.95354 401.78436Q179.60979 402.65936 179.62541 404.5031L179.62541 405.90936ZM178.53166 404.425Q178.53166 403.05 178.14104 402.425Q177.76604 401.78436 176.92229 401.78436Q176.09416 401.78436 175.70354 402.425Q175.32854 403.05 175.32854 404.34686L175.32854 406.08124Q175.32854 407.45624 175.71916 408.1281Q176.12541 408.78436 176.93791 408.78436Q177.73479 408.78436 178.12541 408.15936Q178.51604 407.53436 178.53166 406.20624L178.53166 404.425ZM186.62541 405.90936Q186.62541 407.8156 185.96916 408.7531Q185.32854 409.675 183.93791 409.675Q182.57854 409.675 181.92229 408.76874Q181.26604 407.8625 181.23479 406.05L181.23479 404.6125Q181.23479 402.72186 181.87541 401.8156Q182.53166 400.89374 183.92229 400.89374Q185.29729 400.89374 185.95354 401.78436Q186.60979 402.65936 186.62541 404.5031L186.62541 405.90936ZM185.53166 404.425Q185.53166 403.05 185.14104 402.425Q184.76604 401.78436 183.92229 401.78436Q183.09416 401.78436 182.70354 402.425Q182.32854 403.05 182.32854 404.34686L182.32854 406.08124Q182.32854 407.45624 182.71916 408.1281Q183.12541 408.78436 183.93791 408.78436Q184.73479 408.78436 185.12541 408.15936Q185.51604 407.53436 185.53166 406.20624L185.53166 404.425Z" fill-rule="nonzero"/><path fill="#000000" d="M233.85695 401.6281L230.3257 409.55L229.18507 409.55L232.7007 401.90936L228.09132 401.90936L228.09132 401.01874L233.85695 401.01874L233.85695 401.6281ZM235.84132 405.26874L236.27882 401.01874L240.65382 401.01874L240.65382 402.01874L237.2007 402.01874L236.93507 404.34686Q237.5757 403.97186 238.37257 403.97186Q239.52882 403.97186 240.21632 404.7531Q240.90382 405.51874 240.90382 406.83124Q240.90382 408.14374 240.18507 408.90936Q239.48195 409.675 238.2007 409.675Q237.0757 409.675 236.35695 409.05Q235.6382 408.40936 235.54445 407.3L236.56007 407.3Q236.66945 408.03436 237.09132 408.40936Q237.5132 408.78436 238.2007 408.78436Q238.9507 408.78436 239.3882 408.26874Q239.8257 407.7531 239.8257 406.84686Q239.8257 405.9875 239.35695 405.47186Q238.8882 404.95624 238.10695 404.95624Q237.40382 404.95624 236.99757 405.2531L236.71632 405.4875L235.84132 405.26874ZM247.7007 405.90936Q247.7007 407.8156 247.04445 408.7531Q246.40382 409.675 245.0132 409.675Q243.65382 409.675 242.99757 408.76874Q242.34132 407.8625 242.31007 406.05L242.31007 404.6125Q242.31007 402.72186 242.9507 401.8156Q243.60695 400.89374 244.99757 400.89374Q246.37257 400.89374 247.02882 401.78436Q247.68507 402.65936 247.7007 404.5031L247.7007 405.90936ZM246.60695 404.425Q246.60695 403.05 246.21632 402.425Q245.84132 401.78436 244.99757 401.78436Q244.16945 401.78436 243.77882 402.425Q243.40382 403.05 243.40382 404.34686L243.40382 406.08124Q243.40382 407.45624 243.79445 408.1281Q244.2007 408.78436 245.0132 408.78436Q245.81007 408.78436 246.2007 408.15936Q246.59132 407.53436 246.60695 406.20624L246.60695 404.425Z" fill-rule="nonzero"/><path fill="#000000" d="M288.4791 409.55L287.40097 409.55L287.40097 402.33124L285.21347 403.1281L285.21347 402.14374L288.32285 400.97186L288.4791 400.97186L288.4791 409.55ZM291.99472 411.2531L291.38535 410.83124Q291.93222 410.0656 291.96347 409.2375L291.96347 408.26874L293.02597 408.26874L293.02597 409.1125Q293.02597 409.70624 292.7291 410.3Q292.43222 410.89374 291.99472 411.2531ZM299.27597 405.90936Q299.27597 407.8156 298.61972 408.7531Q297.9791 409.675 296.58847 409.675Q295.2291 409.675 294.57285 408.76874Q293.9166 407.8625 293.88535 406.05L293.88535 404.6125Q293.88535 402.72186 294.52597 401.8156Q295.18222 400.89374 296.57285 400.89374Q297.94785 400.89374 298.6041 401.78436Q299.26035 402.65936 299.27597 404.5031L299.27597 405.90936ZM298.18222 404.425Q298.18222 403.05 297.7916 402.425Q297.4166 401.78436 296.57285 401.78436Q295.74472 401.78436 295.3541 402.425Q294.9791 403.05 294.9791 404.34686L294.9791 406.08124Q294.9791 407.45624 295.36972 408.1281Q295.77597 408.78436 296.58847 408.78436Q297.38535 408.78436 297.77597 408.15936Q298.1666 407.53436 298.18222 406.20624L298.18222 404.425ZM306.27597 405.90936Q306.27597 407.8156 305.61972 408.7531Q304.9791 409.675 303.58847 409.675Q302.2291 409.675 301.57285 408.76874Q300.9166 407.8625 300.88535 406.05L300.88535 404.6125Q300.88535 402.72186 301.52597 401.8156Q302.18222 400.89374 303.57285 400.89374Q304.94785 400.89374 305.6041 401.78436Q306.26035 402.65936 306.27597 404.5031L306.27597 405.90936ZM305.18222 404.425Q305.18222 403.05 304.7916 402.425Q304.4166 401.78436 303.57285 401.78436Q302.74472 401.78436 302.3541 402.425Q301.9791 403.05 301.9791 404.34686L301.9791 406.08124Q301.9791 407.45624 302.36972 408.1281Q302.77597 408.78436 303.58847 408.78436Q304.38535 408.78436 304.77597 408.15936Q305.1666 407.53436 305.18222 406.20624L305.18222 404.425ZM313.27597 405.90936Q313.27597 407.8156 312.61972 408.7531Q311.9791 409.675 310.58847 409.675Q309.2291 409.675 308.57285 408.76874Q307.9166 407.8625 307.88535 406.05L307.88535 404.6125Q307.88535 402.72186 308.52597 401.8156Q309.18222 400.89374 310.57285 400.89374Q311.94785 400.89374 312.6041 401.78436Q313.26035 402.65936 313.27597 404.5031L313.27597 405.90936ZM312.18222 404.425Q312.18222 403.05 311.7916 402.425Q311.4166 401.78436 310.57285 401.78436Q309.74472 401.78436 309.3541 402.425Q308.9791 403.05 308.9791 404.34686L308.9791 406.08124Q308.9791 407.45624 309.36972 408.1281Q309.77597 408.78436 310.58847 408.78436Q311.38535 408.78436 311.77597 408.15936Q312.1666 407.53436 312.18222 406.20624L312.18222 404.425Z" fill-rule="nonzero"/><path fill="#000000" d="M349.55438 409.55L348.47626 409.55L348.47626 402.33124L346.28876 403.1281L346.28876 402.14374L349.39813 400.97186L349.55438 400.97186L349.55438 409.55ZM353.07 411.2531L352.46063 410.83124Q353.0075 410.0656 353.03876 409.2375L353.03876 408.26874L354.10126 408.26874L354.10126 409.1125Q354.10126 409.70624 353.80438 410.3Q353.5075 410.89374 353.07 411.2531ZM360.58563 409.55L354.99188 409.55L354.99188 408.76874L357.945 405.4875Q358.60126 404.7375 358.85126 404.28436Q359.10126 403.8156 359.10126 403.3156Q359.10126 402.64374 358.695 402.22186Q358.30438 401.78436 357.61688 401.78436Q356.82 401.78436 356.36688 402.2531Q355.91376 402.70624 355.91376 403.53436L354.83563 403.53436Q354.83563 402.34686 355.58563 401.6281Q356.35126 400.89374 357.61688 400.89374Q358.82 400.89374 359.5075 401.51874Q360.195 402.14374 360.195 403.1906Q360.195 404.4406 358.58563 406.1906L356.30438 408.65936L360.58563 408.65936L360.58563 409.55ZM362.49188 405.26874L362.92938 401.01874L367.30438 401.01874L367.30438 402.01874L363.85126 402.01874L363.58563 404.34686Q364.22626 403.97186 365.02313 403.97186Q366.17938 403.97186 366.86688 404.7531Q367.55438 405.51874 367.55438 406.83124Q367.55438 408.14374 366.83563 408.90936Q366.1325 409.675 364.85126 409.675Q363.72626 409.675 363.0075 409.05Q362.28876 408.40936 362.195 407.3L363.21063 407.3Q363.32 408.03436 363.74188 408.40936Q364.16376 408.78436 364.85126 408.78436Q365.60126 408.78436 366.03876 408.26874Q366.47626 407.7531 366.47626 406.84686Q366.47626 405.9875 366.0075 405.47186Q365.53876 404.95624 364.7575 404.95624Q364.05438 404.95624 363.64813 405.2531L363.36688 405.4875L362.49188 405.26874ZM374.35126 405.90936Q374.35126 407.8156 373.695 408.7531Q373.05438 409.675 371.66376 409.675Q370.30438 409.675 369.64813 408.76874Q368.99188 407.8625 368.96063 406.05L368.96063 404.6125Q368.96063 402.72186 369.60126 401.8156Q370.2575 400.89374 371.64813 400.89374Q373.02313 400.89374 373.67938 401.78436Q374.33563 402.65936 374.35126 404.5031L374.35126 405.90936ZM373.2575 404.425Q373.2575 403.05 372.86688 402.425Q372.49188 401.78436 371.64813 401.78436Q370.82 401.78436 370.42938 402.425Q370.05438 403.05 370.05438 404.34686L370.05438 406.08124Q370.05438 407.45624 370.445 408.1281Q370.85126 408.78436 371.66376 408.78436Q372.46063 408.78436 372.85126 408.15936Q373.24188 407.53436 373.2575 406.20624L373.2575 404.425Z" fill-rule="nonzero"/><path fill="#000000" d="M410.62964 409.55L409.5515 409.55L409.5515 402.33124L407.364 403.1281L407.364 402.14374L410.4734 400.97186L410.62964 400.97186L410.62964 409.55ZM414.14526 411.2531L413.5359 410.83124Q414.08276 410.0656 414.114 409.2375L414.114 408.26874L415.1765 408.26874L415.1765 409.1125Q415.1765 409.70624 414.87964 410.3Q414.58276 410.89374 414.14526 411.2531ZM416.56714 405.26874L417.00464 401.01874L421.37964 401.01874L421.37964 402.01874L417.9265 402.01874L417.6609 404.34686Q418.3015 403.97186 419.0984 403.97186Q420.25464 403.97186 420.94214 404.7531Q421.62964 405.51874 421.62964 406.83124Q421.62964 408.14374 420.9109 408.90936Q420.20776 409.675 418.9265 409.675Q417.8015 409.675 417.08276 409.05Q416.364 408.40936 416.27026 407.3L417.2859 407.3Q417.39526 408.03436 417.81714 408.40936Q418.239 408.78436 418.9265 408.78436Q419.6765 408.78436 420.114 408.26874Q420.5515 407.7531 420.5515 406.84686Q420.5515 405.9875 420.08276 405.47186Q419.614 404.95624 418.83276 404.95624Q418.12964 404.95624 417.7234 405.2531L417.44214 405.4875L416.56714 405.26874ZM428.4265 405.90936Q428.4265 407.8156 427.77026 408.7531Q427.12964 409.675 425.739 409.675Q424.37964 409.675 423.7234 408.76874Q423.06714 407.8625 423.0359 406.05L423.0359 404.6125Q423.0359 402.72186 423.6765 401.8156Q424.33276 400.89374 425.7234 400.89374Q427.0984 400.89374 427.75464 401.78436Q428.4109 402.65936 428.4265 404.5031L428.4265 405.90936ZM427.33276 404.425Q427.33276 403.05 426.94214 402.425Q426.56714 401.78436 425.7234 401.78436Q424.89526 401.78436 424.50464 402.425Q424.12964 403.05 424.12964 404.34686L424.12964 406.08124Q424.12964 407.45624 424.52026 408.1281Q424.9265 408.78436 425.739 408.78436Q426.5359 408.78436 426.9265 408.15936Q427.31714 407.53436 427.33276 406.20624L427.33276 404.425ZM435.4265 405.90936Q435.4265 407.8156 434.77026 408.7531Q434.12964 409.675 432.739 409.675Q431.37964 409.675 430.7234 408.76874Q430.06714 407.8625 430.0359 406.05L430.0359 404.6125Q430.0359 402.72186 430.6765 401.8156Q431.33276 400.89374 432.7234 400.89374Q434.0984 400.89374 434.75464 401.78436Q435.4109 402.65936 435.4265 404.5031L435.4265 405.90936ZM434.33276 404.425Q434.33276 403.05 433.94214 402.425Q433.56714 401.78436 432.7234 401.78436Q431.89526 401.78436 431.50464 402.425Q431.12964 403.05 431.12964 404.34686L431.12964 406.08124Q431.12964 407.45624 431.52026 408.1281Q431.9265 408.78436 432.739 408.78436Q433.5359 408.78436 433.9265 408.15936Q434.31714 407.53436 434.33276 406.20624L434.33276 404.425Z" fill-rule="nonzero"/><path fill="#000000" d="M471.70493 409.55L470.6268 409.55L470.6268 402.33124L468.4393 403.1281L468.4393 402.14374L471.54868 400.97186L471.70493 400.97186L471.70493 409.55ZM475.22055 411.2531L474.61118 410.83124Q475.15805 410.0656 475.1893 409.2375L475.1893 408.26874L476.2518 408.26874L476.2518 409.1125Q476.2518 409.70624 475.95493 410.3Q475.65805 410.89374 475.22055 411.2531ZM482.65805 401.6281L479.1268 409.55L477.98618 409.55L481.5018 401.90936L476.89243 401.90936L476.89243 401.01874L482.65805 401.01874L482.65805 401.6281ZM484.64243 405.26874L485.07993 401.01874L489.45493 401.01874L489.45493 402.01874L486.0018 402.01874L485.73618 404.34686Q486.3768 403.97186 487.17368 403.97186Q488.32993 403.97186 489.01743 404.7531Q489.70493 405.51874 489.70493 406.83124Q489.70493 408.14374 488.98618 408.90936Q488.28305 409.675 487.0018 409.675Q485.8768 409.675 485.15805 409.05Q484.4393 408.40936 484.34555 407.3L485.36118 407.3Q485.47055 408.03436 485.89243 408.40936Q486.3143 408.78436 487.0018 408.78436Q487.7518 408.78436 488.1893 408.26874Q488.6268 407.7531 488.6268 406.84686Q488.6268 405.9875 488.15805 405.47186Q487.6893 404.95624 486.90805 404.95624Q486.20493 404.95624 485.79868 405.2531L485.51743 405.4875L484.64243 405.26874ZM496.5018 405.90936Q496.5018 407.8156 495.84555 408.7531Q495.20493 409.675 493.8143 409.675Q492.45493 409.675 491.79868 408.76874Q491.14243 407.8625 491.11118 406.05L491.11118 404.6125Q491.11118 402.72186 491.7518 401.8156Q492.40805 400.89374 493.79868 400.89374Q495.17368 400.89374 495.82993 401.78436Q496.48618 402.65936 496.5018 404.5031L496.5018 405.90936ZM495.40805 404.425Q495.40805 403.05 495.01743 402.425Q494.64243 401.78436 493.79868 401.78436Q492.97055 401.78436 492.57993 402.425Q492.20493 403.05 492.20493 404.34686L492.20493 406.08124Q492.20493 407.45624 492.59555 408.1281Q493.0018 408.78436 493.8143 408.78436Q494.61118 408.78436 495.0018 408.15936Q495.39243 407.53436 495.40805 406.20624L495.40805 404.425Z" fill-rule="nonzero"/><path fill="#000000" d="M534.81146 409.55L529.2177 409.55L529.2177 408.76874L532.17084 405.4875Q532.8271 404.7375 533.0771 404.28436Q533.3271 403.8156 533.3271 403.3156Q533.3271 402.64374 532.92084 402.22186Q532.5302 401.78436 531.8427 401.78436Q531.04584 401.78436 530.5927 402.2531Q530.1396 402.70624 530.1396 403.53436L529.06146 403.53436Q529.06146 402.34686 529.81146 401.6281Q530.5771 400.89374 531.8427 400.89374Q533.04584 400.89374 533.73334 401.51874Q534.42084 402.14374 534.42084 403.1906Q534.42084 404.4406 532.81146 406.1906L530.5302 408.65936L534.81146 408.65936L534.81146 409.55ZM536.29584 411.2531L535.68646 410.83124Q536.23334 410.0656 536.2646 409.2375L536.2646 408.26874L537.3271 408.26874L537.3271 409.1125Q537.3271 409.70624 537.0302 410.3Q536.73334 410.89374 536.29584 411.2531ZM543.5771 405.90936Q543.5771 407.8156 542.92084 408.7531Q542.2802 409.675 540.8896 409.675Q539.5302 409.675 538.87396 408.76874Q538.2177 407.8625 538.18646 406.05L538.18646 404.6125Q538.18646 402.72186 538.8271 401.8156Q539.48334 400.89374 540.87396 400.89374Q542.24896 400.89374 542.9052 401.78436Q543.56146 402.65936 543.5771 404.5031L543.5771 405.90936ZM542.48334 404.425Q542.48334 403.05 542.0927 402.425Q541.7177 401.78436 540.87396 401.78436Q540.04584 401.78436 539.6552 402.425Q539.2802 403.05 539.2802 404.34686L539.2802 406.08124Q539.2802 407.45624 539.67084 408.1281Q540.0771 408.78436 540.8896 408.78436Q541.68646 408.78436 542.0771 408.15936Q542.4677 407.53436 542.48334 406.20624L542.48334 404.425ZM550.5771 405.90936Q550.5771 407.8156 549.92084 408.7531Q549.2802 409.675 547.8896 409.675Q546.5302 409.675 545.87396 408.76874Q545.2177 407.8625 545.18646 406.05L545.18646 404.6125Q545.18646 402.72186 545.8271 401.8156Q546.48334 400.89374 547.87396 400.89374Q549.24896 400.89374 549.9052 401.78436Q550.56146 402.65936 550.5771 404.5031L550.5771 405.90936ZM549.48334 404.425Q549.48334 403.05 549.0927 402.425Q548.7177 401.78436 547.87396 401.78436Q547.04584 401.78436 546.6552 402.425Q546.2802 403.05 546.2802 404.34686L546.2802 406.08124Q546.2802 407.45624 546.67084 408.1281Q547.0771 408.78436 547.8896 408.78436Q548.68646 408.78436 549.0771 408.15936Q549.4677 407.53436 549.48334 406.20624L549.48334 404.425ZM557.5771 405.90936Q557.5771 407.8156 556.92084 408.7531Q556.2802 409.675 554.8896 409.675Q553.5302 409.675 552.87396 408.76874Q552.2177 407.8625 552.18646 406.05L552.18646 404.6125Q552.18646 402.72186 552.8271 401.8156Q553.48334 400.89374 554.87396 400.89374Q556.24896 400.89374 556.9052 401.78436Q557.56146 402.65936 557.5771 404.5031L557.5771 405.90936ZM556.48334 404.425Q556.48334 403.05 556.0927 402.425Q555.7177 401.78436 554.87396 401.78436Q554.04584 401.78436 553.6552 402.425Q553.2802 403.05 553.2802 404.34686L553.2802 406.08124Q553.2802 407.45624 553.67084 408.1281Q554.0771 408.78436 554.8896 408.78436Q555.68646 408.78436 556.0771 408.15936Q556.4677 407.53436 556.48334 406.20624L556.48334 404.425Z" fill-rule="nonzero"/><path fill="#ea4335" d="M611.55 70.583336C611.55 73.89704 608.8637 76.583336 605.55 76.583336C602.23627 76.583336 599.55 73.89704 599.55 70.583336C599.55 67.26962 602.23627 64.583336 605.55 64.583336C608.8637 64.583336 611.55 67.26962 611.55 70.583336Z" fill-rule="nonzero"/><path fill="#1a1a1a" d="M623.4406 69.708336Q623.1906 69.677086 622.90936 69.677086Q621.83124 69.677086 621.45624 70.583336L621.45624 75.083336L620.3781 75.083336L620.3781 68.739586L621.425 68.739586L621.4406 69.47396Q621.97186 68.63021 622.95624 68.63021Q623.26874 68.63021 623.4406 68.708336L623.4406 69.708336ZM625.55 75.083336L624.47186 75.083336L624.47186 68.739586L625.55 68.739586L625.55 75.083336ZM624.3781 67.06771Q624.3781 66.802086 624.53436 66.614586Q624.70624 66.427086 625.01874 66.427086Q625.33124 66.427086 625.4875 66.614586Q625.65936 66.802086 625.65936 67.06771Q625.65936 67.31771 625.4875 67.50521Q625.33124 67.677086 625.01874 67.677086Q624.70624 67.677086 624.53436 67.50521Q624.3781 67.31771 624.3781 67.06771ZM631.0656 73.395836Q631.0656 72.958336 630.72186 72.72396Q630.39374 72.47396 629.5656 72.302086Q628.7531 72.13021 628.26874 71.88021Q627.78436 71.63021 627.55 71.302086Q627.33124 70.958336 627.33124 70.489586Q627.33124 69.708336 627.9875 69.177086Q628.64374 68.63021 629.675 68.63021Q630.7531 68.63021 631.40936 69.19271Q632.08124 69.739586 632.08124 70.59896L631.0031 70.59896Q631.0031 70.16146 630.6125 69.84896Q630.2375 69.520836 629.675 69.520836Q629.08124 69.520836 628.7375 69.78646Q628.40936 70.03646 628.40936 70.44271Q628.40936 70.833336 628.72186 71.03646Q629.03436 71.239586 629.84686 71.427086Q630.65936 71.59896 631.15936 71.84896Q631.65936 72.09896 631.89374 72.458336Q632.14374 72.81771 632.14374 73.31771Q632.14374 74.177086 631.45624 74.69271Q630.78436 75.208336 629.70624 75.208336Q628.9406 75.208336 628.34686 74.94271Q627.76874 74.66146 627.4406 74.177086Q627.1125 73.69271 627.1125 73.13021L628.1906 73.13021Q628.22186 73.677086 628.6281 74.00521Q629.03436 74.31771 629.70624 74.31771Q630.3156 74.31771 630.6906 74.06771Q631.0656 73.81771 631.0656 73.395836ZM634.84686 67.208336L634.84686 68.739586L636.01874 68.739586L636.01874 69.583336L634.84686 69.583336L634.84686 73.50521Q634.84686 73.895836 635.0031 74.083336Q635.15936 74.270836 635.53436 74.270836Q635.72186 74.270836 636.05 74.208336L636.05 75.083336Q635.6281 75.208336 635.22186 75.208336Q634.5031 75.208336 634.1281 74.770836Q633.7531 74.31771 633.7531 73.50521L633.7531 69.583336L632.59686 69.583336L632.59686 68.739586L633.7531 68.739586L633.7531 67.208336L634.84686 67.208336ZM640.4406 69.708336Q640.1906 69.677086 639.90936 69.677086Q638.83124 69.677086 638.45624 70.583336L638.45624 75.083336L637.3781 75.083336L637.3781 68.739586L638.425 68.739586L638.4406 69.47396Q638.97186 68.63021 639.95624 68.63021Q640.26874 68.63021 640.4406 68.708336L640.4406 69.708336ZM644.0031 75.208336Q642.70624 75.208336 641.89374 74.364586Q641.09686 73.50521 641.09686 72.083336L641.09686 71.895836Q641.09686 70.94271 641.45624 70.208336Q641.8156 69.458336 642.45624 69.052086Q643.1125 68.63021 643.8625 68.63021Q645.09686 68.63021 645.78436 69.44271Q646.47186 70.25521 646.47186 71.770836L646.47186 72.22396L642.175 72.22396Q642.20624 73.16146 642.72186 73.739586Q643.2531 74.31771 644.0656 74.31771Q644.6281 74.31771 645.01874 74.083336Q645.425 73.84896 645.7375 73.458336L646.39374 73.97396Q645.59686 75.208336 644.0031 75.208336ZM643.8625 69.520836Q643.20624 69.520836 642.7531 70.00521Q642.3156 70.47396 642.22186 71.333336L645.39374 71.333336L645.39374 71.25521Q645.34686 70.427086 644.9406 69.97396Q644.55 69.520836 643.8625 69.520836ZM648.84686 67.208336L648.84686 68.739586L650.01874 68.739586L650.01874 69.583336L648.84686 69.583336L648.84686 73.50521Q648.84686 73.895836 649.0031 74.083336Q649.15936 74.270836 649.53436 74.270836Q649.72186 74.270836 650.05 74.208336L650.05 75.083336Q649.6281 75.208336 649.22186 75.208336Q648.5031 75.208336 648.1281 74.770836Q647.7531 74.31771 647.7531 73.50521L647.7531 69.583336L646.59686 69.583336L646.59686 68.739586L647.7531 68.739586L647.7531 67.208336L648.84686 67.208336ZM652.84686 67.208336L652.84686 68.739586L654.01874 68.739586L654.01874 69.583336L652.84686 69.583336L652.84686 73.50521Q652.84686 73.895836 653.0031 74.083336Q653.15936 74.270836 653.53436 74.270836Q653.72186 74.270836 654.05 74.208336L654.05 75.083336Q653.6281 75.208336 653.22186 75.208336Q652.5031 75.208336 652.1281 74.770836Q651.7531 74.31771 651.7531 73.50521L651.7531 69.583336L650.59686 69.583336L650.59686 68.739586L651.7531 68.739586L651.7531 67.208336L652.84686 67.208336ZM655.08124 71.84896Q655.08124 70.927086 655.4406 70.177086Q655.8156 69.427086 656.47186 69.03646Q657.1281 68.63021 657.95624 68.63021Q659.2531 68.63021 660.05 69.520836Q660.8625 70.41146 660.8625 71.91146L660.8625 71.989586Q660.8625 72.91146 660.5031 73.645836Q660.14374 74.38021 659.4875 74.802086Q658.83124 75.208336 657.97186 75.208336Q656.6906 75.208336 655.8781 74.31771Q655.08124 73.41146 655.08124 71.927086L655.08124 71.84896ZM656.175 71.989586Q656.175 73.03646 656.65936 73.677086Q657.15936 74.31771 657.97186 74.31771Q658.8 74.31771 659.28436 73.677086Q659.76874 73.020836 659.76874 71.84896Q659.76874 70.81771 659.26874 70.177086Q658.78436 69.520836 657.95624 69.520836Q657.15936 69.520836 656.65936 70.16146Q656.175 70.78646 656.175 71.989586Z" fill-rule="nonzero"/><path fill="#46bdc6" d="M611.55 95.583336C611.55 98.89704 608.8637 101.583336 605.55 101.583336C602.23627 101.583336 599.55 98.89704 599.55 95.583336C599.55 92.26962 602.23627 89.583336 605.55 89.583336C608.8637 89.583336 611.55 92.26962 611.55 95.583336Z" fill-rule="nonzero"/><path fill="#1a1a1a" d="M620.1125 96.864586Q620.1125 95.38021 620.8 94.50521Q621.4875 93.63021 622.6125 93.63021Q623.76874 93.63021 624.425 94.44271L624.47186 93.739586L625.47186 93.739586L625.47186 99.927086Q625.47186 101.16146 624.7375 101.864586Q624.0031 102.583336 622.78436 102.583336Q622.09686 102.583336 621.4406 102.28646Q620.78436 101.989586 620.4406 101.489586L621.0031 100.833336Q621.6906 101.69271 622.70624 101.69271Q623.4875 101.69271 623.925 101.239586Q624.3781 100.802086 624.3781 99.989586L624.3781 99.44271Q623.72186 100.208336 622.59686 100.208336Q621.4875 100.208336 620.8 99.31771Q620.1125 98.41146 620.1125 96.864586ZM621.20624 96.989586Q621.20624 98.052086 621.64374 98.677086Q622.08124 99.28646 622.8781 99.28646Q623.89374 99.28646 624.3781 98.34896L624.3781 95.458336Q623.8781 94.552086 622.8781 94.552086Q622.09686 94.552086 621.64374 95.16146Q621.20624 95.770836 621.20624 96.989586ZM627.08124 96.84896Q627.08124 95.927086 627.4406 95.177086Q627.8156 94.427086 628.47186 94.03646Q629.1281 93.63021 629.95624 93.63021Q631.2531 93.63021 632.05 94.520836Q632.8625 95.41146 632.8625 96.91146L632.8625 96.989586Q632.8625 97.91146 632.5031 98.645836Q632.14374 99.38021 631.4875 99.802086Q630.83124 100.208336 629.97186 100.208336Q628.6906 100.208336 627.8781 99.31771Q627.08124 98.41146 627.08124 96.927086L627.08124 96.84896ZM628.175 96.989586Q628.175 98.03646 628.65936 98.677086Q629.15936 99.31771 629.97186 99.31771Q630.8 99.31771 631.28436 98.677086Q631.76874 98.020836 631.76874 96.84896Q631.76874 95.81771 631.26874 95.177086Q630.78436 94.520836 629.95624 94.520836Q629.15936 94.520836 628.65936 95.16146Q628.175 95.78646 628.175 96.989586ZM639.7375 96.989586Q639.7375 98.44271 639.0656 99.333336Q638.40936 100.208336 637.28436 100.208336Q636.08124 100.208336 635.425 99.34896L635.3625 100.083336L634.3781 100.083336L634.3781 91.083336L635.45624 91.083336L635.45624 94.44271Q636.1125 93.63021 637.26874 93.63021Q638.425 93.63021 639.08124 94.50521Q639.7375 95.364586 639.7375 96.895836L639.7375 96.989586ZM638.65936 96.864586Q638.65936 95.75521 638.22186 95.16146Q637.8 94.552086 637.0031 94.552086Q635.925 94.552086 635.45624 95.53646L635.45624 98.28646Q635.95624 99.28646 637.0031 99.28646Q637.78436 99.28646 638.22186 98.677086Q638.65936 98.06771 638.65936 96.864586ZM645.28436 99.458336Q644.65936 100.208336 643.425 100.208336Q642.40936 100.208336 641.8781 99.614586Q641.34686 99.020836 641.34686 97.864586L641.34686 93.739586L642.425 93.739586L642.425 97.833336Q642.425 99.28646 643.59686 99.28646Q644.84686 99.28646 645.2531 98.34896L645.2531 93.739586L646.34686 93.739586L646.34686 100.083336L645.3156 100.083336L645.28436 99.458336ZM651.4406 94.708336Q651.1906 94.677086 650.90936 94.677086Q649.83124 94.677086 649.45624 95.583336L649.45624 100.083336L648.3781 100.083336L648.3781 93.739586L649.425 93.739586L649.4406 94.47396Q649.97186 93.63021 650.95624 93.63021Q651.26874 93.63021 651.4406 93.708336L651.4406 94.708336ZM655.4406 94.708336Q655.1906 94.677086 654.90936 94.677086Q653.83124 94.677086 653.45624 95.583336L653.45624 100.083336L652.3781 100.083336L652.3781 93.739586L653.425 93.739586L653.4406 94.47396Q653.97186 93.63021 654.95624 93.63021Q655.26874 93.63021 655.4406 93.708336L655.4406 94.708336ZM656.08124 96.84896Q656.08124 95.927086 656.4406 95.177086Q656.8156 94.427086 657.47186 94.03646Q658.1281 93.63021 658.95624 93.63021Q660.2531 93.63021 661.05 94.520836Q661.8625 95.41146 661.8625 96.91146L661.8625 96.989586Q661.8625 97.91146 661.5031 98.645836Q661.14374 99.38021 660.4875 99.802086Q659.83124 100.208336 658.97186 100.208336Q657.6906 100.208336 656.8781 99.31771Q656.08124 98.41146 656.08124 96.927086L656.08124 96.84896ZM657.175 96.989586Q657.175 98.03646 657.65936 98.677086Q658.15936 99.31771 658.97186 99.31771Q659.8 99.31771 660.28436 98.677086Q660.76874 98.020836 660.76874 96.84896Q660.76874 95.81771 660.26874 95.177086Q659.78436 94.520836 658.95624 94.520836Q658.15936 94.520836 657.65936 95.16146Q657.175 95.78646 657.175 96.989586ZM668.9875 98.583336L670.20624 93.739586L671.28436 93.739586L669.4406 100.083336L668.5656 100.083336L667.01874 95.270836L665.51874 100.083336L664.64374 100.083336L662.8 93.739586L663.8781 93.739586L665.1281 98.489586L666.6125 93.739586L667.47186 93.739586L668.9875 98.583336Z" fill-rule="nonzero"/><path fill="#38761d" d="M611.55 120.583336C611.55 123.89704 608.8637 126.583336 605.55 126.583336C602.23627 126.583336 599.55 123.89704 599.55 120.583336C599.55 117.26962 602.23627 114.583336 605.55 114.583336C608.8637 114.583336 611.55 117.26962 611.55 120.583336Z" fill-rule="nonzero"/><path fill="#1a1a1a" d="M620.1125 121.864586Q620.1125 120.38021 620.8 119.50521Q621.4875 118.63021 622.6125 118.63021Q623.76874 118.63021 624.425 119.44271L624.47186 118.739586L625.47186 118.739586L625.47186 124.927086Q625.47186 126.16146 624.7375 126.864586Q624.0031 127.583336 622.78436 127.583336Q622.09686 127.583336 621.4406 127.28646Q620.78436 126.989586 620.4406 126.489586L621.0031 125.833336Q621.6906 126.69271 622.70624 126.69271Q623.4875 126.69271 623.925 126.239586Q624.3781 125.802086 624.3781 124.989586L624.3781 124.44271Q623.72186 125.208336 622.59686 125.208336Q621.4875 125.208336 620.8 124.31771Q620.1125 123.41146 620.1125 121.864586ZM621.20624 121.989586Q621.20624 123.052086 621.64374 123.677086Q622.08124 124.28646 622.8781 124.28646Q623.89374 124.28646 624.3781 123.34896L624.3781 120.458336Q623.8781 119.552086 622.8781 119.552086Q622.09686 119.552086 621.64374 120.16146Q621.20624 120.770836 621.20624 121.989586ZM630.4406 119.708336Q630.1906 119.677086 629.90936 119.677086Q628.83124 119.677086 628.45624 120.583336L628.45624 125.083336L627.3781 125.083336L627.3781 118.739586L628.425 118.739586L628.4406 119.47396Q628.97186 118.63021 629.95624 118.63021Q630.26874 118.63021 630.4406 118.708336L630.4406 119.708336ZM631.08124 121.84896Q631.08124 120.927086 631.4406 120.177086Q631.8156 119.427086 632.47186 119.03646Q633.1281 118.63021 633.95624 118.63021Q635.2531 118.63021 636.05 119.520836Q636.8625 120.41146 636.8625 121.91146L636.8625 121.989586Q636.8625 122.91146 636.5031 123.645836Q636.14374 124.38021 635.4875 124.802086Q634.83124 125.208336 633.97186 125.208336Q632.6906 125.208336 631.8781 124.31771Q631.08124 123.41146 631.08124 121.927086L631.08124 121.84896ZM632.175 121.989586Q632.175 123.03646 632.65936 123.677086Q633.15936 124.31771 633.97186 124.31771Q634.8 124.31771 635.28436 123.677086Q635.76874 123.020836 635.76874 121.84896Q635.76874 120.81771 635.26874 120.177086Q634.78436 119.520836 633.95624 119.520836Q633.15936 119.520836 632.65936 120.16146Q632.175 120.78646 632.175 121.989586ZM642.28436 124.458336Q641.65936 125.208336 640.425 125.208336Q639.40936 125.208336 638.8781 124.614586Q638.34686 124.020836 638.34686 122.864586L638.34686 118.739586L639.425 118.739586L639.425 122.833336Q639.425 124.28646 640.59686 124.28646Q641.84686 124.28646 642.2531 123.34896L642.2531 118.739586L643.34686 118.739586L643.34686 125.083336L642.3156 125.083336L642.28436 124.458336ZM650.72186 121.989586Q650.72186 123.427086 650.0656 124.31771Q649.40936 125.208336 648.26874 125.208336Q647.1125 125.208336 646.45624 124.47396L646.45624 127.520836L645.3781 127.520836L645.3781 118.739586L646.3625 118.739586L646.40936 119.44271Q647.08124 118.63021 648.2531 118.63021Q649.39374 118.63021 650.05 119.489586Q650.72186 120.34896 650.72186 121.88021L650.72186 121.989586ZM649.64374 121.864586Q649.64374 120.78646 649.175 120.177086Q648.72186 119.552086 647.925 119.552086Q646.9406 119.552086 646.45624 120.41146L646.45624 123.44271Q646.9406 124.31771 647.9406 124.31771Q648.72186 124.31771 649.175 123.708336Q649.64374 123.083336 649.64374 121.864586ZM654.90936 124.31771Q655.4875 124.31771 655.925 123.97396Q656.3625 123.614586 656.40936 123.083336L657.4406 123.083336Q657.40936 123.63021 657.05 124.13021Q656.70624 124.614586 656.1281 124.91146Q655.5656 125.208336 654.90936 125.208336Q653.6125 125.208336 652.84686 124.34896Q652.09686 123.47396 652.09686 121.97396L652.09686 121.78646Q652.09686 120.864586 652.425 120.145836Q652.76874 119.427086 653.39374 119.03646Q654.03436 118.63021 654.90936 118.63021Q655.97186 118.63021 656.675 119.270836Q657.39374 119.895836 657.4406 120.927086L656.40936 120.927086Q656.3625 120.302086 655.9406 119.91146Q655.51874 119.520836 654.90936 119.520836Q654.08124 119.520836 653.6281 120.114586Q653.175 120.708336 653.175 121.833336L653.175 122.03646Q653.175 123.13021 653.6281 123.72396Q654.08124 124.31771 654.90936 124.31771ZM662.28436 125.083336Q662.1906 124.895836 662.1281 124.41146Q661.3781 125.208336 660.33124 125.208336Q659.39374 125.208336 658.78436 124.677086Q658.1906 124.145836 658.1906 123.31771Q658.1906 122.333336 658.9406 121.78646Q659.6906 121.239586 661.0656 121.239586L662.1125 121.239586L662.1125 120.739586Q662.1125 120.177086 661.76874 119.84896Q661.4406 119.50521 660.76874 119.50521Q660.1906 119.50521 659.8 119.802086Q659.40936 120.083336 659.40936 120.50521L658.3156 120.50521Q658.3156 120.020836 658.64374 119.583336Q658.9875 119.145836 659.5656 118.895836Q660.14374 118.63021 660.83124 118.63021Q661.9406 118.63021 662.55 119.177086Q663.175 119.72396 663.20624 120.677086L663.20624 123.59896Q663.20624 124.47396 663.425 124.989586L663.425 125.083336L662.28436 125.083336ZM660.4875 124.25521Q661.0031 124.25521 661.45624 123.989586Q661.90936 123.72396 662.1125 123.302086L662.1125 122.00521L661.26874 122.00521Q659.26874 122.00521 659.26874 123.177086Q659.26874 123.677086 659.6125 123.97396Q659.95624 124.25521 660.4875 124.25521ZM667.90936 124.31771Q668.4875 124.31771 668.925 123.97396Q669.3625 123.614586 669.40936 123.083336L670.4406 123.083336Q670.40936 123.63021 670.05 124.13021Q669.70624 124.614586 669.1281 124.91146Q668.5656 125.208336 667.90936 125.208336Q666.6125 125.208336 665.84686 124.34896Q665.09686 123.47396 665.09686 121.97396L665.09686 121.78646Q665.09686 120.864586 665.425 120.145836Q665.76874 119.427086 666.39374 119.03646Q667.03436 118.63021 667.90936 118.63021Q668.97186 118.63021 669.675 119.270836Q670.39374 119.895836 670.4406 120.927086L669.40936 120.927086Q669.3625 120.302086 668.9406 119.91146Q668.51874 119.520836 667.90936 119.520836Q667.08124 119.520836 666.6281 120.114586Q666.175 120.708336 666.175 121.833336L666.175 122.03646Q666.175 123.13021 666.6281 123.72396Q667.08124 124.31771 667.90936 124.31771ZM672.45624 119.50521Q673.175 118.63021 674.33124 118.63021Q676.34686 118.63021 676.3625 120.895836L676.3625 125.083336L675.26874 125.083336L675.26874 120.88021Q675.26874 120.208336 674.95624 119.88021Q674.65936 119.552086 674.0031 119.552086Q673.47186 119.552086 673.0656 119.833336Q672.675 120.114586 672.45624 120.56771L672.45624 125.083336L671.3781 125.083336L671.3781 116.083336L672.45624 116.083336L672.45624 119.50521ZM681.0031 125.208336Q679.70624 125.208336 678.89374 124.364586Q678.09686 123.50521 678.09686 122.083336L678.09686 121.895836Q678.09686 120.94271 678.45624 120.208336Q678.8156 119.458336 679.45624 119.052086Q680.1125 118.63021 680.8625 118.63021Q682.09686 118.63021 682.78436 119.44271Q683.47186 120.25521 683.47186 121.770836L683.47186 122.22396L679.175 122.22396Q679.20624 123.16146 679.72186 123.739586Q680.2531 124.31771 681.0656 124.31771Q681.6281 124.31771 682.01874 124.083336Q682.425 123.84896 682.7375 123.458336L683.39374 123.97396Q682.59686 125.208336 681.0031 125.208336ZM680.8625 119.520836Q680.20624 119.520836 679.7531 120.00521Q679.3156 120.47396 679.22186 121.333336L682.39374 121.333336L682.39374 121.25521Q682.34686 120.427086 681.9406 119.97396Q681.55 119.520836 680.8625 119.520836Z" fill-rule="nonzero"/><path fill="#757575" d="M36.028126 42.45L34.1375 42.45L34.1375 35.871876L26.98125 35.871876L26.98125 42.45L25.10625 42.45L25.10625 28.23125L26.98125 28.23125L26.98125 34.340626L34.1375 34.340626L34.1375 28.23125L36.028126 28.23125L36.028126 42.45ZM40.778126 42.45L38.98125 42.45L38.98125 31.8875L40.778126 31.8875L40.778126 42.45ZM38.825 29.075Q38.825 28.6375 39.090626 28.340626Q39.371876 28.028126 39.8875 28.028126Q40.41875 28.028126 40.684376 28.340626Q40.965626 28.6375 40.965626 29.075Q40.965626 29.5125 40.684376 29.809376Q40.41875 30.10625 39.8875 30.10625Q39.371876 30.10625 39.090626 29.809376Q38.825 29.5125 38.825 29.075ZM46.2625 29.325L46.2625 31.8875L48.246876 31.8875L48.246876 33.278126L46.2625 33.278126L46.2625 39.825Q46.2625 40.465626 46.528126 40.79375Q46.79375 41.10625 47.434376 41.10625Q47.746876 41.10625 48.29375 40.98125L48.29375 42.45Q47.575 42.653126 46.903126 42.653126Q45.7 42.653126 45.075 41.91875Q44.465626 41.184376 44.465626 39.825L44.465626 33.278126L42.54375 33.278126L42.54375 31.8875L44.465626 31.8875L44.465626 29.325L46.2625 29.325ZM61.309376 36.7L57.98125 36.7L57.98125 42.45L56.090626 42.45L56.090626 28.23125L60.79375 28.23125Q63.2 28.23125 64.49687 29.325Q65.79375 30.41875 65.79375 32.5125Q65.79375 33.840626 65.075 34.825Q64.35625 35.809376 63.075 36.29375L66.41875 42.325L66.41875 42.45L64.40312 42.45L61.309376 36.7ZM57.98125 35.16875L60.85625 35.16875Q62.246876 35.16875 63.075 34.45Q63.903126 33.715626 63.903126 32.5125Q63.903126 31.184376 63.10625 30.48125Q62.325 29.778126 60.840626 29.778126L57.98125 29.778126L57.98125 35.16875ZM74.34062 42.45Q74.18437 42.1375 74.09062 41.340626Q72.825 42.653126 71.075 42.653126Q69.5125 42.653126 68.5125 41.7625Q67.5125 40.871876 67.5125 39.5125Q67.5125 37.871876 68.7625 36.965626Q70.02812 36.04375 72.29375 36.04375L74.05937 36.04375L74.05937 35.215626Q74.05937 34.2625 73.48125 33.7Q72.91875 33.1375 71.825 33.1375Q70.85625 33.1375 70.2 33.6375Q69.54375 34.121876 69.54375 34.809376L67.73125 34.809376Q67.73125 34.028126 68.29375 33.29375Q68.85625 32.54375 69.80937 32.121876Q70.77812 31.684376 71.93437 31.684376Q73.7625 31.684376 74.79375 32.60625Q75.825 33.5125 75.87187 35.121876L75.87187 39.98125Q75.87187 41.434376 76.23125 42.29375L76.23125 42.45L74.34062 42.45ZM71.34062 41.075Q72.2 41.075 72.95 40.6375Q73.71562 40.2 74.05937 39.496876L74.05937 37.325L72.6375 37.325Q69.325 37.325 69.325 39.2625Q69.325 40.121876 69.8875 40.60625Q70.45 41.075 71.34062 41.075ZM81.2625 29.325L81.2625 31.8875L83.24687 31.8875L83.24687 33.278126L81.2625 33.278126L81.2625 39.825Q81.2625 40.465626 81.52812 40.79375Q81.79375 41.10625 82.43437 41.10625Q82.74687 41.10625 83.29375 40.98125L83.29375 42.45Q82.575 42.653126 81.90312 42.653126Q80.7 42.653126 80.075 41.91875Q79.46562 41.184376 79.46562 39.825L79.46562 33.278126L77.54375 33.278126L77.54375 31.8875L79.46562 31.8875L79.46562 29.325L81.2625 29.325ZM87.77812 42.45L85.98125 42.45L85.98125 31.8875L87.77812 31.8875L87.77812 42.45ZM85.825 29.075Q85.825 28.6375 86.09062 28.340626Q86.37187 28.028126 86.8875 28.028126Q87.41875 28.028126 87.68437 28.340626Q87.96562 28.6375 87.96562 29.075Q87.96562 29.5125 87.68437 29.809376Q87.41875 30.10625 86.8875 30.10625Q86.37187 30.10625 86.09062 29.809376Q85.825 29.5125 85.825 29.075ZM90.34062 37.075Q90.34062 35.5125 90.95 34.278126Q91.55937 33.028126 92.6375 32.35625Q93.73125 31.684376 95.1375 31.684376Q97.29375 31.684376 98.62187 33.184376Q99.96562 34.66875 99.96562 37.153126L99.96562 37.278126Q99.96562 38.825 99.37187 40.059376Q98.77812 41.278126 97.66875 41.965626Q96.575 42.653126 95.15312 42.653126Q93.0125 42.653126 91.66875 41.153126Q90.34062 39.653126 90.34062 37.2L90.34062 37.075ZM92.15312 37.278126Q92.15312 39.04375 92.96562 40.10625Q93.79375 41.16875 95.15312 41.16875Q96.52812 41.16875 97.34062 40.090626Q98.15312 39.0125 98.15312 37.075Q98.15312 35.325 97.325 34.246876Q96.49687 33.16875 95.1375 33.16875Q93.79375 33.16875 92.96562 34.23125Q92.15312 35.29375 92.15312 37.278126ZM107.96562 39.653126Q107.96562 38.91875 107.41875 38.5125Q106.87187 38.10625 105.49687 37.809376Q104.12187 37.5125 103.30937 37.10625Q102.5125 36.7 102.12187 36.1375Q101.74687 35.559376 101.74687 34.778126Q101.74687 33.48125 102.84062 32.590626Q103.93437 31.684376 105.65312 31.684376Q107.45 31.684376 108.55937 32.621876Q109.68437 33.54375 109.68437 34.98125L107.85625 34.98125Q107.85625 34.246876 107.23125 33.715626Q106.60625 33.16875 105.65312 33.16875Q104.65312 33.16875 104.09062 33.60625Q103.54375 34.028126 103.54375 34.73125Q103.54375 35.371876 104.05937 35.715626Q104.575 36.04375 105.93437 36.35625Q107.29375 36.653126 108.12187 37.075Q108.96562 37.48125 109.37187 38.075Q109.77812 38.66875 109.77812 39.5125Q109.77812 40.934376 108.6375 41.79375Q107.5125 42.653126 105.7 42.653126Q104.43437 42.653126 103.45 42.2Q102.48125 41.746876 101.91875 40.95Q101.37187 40.1375 101.37187 39.2L103.18437 39.2Q103.23125 40.10625 103.90312 40.6375Q104.59062 41.16875 105.7 41.16875Q106.73125 41.16875 107.34062 40.7625Q107.96562 40.340626 107.96562 39.653126ZM120.575 37.153126L115.80937 37.153126L115.80937 35.66875L120.575 35.66875L120.575 37.153126ZM138.55937 37.934376Q138.29375 40.2 136.8875 41.434376Q135.49687 42.653126 133.16875 42.653126Q130.65312 42.653126 129.12187 40.840626Q127.60625 39.028126 127.60625 35.996876L127.60625 34.6375Q127.60625 32.653126 128.30937 31.153126Q129.02812 29.653126 130.325 28.840626Q131.62187 28.028126 133.34062 28.028126Q135.60625 28.028126 136.96562 29.29375Q138.34062 30.559376 138.55937 32.79375L136.66875 32.79375Q136.43437 31.10625 135.60625 30.340626Q134.79375 29.575 133.34062 29.575Q131.54375 29.575 130.5125 30.903126Q129.49687 32.23125 129.49687 34.684376L129.49687 36.059376Q129.49687 38.371876 130.46562 39.746876Q131.43437 41.10625 133.16875 41.10625Q134.73125 41.10625 135.55937 40.403126Q136.40312 39.7 136.66875 37.934376L138.55937 37.934376ZM152.04375 35.79375Q152.04375 37.8875 151.34062 39.45Q150.6375 40.996876 149.34062 41.825Q148.05937 42.653126 146.34062 42.653126Q144.65312 42.653126 143.35625 41.825Q142.05937 40.996876 141.34062 39.465626Q140.62187 37.934376 140.60625 35.91875L140.60625 34.903126Q140.60625 32.85625 141.30937 31.278126Q142.02812 29.7 143.325 28.871876Q144.6375 28.028126 146.30937 28.028126Q148.02812 28.028126 149.325 28.85625Q150.6375 29.684376 151.34062 31.2625Q152.04375 32.825 152.04375 34.903126L152.04375 35.79375ZM150.16875 34.8875Q150.16875 32.35625 149.15312 31.0125Q148.1375 29.653126 146.30937 29.653126Q144.54375 29.653126 143.5125 31.0125Q142.49687 32.35625 142.46562 34.746876L142.46562 35.79375Q142.46562 38.246876 143.49687 39.653126Q144.52812 41.059376 146.34062 41.059376Q148.15312 41.059376 149.1375 39.73125Q150.1375 38.403126 150.16875 35.934376L150.16875 34.8875ZM155.10625 42.45L155.10625 28.23125L159.12187 28.23125Q160.96562 28.23125 162.3875 29.059376Q163.825 29.871876 164.59062 31.3875Q165.37187 32.903126 165.3875 34.85625L165.3875 35.7625Q165.3875 37.778126 164.60625 39.29375Q163.825 40.809376 162.3875 41.621876Q160.95 42.434376 159.04375 42.45L155.10625 42.45ZM156.98125 29.778126L156.98125 40.91875L158.95 40.91875Q161.12187 40.91875 162.325 39.575Q163.52812 38.215626 163.52812 35.73125L163.52812 34.903126Q163.52812 32.48125 162.3875 31.1375Q161.24687 29.79375 159.16875 29.778126L156.98125 29.778126ZM175.95 38.73125L169.99687 38.73125L168.65312 42.45L166.73125 42.45L172.15312 28.23125L173.79375 28.23125L179.23125 42.45L177.30937 42.45L175.95 38.73125ZM170.55937 37.2L175.40312 37.2L172.98125 30.54375L170.55937 37.2ZM185.29375 36.10625Q182.87187 35.41875 181.77812 34.41875Q180.68437 33.403126 180.68437 31.91875Q180.68437 30.23125 182.02812 29.1375Q183.37187 28.028126 185.5125 28.028126Q186.98125 28.028126 188.12187 28.60625Q189.27812 29.16875 189.90312 30.16875Q190.52812 31.153126 190.52812 32.340626L188.65312 32.340626Q188.65312 31.059376 187.825 30.325Q187.0125 29.575 185.5125 29.575Q184.12187 29.575 183.34062 30.184376Q182.575 30.79375 182.575 31.8875Q182.575 32.746876 183.30937 33.35625Q184.04375 33.95 185.80937 34.45Q187.59062 34.95 188.59062 35.559376Q189.59062 36.153126 190.075 36.95Q190.55937 37.746876 190.55937 38.840626Q190.55937 40.559376 189.21562 41.60625Q187.87187 42.653126 185.60625 42.653126Q184.15312 42.653126 182.87187 42.090626Q181.60625 41.528126 180.91875 40.559376Q180.23125 39.575 180.23125 38.325L182.12187 38.325Q182.12187 39.621876 183.075 40.371876Q184.02812 41.10625 185.60625 41.10625Q187.09062 41.10625 187.8875 40.5125Q188.68437 39.903126 188.68437 38.85625Q188.68437 37.809376 187.95 37.246876Q187.21562 36.66875 185.29375 36.10625ZM197.43437 35.371876L201.15312 28.23125L203.27812 28.23125L198.37187 37.153126L198.37187 42.45L196.49687 42.45L196.49687 37.153126L191.59062 28.23125L193.74687 28.23125L197.43437 35.371876ZM206.98125 40.91875L213.73125 40.91875L213.73125 42.45L205.10625 42.45L205.10625 28.23125L206.98125 28.23125L206.98125 40.91875ZM220.74687 36.684376Q220.74687 34.465626 221.34062 32.434376Q221.93437 30.403126 223.10625 28.746876Q224.27812 27.090626 225.52812 26.403126L225.90312 27.590626Q224.48125 28.684376 223.55937 30.934376Q222.65312 33.184376 222.55937 35.965626L222.55937 36.79375Q222.55937 40.559376 223.93437 43.340626Q224.7625 44.996876 225.90312 45.934376L225.52812 47.04375Q224.23125 46.325 223.05937 44.621876Q220.74687 41.29375 220.74687 36.684376ZM235.95 38.73125L229.99687 38.73125L228.65312 42.45L226.73125 42.45L232.15312 28.23125L233.79375 28.23125L239.23125 42.45L237.30937 42.45L235.95 38.73125ZM230.55937 37.2L235.40312 37.2L232.98125 30.54375L230.55937 37.2ZM246.30937 36.7L242.98125 36.7L242.98125 42.45L241.09062 42.45L241.09062 28.23125L245.79375 28.23125Q248.2 28.23125 249.49687 29.325Q250.79375 30.41875 250.79375 32.5125Q250.79375 33.840626 250.075 34.825Q249.35625 35.809376 248.075 36.29375L251.41875 42.325L251.41875 42.45L249.40312 42.45L246.30937 36.7ZM242.98125 35.16875L245.85625 35.16875Q247.24687 35.16875 248.075 34.45Q248.90312 33.715626 248.90312 32.5125Q248.90312 31.184376 248.10625 30.48125Q247.325 29.778126 245.84062 29.778126L242.98125 29.778126L242.98125 35.16875ZM263.5594 37.934376Q263.29376 40.2 261.8875 41.434376Q260.4969 42.653126 258.16876 42.653126Q255.65312 42.653126 254.12187 40.840626Q252.60625 39.028126 252.60625 35.996876L252.60625 34.6375Q252.60625 32.653126 253.30937 31.153126Q254.02812 29.653126 255.325 28.840626Q256.6219 28.028126 258.34064 28.028126Q260.60626 28.028126 261.96564 29.29375Q263.34064 30.559376 263.5594 32.79375L261.66876 32.79375Q261.4344 31.10625 260.60626 30.340626Q259.79376 29.575 258.34064 29.575Q256.54376 29.575 255.5125 30.903126Q254.49687 32.23125 254.49687 34.684376L254.49687 36.059376Q254.49687 38.371876 255.46562 39.746876Q256.4344 41.10625 258.16876 41.10625Q259.73126 41.10625 260.5594 40.403126Q261.40314 39.7 261.66876 37.934376L263.5594 37.934376ZM269.575 37.153126L264.8094 37.153126L264.8094 35.66875L269.575 35.66875L269.575 37.153126ZM283.04376 35.79375Q283.04376 37.8875 282.34064 39.45Q281.6375 40.996876 280.34064 41.825Q279.0594 42.653126 277.34064 42.653126Q275.65314 42.653126 274.35626 41.825Q273.0594 40.996876 272.34064 39.465626Q271.6219 37.934376 271.60626 35.91875L271.60626 34.903126Q271.60626 32.85625 272.3094 31.278126Q273.02814 29.7 274.325 28.871876Q275.6375 28.028126 277.3094 28.028126Q279.02814 28.028126 280.325 28.85625Q281.6375 29.684376 282.34064 31.2625Q283.04376 32.825 283.04376 34.903126L283.04376 35.79375ZM281.16876 34.8875Q281.16876 32.35625 280.15314 31.0125Q279.1375 29.653126 277.3094 29.653126Q275.54376 29.653126 274.5125 31.0125Q273.4969 32.35625 273.46564 34.746876L273.46564 35.79375Q273.46564 38.246876 274.4969 39.653126Q275.52814 41.059376 277.34064 41.059376Q279.15314 41.059376 280.1375 39.73125Q281.1375 38.403126 281.16876 35.934376L281.16876 34.8875ZM287.98126 40.91875L294.73126 40.91875L294.73126 42.45L286.10626 42.45L286.10626 28.23125L287.98126 28.23125L287.98126 40.91875ZM306.91876 29.778126L302.35626 29.778126L302.35626 42.45L300.4969 42.45L300.4969 29.778126L295.9344 29.778126L295.9344 28.23125L306.91876 28.23125L306.91876 29.778126ZM310.98126 36.8875L310.98126 42.45L309.10626 42.45L309.10626 28.23125L314.34064 28.23125Q316.6844 28.23125 317.9969 29.41875Q319.325 30.60625 319.325 32.575Q319.325 34.653126 318.02814 35.778126Q316.73126 36.8875 314.325 36.8875L310.98126 36.8875ZM310.98126 35.35625L314.34064 35.35625Q315.85626 35.35625 316.65314 34.653126Q317.45 33.934376 317.45 32.590626Q317.45 31.325 316.65314 30.575Q315.85626 29.809376 314.45 29.778126L310.98126 29.778126L310.98126 35.35625ZM325.98126 36.778126Q325.98126 38.95 325.40314 40.95Q324.84064 42.95 323.66876 44.6375Q322.4969 46.325 321.2 47.04375L320.825 45.934376Q322.325 44.778126 323.23126 42.35625Q324.15314 39.934376 324.16876 36.965626L324.16876 36.653126Q324.16876 34.60625 323.73126 32.840626Q323.3094 31.075 322.54376 29.684376Q321.77814 28.29375 320.825 27.5125L321.2 26.403126Q322.4969 27.121876 323.65314 28.79375Q324.825 30.45 325.40314 32.465626Q325.98126 34.48125 325.98126 36.778126Z" fill-rule="nonzero"/></svg>