<svg xmlns="http://www.w3.org/2000/svg" width="707" height="469" fill="none" stroke-linecap="square" stroke-miterlimit="10" viewBox="0 0 707 469"><path fill="#fff" d="M0 0h707v469H0z"/><path stroke="#333" stroke-linecap="butt" d="M75.5 397.5h494"/><path stroke="#ccc" stroke-linecap="butt" d="M75.5 350.5h494m-494-48h494m-494-47h494m-494-48h494m-494-47h494m-494-48h494m-494-47h494"/><path stroke="#e6e6e6" stroke-linecap="butt" d="M75.5 362.5h494m-494 12h494m-494 11h494m-494-71h494m-494 12h494m-494 12h494m-494-71h494m-494 11h494m-494 12h494m-494-71h494m-494 12h494m-494 12h494m-494-71h494m-494 11h494m-494 12h494m-494-71h494m-494 12h494m-494 12h494m-494-72h494m-494 12h494m-494 12h494"/><clipPath id="a"><path d="M75.5 65.113h494.03v332.675H75.5z"/></clipPath><path stroke="#ea4335" stroke-linecap="butt" stroke-width="2" d="M90.938 290.265s20.585-109.11 30.877-136.195c10.293-27.084 20.585-19.214 30.877-26.31 10.293-7.097 20.585-16.267 30.877-16.267s20.585 10.46 30.877 16.266c10.292 5.807 20.585 19.091 30.877 18.574 10.292-.518 20.585-17.801 30.877-21.677s20.584-.232 30.877-1.58c10.292-1.346 20.584-8.282 30.877-6.501s20.584 15.838 30.877 17.185 20.584-6.788 30.876-9.104 20.585-3.445 30.877-4.792c10.293-1.347 20.585-2.741 30.877-3.29 10.293-.547 20.585-1.863 30.877 0 10.292 1.865 20.585 9.578 30.877 11.185s30.877-1.543 30.877-1.543" clip-path="url(#a)"/><path stroke="#fbbc04" stroke-linecap="butt" stroke-width="2" d="M90.938 361.23s20.585-8.083 30.877-11.158c10.293-3.075 20.585-3.78 30.877-7.29 10.293-3.51 20.585-5.454 30.877-13.771s20.585-26.362 30.877-36.135 20.585-14.68 30.877-22.501c10.292-7.82 20.585-17.572 30.877-24.424s20.584-13.597 30.877-16.692c10.292-3.094 20.584-2.927 30.877-1.873s20.584 8.292 30.877 8.2c10.292-.091 20.584-7.993 30.876-8.751 10.293-.76 20.585 5.824 30.877 4.198 10.293-1.625 20.585-12.513 30.877-13.949 10.293-1.435 20.585 4.338 30.877 5.335s20.585-2.004 30.877.645 30.877 15.244 30.877 15.244" clip-path="url(#a)"/><path stroke="#90f" stroke-linecap="butt" stroke-width="2" d="M90.938 275.929s20.585-21.546 30.877-30.465c10.293-8.918 20.585-19.734 30.877-23.045 10.293-3.312 20.585 4.18 30.877 3.177 10.292-1.004 20.585-9.201 30.877-9.201s20.585 9.2 30.877 9.2 20.585-7.55 30.877-9.2 20.584-.695 30.877-.695 20.584-.317 30.877.695c10.292 1.011 20.584 4.263 30.877 5.374 10.292 1.112 20.584-1.55 30.876 1.295s20.585 14.547 30.877 15.777c10.293 1.23 20.585-5.108 30.877-8.395 10.293-3.286 20.585-11.026 30.877-11.324 10.292-.297 20.585 8.563 30.877 9.538s30.877-3.69 30.877-3.69" clip-path="url(#a)"/><path stroke="#ff6d01" stroke-linecap="butt" stroke-width="2" d="M90.938 355.73s20.585-4.299 30.877-6.586c10.293-2.287 20.585-3.928 30.877-7.137 10.293-3.208 20.585-6.028 30.877-12.112 10.292-6.083 20.585-15.852 30.877-24.389s20.585-16.575 30.877-26.828 20.585-25.099 30.877-34.693 20.584-15.637 30.877-22.87 20.584-19.151 30.877-20.526 20.584 10.718 30.877 12.277 20.584-3.28 30.876-2.924 20.585 8.339 30.877 5.057c10.293-3.28 20.585-21.359 30.877-24.744 10.293-3.385 20.585 5.05 30.877 4.435s20.585-7.385 30.877-8.124 30.877 3.69 30.877 3.69" clip-path="url(#a)"/><path stroke="#46bdc6" stroke-linecap="butt" stroke-width="2" d="M90.938 355.355s20.585 17.322 30.877 21.121c10.293 3.8 20.585 2.184 30.877 1.674 10.293-.51 20.585-3.428 30.877-4.734 10.292-1.305 20.585-2.686 30.877-3.1 10.292-.412 20.585 1.289 30.877.622s20.585-2.552 30.877-4.624c10.292-2.07 20.584-6.609 30.877-7.803s20.584.92 30.877.639 20.584-.64 30.877-2.332 20.584-7.25 30.876-7.824 20.585 4.672 30.877 4.378c10.293-.294 20.585-4.665 30.877-6.143 10.293-1.477 20.585-2.574 30.877-2.72s20.585 2.451 30.877 1.845 30.877-5.482 30.877-5.482" clip-path="url(#a)"/><path stroke="#38761d" stroke-linecap="butt" stroke-width="2" d="M90.938 344.982s20.585-15.43 30.877-22.63c10.293-7.201 20.585-17.431 30.877-20.574 10.293-3.143 20.585 1.274 30.877 1.714s20.585-2.156 30.877.927 20.585 16.733 30.877 17.571c10.292.84 20.585-9.761 30.877-12.538s20.584-3.557 30.877-4.125 20.584.478 30.877.714 20.584.673 30.877.703 20.584-1.581 30.876-.526 20.585 7.124 30.877 6.855c10.293-.27 20.585-7.56 30.877-8.471 10.293-.911 20.585 2.649 30.877 3.006s20.585-1.825 30.877-.864c10.292.96 30.877 6.63 30.877 6.63" clip-path="url(#a)"/><path fill="#ea4335" d="M92.938 290.265a2 2 0 1 1-4 0 2 2 0 0 1 4 0m30.877-136.195a2 2 0 1 1-4 0 2 2 0 0 1 4 0m30.877-26.31a2 2 0 1 1-4 0 2 2 0 0 1 4 0m30.878-16.267a2 2 0 1 1-4 0 2 2 0 0 1 4 0m30.876 16.267a2 2 0 1 1-4 0 2 2 0 0 1 4 0m30.877 18.573a2 2 0 1 1-4 0 2 2 0 0 1 4 0m30.877-21.677a2 2 0 1 1-4 0 2 2 0 0 1 4 0m30.877-1.579a2 2 0 1 1-4 0 2 2 0 0 1 4 0m30.877-6.502a2 2 0 1 1-4 0 2 2 0 0 1 4 0m30.876 17.185a2 2 0 1 1-4 0 2 2 0 0 1 4 0m30.877-9.104a2 2 0 1 1-4 0 2 2 0 0 1 4 0m30.877-4.792a2 2 0 1 1-4 0 2 2 0 0 1 4 0m30.877-3.289a2 2 0 1 1-4 0 2 2 0 0 1 4 0m30.877 0a2 2 0 1 1-4 0 2 2 0 0 1 4 0m30.877 11.185a2 2 0 1 1-4 0 2 2 0 0 1 4 0m30.877-1.544a2 2 0 1 1-4 0 2 2 0 0 1 4 0" clip-path="url(#a)"/><path fill="#fbbc04" d="M92.938 361.23a2 2 0 1 1-4 0 2 2 0 0 1 4 0m30.877-11.158a2 2 0 1 1-4 0 2 2 0 0 1 4 0m30.877-7.29a2 2 0 1 1-4 0 2 2 0 0 1 4 0m30.878-13.772a2 2 0 1 1-4 0 2 2 0 0 1 4 0m30.876-36.134a2 2 0 1 1-4 0 2 2 0 0 1 4 0m30.877-22.501a2 2 0 1 1-4 0 2 2 0 0 1 4 0M278.2 245.95a2 2 0 1 1-4 0 2 2 0 0 1 4 0m30.877-16.69a2 2 0 1 1-4 0 2 2 0 0 1 4 0m30.877-1.874a2 2 0 1 1-4 0 2 2 0 0 1 4 0m30.876 8.201a2 2 0 1 1-4 0 2 2 0 0 1 4 0m30.877-8.752a2 2 0 1 1-4 0 2 2 0 0 1 4 0m30.877 4.198a2 2 0 1 1-4 0 2 2 0 0 1 4 0m30.877-13.949a2 2 0 1 1-4 0 2 2 0 0 1 4 0m30.877 5.335a2 2 0 1 1-4 0 2 2 0 0 1 4 0m30.877.645a2 2 0 1 1-4 0 2 2 0 0 1 4 0m30.877 15.244a2 2 0 1 1-4 0 2 2 0 0 1 4 0" clip-path="url(#a)"/><path fill="#90f" d="M92.938 275.929a2 2 0 1 1-4 0 2 2 0 0 1 4 0m30.877-30.465a2 2 0 1 1-4 0 2 2 0 0 1 4 0m30.877-23.045a2 2 0 1 1-4 0 2 2 0 0 1 4 0m30.878 3.177a2 2 0 1 1-4 0 2 2 0 0 1 4 0m30.876-9.201a2 2 0 1 1-4 0 2 2 0 0 1 4 0m30.877 9.201a2 2 0 1 1-4 0 2 2 0 0 1 4 0m30.877-9.201a2 2 0 1 1-4 0 2 2 0 0 1 4 0m30.877-.695a2 2 0 1 1-4 0 2 2 0 0 1 4 0m30.877.695a2 2 0 1 1-4 0 2 2 0 0 1 4 0m30.876 5.375a2 2 0 1 1-4 0 2 2 0 0 1 4 0m30.877 1.294a2 2 0 1 1-4 0 2 2 0 0 1 4 0m30.877 15.777a2 2 0 1 1-4 0 2 2 0 0 1 4 0m30.877-8.395a2 2 0 1 1-4 0 2 2 0 0 1 4 0m30.877-11.324a2 2 0 1 1-4 0 2 2 0 0 1 4 0m30.877 9.538a2 2 0 1 1-4 0 2 2 0 0 1 4 0m30.877-3.69a2 2 0 1 1-4 0 2 2 0 0 1 4 0" clip-path="url(#a)"/><path fill="#ff6d01" d="M92.938 355.73a2 2 0 1 1-4 0 2 2 0 0 1 4 0m30.877-6.586a2 2 0 1 1-4 0 2 2 0 0 1 4 0m30.877-7.137a2 2 0 1 1-4 0 2 2 0 0 1 4 0m30.878-12.112a2 2 0 1 1-4 0 2 2 0 0 1 4 0m30.876-24.389a2 2 0 1 1-4 0 2 2 0 0 1 4 0m30.877-26.828a2 2 0 1 1-4 0 2 2 0 0 1 4 0m30.877-34.693a2 2 0 1 1-4 0 2 2 0 0 1 4 0m30.877-22.87a2 2 0 1 1-4 0 2 2 0 0 1 4 0m30.877-20.526a2 2 0 1 1-4 0 2 2 0 0 1 4 0m30.876 12.277a2 2 0 1 1-4 0 2 2 0 0 1 4 0m30.877-2.924a2 2 0 1 1-4 0 2 2 0 0 1 4 0M432.584 215a2 2 0 1 1-4 0 2 2 0 0 1 4 0m30.877-24.745a2 2 0 1 1-4 0 2 2 0 0 1 4 0m30.877 4.435a2 2 0 1 1-4 0 2 2 0 0 1 4 0m30.877-8.124a2 2 0 1 1-4 0 2 2 0 0 1 4 0m30.877 3.689a2 2 0 1 1-4 0 2 2 0 0 1 4 0" clip-path="url(#a)"/><path fill="#46bdc6" d="M92.938 355.355a2 2 0 1 1-4 0 2 2 0 0 1 4 0m30.877 21.121a2 2 0 1 1-4 0 2 2 0 0 1 4 0m30.877 1.674a2 2 0 1 1-4 0 2 2 0 0 1 4 0m30.878-4.734a2 2 0 1 1-4 0 2 2 0 0 1 4 0m30.876-3.099a2 2 0 1 1-4 0 2 2 0 0 1 4 0m30.877.621a2 2 0 1 1-4 0 2 2 0 0 1 4 0m30.877-4.624a2 2 0 1 1-4 0 2 2 0 0 1 4 0m30.877-7.803a2 2 0 1 1-4 0 2 2 0 0 1 4 0m30.877.639a2 2 0 1 1-4 0 2 2 0 0 1 4 0m30.876-2.332a2 2 0 1 1-4 0 2 2 0 0 1 4 0m30.877-7.824a2 2 0 1 1-4 0 2 2 0 0 1 4 0m30.877 4.378a2 2 0 1 1-4 0 2 2 0 0 1 4 0m30.877-6.142a2 2 0 1 1-4 0 2 2 0 0 1 4 0m30.877-2.721a2 2 0 1 1-4 0 2 2 0 0 1 4 0m30.877 1.845a2 2 0 1 1-4 0 2 2 0 0 1 4 0m30.877-5.482a2 2 0 1 1-4 0 2 2 0 0 1 4 0" clip-path="url(#a)"/><path fill="#38761d" d="M92.938 344.982a2 2 0 1 1-4 0 2 2 0 0 1 4 0m30.877-22.631a2 2 0 1 1-4 0 2 2 0 0 1 4 0m30.877-20.573a2 2 0 1 1-4 0 2 2 0 0 1 4 0m30.878 1.714a2 2 0 1 1-4 0 2 2 0 0 1 4 0m30.876.927a2 2 0 1 1-4 0 2 2 0 0 1 4 0m30.877 17.571a2 2 0 1 1-4 0 2 2 0 0 1 4 0m30.877-12.538a2 2 0 1 1-4 0 2 2 0 0 1 4 0m30.877-4.125a2 2 0 1 1-4 0 2 2 0 0 1 4 0m30.877.713a2 2 0 1 1-4 0 2 2 0 0 1 4 0m30.876.704a2 2 0 1 1-4 0 2 2 0 0 1 4 0m30.877-.526a2 2 0 1 1-4 0 2 2 0 0 1 4 0m30.877 6.855a2 2 0 1 1-4 0 2 2 0 0 1 4 0m30.877-8.471a2 2 0 1 1-4 0 2 2 0 0 1 4 0m30.877 3.006a2 2 0 1 1-4 0 2 2 0 0 1 4 0m30.877-.864a2 2 0 1 1-4 0 2 2 0 0 1 4 0m30.877 6.63a2 2 0 1 1-4 0 2 2 0 0 1 4 0" clip-path="url(#a)"/><path fill="#000" d="M294.078 442.428q0-1.484.687-2.36.688-.874 1.813-.874 1.156 0 1.812.812l.047-.703h1v6.188q0 1.234-.734 1.937-.735.719-1.953.719-.688 0-1.344-.297t-1-.797l.562-.656q.688.86 1.703.86.782 0 1.22-.454.452-.437.452-1.25v-.547q-.656.766-1.78.766-1.11 0-1.798-.89-.687-.907-.687-2.454m1.093.125q0 1.063.438 1.688.437.609 1.234.609 1.016 0 1.5-.938v-2.89q-.5-.906-1.5-.906-.78 0-1.234.609-.438.61-.438 1.828m5.875-.14q0-.922.36-1.672.375-.75 1.031-1.141.656-.406 1.484-.406 1.297 0 2.094.89.813.891.813 2.391v.078q0 .922-.36 1.656-.36.735-1.015 1.157-.657.406-1.516.406-1.281 0-2.094-.89-.797-.907-.797-2.391zm1.094.14q0 1.047.485 1.688.5.64 1.312.64.828 0 1.313-.64.484-.657.484-1.829 0-1.03-.5-1.671-.484-.657-1.313-.657-.796 0-1.296.641-.485.625-.485 1.828m9.266-2.281q-.25-.031-.531-.031-1.079 0-1.454.906v4.5h-1.078v-6.344h1.047l.016.734q.531-.843 1.515-.843.313 0 .485.078zm.64 2.14q0-.921.36-1.671.375-.75 1.031-1.141.656-.406 1.484-.406 1.297 0 2.094.89.813.891.813 2.391v.078q0 .922-.36 1.656-.36.735-1.015 1.157-.657.406-1.516.406-1.281 0-2.094-.89-.797-.907-.797-2.391zm1.094.141q0 1.047.485 1.688.5.64 1.312.64.828 0 1.313-.64.484-.657.484-1.829 0-1.03-.5-1.671-.484-.657-1.313-.657-.796 0-1.296.641-.485.625-.485 1.828m10.11 2.469q-.625.75-1.86.75-1.015 0-1.547-.594-.53-.594-.53-1.75v-4.125h1.077v4.094q0 1.453 1.172 1.453 1.25 0 1.656-.938v-4.609h1.094v6.344h-1.031zm4.562-7.25v1.531h1.172v.844h-1.172v3.922q0 .39.156.578.157.187.532.187.187 0 .515-.062v.875q-.422.125-.828.125-.719 0-1.094-.438-.375-.453-.375-1.265v-3.922h-1.156v-.844h1.156v-1.531zm3.703 7.875h-1.078v-6.344h1.078zm-1.172-8.016q0-.265.157-.453.171-.187.484-.187t.469.187q.172.188.172.453 0 .25-.172.438-.157.172-.469.172-.313 0-.484-.172-.157-.188-.157-.438m4.016 1.672.031.797q.735-.906 1.906-.906 2.016 0 2.032 2.265v4.188h-1.094v-4.203q0-.672-.313-1-.296-.328-.953-.328-.53 0-.937.28-.39.282-.61.735v4.516h-1.078v-6.344zm8.61 6.469q-1.298 0-2.11-.844-.797-.86-.797-2.281v-.188q0-.953.36-1.687.359-.75 1-1.156.656-.422 1.406-.422 1.234 0 1.922.812t.687 2.328v.453h-4.297q.031.938.547 1.516.531.578 1.344.578.562 0 .953-.234.406-.235.719-.625l.656.515q-.797 1.235-2.39 1.235m-.141-5.688q-.657 0-1.11.485-.437.468-.53 1.328h3.171v-.078q-.047-.828-.453-1.282-.39-.453-1.078-.453m7.203 3.875q0-.437-.344-.672-.328-.25-1.156-.421-.813-.172-1.297-.422t-.719-.578q-.219-.344-.219-.813 0-.781.657-1.312.656-.547 1.687-.547 1.078 0 1.735.562.671.547.671 1.406h-1.078q0-.437-.39-.75-.375-.328-.938-.328-.594 0-.937.266-.328.25-.328.656 0 .39.312.594.313.203 1.125.39.813.172 1.313.422t.734.61q.25.36.25.86 0 .859-.688 1.374-.671.516-1.75.516-.765 0-1.359-.266-.578-.281-.906-.765-.328-.485-.328-1.047h1.078q.031.547.437.875.407.312 1.078.312.61 0 .985-.25t.375-.672M26.872 280.76l.703-.03q-.812-.688-.812-1.875 0-1.328 1.016-1.813-.454-.312-.735-.812-.281-.516-.281-1.203 0-2.094 2.203-2.125h4.25v1.078h-4.187q-.672 0-1 .312-.344.313-.344 1.047 0 .61.36 1.016.359.39.968.453h4.203v1.078H29.06q-1.375 0-1.375 1.36 0 1.062.906 1.452h4.625v1.094h-6.344zm6.344-11.155v1.078h-6.344v-1.078zm-8.016 1.172q-.265 0-.453-.157-.187-.172-.187-.484 0-.313.187-.469.188-.172.453-.172.25 0 .438.172.172.156.172.469t-.172.484q-.188.157-.438.157m8.016-4.172v1.078h-9v-1.078zm0-3v1.078h-9v-1.078zm0-3v1.078h-6.344v-1.078zm-8.016 1.172q-.265 0-.453-.157-.187-.172-.187-.484 0-.313.187-.469.188-.172.453-.172.25 0 .438.172.172.156.172.469t-.172.484q-.188.157-.438.157m4.782-2.704q-.922 0-1.672-.359-.75-.375-1.14-1.031-.407-.656-.407-1.485 0-1.296.89-2.093.891-.813 2.391-.813h.078q.922 0 1.657.36.734.359 1.156 1.015.406.656.406 1.516 0 1.281-.89 2.094-.907.796-2.391.796zm.14-1.093q1.047 0 1.688-.485.64-.5.64-1.312 0-.828-.64-1.313-.656-.484-1.828-.484-1.032 0-1.672.5-.656.484-.656 1.312 0 .797.64 1.297.625.485 1.828.485m-3.25-7.22.797-.03q-.906-.735-.906-1.907 0-2.015 2.266-2.03h4.187v1.093h-4.203q-.672 0-1 .312-.328.297-.328.954 0 .53.281.937.281.39.734.61h4.516v1.078h-6.344zm3.11-8.687q-.922 0-1.672-.359-.75-.375-1.14-1.031-.407-.656-.407-1.485 0-1.296.89-2.093.891-.813 2.391-.813h.078q.922 0 1.657.36.734.359 1.156 1.015.406.656.406 1.516 0 1.281-.89 2.094-.907.796-2.391.796zm.14-1.093q1.047 0 1.688-.485.64-.5.64-1.312 0-.828-.64-1.313-.656-.484-1.828-.484-1.032 0-1.672.5-.656.484-.656 1.312 0 .797.64 1.297.625.485 1.828.485m0-11.547q1.438 0 2.328.656.891.656.891 1.797 0 1.156-.734 1.812h3.047v1.079h-8.782v-.985l.703-.047q-.812-.672-.812-1.843 0-1.141.86-1.797.859-.672 2.39-.672zm-.125 1.078q-1.078 0-1.687.469-.625.453-.625 1.25 0 .984.86 1.468h3.03q.875-.484.875-1.484 0-.781-.609-1.234-.625-.47-1.844-.47m1.532-6.422q-.438 0-.672.344-.25.328-.422 1.156-.172.813-.422 1.297t-.578.719q-.344.218-.813.218-.781 0-1.312-.656-.547-.656-.547-1.687 0-1.078.562-1.735.547-.672 1.407-.672v1.079q-.438 0-.75.39-.328.375-.328.938 0 .593.265.937.25.328.656.328.391 0 .594-.312.203-.313.39-1.125.173-.813.423-1.313t.609-.734q.36-.25.86-.25.859 0 1.374.687.516.672.516 1.75 0 .766-.266 1.36-.28.578-.765.906t-1.047.328v-1.078q.547-.031.875-.437.312-.407.312-1.079 0-.609-.25-.984t-.671-.375m2.421-2.516v.922l-9.265-3.562v-.922zm-2.421-8.484q-.438 0-.672.344-.25.328-.422 1.156-.172.813-.422 1.297t-.578.719q-.344.218-.813.218-.781 0-1.312-.656-.547-.656-.547-1.687 0-1.078.562-1.735.547-.672 1.407-.672v1.079q-.438 0-.75.39-.328.375-.328.938 0 .593.265.937.25.328.656.328.391 0 .594-.312.203-.313.39-1.125.173-.813.423-1.313t.609-.734q.36-.25.86-.25.859 0 1.374.687.516.672.516 1.75 0 .766-.266 1.36-.28.578-.765.906t-1.047.328v-1.078q.547-.031.875-.437.312-.407.312-1.079 0-.609-.25-.984t-.671-.375m1.812-4.937q0 1.296-.844 2.109-.86.797-2.281.797h-.187q-.954 0-1.688-.36-.75-.359-1.156-1-.422-.656-.422-1.406 0-1.234.812-1.922t2.329-.687h.453v4.297q.937-.032 1.515-.547.578-.531.578-1.344 0-.562-.234-.953-.234-.406-.625-.719l.516-.656q1.234.797 1.234 2.39m-5.687.14q0 .656.484 1.11.469.437 1.328.53v-3.171h-.078q-.828.047-1.281.453-.453.39-.453 1.078m4.796-6.047q0-.578-.343-1.015-.36-.438-.891-.485v-1.031q.547.031 1.047.39.484.344.781.923.297.562.297 1.218 0 1.297-.86 2.063-.874.75-2.374.75h-.188q-.922 0-1.64-.328-.72-.344-1.11-.97-.406-.64-.406-1.515 0-1.062.64-1.765.626-.72 1.657-.766v1.031q-.625.047-1.016.469-.39.422-.39 1.031 0 .828.593 1.282.594.453 1.719.453h.203q1.094 0 1.688-.453.593-.454.593-1.282m36.113 196.404q0 1.907-.657 2.844-.64.922-2.031.922-1.36 0-2.016-.906t-.687-2.719v-1.437q0-1.891.64-2.797.657-.922 2.047-.922 1.375 0 2.032.89.656.875.671 2.72zm-1.094-1.484q0-1.375-.39-2-.376-.64-1.22-.64-.828 0-1.218.64-.375.625-.375 1.922v1.734q0 1.375.39 2.047.406.656 1.219.656.797 0 1.188-.625t.406-1.953zm-7.703-42.4h-1.078v-7.219l-2.188.797v-.984l3.11-1.172h.156zm8.797-3.64q0 1.906-.657 2.843-.64.922-2.031.922-1.36 0-2.016-.906-.656-.907-.687-2.719v-1.438q0-1.89.64-2.796.657-.922 2.047-.922 1.375 0 2.032.89.656.875.671 2.72zm-1.094-1.485q0-1.375-.39-2-.376-.64-1.22-.64-.828 0-1.218.64-.375.625-.375 1.922v1.734q0 1.375.39 2.047.406.656 1.219.656.797 0 1.188-.625t.406-1.953zm-5.672-42.4h-5.594v-.781l2.953-3.282q.657-.75.907-1.203.25-.468.25-.968 0-.672-.407-1.094-.39-.438-1.078-.438-.797 0-1.25.469-.453.453-.453 1.281h-1.078q0-1.187.75-1.906.766-.734 2.031-.734 1.203 0 1.89.625.688.625.688 1.672 0 1.25-1.61 3l-2.28 2.468h4.28zm6.766-3.64q0 1.906-.657 2.843-.64.922-2.031.922-1.36 0-2.016-.906-.656-.907-.687-2.72V302.3q0-1.89.64-2.796.657-.922 2.047-.922 1.375 0 2.032.89.656.875.671 2.719zm-1.094-1.485q0-1.375-.39-2-.376-.64-1.22-.64-.828 0-1.218.64-.375.625-.375 1.922v1.734q0 1.375.39 2.047.406.656 1.219.656.797 0 1.188-.625t.406-1.953zm-9.688-47.197h.813q.781-.016 1.218-.406.438-.39.438-1.063 0-1.5-1.5-1.5-.703 0-1.125.407-.406.406-.406 1.062h-1.094q0-1.016.734-1.687.75-.672 1.891-.672 1.203 0 1.89.64.688.64.688 1.782 0 .562-.36 1.078-.359.515-.984.78.703.22 1.078.735.391.516.391 1.266 0 1.14-.75 1.828-.75.672-1.953.672-1.187 0-1.953-.656-.75-.657-.75-1.72h1.094q0 .673.437 1.079.438.406 1.188.406.78 0 1.187-.406.422-.422.422-1.187 0-.735-.453-1.125-.453-.407-1.328-.422h-.813zm10.782 1.156q0 1.907-.657 2.844-.64.922-2.031.922-1.36 0-2.016-.906-.656-.907-.687-2.72v-1.437q0-1.89.64-2.796.657-.922 2.047-.922 1.375 0 2.032.89.656.875.671 2.719zm-1.094-1.484q0-1.375-.39-2-.376-.64-1.22-.64-.828 0-1.218.64-.375.625-.375 1.922v1.734q0 1.375.39 2.047.406.656 1.219.656.797 0 1.188-.625t.406-1.953zm-6.688-45.26h1.188v.875H60.78v1.985h-1.078v-1.985h-3.89v-.64l3.812-5.906h1.156zm-3.734 0h2.656v-4.187l-.14.234zm11.516-.78q0 1.905-.657 2.843-.64.922-2.031.922-1.36 0-2.016-.906-.656-.907-.687-2.72v-1.437q0-1.89.64-2.797.657-.921 2.047-.921 1.375 0 2.032.89.656.875.671 2.719zm-1.094-1.485q0-1.375-.39-2-.376-.64-1.22-.64-.828 0-1.218.64-.375.625-.375 1.922v1.734q0 1.375.39 2.047.406.656 1.219.656.797 0 1.188-.625t.406-1.953zm-10.766-46.681.438-4.25h4.375v1h-3.453l-.266 2.328q.64-.375 1.437-.375 1.157 0 1.844.78.688.767.688 2.08 0 1.312-.72 2.077-.702.766-1.983.766-1.126 0-1.844-.625-.719-.64-.813-1.75h1.016q.11.734.531 1.11.422.374 1.11.374.75 0 1.187-.515.438-.516.438-1.422 0-.86-.47-1.375-.468-.516-1.25-.516-.702 0-1.109.297l-.28.234zm11.86.64q0 1.906-.657 2.844-.64.922-2.031.922-1.36 0-2.016-.906-.656-.907-.687-2.72v-1.437q0-1.89.64-2.797.657-.921 2.047-.921 1.375 0 2.032.89.656.875.671 2.719zm-1.094-1.484q0-1.375-.39-2-.376-.64-1.22-.64-.828 0-1.218.64-.375.625-.375 1.922v1.734q0 1.375.39 2.047.406.656 1.219.656.797 0 1.188-.625t.406-1.953zm-7-50.931v.906h-.203q-1.266.031-2.016.765-.75.72-.875 2.032.688-.766 1.844-.766 1.11 0 1.781.781.672.782.672 2.032 0 1.312-.719 2.109t-1.937.797q-1.22 0-1.985-.938-.75-.953-.75-2.437v-.406q0-2.36 1-3.61t2.985-1.265zm-1.422 3.843q-.563 0-1.031.328-.47.329-.657.844v.39q0 1.063.47 1.704.483.64 1.187.64.734 0 1.156-.53.422-.548.422-1.423t-.422-1.406q-.422-.547-1.125-.547m9.516 1.047q0 1.906-.657 2.844-.64.922-2.031.922-1.36 0-2.016-.906-.656-.907-.687-2.72V112.2q0-1.89.64-2.797.657-.921 2.047-.921 1.375 0 2.032.89.656.875.671 2.719zm-1.094-1.484q0-1.375-.39-2-.376-.64-1.22-.64-.828 0-1.218.64-.375.625-.375 1.922v1.734q0 1.375.39 2.047.406.656 1.219.656.797 0 1.188-.625t.406-1.953zm-5.75-50.323-3.532 7.923h-1.14l3.516-7.64h-4.61v-.892h5.766zm6.843 4.282q0 1.906-.656 2.844-.64.922-2.031.922-1.36 0-2.016-.907-.656-.906-.687-2.718v-1.438q0-1.89.64-2.797.657-.922 2.047-.922 1.375 0 2.032.891.656.875.671 2.719zm-1.093-1.484q0-1.375-.39-2-.376-.64-1.22-.64-.828 0-1.218.64-.375.625-.375 1.922v1.734q0 1.375.39 2.047.406.656 1.219.656.797 0 1.188-.625t.406-1.953zM92.72 412.929h1.187v.875H92.72v1.984h-1.078v-1.984H87.75v-.641l3.812-5.906h1.157zm-3.735 0h2.657v-4.188l-.141.235zm35.221-3.453q0 .64-.344 1.14t-.906.781q.656.282 1.047.844.39.547.39 1.25 0 1.094-.75 1.766-.734.656-1.953.656-1.234 0-1.984-.656-.734-.672-.734-1.766 0-.703.375-1.25.375-.562 1.046-.844-.562-.28-.89-.78t-.328-1.142q0-1.078.687-1.703.688-.64 1.828-.64 1.125 0 1.813.64.703.625.703 1.704m-.89 3.984q0-.719-.454-1.156-.453-.453-1.187-.453-.735 0-1.188.453-.437.437-.437 1.172 0 .718.437 1.14.438.406 1.203.406.75 0 1.188-.421.437-.422.437-1.141m-1.626-5.438q-.64 0-1.047.407-.39.39-.39 1.078 0 .64.39 1.047.391.406 1.032.406.656 0 1.047-.406t.39-1.047q0-.656-.406-1.063-.406-.422-1.016-.422m28.269 7.766h-1.078v-7.219l-2.188.797v-.984l3.11-1.172h.156zm9.031 0h-5.594v-.781l2.953-3.281q.657-.75.907-1.204.25-.468.25-.968 0-.672-.406-1.094-.391-.438-1.079-.438-.797 0-1.25.47-.453.452-.453 1.28h-1.078q0-1.187.75-1.906.766-.734 2.031-.734 1.203 0 1.891.625t.688 1.672q0 1.25-1.61 3l-2.281 2.468h4.281zm21.846 0h-1.078v-7.219l-2.188.797v-.984l3.11-1.172h.156zm7.703-8.531v.906h-.203q-1.266.031-2.016.766-.75.718-.875 2.03.688-.765 1.844-.765 1.11 0 1.781.781.672.782.672 2.032 0 1.312-.719 2.11-.718.796-1.937.796t-1.985-.937q-.75-.954-.75-2.438v-.406q0-2.36 1-3.61t2.985-1.265zm-1.422 3.844q-.562 0-1.031.328t-.656.843v.391q0 1.063.468 1.703.485.64 1.188.64.734 0 1.156-.53.422-.547.422-1.422t-.422-1.407q-.422-.546-1.125-.546m26.627 4.687h-5.594v-.781l2.953-3.281q.657-.75.907-1.204.25-.468.25-.968 0-.672-.407-1.094-.39-.438-1.078-.438-.797 0-1.25.47-.453.452-.453 1.28h-1.078q0-1.187.75-1.906.766-.734 2.031-.734 1.203 0 1.89.625.688.625.688 1.672 0 1.25-1.61 3l-2.28 2.468h4.28zm6.766-3.64q0 1.906-.657 2.843-.64.922-2.031.922-1.36 0-2.016-.906t-.687-2.719v-1.437q0-1.891.64-2.797.657-.922 2.047-.922 1.375 0 2.032.89.656.875.672 2.72zm-1.094-1.485q0-1.375-.39-2-.376-.64-1.22-.64-.828 0-1.218.64-.375.625-.375 1.922v1.734q0 1.375.39 2.047.407.656 1.219.656.797 0 1.188-.625t.406-1.953zm25.205 5.125h-5.594v-.781l2.953-3.281q.656-.75.906-1.204.25-.468.25-.968 0-.672-.406-1.094-.39-.438-1.078-.438-.797 0-1.25.47-.453.452-.453 1.28h-1.078q0-1.187.75-1.906.765-.734 2.031-.734 1.203 0 1.89.625.688.625.688 1.672 0 1.25-1.61 3l-2.28 2.468h4.28zm5.984-2.86h1.188v.876h-1.188v1.984h-1.078v-1.984h-3.89v-.641l3.812-5.906h1.156zm-3.734 0h2.656v-4.187l-.14.235zm28.627 2.86h-5.594v-.781l2.953-3.281q.656-.75.906-1.204.25-.468.25-.968 0-.672-.406-1.094-.39-.438-1.078-.438-.797 0-1.25.47-.453.452-.453 1.28h-1.078q0-1.187.75-1.906.765-.734 2.031-.734 1.203 0 1.89.625.688.625.688 1.672 0 1.25-1.61 3l-2.28 2.468h4.28zm6.593-6.312q0 .64-.343 1.14t-.907.781q.657.282 1.047.844.391.547.391 1.25 0 1.094-.75 1.766-.734.656-1.953.656-1.235 0-1.985-.656-.734-.672-.734-1.766 0-.703.375-1.25.375-.562 1.047-.844-.563-.28-.89-.78-.329-.5-.329-1.142 0-1.078.688-1.703.687-.64 1.828-.64 1.125 0 1.812.64.703.625.703 1.704m-.89 3.984q0-.719-.453-1.156-.453-.453-1.188-.453t-1.187.453q-.438.437-.438 1.172 0 .718.438 1.14.437.406 1.203.406.75 0 1.187-.421.438-.422.438-1.141m-1.625-5.438q-.64 0-1.047.407-.39.39-.39 1.078 0 .64.39 1.047t1.031.406q.656 0 1.047-.406t.39-1.047q0-.656-.406-1.063-.406-.422-1.015-.422m22.783 2.969h.813q.78-.015 1.218-.406.438-.39.438-1.063 0-1.5-1.5-1.5-.703 0-1.125.407-.406.406-.406 1.062h-1.094q0-1.015.734-1.687.75-.672 1.89-.672 1.204 0 1.891.64.688.641.688 1.782 0 .562-.36 1.078-.359.515-.984.781.703.219 1.078.734.39.516.39 1.266 0 1.14-.75 1.828-.75.672-1.952.672-1.188 0-1.953-.656-.75-.656-.75-1.719h1.093q0 .672.438 1.078.437.406 1.187.406.782 0 1.188-.406.422-.422.422-1.187 0-.735-.453-1.125-.454-.407-1.329-.422h-.812zm11.016 4.797h-5.594v-.781l2.953-3.281q.656-.75.906-1.204.25-.468.25-.968 0-.672-.406-1.094-.39-.438-1.078-.438-.797 0-1.25.47-.453.452-.453 1.28h-1.078q0-1.187.75-1.906.765-.734 2.03-.734 1.204 0 1.892.625t.687 1.672q0 1.25-1.61 3l-2.28 2.468h4.28zm19.861-4.797h.812q.782-.015 1.22-.406.437-.39.437-1.063 0-1.5-1.5-1.5-.703 0-1.125.407-.407.406-.407 1.062h-1.093q0-1.015.734-1.687.75-.672 1.89-.672 1.204 0 1.891.64.688.641.688 1.782 0 .562-.36 1.078-.359.515-.984.781.703.219 1.078.734.39.516.39 1.266 0 1.14-.75 1.828-.75.672-1.952.672-1.188 0-1.953-.656-.75-.656-.75-1.719h1.093q0 .672.438 1.078.437.406 1.187.406.782 0 1.188-.406.422-.422.422-1.187 0-.735-.453-1.125-.454-.407-1.329-.422h-.812zm9.687-3.734v.906h-.203q-1.265.031-2.015.766-.75.718-.875 2.03.687-.765 1.843-.765 1.11 0 1.782.781.672.782.672 2.032 0 1.312-.72 2.11-.718.796-1.937.796-1.218 0-1.984-.937-.75-.954-.75-2.438v-.406q0-2.36 1-3.61t2.984-1.265zm-1.421 3.844q-.563 0-1.032.328-.468.328-.656.843v.391q0 1.063.469 1.703.484.64 1.187.64.735 0 1.157-.53.421-.547.421-1.422t-.421-1.407q-.422-.546-1.125-.546m25.611 1.828h1.187v.875h-1.187v1.984h-1.078v-1.984h-3.891v-.641l3.813-5.906h1.156zm-3.735 0h2.657v-4.188l-.141.235zm11.516-.782q0 1.907-.656 2.844-.64.922-2.031.922-1.36 0-2.016-.906t-.688-2.719v-1.437q0-1.891.641-2.797.656-.922 2.047-.922 1.375 0 2.031.89.656.875.672 2.72zm-1.094-1.484q0-1.375-.39-2-.375-.64-1.22-.64-.827 0-1.218.64-.375.625-.375 1.922v1.734q0 1.375.39 2.047.407.656 1.22.656.796 0 1.187-.625.39-.625.406-1.953zm24.19 2.266h1.187v.875h-1.187v1.984h-1.078v-1.984h-3.891v-.641l3.812-5.906h1.157zm-3.735 0h2.657v-4.188l-.141.235zm10.735 0h1.187v.875h-1.187v1.984h-1.078v-1.984h-3.891v-.641l3.812-5.906h1.157zm-3.735 0h2.657v-4.188l-.141.235zm27.612 0h1.187v.875h-1.187v1.984h-1.079v-1.984h-3.89v-.641l3.812-5.906h1.157zm-3.735 0h2.656v-4.188l-.14.235zm11.344-3.453q0 .64-.344 1.14t-.906.781q.656.282 1.047.844.39.547.39 1.25 0 1.094-.75 1.766-.734.656-1.953.656-1.234 0-1.984-.656-.734-.672-.734-1.766 0-.703.375-1.25.375-.562 1.046-.844-.562-.28-.89-.78t-.328-1.142q0-1.078.687-1.703.688-.64 1.828-.64 1.125 0 1.813.64.703.625.703 1.704m-.89 3.984q0-.719-.454-1.156-.453-.453-1.187-.453-.735 0-1.188.453-.437.437-.437 1.172 0 .718.437 1.14.438.406 1.203.406.75 0 1.188-.421.437-.422.437-1.141m-1.626-5.438q-.64 0-1.047.407-.39.39-.39 1.078 0 .64.39 1.047.391.406 1.032.406.656 0 1.047-.406t.39-1.047q0-.656-.406-1.063-.406-.422-1.016-.422m21.706 3.485.438-4.25h4.375v1h-3.453l-.266 2.328q.64-.375 1.438-.375 1.156 0 1.843.781.688.766.688 2.078 0 1.313-.719 2.078-.703.766-1.984.766-1.125 0-1.844-.625-.719-.64-.812-1.75h1.015q.11.734.531 1.11.422.374 1.11.374.75 0 1.187-.515.438-.516.438-1.422 0-.86-.469-1.375-.469-.516-1.25-.516-.703 0-1.11.297l-.28.235zm12.094 4.281h-5.594v-.781l2.954-3.281q.656-.75.906-1.204.25-.468.25-.968 0-.672-.406-1.094-.391-.438-1.079-.438-.796 0-1.25.47-.453.452-.453 1.28h-1.078q0-1.187.75-1.906.766-.734 2.031-.734 1.204 0 1.891.625t.688 1.672q0 1.25-1.61 3l-2.281 2.468h4.281zm18.783-4.281.438-4.25h4.375v1H487.9l-.266 2.328q.64-.375 1.438-.375 1.156 0 1.843.781.688.766.688 2.078 0 1.313-.719 2.078-.703.766-1.984.766-1.125 0-1.844-.625-.719-.64-.813-1.75h1.016q.11.734.531 1.11.422.374 1.11.374.75 0 1.187-.515.438-.516.438-1.422 0-.86-.47-1.375-.468-.516-1.25-.516-.702 0-1.108.297l-.282.235zm10.766-4.25v.906h-.203q-1.266.031-2.016.766-.75.718-.875 2.03.688-.765 1.844-.765 1.11 0 1.781.781.672.782.672 2.032 0 1.312-.719 2.11-.719.796-1.937.796-1.219 0-1.985-.937-.75-.954-.75-2.438v-.406q0-2.36 1-3.61t2.985-1.265zm-1.422 3.844q-.562 0-1.031.328t-.656.843v.391q0 1.063.468 1.703.485.64 1.188.64.734 0 1.156-.53.422-.547.422-1.422t-.422-1.407q-.422-.546-1.125-.546m25.299-3.844v.906h-.203q-1.266.031-2.016.766-.75.718-.875 2.03.688-.765 1.844-.765 1.11 0 1.781.781.672.782.672 2.032 0 1.312-.719 2.11-.719.796-1.937.796-1.22 0-1.985-.937-.75-.954-.75-2.438v-.406q0-2.36 1-3.61t2.985-1.265zm-1.422 3.844q-.563 0-1.031.328-.47.328-.657.843v.391q0 1.063.47 1.703.484.64 1.187.64.734 0 1.156-.53.422-.547.422-1.422t-.422-1.407q-.422-.546-1.125-.546m9.516 1.046q0 1.907-.657 2.844-.64.922-2.031.922-1.36 0-2.016-.906t-.687-2.719v-1.437q0-1.891.64-2.797.657-.922 2.047-.922 1.375 0 2.032.89.656.875.672 2.72zm-1.094-1.484q0-1.375-.39-2-.376-.64-1.22-.64-.828 0-1.218.64-.375.625-.375 1.922v1.734q0 1.375.39 2.047.407.656 1.219.656.797 0 1.188-.625t.406-1.953zm23.876-3.406v.906h-.202q-1.266.031-2.016.766-.75.718-.875 2.03.687-.765 1.844-.765 1.109 0 1.78.781.673.782.673 2.032 0 1.312-.719 2.11-.719.796-1.937.796-1.22 0-1.985-.937-.75-.954-.75-2.438v-.406q0-2.36 1-3.61t2.985-1.265zm-1.421 3.844q-.563 0-1.031.328-.47.328-.657.843v.391q0 1.063.469 1.703.484.64 1.188.64.734 0 1.156-.53.422-.547.422-1.422t-.422-1.407q-.422-.546-1.125-.546m8.734 1.828h1.188v.875h-1.188v1.984h-1.078v-1.984h-3.89v-.641l3.812-5.906h1.156zm-3.734 0h2.656v-4.188l-.14.235z"/><path fill="#ea4335" d="M608.693 72.613a6 6 0 1 1-12 0 6 6 0 0 1 12 0"/><path fill="#1a1a1a" d="M620.584 71.738q-.25-.032-.532-.032-1.078 0-1.453.907v4.5h-1.078v-6.344h1.047l.016.734q.53-.843 1.515-.843.313 0 .485.078zm2.109 5.375h-1.078v-6.344h1.078zm-1.172-8.016q0-.266.156-.453.172-.188.485-.188.312 0 .468.188.172.187.172.453 0 .25-.172.438-.156.171-.468.171t-.485-.171q-.156-.188-.156-.438m6.688 6.328q0-.437-.344-.672-.328-.25-1.156-.422-.813-.171-1.297-.421-.485-.25-.719-.579-.219-.343-.219-.812 0-.781.656-1.313.657-.546 1.688-.546 1.078 0 1.734.562.672.547.672 1.406h-1.078q0-.437-.39-.75-.375-.328-.938-.328-.594 0-.937.266-.329.25-.329.656 0 .39.313.594.312.203 1.125.39.812.172 1.312.422t.735.61q.25.36.25.86 0 .858-.688 1.374-.672.516-1.75.516-.765 0-1.36-.266-.577-.281-.905-.766-.328-.484-.328-1.046h1.078q.03.546.437.875.406.312 1.078.312.61 0 .985-.25t.375-.672m3.78-6.187v1.531h1.173v.844h-1.172v3.922q0 .39.156.578t.531.187q.188 0 .516-.062v.875q-.422.125-.828.125-.719 0-1.094-.438-.375-.453-.375-1.265v-3.922h-1.156v-.844h1.156v-1.531zm5.595 2.5q-.25-.032-.532-.032-1.078 0-1.453.907v4.5h-1.078v-6.344h1.047l.016.734q.53-.843 1.515-.843.313 0 .485.078zm3.562 5.5q-1.297 0-2.11-.844-.796-.86-.796-2.281v-.188q0-.953.36-1.687.359-.75 1-1.157.655-.421 1.405-.421 1.235 0 1.922.812.688.813.688 2.328v.453h-4.297q.031.938.547 1.516.531.578 1.344.578.562 0 .953-.234.406-.235.718-.625l.657.515q-.797 1.235-2.39 1.235m-.14-5.688q-.657 0-1.11.485-.437.468-.531 1.328h3.172v-.078q-.047-.829-.453-1.282-.391-.453-1.078-.453m4.984-2.312v1.531h1.172v.844h-1.172v3.922q0 .39.156.578t.531.187q.188 0 .516-.062v.875q-.422.125-.828.125-.719 0-1.094-.438-.375-.453-.375-1.265v-3.922h-1.156v-.844h1.156v-1.531zm4 0v1.531h1.172v.844h-1.172v3.922q0 .39.156.578t.531.187q.188 0 .516-.062v.875q-.422.125-.828.125-.719 0-1.094-.438-.375-.453-.375-1.265v-3.922h-1.156v-.844h1.156v-1.531zm2.234 4.64q0-.922.36-1.672.375-.75 1.03-1.14.657-.406 1.485-.406 1.297 0 2.094.89.813.89.813 2.39v.079q0 .922-.36 1.656-.36.735-1.015 1.156-.657.407-1.516.407-1.281 0-2.094-.89-.797-.907-.797-2.392zm1.094.141q0 1.047.484 1.687.5.641 1.313.641.828 0 1.312-.64.485-.657.485-1.829 0-1.03-.5-1.672-.485-.656-1.313-.656-.797 0-1.297.64-.484.626-.484 1.829"/><path fill="#fbbc04" d="M608.693 97.613a6 6 0 1 1-12 0 6 6 0 0 1 12 0"/><path fill="#1a1a1a" d="M622.88 99.019q0 1.453-.671 2.344-.657.875-1.782.875-1.203 0-1.859-.86l-.062.735h-.985v-9h1.078v3.36q.656-.813 1.813-.813 1.156 0 1.812.875.656.859.656 2.39zm-1.078-.125q0-1.11-.437-1.703-.422-.61-1.219-.61-1.078 0-1.547.985v2.75q.5 1 1.547 1 .781 0 1.219-.61.437-.609.437-1.812m3.891 3.219h-1.078v-6.344h1.078zm-1.172-8.016q0-.266.156-.453.172-.188.485-.188.312 0 .468.188.172.187.172.453 0 .25-.172.438-.156.171-.468.171t-.485-.171q-.156-.188-.156-.438m2.735 4.797q0-1.484.687-2.36.688-.874 1.813-.874 1.156 0 1.812.812l.047-.703h1v6.187q0 1.235-.735 1.938-.734.719-1.953.719-.687 0-1.343-.297-.657-.297-1-.797l.562-.656q.688.86 1.703.86.781 0 1.219-.454.453-.438.453-1.25v-.547q-.656.766-1.781.766-1.11 0-1.797-.89-.687-.907-.687-2.454m1.093.125q0 1.062.438 1.687.437.61 1.234.61 1.016 0 1.5-.938v-2.89q-.5-.907-1.5-.907-.781 0-1.234.61-.438.61-.438 1.828m8.703 2.328q.578 0 1.016-.344.438-.359.484-.89h1.032q-.032.547-.391 1.047-.344.484-.922.78-.562.298-1.219.298-1.297 0-2.062-.86-.75-.875-.75-2.375v-.187q0-.922.328-1.64.344-.72.969-1.11.64-.406 1.515-.406 1.063 0 1.766.64.719.625.766 1.656h-1.032q-.047-.625-.468-1.015t-1.032-.39q-.828 0-1.28.593-.454.594-.454 1.719v.203q0 1.094.453 1.687.453.594 1.281.594m7.375.766q-.093-.188-.156-.672-.75.797-1.797.797-.937 0-1.547-.532-.593-.53-.593-1.359 0-.984.75-1.531t2.125-.547h1.047v-.5q0-.563-.344-.89-.328-.344-1-.344-.578 0-.969.296-.39.282-.39.704h-1.094q0-.485.328-.922.343-.438.922-.688.578-.265 1.265-.265 1.11 0 1.719.546.625.547.656 1.5v2.922q0 .875.219 1.391v.094zm-1.797-.828q.516 0 .97-.266.452-.266.655-.688v-1.296h-.843q-2 0-2 1.171 0 .5.343.797.344.282.875.282m7.422.062q.578 0 1.016-.344.438-.359.484-.89h1.032q-.032.547-.391 1.047-.344.484-.922.78-.562.298-1.219.298-1.297 0-2.062-.86-.75-.875-.75-2.375v-.187q0-.922.328-1.64.344-.72.969-1.11.64-.406 1.515-.406 1.063 0 1.766.64.719.625.766 1.656h-1.032q-.047-.625-.468-1.015t-1.032-.39q-.828 0-1.28.593-.454.594-.454 1.719v.203q0 1.094.453 1.687.453.594 1.281.594m4.547-4.812q.719-.875 1.875-.875 2.016 0 2.031 2.265v4.188h-1.093V97.91q0-.672-.313-1-.297-.329-.953-.329-.531 0-.937.282-.391.281-.61.734v4.516h-1.078v-9h1.078zm8.547 5.703q-1.297 0-2.11-.844-.796-.86-.796-2.281v-.188q0-.953.36-1.687.359-.75 1-1.157.655-.421 1.405-.421 1.235 0 1.922.812.688.813.688 2.328v.453h-4.297q.031.938.547 1.516.531.578 1.344.578.562 0 .953-.234.406-.235.718-.625l.657.515q-.797 1.235-2.39 1.235m-.14-5.688q-.657 0-1.11.485-.437.468-.531 1.328h3.172v-.078q-.047-.829-.453-1.282-.391-.453-1.078-.453"/><path fill="#90f" d="M608.693 122.613a6 6 0 1 1-12 0 6 6 0 0 1 12 0"/><path fill="#1a1a1a" d="M618.052 127.113v-5.5h-1v-.844h1v-.64q0-1.032.532-1.579.547-.562 1.547-.562.375 0 .75.093l-.063.891q-.281-.062-.578-.062-.531 0-.828.312-.282.313-.282.875v.672h1.36v.844h-1.36v5.5zm6.532-5.375q-.25-.032-.532-.032-1.078 0-1.453.907v4.5h-1.078v-6.344h1.047l.016.734q.53-.843 1.515-.843.313 0 .485.078zm3.562 5.5q-1.297 0-2.11-.844-.796-.86-.796-2.281v-.188q0-.953.36-1.687.359-.75 1-1.157.655-.421 1.405-.421 1.235 0 1.922.812.688.813.688 2.328v.453h-4.297q.031.938.547 1.516.531.578 1.344.578.562 0 .953-.234.406-.235.718-.625l.657.515q-.797 1.235-2.39 1.235m-.14-5.688q-.657 0-1.11.485-.437.468-.531 1.328h3.172v-.078q-.047-.829-.453-1.282-.391-.453-1.078-.453m6.14 5.688q-1.297 0-2.11-.844-.796-.86-.796-2.281v-.188q0-.953.36-1.687.359-.75 1-1.157.655-.421 1.405-.421 1.235 0 1.922.812.688.813.688 2.328v.453h-4.297q.031.938.547 1.516.531.578 1.344.578.562 0 .953-.234.406-.235.718-.625l.657.515q-.797 1.235-2.39 1.235m-.14-5.688q-.657 0-1.11.485-.437.468-.531 1.328h3.172v-.078q-.047-.829-.453-1.282-.391-.453-1.078-.453m6.046 4.797q.578 0 1.016-.344.438-.359.484-.89h1.032q-.032.547-.391 1.047-.344.484-.922.78-.562.298-1.219.298-1.297 0-2.062-.86-.75-.875-.75-2.375v-.187q0-.922.328-1.64.344-.72.969-1.11.64-.406 1.515-.406 1.063 0 1.766.64.719.625.766 1.656h-1.032q-.047-.625-.468-1.015t-1.032-.39q-.828 0-1.28.593-.454.594-.454 1.719v.203q0 1.094.453 1.687.453.594 1.281.594m7.375.766q-.093-.188-.156-.672-.75.797-1.797.797-.937 0-1.547-.532-.593-.53-.593-1.359 0-.984.75-1.531t2.125-.547h1.047v-.5q0-.563-.344-.89-.328-.344-1-.344-.578 0-.969.296-.39.282-.39.704h-1.094q0-.485.328-.922.343-.438.922-.688.578-.265 1.265-.265 1.11 0 1.719.546.625.547.656 1.5v2.922q0 .875.219 1.391v.094zm-1.797-.828q.516 0 .97-.266.452-.266.655-.688v-1.296h-.843q-2 0-2 1.171 0 .5.343.797.344.282.875.282m7.422.062q.578 0 1.016-.344.438-.359.484-.89h1.032q-.032.547-.391 1.047-.344.484-.922.78-.562.298-1.219.298-1.297 0-2.062-.86-.75-.875-.75-2.375v-.187q0-.922.328-1.64.344-.72.969-1.11.64-.406 1.515-.406 1.063 0 1.766.64.719.625.766 1.656h-1.032q-.047-.625-.468-1.015t-1.032-.39q-.828 0-1.28.593-.454.594-.454 1.719v.203q0 1.094.453 1.687.453.594 1.281.594m4.547-4.812q.719-.875 1.875-.875 2.016 0 2.031 2.265v4.188h-1.093v-4.203q0-.672-.313-1-.297-.329-.953-.329-.531 0-.937.282-.391.281-.61.734v4.516h-1.078v-9h1.078zm8.547 5.703q-1.297 0-2.11-.844-.796-.86-.796-2.281v-.188q0-.953.36-1.687.359-.75 1-1.157.655-.421 1.405-.421 1.235 0 1.922.812.688.813.688 2.328v.453h-4.297q.031.938.547 1.516.531.578 1.344.578.562 0 .953-.234.406-.235.718-.625l.657.515q-.797 1.235-2.39 1.235m-.14-5.688q-.657 0-1.11.485-.437.468-.531 1.328h3.172v-.078q-.047-.829-.453-1.282-.391-.453-1.078-.453"/><path fill="#ff6d01" d="M608.693 147.613a6 6 0 1 1-12 0 6 6 0 0 1 12 0"/><path fill="#1a1a1a" d="M618.052 152.113v-5.5h-1v-.844h1v-.64q0-1.032.532-1.579.547-.562 1.547-.562.375 0 .75.093l-.063.891q-.281-.062-.578-.062-.531 0-.828.312-.282.313-.282.875v.672h1.36v.844h-1.36v5.5zm7.375 0q-.093-.188-.156-.672-.75.797-1.797.797-.937 0-1.547-.532-.593-.53-.593-1.359 0-.984.75-1.531t2.125-.547h1.047v-.5q0-.563-.344-.89-.328-.344-1-.344-.578 0-.969.296-.39.282-.39.704h-1.094q0-.485.328-.922.343-.438.922-.688.578-.265 1.265-.265 1.11 0 1.719.546.625.547.656 1.5v2.922q0 .875.219 1.391v.094zm-1.797-.828q.516 0 .97-.266.452-.266.655-.688v-1.296h-.843q-2 0-2 1.171 0 .5.343.797.344.282.875.282m8.579-.86q0-.437-.344-.672-.328-.25-1.156-.422-.813-.171-1.297-.421-.485-.25-.719-.579-.219-.343-.219-.812 0-.781.656-1.313.657-.546 1.688-.546 1.078 0 1.734.562.672.547.672 1.406h-1.078q0-.437-.39-.75-.375-.328-.938-.328-.594 0-.937.266-.329.25-.329.656 0 .39.313.594.312.203 1.125.39.812.172 1.312.422t.735.61q.25.36.25.86 0 .858-.688 1.374-.672.516-1.75.516-.765 0-1.36-.266-.577-.281-.905-.766-.328-.484-.328-1.046h1.078q.03.546.437.875.406.312 1.078.312.61 0 .985-.25t.375-.672m3.78-6.187v1.531h1.173v.844h-1.172v3.922q0 .39.156.578t.531.187q.188 0 .516-.062v.875q-.422.125-.828.125-.719 0-1.094-.438-.375-.453-.375-1.265v-3.922h-1.156v-.844h1.156v-1.531zm5.063 7.11q.578 0 1.016-.345.438-.359.484-.89h1.032q-.032.547-.391 1.047-.344.484-.922.78-.562.298-1.219.298-1.297 0-2.062-.86-.75-.875-.75-2.375v-.187q0-.922.328-1.64.344-.72.969-1.11.64-.406 1.515-.406 1.063 0 1.766.64.719.625.766 1.656h-1.032q-.047-.625-.468-1.015t-1.032-.39q-.828 0-1.28.593-.454.594-.454 1.719v.203q0 1.094.453 1.687.453.594 1.281.594m7.375.765q-.093-.188-.156-.672-.75.797-1.797.797-.937 0-1.547-.532-.593-.53-.593-1.359 0-.984.75-1.531t2.125-.547h1.047v-.5q0-.563-.344-.89-.328-.344-1-.344-.578 0-.969.296-.39.282-.39.704h-1.094q0-.485.328-.922.343-.438.922-.688.578-.265 1.265-.265 1.11 0 1.719.546.625.547.656 1.5v2.922q0 .875.219 1.391v.094zm-1.797-.828q.516 0 .97-.266.452-.266.655-.688v-1.296h-.843q-2 0-2 1.171 0 .5.343.797.344.282.875.282m7.422.062q.578 0 1.016-.344.438-.359.484-.89h1.032q-.032.547-.391 1.047-.344.484-.922.78-.562.298-1.219.298-1.297 0-2.062-.86-.75-.875-.75-2.375v-.187q0-.922.328-1.64.344-.72.969-1.11.64-.406 1.515-.406 1.063 0 1.766.64.719.625.766 1.656h-1.032q-.047-.625-.468-1.015t-1.032-.39q-.828 0-1.28.593-.454.594-.454 1.719v.203q0 1.094.453 1.687.453.594 1.281.594m4.547-4.812q.719-.875 1.875-.875 2.016 0 2.031 2.265v4.188h-1.093v-4.203q0-.672-.313-1-.297-.329-.953-.329-.531 0-.937.282-.391.281-.61.734v4.516h-1.078v-9h1.078zm8.547 5.703q-1.297 0-2.11-.844-.796-.86-.796-2.281v-.188q0-.953.36-1.687.359-.75 1-1.157.655-.421 1.405-.421 1.235 0 1.922.812.688.813.688 2.328v.453h-4.297q.031.938.547 1.516.531.578 1.344.578.562 0 .953-.234.406-.235.718-.625l.657.515q-.797 1.235-2.39 1.235m-.14-5.688q-.657 0-1.11.485-.437.468-.531 1.328h3.172v-.078q-.047-.829-.453-1.282-.391-.453-1.078-.453"/><path fill="#46bdc6" d="M608.693 172.613a6 6 0 1 1-12 0 6 6 0 0 1 12 0"/><path fill="#1a1a1a" d="M617.256 173.894q0-1.484.687-2.36.688-.874 1.813-.874 1.156 0 1.812.812l.047-.703h1v6.187q0 1.235-.735 1.938-.734.719-1.953.719-.687 0-1.343-.297-.657-.297-1-.797l.562-.656q.688.86 1.703.86.781 0 1.219-.454.453-.438.453-1.25v-.547q-.656.766-1.781.766-1.11 0-1.797-.89-.687-.907-.687-2.454m1.093.125q0 1.062.438 1.687.437.61 1.234.61 1.016 0 1.5-.938v-2.89q-.5-.907-1.5-.907-.781 0-1.234.61-.438.61-.438 1.828m5.875-.14q0-.923.36-1.673.375-.75 1.03-1.14.657-.406 1.485-.406 1.297 0 2.094.89.813.89.813 2.39v.079q0 .922-.36 1.656-.36.735-1.015 1.156-.657.407-1.516.407-1.281 0-2.094-.89-.797-.907-.797-2.392zm1.094.14q0 1.047.484 1.687.5.641 1.313.641.828 0 1.312-.64.485-.657.485-1.829 0-1.03-.5-1.672-.485-.656-1.313-.656-.797 0-1.297.64-.484.626-.484 1.829m11.563 0q0 1.453-.672 2.344-.657.875-1.782.875-1.203 0-1.859-.86l-.062.735h-.985v-9h1.078v3.36q.656-.813 1.813-.813 1.156 0 1.812.875.656.859.656 2.39zm-1.079-.125q0-1.11-.437-1.703-.422-.61-1.219-.61-1.078 0-1.547.985v2.75q.5 1 1.547 1 .781 0 1.219-.61.437-.609.437-1.812m6.625 2.594q-.625.75-1.859.75-1.016 0-1.547-.594t-.531-1.75v-4.125h1.078v4.094q0 1.453 1.172 1.453 1.25 0 1.656-.938v-4.609h1.094v6.344h-1.031zm6.157-4.75q-.25-.032-.532-.032-1.078 0-1.453.907v4.5h-1.078v-6.344h1.047l.016.734q.53-.843 1.515-.843.313 0 .485.078zm4 0q-.25-.032-.532-.032-1.078 0-1.453.907v4.5h-1.078v-6.344h1.047l.016.734q.53-.843 1.515-.843.313 0 .485.078zm.64 2.14q0-.922.36-1.672.375-.75 1.03-1.14.657-.406 1.485-.406 1.297 0 2.094.89.813.89.813 2.39v.079q0 .922-.36 1.656-.36.735-1.015 1.156-.657.407-1.516.407-1.281 0-2.094-.89-.797-.907-.797-2.392zm1.094.141q0 1.047.484 1.687.5.641 1.313.641.828 0 1.312-.64.485-.657.485-1.829 0-1.03-.5-1.672-.485-.656-1.313-.656-.797 0-1.297.64-.484.626-.484 1.829m11.813 1.594 1.218-4.844h1.078l-1.843 6.344h-.875l-1.547-4.813-1.5 4.813h-.875l-1.844-6.344h1.078l1.25 4.75 1.485-4.75h.859z"/><path fill="#38761d" d="M608.693 197.613a6 6 0 1 1-12 0 6 6 0 0 1 12 0"/><path fill="#1a1a1a" d="M617.256 198.894q0-1.484.687-2.36.688-.874 1.813-.874 1.156 0 1.812.812l.047-.703h1v6.187q0 1.235-.735 1.938-.734.719-1.953.719-.687 0-1.343-.297-.657-.297-1-.797l.562-.656q.688.86 1.703.86.781 0 1.219-.454.453-.438.453-1.25v-.547q-.656.766-1.781.766-1.11 0-1.797-.89-.687-.907-.687-2.454m1.093.125q0 1.062.438 1.687.437.61 1.234.61 1.016 0 1.5-.938v-2.89q-.5-.907-1.5-.907-.781 0-1.234.61-.438.61-.438 1.828m9.235-2.281q-.25-.032-.532-.032-1.078 0-1.453.907v4.5h-1.078v-6.344h1.047l.016.734q.53-.843 1.515-.843.313 0 .485.078zm.64 2.14q0-.922.36-1.672.375-.75 1.03-1.14.657-.406 1.485-.406 1.297 0 2.094.89.813.89.813 2.39v.079q0 .922-.36 1.656-.36.735-1.015 1.156-.657.407-1.516.407-1.281 0-2.094-.89-.797-.907-.797-2.392zm1.094.141q0 1.047.484 1.687.5.641 1.313.641.828 0 1.312-.64.485-.657.485-1.829 0-1.03-.5-1.672-.485-.656-1.313-.656-.797 0-1.297.64-.484.626-.484 1.829m10.11 2.469q-.626.75-1.86.75-1.016 0-1.547-.594t-.531-1.75v-4.125h1.078v4.094q0 1.453 1.172 1.453 1.25 0 1.656-.938v-4.609h1.094v6.344h-1.031zm8.437-2.469q0 1.437-.656 2.328-.657.89-1.797.89-1.157 0-1.813-.734v3.047h-1.078v-8.781h.985l.046.703q.672-.812 1.844-.812 1.14 0 1.797.859.672.86.672 2.39zm-1.078-.125q0-1.078-.469-1.688-.453-.625-1.25-.625-.984 0-1.469.86v3.031q.485.875 1.485.875.78 0 1.234-.61.469-.624.469-1.843m5.265 2.453q.578 0 1.016-.344.438-.359.484-.89h1.032q-.032.547-.391 1.047-.344.484-.922.78-.562.298-1.219.298-1.297 0-2.062-.86-.75-.875-.75-2.375v-.187q0-.922.328-1.64.344-.72.969-1.11.64-.406 1.515-.406 1.063 0 1.766.64.719.625.766 1.656h-1.032q-.047-.625-.468-1.015t-1.032-.39q-.828 0-1.28.593-.454.594-.454 1.719v.203q0 1.094.453 1.687.453.594 1.281.594m7.375.766q-.093-.188-.156-.672-.75.797-1.797.797-.937 0-1.547-.532-.593-.53-.593-1.359 0-.984.75-1.531t2.125-.547h1.047v-.5q0-.563-.344-.89-.328-.344-1-.344-.578 0-.969.296-.39.282-.39.704h-1.094q0-.485.328-.922.343-.438.922-.688.578-.265 1.265-.265 1.11 0 1.719.546.625.547.656 1.5v2.922q0 .875.219 1.391v.094zm-1.797-.828q.516 0 .97-.266.452-.266.655-.688v-1.296h-.843q-2 0-2 1.171 0 .5.343.797.344.282.875.282m7.422.062q.578 0 1.016-.344.438-.359.484-.89h1.032q-.032.547-.391 1.047-.344.484-.922.78-.562.298-1.219.298-1.297 0-2.062-.86-.75-.875-.75-2.375v-.187q0-.922.328-1.64.344-.72.969-1.11.64-.406 1.515-.406 1.063 0 1.766.64.719.625.766 1.656h-1.032q-.047-.625-.468-1.015t-1.032-.39q-.828 0-1.28.593-.454.594-.454 1.719v.203q0 1.094.453 1.687.453.594 1.281.594m4.547-4.812q.719-.875 1.875-.875 2.016 0 2.031 2.265v4.188h-1.093v-4.203q0-.672-.313-1-.297-.329-.953-.329-.531 0-.937.282-.391.281-.61.734v4.516h-1.078v-9h1.078zm8.547 5.703q-1.297 0-2.11-.844-.796-.86-.796-2.281v-.188q0-.953.36-1.687.359-.75 1-1.157.655-.421 1.405-.421 1.235 0 1.922.812.688.813.688 2.328v.453h-4.297q.031.938.547 1.516.531.578 1.344.578.562 0 .953-.234.406-.235.718-.625l.657.515q-.797 1.235-2.39 1.235m-.14-5.688q-.657 0-1.11.485-.437.468-.531 1.328h3.172v-.078q-.047-.829-.453-1.282-.391-.453-1.078-.453"/><path fill="#757575" d="M32.685 27.96h-4.563v12.672h-1.86V27.961H21.7v-1.547h10.985zm3.703 3.391q1.203-1.484 3.125-1.484 3.36 0 3.375 3.781v6.984H41.09v-7q-.016-1.14-.531-1.687-.5-.547-1.594-.547-.875 0-1.547.469-.656.469-1.031 1.234v7.531H34.59v-15h1.797zm14.297.328q-.407-.062-.875-.062-1.782 0-2.422 1.515v7.5H45.59V30.07h1.75l.031 1.219q.89-1.422 2.516-1.422.531 0 .797.14zm1.422 3.578q0-1.562.609-2.796.61-1.25 1.687-1.922 1.094-.672 2.5-.672 2.157 0 3.485 1.5 1.344 1.484 1.344 3.969v.125q0 1.546-.594 2.78-.594 1.22-1.703 1.907-1.094.688-2.516.688-2.14 0-3.484-1.5-1.328-1.5-1.328-3.954zm1.812.204q0 1.765.813 2.828.828 1.062 2.187 1.062 1.375 0 2.188-1.078.812-1.078.812-3.016 0-1.75-.828-2.828t-2.188-1.078q-1.343 0-2.171 1.063-.813 1.062-.813 3.047m16.188 4.125q-1.047 1.25-3.094 1.25-1.688 0-2.578-.985-.875-.984-.89-2.906V30.07h1.812v6.828q0 2.39 1.953 2.39 2.062 0 2.75-1.53V30.07h1.812v10.562h-1.719zm4.046-4.329q0-2.468 1.141-3.921 1.14-1.47 3.031-1.47 1.938 0 3.016 1.376l.094-1.172h1.64v10.312q0 2.047-1.218 3.22-1.204 1.187-3.266 1.187-1.14 0-2.234-.485-1.094-.484-1.672-1.343l.937-1.079q1.172 1.438 2.844 1.438 1.328 0 2.062-.75.735-.734.735-2.078v-.922q-1.078 1.266-2.953 1.266-1.86 0-3.016-1.5-1.14-1.5-1.14-4.079m1.813.204q0 1.796.734 2.812.735 1.016 2.047 1.016 1.719 0 2.516-1.547v-4.828q-.828-1.516-2.485-1.516-1.328 0-2.078 1.031-.734 1.032-.734 3.032m11.422-4.11q1.203-1.484 3.125-1.484 3.36 0 3.375 3.781v6.984H92.09v-7q-.016-1.14-.531-1.687-.5-.547-1.594-.547-.875 0-1.547.469-.656.469-1.031 1.234v7.531H85.59v-15h1.797zm18.125 4.11q0 2.421-1.11 3.906-1.093 1.469-2.984 1.469-1.922 0-3.031-1.235v5.094H96.59V30.07h1.64l.094 1.172q1.094-1.375 3.063-1.375 1.906 0 3.015 1.437t1.11 4zm-1.813-.204q0-1.78-.765-2.812-.75-1.047-2.078-1.047-1.641 0-2.47 1.453v5.063q.813 1.437 2.485 1.437 1.297 0 2.063-1.031.765-1.031.765-3.063m10.407 4.329q-1.047 1.25-3.094 1.25-1.688 0-2.578-.985-.875-.984-.89-2.906V30.07h1.812v6.828q0 2.39 1.953 2.39 2.062 0 2.75-1.53V30.07h1.812v10.562h-1.719zm6.921-12.079v2.563h1.985v1.39h-1.985v6.547q0 .641.266.97.266.312.906.312.313 0 .86-.125v1.468q-.719.204-1.39.204-1.204 0-1.829-.735-.61-.734-.61-2.094v-6.546h-1.921V30.07h1.922v-2.563zm13.313 7.829h-4.766V33.85h4.766zm9.953-8.922 4.64 11.593 4.657-11.593h2.422v14.218h-1.875v-5.53l.187-5.985-4.671 11.515h-1.438l-4.656-11.484.187 5.953v5.531h-1.875V26.414zm16.25 14.218h-1.797V30.07h1.797zm-1.953-13.375q0-.437.266-.734.28-.312.797-.312.53 0 .796.312.282.297.282.734 0 .438-.282.735-.265.297-.796.297-.516 0-.797-.297-.266-.297-.266-.735m8.531 6.672 2.344-3.859h2.11l-3.454 5.219 3.563 5.343h-2.078l-2.453-3.953-2.438 3.953h-2.094l3.563-5.343-3.453-5.219h2.078zm10.844 6.907q-2.14 0-3.5-1.407-1.344-1.422-1.344-3.78v-.345q0-1.562.594-2.797.61-1.234 1.688-1.937t2.343-.703q2.063 0 3.203 1.36 1.141 1.359 1.141 3.89v.75h-7.156q.031 1.562.906 2.531.875.953 2.219.953.969 0 1.625-.39.672-.391 1.172-1.032l1.093.86q-1.328 2.047-3.984 2.047m-.219-9.485q-1.094 0-1.844.797-.734.797-.906 2.234h5.281v-.14q-.078-1.375-.75-2.125-.656-.766-1.78-.766m6.39 3.906q0-2.421 1.157-3.906 1.156-1.484 3.016-1.484t2.937 1.265v-5.5h1.813v15h-1.656l-.094-1.14q-1.078 1.344-3.016 1.344-1.828 0-3-1.5-1.156-1.516-1.156-3.938zm1.813.204q0 1.796.735 2.812.75 1.016 2.062 1.016 1.719 0 2.5-1.532v-4.859q-.797-1.5-2.484-1.5-1.328 0-2.078 1.031-.735 1.032-.735 3.032"/></svg>