<svg xmlns="http://www.w3.org/2000/svg" width="708" height="469" fill="none" stroke-linecap="square" stroke-miterlimit="10" viewBox="0 0 708 469"><path fill="#fff" d="M0 0h708v469H0z"/><path stroke="#333" stroke-linecap="butt" d="M83.5 391.5h492"/><path stroke="#ccc" stroke-linecap="butt" d="M83.5 345.5h492m-492-46h492m-492-46h492m-492-45h492m-492-46h492m-492-46h492m-492-46h492"/><path stroke="#e6e6e6" stroke-linecap="butt" d="M83.5 357.5h492m-492 11h492m-492 12h492m-492-69h492m-492 11h492m-492 12h492m-492-69h492m-492 11h492m-492 12h492m-492-69h492m-492 12h492m-492 11h492m-492-69h492m-492 12h492m-492 11h492m-492-69h492m-492 12h492m-492 11h492m-492-68h492m-492 11h492m-492 11h492"/><clipPath id="a"><path d="M83.45 70.583h491.602V391.55H83.45z"/></clipPath><path stroke="#ea4335" stroke-linecap="butt" stroke-width="2" d="M98.813 252.181s20.483-93.77 30.725-111.19c10.241-17.422 20.483 8.324 30.725 6.663s20.483-12.325 30.725-16.629 20.483-6.3 30.725-9.195 20.484-5.953 30.725-8.173c10.242-2.22 20.484-3.996 30.725-5.146 10.242-1.151 20.484-1.758 30.726-1.758s20.483 1.758 30.725 1.758c10.241 0 20.483-.868 30.725-1.758s20.483-3.286 30.725-3.583c10.242-.296 20.483 1.502 30.725 1.803s20.484-1.727 30.725 0c10.242 1.726 20.484 11.27 30.725 10.358 10.242-.913 20.484-12.567 30.726-15.834s30.725-3.769 30.725-3.769" clip-path="url(#a)"/><path stroke="#fbbc04" stroke-linecap="butt" stroke-width="2" d="M98.813 305.684s20.483-36.78 30.725-51.417c10.241-14.636 20.483-30.223 30.725-36.4s20.483-.77 30.725-.66 20.483.25 30.725 1.315 20.484 5.18 30.725 5.07c10.242-.109 20.484-4.989 30.725-5.725 10.242-.737 20.484.351 30.726 1.306 10.241.954 20.483 3.683 30.725 4.42a214 214 0 0 0 30.725 0c10.242-.737 20.483-3.684 30.725-4.42a214 214 0 0 1 30.725 0c10.242.736 20.484 4.528 30.725 4.42 10.242-.109 20.484-4.334 30.725-5.07 10.242-.738 20.484-.399 30.726.65s30.725 5.641 30.725 5.641" clip-path="url(#a)"/><path stroke="#90f" stroke-linecap="butt" stroke-width="2" d="M98.813 257.479s20.483-20.082 30.725-26.252c10.241-6.17 20.483-7.637 30.725-10.768s20.483-6.566 30.725-8.02 20.483-1.274 30.725-.702 20.484 4.856 30.725 4.133c10.242-.722 20.484-7.777 30.725-8.466 10.242-.69 20.484 3.967 30.726 4.333 10.241.365 20.483-1.784 30.725-2.14 10.241-.358 20.483.242 30.725 0 10.242-.244 20.483-1.091 30.725-1.457 10.242-.365 20.483-.979 30.725-.736s20.484 2.07 30.725 2.192c10.242.123 20.484-.966 30.725-1.456 10.242-.489 20.484-1.721 30.726-1.479 10.241.243 30.725 2.935 30.725 2.935" clip-path="url(#a)"/><path stroke="#ff6d01" stroke-linecap="butt" stroke-width="2" d="M98.813 297.782s20.483-55.701 30.725-74.19c10.241-18.488 20.483-29.838 30.725-36.74s20.483-4.674 30.725-4.674 20.483 3.895 30.725 4.674 20.484.307 30.725 0c10.242-.307 20.484-1.065 30.725-1.844 10.242-.78 20.484-3.882 30.726-2.83s20.483 8.062 30.725 9.143c10.241 1.081 20.483-1.292 30.725-2.658s20.483-4.292 30.725-5.533c10.242-1.24 20.483-2.684 30.725-1.912s20.484 6.384 30.725 6.544c10.242.16 20.484-5.883 30.725-5.584 10.242.3 20.484 7.38 30.726 7.38s30.725-7.38 30.725-7.38" clip-path="url(#a)"/><path stroke="#46bdc6" stroke-linecap="butt" stroke-width="2" d="M98.813 319.568s20.483-4.13 30.725-7.761c10.241-3.631 20.483-12.447 30.725-14.025 10.242-1.577 20.483 5.332 30.725 4.561s20.483-9.332 30.725-9.189 20.484 9.374 30.725 10.048c10.242.675 20.484-5.62 30.725-5.998 10.242-.379 20.484 2.13 30.726 3.729 10.241 1.598 20.483 4.99 30.725 5.862 10.241.872 20.483-.938 30.725-.631s20.483 3.165 30.725 2.47 20.483-6.69 30.725-6.64 20.484 6.487 30.725 6.94c10.242.451 20.484-3.973 30.725-4.226 10.242-.252 20.484 1.907 30.726 2.71s30.725 2.106 30.725 2.106" clip-path="url(#a)"/><path stroke="#38761d" stroke-linecap="butt" stroke-width="2" d="M98.813 336.899s20.483-20.223 30.725-26.937c10.241-6.713 20.483-11.628 30.725-13.344 10.242-1.717 20.483 1.861 30.725 3.043s20.483 3.897 30.725 4.05c10.242.151 20.484-2.277 30.725-3.138 10.242-.861 20.484-1.272 30.725-2.03 10.242-.758 20.484-2.456 30.726-2.519s20.483 1.69 30.725 2.14c10.241.452 20.483.349 30.725.567 10.242.22 20.483.684 30.725.746s20.483-.153 30.725-.371c10.242-.22 20.484-.56 30.725-.942 10.242-.382 20.484-.69 30.725-1.35 10.242-.661 20.484-3.272 30.726-2.615s30.725 6.554 30.725 6.554" clip-path="url(#a)"/><path fill="#ea4335" d="M100.813 252.181a2 2 0 1 1-4 0 2 2 0 0 1 4 0m30.725-111.191a2 2 0 1 1-4 0 2 2 0 0 1 4 0m30.725 6.664a2 2 0 1 1-4 0 2 2 0 0 1 4 0m30.725-16.629a2 2 0 1 1-4 0 2 2 0 0 1 4 0m30.725-9.195a2 2 0 1 1-4 0 2 2 0 0 1 4 0m30.725-8.173a2 2 0 1 1-4 0 2 2 0 0 1 4 0m30.725-5.147a2 2 0 1 1-4 0 2 2 0 0 1 4 0m30.726-1.757a2 2 0 1 1-4 0 2 2 0 0 1 4 0m30.725 1.757a2 2 0 1 1-4 0 2 2 0 0 1 4 0m30.725-1.757a2 2 0 1 1-4 0 2 2 0 0 1 4 0m30.725-3.583a2 2 0 1 1-4 0 2 2 0 0 1 4 0m30.726 1.803a2 2 0 1 1-4 0 2 2 0 0 1 4 0m30.724 0a2 2 0 1 1-4 0 2 2 0 0 1 4 0m30.726 10.357a2 2 0 1 1-4 0 2 2 0 0 1 4 0m30.725-15.833a2 2 0 1 1-4 0 2 2 0 0 1 4 0m30.725-3.769a2 2 0 1 1-4 0 2 2 0 0 1 4 0" clip-path="url(#a)"/><path fill="#fbbc04" d="M100.813 305.684a2 2 0 1 1-4 0 2 2 0 0 1 4 0m30.725-51.417a2 2 0 1 1-4 0 2 2 0 0 1 4 0m30.725-36.4a2 2 0 1 1-4 0 2 2 0 0 1 4 0m30.725-.661a2 2 0 1 1-4 0 2 2 0 0 1 4 0m30.725 1.316a2 2 0 1 1-4 0 2 2 0 0 1 4 0m30.725 5.071a2 2 0 1 1-4 0 2 2 0 0 1 4 0m30.725-5.726a2 2 0 1 1-4 0 2 2 0 0 1 4 0m30.726 1.306a2 2 0 1 1-4 0 2 2 0 0 1 4 0m30.725 4.42a2 2 0 1 1-4 0 2 2 0 0 1 4 0m30.725 0a2 2 0 1 1-4 0 2 2 0 0 1 4 0m30.725-4.42a2 2 0 1 1-4 0 2 2 0 0 1 4 0m30.726 0a2 2 0 1 1-4 0 2 2 0 0 1 4 0m30.724 4.42a2 2 0 1 1-4 0 2 2 0 0 1 4 0m30.726-5.071a2 2 0 1 1-4 0 2 2 0 0 1 4 0m30.725.651a2 2 0 1 1-4 0 2 2 0 0 1 4 0m30.725 5.641a2 2 0 1 1-4 0 2 2 0 0 1 4 0" clip-path="url(#a)"/><path fill="#90f" d="M100.813 257.479a2 2 0 1 1-4 0 2 2 0 0 1 4 0m30.725-26.252a2 2 0 1 1-4 0 2 2 0 0 1 4 0m30.725-10.768a2 2 0 1 1-4 0 2 2 0 0 1 4 0m30.725-8.019a2 2 0 1 1-4 0 2 2 0 0 1 4 0m30.725-.703a2 2 0 1 1-4 0 2 2 0 0 1 4 0m30.725 4.133a2 2 0 1 1-4 0 2 2 0 0 1 4 0m30.725-8.466a2 2 0 1 1-4 0 2 2 0 0 1 4 0m30.726 4.333a2 2 0 1 1-4 0 2 2 0 0 1 4 0m30.725-2.141a2 2 0 1 1-4 0 2 2 0 0 1 4 0m30.725 0a2 2 0 1 1-4 0 2 2 0 0 1 4 0m30.725-1.456a2 2 0 1 1-4 0 2 2 0 0 1 4 0m30.726-.736a2 2 0 1 1-4 0 2 2 0 0 1 4 0m30.724 2.192a2 2 0 1 1-4 0 2 2 0 0 1 4 0m30.726-1.456a2 2 0 1 1-4 0 2 2 0 0 1 4 0m30.725-1.479a2 2 0 1 1-4 0 2 2 0 0 1 4 0m30.725 2.935a2 2 0 1 1-4 0 2 2 0 0 1 4 0" clip-path="url(#a)"/><path fill="#ff6d01" d="M100.813 297.782a2 2 0 1 1-4 0 2 2 0 0 1 4 0m30.725-74.189a2 2 0 1 1-4 0 2 2 0 0 1 4 0m30.725-36.741a2 2 0 1 1-4 0 2 2 0 0 1 4 0m30.725-4.674a2 2 0 1 1-4 0 2 2 0 0 1 4 0m30.725 4.674a2 2 0 1 1-4 0 2 2 0 0 1 4 0m30.725 0a2 2 0 1 1-4 0 2 2 0 0 1 4 0m30.725-1.844a2 2 0 1 1-4 0 2 2 0 0 1 4 0m30.726-2.83a2 2 0 1 1-4 0 2 2 0 0 1 4 0m30.725 9.143a2 2 0 1 1-4 0 2 2 0 0 1 4 0m30.725-2.658a2 2 0 1 1-4 0 2 2 0 0 1 4 0m30.725-5.533a2 2 0 1 1-4 0 2 2 0 0 1 4 0m30.726-1.912a2 2 0 1 1-4 0 2 2 0 0 1 4 0m30.724 6.544a2 2 0 1 1-4 0 2 2 0 0 1 4 0m30.726-5.584a2 2 0 1 1-4 0 2 2 0 0 1 4 0m30.725 7.379a2 2 0 1 1-4 0 2 2 0 0 1 4 0m30.725-7.379a2 2 0 1 1-4 0 2 2 0 0 1 4 0" clip-path="url(#a)"/><path fill="#46bdc6" d="M100.813 319.568a2 2 0 1 1-4 0 2 2 0 0 1 4 0m30.725-7.761a2 2 0 1 1-4 0 2 2 0 0 1 4 0m30.725-14.025a2 2 0 1 1-4 0 2 2 0 0 1 4 0m30.725 4.561a2 2 0 1 1-4 0 2 2 0 0 1 4 0m30.725-9.189a2 2 0 1 1-4 0 2 2 0 0 1 4 0m30.725 10.048a2 2 0 1 1-4 0 2 2 0 0 1 4 0m30.725-5.998a2 2 0 1 1-4 0 2 2 0 0 1 4 0m30.726 3.729a2 2 0 1 1-4 0 2 2 0 0 1 4 0m30.725 5.862a2 2 0 1 1-4 0 2 2 0 0 1 4 0m30.725-.631a2 2 0 1 1-4 0 2 2 0 0 1 4 0m30.725 2.47a2 2 0 1 1-4 0 2 2 0 0 1 4 0m30.726-6.639a2 2 0 1 1-4 0 2 2 0 0 1 4 0m30.724 6.938a2 2 0 1 1-4 0 2 2 0 0 1 4 0m30.726-4.225a2 2 0 1 1-4 0 2 2 0 0 1 4 0m30.725 2.709a2 2 0 1 1-4 0 2 2 0 0 1 4 0m30.725 2.107a2 2 0 1 1-4 0 2 2 0 0 1 4 0" clip-path="url(#a)"/><path fill="#38761d" d="M100.813 336.899a2 2 0 1 1-4 0 2 2 0 0 1 4 0m30.725-26.937a2 2 0 1 1-4 0 2 2 0 0 1 4 0m30.725-13.344a2 2 0 1 1-4 0 2 2 0 0 1 4 0m30.725 3.043a2 2 0 1 1-4 0 2 2 0 0 1 4 0m30.725 4.049a2 2 0 1 1-4 0 2 2 0 0 1 4 0m30.725-3.137a2 2 0 1 1-4 0 2 2 0 0 1 4 0m30.725-2.03a2 2 0 1 1-4 0 2 2 0 0 1 4 0m30.726-2.519a2 2 0 1 1-4 0 2 2 0 0 1 4 0m30.725 2.14a2 2 0 1 1-4 0 2 2 0 0 1 4 0m30.725.567a2 2 0 1 1-4 0 2 2 0 0 1 4 0m30.725.746a2 2 0 1 1-4 0 2 2 0 0 1 4 0m30.726-.371a2 2 0 1 1-4 0 2 2 0 0 1 4 0m30.724-.942a2 2 0 1 1-4 0 2 2 0 0 1 4 0m30.726-1.35a2 2 0 1 1-4 0 2 2 0 0 1 4 0m30.725-2.615a2 2 0 1 1-4 0 2 2 0 0 1 4 0m30.725 6.554a2 2 0 1 1-4 0 2 2 0 0 1 4 0" clip-path="url(#a)"/><path fill="#000" d="M300.814 439.331q0-1.484.687-2.36.688-.874 1.813-.874 1.156 0 1.812.812l.047-.703h1v6.188q0 1.234-.734 1.937-.735.719-1.954.719-.687 0-1.343-.297-.657-.297-1-.797l.562-.656q.688.86 1.703.86.782 0 1.22-.454.452-.437.452-1.25v-.547q-.656.766-1.781.766-1.11 0-1.797-.89-.687-.907-.687-2.454m1.093.125q0 1.063.438 1.688.437.61 1.234.61 1.016 0 1.5-.938v-2.891q-.5-.906-1.5-.906-.781 0-1.234.61-.438.608-.438 1.827m5.875-.14q0-.922.36-1.672.375-.75 1.031-1.14.656-.407 1.484-.407 1.297 0 2.094.89.813.891.813 2.391v.078q0 .922-.36 1.656-.36.735-1.015 1.157-.657.406-1.516.406-1.281 0-2.094-.89-.797-.907-.797-2.391zm1.094.14q0 1.047.484 1.688.5.64 1.313.64.828 0 1.312-.64.485-.656.485-1.828 0-1.032-.5-1.672-.485-.656-1.313-.656-.797 0-1.297.64-.484.625-.484 1.828m9.266-2.281q-.25-.031-.532-.031-1.078 0-1.453.906v4.5h-1.078v-6.344h1.047l.016.735q.531-.844 1.515-.844.313 0 .485.078zm.64 2.14q0-.921.36-1.671.375-.75 1.031-1.14.656-.407 1.484-.407 1.297 0 2.094.89.813.891.813 2.391v.078q0 .922-.36 1.656-.36.735-1.015 1.157-.657.406-1.516.406-1.281 0-2.094-.89-.797-.907-.797-2.391zm1.094.141q0 1.047.484 1.688.5.64 1.313.64.828 0 1.312-.64.485-.656.485-1.828 0-1.032-.5-1.672-.485-.656-1.313-.656-.797 0-1.297.64-.484.625-.484 1.828m10.11 2.469q-.626.75-1.86.75-1.016 0-1.547-.594t-.531-1.75v-4.125h1.078v4.094q0 1.453 1.172 1.453 1.25 0 1.656-.937v-4.61h1.094v6.344h-1.031zm4.562-7.25v1.531h1.172v.844h-1.172v3.922q0 .39.156.578t.531.188q.188 0 .516-.063v.875q-.422.125-.828.125-.719 0-1.094-.437-.375-.454-.375-1.266v-3.922h-1.156v-.844h1.156v-1.531zm3.703 7.875h-1.078v-6.344h1.078zm-1.172-8.016q0-.265.156-.453.172-.187.485-.187.312 0 .469.187.171.188.171.453 0 .25-.171.438-.157.172-.47.172t-.484-.172q-.156-.188-.156-.438m4.016 1.672.031.797q.734-.906 1.906-.906 2.016 0 2.032 2.266v4.187h-1.094v-4.203q0-.672-.313-1-.297-.328-.953-.328-.531 0-.937.281-.39.281-.61.734v4.516h-1.078v-6.344zm8.61 6.469q-1.298 0-2.11-.844-.797-.86-.797-2.281v-.187q0-.954.36-1.688.359-.75 1-1.156.656-.422 1.406-.422 1.234 0 1.921.812t.688 2.329v.453h-4.297q.031.937.547 1.515.531.578 1.344.578.562 0 .953-.234.406-.234.719-.625l.656.516q-.797 1.234-2.39 1.234m-.141-5.687q-.657 0-1.11.484-.437.469-.531 1.328h3.172v-.078q-.047-.828-.453-1.281-.39-.453-1.078-.453m7.203 3.875q0-.438-.344-.672-.328-.25-1.156-.422-.813-.172-1.297-.422-.485-.25-.719-.578-.219-.344-.219-.813 0-.781.657-1.312.656-.547 1.687-.547 1.078 0 1.734.562.672.547.672 1.407h-1.078q0-.438-.39-.75-.375-.328-.938-.328-.594 0-.937.265-.329.25-.329.656 0 .391.313.594.312.203 1.125.39.812.173 1.312.423t.735.609q.25.36.25.86 0 .859-.688 1.374-.672.516-1.75.516-.765 0-1.359-.266-.578-.28-.906-.765t-.328-1.047h1.078q.031.547.437.875.406.312 1.078.312.61 0 .985-.25t.375-.671M29.106 277.473l.703-.031q-.812-.688-.812-1.875 0-1.328 1.015-1.813-.453-.312-.734-.812-.281-.516-.281-1.203 0-2.094 2.203-2.125h4.25v1.078h-4.188q-.671 0-1 .312-.343.313-.343 1.047 0 .61.36 1.016.358.39.968.453h4.203v1.078h-4.156q-1.375 0-1.375 1.36 0 1.062.906 1.452h4.625v1.094h-6.344zm6.344-11.156v1.078h-6.344v-1.078zm-8.016 1.172q-.265 0-.453-.157-.187-.172-.187-.484 0-.313.187-.469.188-.172.453-.172.25 0 .438.172.172.156.172.469t-.172.484q-.188.157-.438.157m8.016-4.172v1.078h-9v-1.078zm0-3v1.078h-9v-1.078zm0-3v1.078h-6.344v-1.078zm-8.016 1.172q-.265 0-.453-.157-.187-.172-.187-.484 0-.313.187-.469.188-.172.453-.172.25 0 .438.172.172.156.172.469t-.172.484q-.188.157-.438.157m4.782-2.704q-.922 0-1.672-.359-.75-.375-1.14-1.031-.407-.656-.407-1.485 0-1.296.89-2.093.891-.813 2.391-.813h.078q.922 0 1.656.36.735.359 1.157 1.015.406.656.406 1.516 0 1.281-.89 2.094-.907.796-2.391.796zm.14-1.093q1.047 0 1.688-.485.64-.5.64-1.312 0-.828-.64-1.313-.657-.484-1.828-.484-1.032 0-1.672.5-.657.484-.657 1.312 0 .797.641 1.297.625.485 1.828.485m-3.25-7.22.797-.03q-.906-.735-.906-1.907 0-2.015 2.265-2.03h4.188v1.093h-4.203q-.672 0-1 .312-.328.297-.328.954 0 .53.281.937.281.39.734.61h4.516v1.078h-6.344zm3.11-8.687q-.922 0-1.672-.359-.75-.375-1.14-1.031-.407-.656-.407-1.485 0-1.296.89-2.093.891-.813 2.391-.813h.078q.922 0 1.656.36.735.359 1.157 1.015.406.656.406 1.516 0 1.281-.89 2.094-.907.796-2.391.796zm.14-1.093q1.047 0 1.688-.485.64-.5.64-1.312 0-.828-.64-1.313-.657-.484-1.828-.484-1.032 0-1.672.5-.657.484-.657 1.312 0 .797.641 1.297.625.485 1.828.485m0-11.547q1.438 0 2.328.656.891.656.891 1.797 0 1.156-.734 1.812h3.046v1.079h-8.78v-.985l.702-.047q-.812-.672-.812-1.843 0-1.141.86-1.797.859-.672 2.39-.672zm-.125 1.078q-1.078 0-1.687.469-.625.453-.625 1.25 0 .984.86 1.468h3.03q.875-.484.875-1.484 0-.781-.609-1.234-.625-.47-1.844-.47m1.531-6.422q-.437 0-.671.344-.25.328-.422 1.156-.172.813-.422 1.297t-.578.719q-.344.218-.813.218-.781 0-1.312-.656-.547-.656-.547-1.687 0-1.078.562-1.735.547-.672 1.407-.672v1.079q-.438 0-.75.39-.329.375-.329.938 0 .593.266.937.25.328.656.328.391 0 .594-.312.203-.313.39-1.125.173-.813.423-1.313t.609-.734q.36-.25.86-.25.859 0 1.374.687.516.672.516 1.75 0 .766-.266 1.36-.28.578-.765.906t-1.047.328v-1.078q.547-.031.875-.437.312-.407.312-1.079 0-.609-.25-.984t-.672-.375m2.422-2.516v.922l-9.265-3.562v-.922zm-2.422-8.484q-.437 0-.671.344-.25.328-.422 1.156-.172.813-.422 1.297t-.578.719q-.344.218-.813.218-.781 0-1.312-.656-.547-.656-.547-1.687 0-1.078.562-1.735.547-.672 1.407-.672v1.079q-.438 0-.75.39-.329.375-.329.938 0 .593.266.937.25.328.656.328.391 0 .594-.312.203-.313.39-1.125.173-.813.423-1.313t.609-.734q.36-.25.86-.25.859 0 1.374.687.516.672.516 1.75 0 .766-.266 1.36-.28.578-.765.906t-1.047.328v-1.078q.547-.031.875-.437.312-.407.312-1.079 0-.609-.25-.984t-.672-.375m1.813-4.937q0 1.296-.844 2.109-.86.797-2.281.797h-.188q-.953 0-1.687-.36-.75-.359-1.156-1-.422-.656-.422-1.406 0-1.234.812-1.922t2.328-.687h.454v4.297q.937-.032 1.515-.547.578-.531.578-1.344 0-.562-.234-.953-.234-.406-.625-.719l.516-.656q1.234.797 1.234 2.39m-5.688.14q0 .656.485 1.11.469.437 1.328.53v-3.171h-.078q-.828.047-1.281.453-.454.39-.454 1.078m4.797-6.047q0-.578-.343-1.015-.36-.438-.891-.485v-1.031q.547.031 1.047.39.484.344.781.923.297.562.297 1.218 0 1.297-.86 2.063-.874.75-2.374.75h-.188q-.922 0-1.64-.328-.72-.344-1.11-.97-.406-.64-.406-1.515 0-1.062.64-1.765.625-.72 1.657-.766v1.031q-.625.047-1.016.469-.39.422-.39 1.031 0 .828.593 1.282.594.453 1.719.453h.203q1.094 0 1.688-.453.593-.454.593-1.282M76.513 392.41q0 1.906-.657 2.843-.64.922-2.031.922-1.36 0-2.016-.906t-.687-2.719v-1.437q0-1.891.64-2.797.657-.922 2.047-.922 1.375 0 2.032.89.656.875.672 2.72zm-1.094-1.485q0-1.375-.39-2-.376-.64-1.22-.64-.828 0-1.218.64-.375.625-.375 1.922v1.734q0 1.375.39 2.047.407.656 1.219.656.797 0 1.188-.625t.406-1.953zm-7.703-40.727h-1.078v-7.22l-2.188.798v-.985l3.11-1.171h.156zm8.797-3.641q0 1.906-.657 2.844-.64.922-2.031.922-1.36 0-2.016-.907-.656-.906-.687-2.718v-1.438q0-1.89.64-2.797.657-.922 2.047-.922 1.375 0 2.032.891.656.875.672 2.719zm-1.094-1.484q0-1.375-.39-2-.376-.641-1.22-.641-.828 0-1.218.64-.375.626-.375 1.923v1.734q0 1.375.39 2.047.407.656 1.219.656.797 0 1.188-.625t.406-1.953zm-5.672-40.728h-5.594v-.781l2.953-3.281q.657-.75.907-1.203.25-.47.25-.97 0-.671-.407-1.093-.39-.437-1.078-.437-.797 0-1.25.468-.453.454-.453 1.282h-1.078q0-1.188.75-1.907.766-.734 2.031-.734 1.203 0 1.89.625.688.625.688 1.672 0 1.25-1.61 3l-2.28 2.469h4.28zm6.766-3.64q0 1.906-.657 2.843-.64.922-2.031.922-1.36 0-2.016-.906t-.687-2.719v-1.437q0-1.89.64-2.797.657-.922 2.047-.922 1.375 0 2.032.89.656.876.672 2.72zm-1.094-1.485q0-1.375-.39-2-.376-.64-1.22-.64-.828 0-1.218.64-.375.625-.375 1.922v1.735q0 1.375.39 2.046.407.657 1.219.657.797 0 1.188-.625t.406-1.953zm-9.688-45.524h.813q.781-.016 1.219-.406.437-.39.437-1.063 0-1.5-1.5-1.5-.703 0-1.125.406-.406.407-.406 1.063h-1.094q0-1.016.734-1.688.75-.671 1.891-.671 1.203 0 1.89.64.688.64.688 1.781 0 .563-.36 1.079-.359.515-.984.78.704.22 1.079.735.39.516.39 1.266 0 1.14-.75 1.828-.75.672-1.953.672-1.187 0-1.953-.656-.75-.657-.75-1.72h1.094q0 .673.437 1.079.438.406 1.188.406.78 0 1.187-.406.422-.422.422-1.188 0-.734-.453-1.125-.453-.406-1.328-.421h-.813zm10.782 1.156q0 1.906-.657 2.844-.64.922-2.031.922-1.36 0-2.016-.906-.656-.907-.687-2.72v-1.437q0-1.89.64-2.797.657-.921 2.047-.921 1.375 0 2.032.89.656.875.672 2.719zm-1.094-1.484q0-1.375-.39-2-.376-.64-1.22-.64-.828 0-1.218.64-.375.625-.375 1.922v1.734q0 1.375.39 2.047.407.656 1.219.656.797 0 1.188-.625t.406-1.953zm-6.688-43.587h1.188v.875H68.73v1.984h-1.078v-1.984h-3.89v-.64l3.812-5.907h1.156zm-3.734 0h2.656v-4.187l-.14.234zM76.513 209q0 1.906-.657 2.844-.64.921-2.031.921-1.36 0-2.016-.906t-.687-2.719v-1.437q0-1.89.64-2.797.657-.922 2.047-.922 1.375 0 2.032.89.656.876.672 2.72zm-1.094-1.485q0-1.375-.39-2-.376-.64-1.22-.64-.828 0-1.218.64-.375.625-.375 1.922v1.735q0 1.375.39 2.047.407.656 1.219.656.797 0 1.188-.625t.406-1.953zm-10.766-45.008.438-4.25h4.375v1h-3.453l-.266 2.328q.64-.375 1.437-.375 1.157 0 1.844.781.688.766.688 2.078 0 1.313-.72 2.078-.702.766-1.983.766-1.126 0-1.844-.625-.719-.64-.813-1.75h1.016q.11.734.531 1.11.422.374 1.11.374.75 0 1.187-.515.438-.516.438-1.422 0-.86-.47-1.375-.468-.516-1.25-.516-.702 0-1.109.297l-.28.235zm11.86.64q0 1.907-.657 2.844-.64.922-2.031.922-1.36 0-2.016-.906t-.687-2.719v-1.437q0-1.891.64-2.797.657-.922 2.047-.922 1.375 0 2.032.89.656.875.672 2.72zm-1.094-1.484q0-1.375-.39-2-.376-.64-1.22-.64-.828 0-1.218.64-.375.625-.375 1.922v1.734q0 1.375.39 2.047.407.656 1.219.656.797 0 1.188-.625t.406-1.953zm-7-49.259v.907h-.203q-1.266.031-2.016.765-.75.72-.875 2.032.688-.766 1.844-.766 1.11 0 1.781.781.672.781.672 2.031 0 1.313-.719 2.11t-1.937.797q-1.22 0-1.985-.938-.75-.953-.75-2.437v-.407q0-2.359 1-3.609t2.985-1.266zm-1.422 3.844q-.563 0-1.031.328-.47.328-.657.844v.39q0 1.063.47 1.704.484.64 1.187.64.734 0 1.156-.53.422-.548.422-1.423t-.422-1.406q-.422-.547-1.125-.547m9.516 1.047q0 1.906-.657 2.844-.64.922-2.031.922-1.36 0-2.016-.907-.656-.906-.687-2.718v-1.438q0-1.89.64-2.797.657-.922 2.047-.922 1.375 0 2.032.891.656.875.672 2.719zm-1.094-1.484q0-1.375-.39-2-.376-.64-1.22-.64-.828 0-1.218.64-.375.625-.375 1.922v1.734q0 1.375.39 2.047.407.656 1.219.656.797 0 1.188-.625t.406-1.953zm-5.75-48.65-3.531 7.922h-1.141l3.516-7.64h-4.61v-.89h5.766zm6.844 4.282q0 1.906-.657 2.843-.64.922-2.031.922-1.36 0-2.016-.906t-.687-2.719v-1.437q0-1.89.64-2.797.657-.922 2.047-.922 1.375 0 2.032.89.656.876.672 2.72zm-1.094-1.485q0-1.375-.39-2-.376-.64-1.22-.64-.828 0-1.218.64-.375.625-.375 1.922v1.735q0 1.375.39 2.046.407.657 1.219.657.797 0 1.188-.625t.406-1.953zm25.175 336.732h1.187v.876h-1.187v1.984h-1.078v-1.984h-3.89v-.641l3.812-5.906h1.156zm-3.735 0h2.657v-4.187l-.14.235zm35.069-3.452q0 .64-.343 1.14t-.907.781q.657.282 1.047.844.39.547.39 1.25 0 1.094-.75 1.766-.734.656-1.952.656-1.235 0-1.985-.656-.734-.672-.734-1.766 0-.703.375-1.25.375-.562 1.047-.844-.563-.28-.89-.78-.329-.5-.329-1.142 0-1.078.688-1.703.687-.64 1.828-.64 1.125 0 1.812.64.703.625.703 1.704m-.89 3.984q0-.719-.453-1.156-.454-.453-1.188-.453t-1.187.453q-.438.437-.438 1.172 0 .718.438 1.14.437.406 1.203.406.75 0 1.187-.421.438-.422.438-1.141m-1.625-5.438q-.64 0-1.047.407-.39.39-.39 1.078 0 .64.39 1.047t1.031.406q.656 0 1.047-.406t.39-1.047q0-.656-.406-1.063-.406-.422-1.015-.422m28.115 7.766h-1.078v-7.219l-2.187.797v-.984l3.11-1.172h.155zm9.032 0h-5.594v-.781l2.953-3.281q.656-.75.906-1.204.25-.468.25-.968 0-.672-.406-1.094-.39-.438-1.078-.438-.797 0-1.25.47-.453.452-.453 1.28h-1.078q0-1.187.75-1.906.765-.734 2.031-.734 1.203 0 1.89.625.688.625.688 1.672 0 1.25-1.61 3l-2.28 2.468h4.28zm21.694 0h-1.079v-7.219l-2.187.797v-.984l3.11-1.172h.156zm7.703-8.531v.906h-.203q-1.266.031-2.016.766-.75.718-.875 2.03.687-.765 1.844-.765 1.11 0 1.781.781.672.782.672 2.032 0 1.312-.719 2.11-.719.796-1.937.796-1.22 0-1.985-.937-.75-.954-.75-2.438v-.406q0-2.36 1-3.61t2.985-1.265zm-1.422 3.844q-.563 0-1.031.328-.47.328-.657.843v.391q0 1.063.47 1.703.483.64 1.187.64.734 0 1.156-.53.422-.547.422-1.422t-.422-1.407q-.422-.546-1.125-.546m26.475 4.687h-5.594v-.781l2.953-3.281q.657-.75.907-1.204.25-.468.25-.968 0-.672-.407-1.094-.39-.438-1.078-.438-.797 0-1.25.47-.453.452-.453 1.28h-1.078q0-1.187.75-1.906.766-.734 2.031-.734 1.203 0 1.89.625.688.625.688 1.672 0 1.25-1.609 3l-2.281 2.468h4.281zm6.766-3.64q0 1.906-.657 2.843-.64.922-2.03.922-1.36 0-2.017-.906t-.687-2.719v-1.437q0-1.891.64-2.797.657-.922 2.047-.922 1.375 0 2.032.89.656.875.672 2.72zm-1.094-1.485q0-1.375-.39-2-.376-.64-1.22-.64-.828 0-1.218.64-.375.625-.375 1.922v1.734q0 1.375.39 2.047.407.656 1.22.656.796 0 1.187-.625.39-.625.406-1.953zm25.053 5.125h-5.594v-.781l2.954-3.281q.656-.75.906-1.204.25-.468.25-.968 0-.672-.406-1.094-.391-.438-1.079-.438-.796 0-1.25.47-.453.452-.453 1.28h-1.078q0-1.187.75-1.906.766-.734 2.031-.734 1.204 0 1.891.625t.688 1.672q0 1.25-1.61 3l-2.281 2.468h4.281zm5.984-2.86h1.188v.876h-1.187v1.984h-1.079v-1.984h-3.89v-.641l3.812-5.906h1.156zm-3.734 0h2.656v-4.187l-.14.235zm28.475 2.86h-5.593v-.781l2.953-3.281q.656-.75.906-1.204.25-.468.25-.968 0-.672-.406-1.094-.391-.438-1.078-.438-.797 0-1.25.47-.454.452-.454 1.28h-1.078q0-1.187.75-1.906.766-.734 2.032-.734 1.203 0 1.89.625.688.625.688 1.672 0 1.25-1.61 3l-2.281 2.468h4.281zm6.594-6.312q0 .64-.344 1.14t-.906.781q.656.282 1.047.844.39.547.39 1.25 0 1.094-.75 1.766-.734.656-1.953.656-1.234 0-1.984-.656-.734-.672-.734-1.766 0-.703.375-1.25.375-.562 1.047-.844-.563-.28-.891-.78t-.328-1.142q0-1.078.687-1.703.688-.64 1.828-.64 1.125 0 1.813.64.703.625.703 1.704m-.89 3.984q0-.719-.454-1.156-.453-.453-1.187-.453-.735 0-1.188.453-.437.437-.437 1.172 0 .718.437 1.14.438.406 1.203.406.75 0 1.188-.421.437-.422.437-1.141m-1.626-5.438q-.64 0-1.046.407-.391.39-.391 1.078 0 .64.39 1.047.391.406 1.032.406.656 0 1.047-.406t.39-1.047q0-.656-.406-1.063-.406-.422-1.016-.422m22.633 2.969h.812q.782-.015 1.219-.406.438-.39.438-1.063 0-1.5-1.5-1.5-.704 0-1.125.407-.407.406-.407 1.062h-1.093q0-1.015.734-1.687.75-.672 1.89-.672 1.204 0 1.891.64.688.641.688 1.782 0 .562-.36 1.078-.36.515-.984.781.703.219 1.078.734.39.516.39 1.266 0 1.14-.75 1.828-.75.672-1.952.672-1.188 0-1.954-.656-.75-.656-.75-1.719h1.094q0 .672.438 1.078.437.406 1.187.406.781 0 1.188-.406.422-.422.422-1.187 0-.735-.454-1.125-.453-.407-1.328-.422h-.812zm11.015 4.797h-5.593v-.781l2.953-3.281q.656-.75.906-1.204.25-.468.25-.968 0-.672-.406-1.094-.39-.438-1.078-.438-.797 0-1.25.47-.453.452-.453 1.28h-1.079q0-1.187.75-1.906.766-.734 2.032-.734 1.203 0 1.89.625.688.625.688 1.672 0 1.25-1.61 3l-2.28 2.468h4.28zm19.71-4.797h.812q.782-.015 1.22-.406.437-.39.437-1.063 0-1.5-1.5-1.5-.703 0-1.125.407-.407.406-.407 1.062h-1.093q0-1.015.734-1.687.75-.672 1.89-.672 1.204 0 1.891.64.688.641.688 1.782 0 .562-.36 1.078-.359.515-.984.781.703.219 1.078.734.39.516.39 1.266 0 1.14-.75 1.828-.75.672-1.952.672-1.188 0-1.953-.656-.75-.656-.75-1.719h1.093q0 .672.438 1.078.437.406 1.187.406.782 0 1.188-.406.422-.422.422-1.187 0-.735-.453-1.125-.454-.407-1.329-.422h-.812zm9.687-3.734v.906h-.203q-1.265.031-2.015.766-.75.718-.875 2.03.687-.765 1.843-.765 1.11 0 1.782.781.672.782.672 2.032 0 1.312-.72 2.11-.718.796-1.937.796-1.218 0-1.984-.937-.75-.954-.75-2.438v-.406q0-2.36 1-3.61t2.984-1.265zm-1.421 3.844q-.563 0-1.032.328-.468.328-.656.843v.391q0 1.063.469 1.703.484.64 1.187.64.735 0 1.157-.53.421-.547.421-1.422t-.421-1.407q-.422-.546-1.125-.546m25.459 1.827h1.188v.876h-1.188v1.984h-1.078v-1.984h-3.89v-.641l3.812-5.906h1.156zm-3.734 0h2.656v-4.187l-.14.235zm11.515-.78q0 1.906-.656 2.843-.64.922-2.031.922-1.36 0-2.016-.906t-.687-2.719v-1.437q0-1.891.64-2.797.657-.922 2.047-.922 1.375 0 2.031.89.657.875.672 2.72zm-1.093-1.485q0-1.375-.391-2-.375-.64-1.219-.64-.828 0-1.219.64-.375.625-.375 1.922v1.734q0 1.375.391 2.047.406.656 1.219.656.797 0 1.187-.625t.407-1.953zm24.037 2.265h1.188v.876h-1.188v1.984h-1.078v-1.984h-3.89v-.641l3.812-5.906h1.156zm-3.734 0h2.656v-4.187l-.14.235zm10.734 0h1.188v.876h-1.188v1.984h-1.078v-1.984h-3.89v-.641l3.812-5.906h1.156zm-3.734 0h2.656v-4.187l-.14.235zm27.459 0h1.188v.876h-1.188v1.984h-1.078v-1.984h-3.89v-.641l3.812-5.906h1.156zm-3.734 0h2.656v-4.187l-.14.235zm11.344-3.452q0 .64-.344 1.14t-.906.781q.656.282 1.047.844.39.547.39 1.25 0 1.094-.75 1.766-.734.656-1.953.656-1.234 0-1.984-.656-.735-.672-.735-1.766 0-.703.375-1.25.375-.562 1.047-.844-.562-.28-.89-.78-.329-.5-.329-1.142 0-1.078.688-1.703.687-.64 1.828-.64 1.125 0 1.813.64.703.625.703 1.704m-.89 3.984q0-.719-.454-1.156-.453-.453-1.188-.453t-1.187.453q-.438.437-.438 1.172 0 .718.438 1.14.437.406 1.203.406.75 0 1.188-.421.437-.422.437-1.141m-1.626-5.438q-.64 0-1.047.407-.39.39-.39 1.078 0 .64.39 1.047t1.031.406q.657 0 1.047-.406.391-.407.391-1.047 0-.656-.406-1.063-.407-.422-1.016-.422m21.554 3.485.438-4.25h4.375v1h-3.453l-.266 2.328q.64-.375 1.438-.375 1.156 0 1.843.781.688.766.688 2.078 0 1.313-.719 2.078-.703.766-1.984.766-1.125 0-1.844-.625-.719-.64-.813-1.75h1.016q.11.734.531 1.11.422.374 1.11.374.75 0 1.187-.515.438-.516.438-1.422 0-.86-.469-1.375-.469-.516-1.25-.516-.703 0-1.11.297l-.28.235zm12.094 4.281h-5.594v-.781l2.953-3.281q.657-.75.907-1.204.25-.468.25-.968 0-.672-.407-1.094-.39-.438-1.078-.438-.797 0-1.25.47-.453.452-.453 1.28h-1.078q0-1.187.75-1.906.766-.734 2.031-.734 1.203 0 1.891.625t.687 1.672q0 1.25-1.609 3l-2.281 2.468h4.281zm18.632-4.281.437-4.25h4.375v1h-3.453l-.266 2.328q.64-.375 1.438-.375 1.156 0 1.844.781.687.766.687 2.078 0 1.313-.719 2.078-.703.766-1.984.766-1.125 0-1.844-.625-.719-.64-.812-1.75h1.015q.11.734.531 1.11.422.374 1.11.374.75 0 1.187-.515.438-.516.438-1.422 0-.86-.469-1.375-.469-.516-1.25-.516-.703 0-1.11.297l-.28.235zm10.765-4.25v.906h-.203q-1.266.031-2.016.766-.75.718-.875 2.03.688-.765 1.844-.765 1.11 0 1.781.781.672.782.672 2.032 0 1.312-.719 2.11-.718.796-1.937.796t-1.984-.937q-.75-.954-.75-2.438v-.406q0-2.36 1-3.61t2.984-1.265zm-1.422 3.844q-.562 0-1.031.328t-.656.843v.391q0 1.063.469 1.703.484.64 1.187.64.734 0 1.156-.53.422-.547.422-1.422t-.422-1.407q-.422-.546-1.125-.546m25.147-3.844v.906h-.203q-1.265.031-2.015.766-.75.718-.875 2.03.687-.765 1.843-.765 1.11 0 1.782.781.671.782.671 2.032 0 1.312-.718 2.11-.72.796-1.938.796-1.219 0-1.984-.937-.75-.954-.75-2.438v-.406q0-2.36 1-3.61t2.984-1.265zm-1.422 3.844q-.562 0-1.03.328-.47.328-.657.843v.391q0 1.063.469 1.703.484.64 1.187.64.735 0 1.156-.53.422-.547.422-1.422t-.422-1.407q-.421-.546-1.125-.546m9.516 1.046q0 1.907-.656 2.844-.64.922-2.031.922-1.36 0-2.016-.906t-.688-2.719v-1.437q0-1.891.641-2.797.656-.922 2.047-.922 1.375 0 2.031.89.656.875.672 2.72zm-1.094-1.484q0-1.375-.39-2-.375-.64-1.22-.64-.827 0-1.218.64-.375.625-.375 1.922v1.734q0 1.375.39 2.047.407.656 1.22.656.796 0 1.187-.625.39-.625.406-1.953zm23.725-3.406v.906h-.203q-1.265.031-2.015.766-.75.718-.875 2.03.687-.765 1.843-.765 1.11 0 1.782.781.671.782.671 2.032 0 1.312-.718 2.11-.719.796-1.938.796t-1.984-.937q-.75-.954-.75-2.438v-.406q0-2.36 1-3.61t2.984-1.265zm-1.422 3.844q-.562 0-1.03.328-.47.328-.657.843v.391q0 1.063.469 1.703.484.64 1.187.64.735 0 1.156-.53.422-.547.422-1.422t-.422-1.407q-.421-.546-1.125-.546m8.735 1.828h1.187v.875h-1.187v1.984h-1.078v-1.984h-3.89v-.641l3.812-5.906h1.156zm-3.735 0h2.657v-4.188l-.14.235z"/><path fill="#ea4335" d="M612.55 70.583a6 6 0 1 1-12 0 6 6 0 0 1 12 0"/><path fill="#1a1a1a" d="M624.44 69.708q-.25-.03-.53-.03-1.079 0-1.454.905v4.5h-1.078V68.74h1.047l.016.734q.53-.844 1.515-.844.313 0 .485.078zm2.11 5.375h-1.078V68.74h1.078zm-1.172-8.015q0-.266.156-.453.172-.188.485-.188.312 0 .468.188.172.187.172.453 0 .25-.172.437-.156.172-.468.172t-.485-.172q-.156-.187-.156-.437m6.688 6.328q0-.438-.344-.672-.328-.25-1.156-.422-.813-.172-1.297-.422-.485-.25-.719-.578-.219-.344-.219-.812 0-.782.656-1.313.657-.547 1.688-.547 1.078 0 1.734.563.672.547.672 1.406h-1.078q0-.438-.39-.75-.376-.328-.938-.328-.594 0-.937.265-.329.25-.329.657 0 .39.313.593.312.204 1.125.391.812.172 1.312.422t.735.61q.25.359.25.859 0 .86-.688 1.375-.672.515-1.75.515-.765 0-1.36-.265-.577-.282-.905-.766t-.329-1.047h1.079q.03.547.437.875.406.313 1.078.313.61 0 .985-.25t.375-.672m3.78-6.188v1.532h1.173v.843h-1.172v3.922q0 .39.156.578t.531.188q.188 0 .516-.063v.875q-.422.125-.828.125-.719 0-1.094-.437-.375-.453-.375-1.266v-3.922h-1.156v-.843h1.156v-1.532zm5.595 2.5q-.25-.03-.532-.03-1.078 0-1.453.905v4.5h-1.078V68.74h1.047l.016.734q.53-.844 1.515-.844.313 0 .485.078zm3.562 5.5q-1.297 0-2.11-.843-.796-.86-.796-2.282v-.187q0-.953.36-1.688.359-.75 1-1.156.655-.422 1.405-.422 1.235 0 1.922.813.688.812.688 2.328v.453h-4.297q.031.937.547 1.516.531.578 1.344.578.562 0 .953-.235.406-.234.718-.625l.657.516q-.797 1.234-2.39 1.234m-.14-5.687q-.657 0-1.11.484-.437.469-.531 1.328h3.172v-.078q-.047-.828-.453-1.281-.391-.453-1.079-.453m4.984-2.313v1.532h1.172v.843h-1.172v3.922q0 .39.156.578t.531.188q.188 0 .516-.063v.875q-.422.125-.828.125-.719 0-1.094-.437-.375-.453-.375-1.266v-3.922h-1.156v-.843h1.156v-1.532zm4 0v1.532h1.172v.843h-1.172v3.922q0 .39.156.578t.531.188q.188 0 .516-.063v.875q-.422.125-.828.125-.719 0-1.094-.437-.375-.453-.375-1.266v-3.922h-1.156v-.843h1.156v-1.532zm2.234 4.641q0-.922.36-1.672.375-.75 1.03-1.14.657-.407 1.485-.407 1.297 0 2.094.89.813.891.813 2.391v.079q0 .921-.36 1.656t-1.016 1.156q-.656.406-1.515.406-1.281 0-2.094-.89-.797-.907-.797-2.39zm1.094.14q0 1.047.484 1.688.5.64 1.313.64.828 0 1.312-.64.485-.656.485-1.828 0-1.031-.5-1.672-.485-.656-1.313-.656-.797 0-1.297.64-.484.625-.484 1.829"/><path fill="#fbbc04" d="M612.55 95.583a6 6 0 1 1-12 0 6 6 0 0 1 12 0"/><path fill="#1a1a1a" d="M626.738 96.99q0 1.453-.672 2.343-.657.875-1.782.875-1.203 0-1.859-.859l-.062.734h-.985v-9h1.078v3.36q.656-.813 1.813-.813 1.156 0 1.812.875.656.86.656 2.39zm-1.079-.125q0-1.11-.437-1.704-.422-.609-1.219-.609-1.078 0-1.547.984v2.75q.5 1 1.547 1 .781 0 1.219-.609.437-.61.437-1.812m3.891 3.218h-1.078V93.74h1.078zm-1.172-8.015q0-.266.156-.453.172-.188.485-.188.312 0 .468.188.172.187.172.453 0 .25-.172.437-.156.172-.468.172t-.485-.172q-.156-.187-.156-.437m2.734 4.797q0-1.485.688-2.36t1.813-.875q1.156 0 1.812.813l.047-.703h1v6.187q0 1.234-.735 1.938-.734.718-1.953.718-.687 0-1.343-.297-.657-.296-1-.796l.562-.657q.688.86 1.703.86.781 0 1.219-.453.453-.438.453-1.25v-.547q-.656.765-1.781.765-1.11 0-1.797-.89-.687-.907-.687-2.453m1.094.125q0 1.062.438 1.687.437.61 1.234.61 1.016 0 1.5-.938v-2.89q-.5-.907-1.5-.907-.781 0-1.234.61-.438.609-.438 1.828m8.703 2.328q.578 0 1.016-.344.438-.36.484-.89h1.032q-.032.546-.391 1.046-.344.485-.922.781-.562.297-1.219.297-1.297 0-2.062-.859-.75-.875-.75-2.375v-.188q0-.921.328-1.64.344-.719.969-1.11.64-.406 1.515-.406 1.063 0 1.766.64.719.626.766 1.657h-1.032q-.047-.625-.468-1.016-.422-.39-1.032-.39-.828 0-1.28.594-.454.593-.454 1.718v.203q0 1.094.453 1.688t1.281.594m7.375.765q-.093-.187-.156-.672-.75.797-1.797.797-.937 0-1.547-.53-.593-.532-.593-1.36 0-.985.75-1.532.75-.546 2.125-.546h1.046v-.5q0-.563-.343-.891-.328-.344-1-.344-.578 0-.969.297-.39.281-.39.703h-1.094q0-.484.328-.922.343-.437.922-.687.578-.266 1.265-.266 1.11 0 1.719.547.625.547.656 1.5V98.6q0 .875.219 1.39v.094zm-1.797-.828q.516 0 .97-.265.452-.266.655-.688v-1.297h-.843q-2 0-2 1.172 0 .5.343.797.344.281.875.281m7.422.063q.578 0 1.016-.344.438-.36.484-.89h1.032q-.032.546-.391 1.046-.344.485-.922.781-.562.297-1.219.297-1.297 0-2.062-.859-.75-.875-.75-2.375v-.188q0-.921.328-1.64.344-.719.969-1.11.64-.406 1.515-.406 1.063 0 1.766.64.719.626.766 1.657h-1.032q-.047-.625-.468-1.016-.422-.39-1.032-.39-.828 0-1.28.594-.454.593-.454 1.718v.203q0 1.094.453 1.688t1.281.594m4.547-4.813q.719-.875 1.875-.875 2.016 0 2.031 2.266v4.187h-1.093V95.88q0-.672-.313-1-.297-.328-.953-.328-.531 0-.937.281-.391.282-.61.735v4.515h-1.078v-9h1.078zm8.547 5.703q-1.297 0-2.11-.843-.796-.86-.796-2.282v-.187q0-.953.36-1.688.359-.75 1-1.156.655-.422 1.405-.422 1.235 0 1.922.813.688.812.688 2.328v.453h-4.297q.031.937.547 1.516.531.578 1.344.578.562 0 .953-.235.406-.234.718-.625l.657.516q-.797 1.234-2.39 1.234m-.14-5.687q-.657 0-1.11.484-.437.469-.531 1.328h3.172v-.078q-.047-.828-.453-1.281-.391-.453-1.079-.453"/><path fill="#90f" d="M612.55 120.583a6 6 0 1 1-12 0 6 6 0 0 1 12 0"/><path fill="#1a1a1a" d="M621.91 125.083v-5.5h-1v-.843h1v-.641q0-1.031.53-1.578.547-.563 1.547-.563.375 0 .75.094l-.062.89q-.281-.062-.578-.062-.531 0-.828.313-.282.312-.282.875v.672h1.36v.843h-1.36v5.5zm6.53-5.375q-.25-.03-.53-.03-1.079 0-1.454.905v4.5h-1.078v-6.343h1.047l.016.734q.53-.844 1.515-.844.313 0 .485.078zm3.563 5.5q-1.297 0-2.11-.843-.796-.86-.796-2.282v-.187q0-.953.36-1.688.359-.75 1-1.156.655-.422 1.405-.422 1.235 0 1.922.813.688.812.688 2.328v.453h-4.297q.031.937.547 1.516.531.578 1.344.578.562 0 .953-.235.406-.234.718-.625l.657.516q-.797 1.234-2.39 1.234m-.14-5.687q-.657 0-1.11.484-.437.469-.531 1.328h3.172v-.078q-.047-.828-.453-1.281-.391-.453-1.079-.453m6.14 5.687q-1.297 0-2.11-.843-.796-.86-.796-2.282v-.187q0-.953.36-1.688.359-.75 1-1.156.655-.422 1.405-.422 1.235 0 1.922.813.688.812.688 2.328v.453h-4.297q.031.937.547 1.516.531.578 1.344.578.562 0 .953-.235.406-.234.718-.625l.657.516q-.797 1.234-2.39 1.234m-.14-5.687q-.657 0-1.11.484-.437.469-.531 1.328h3.172v-.078q-.047-.828-.453-1.281-.391-.453-1.079-.453m6.046 4.797q.578 0 1.016-.344.438-.36.484-.89h1.032q-.032.546-.391 1.046-.344.485-.922.781-.562.297-1.219.297-1.297 0-2.062-.859-.75-.875-.75-2.375v-.188q0-.921.328-1.64.344-.719.969-1.11.64-.406 1.515-.406 1.063 0 1.766.64.719.626.766 1.657h-1.032q-.047-.625-.468-1.016-.422-.39-1.032-.39-.828 0-1.28.594-.454.593-.454 1.718v.203q0 1.094.453 1.688t1.281.594m7.375.765q-.093-.187-.156-.672-.75.797-1.797.797-.937 0-1.547-.53-.593-.532-.593-1.36 0-.985.75-1.532.75-.546 2.125-.546h1.046v-.5q0-.563-.343-.891-.328-.344-1-.344-.578 0-.969.297-.39.281-.39.703h-1.094q0-.484.328-.922.343-.437.922-.687.578-.266 1.265-.266 1.11 0 1.719.547.625.547.656 1.5v2.922q0 .875.219 1.39v.094zm-1.797-.828q.516 0 .97-.265.452-.266.655-.688v-1.297h-.843q-2 0-2 1.172 0 .5.343.797.344.281.875.281m7.422.063q.578 0 1.016-.344.438-.36.484-.89h1.032q-.032.546-.391 1.046-.344.485-.922.781-.562.297-1.219.297-1.297 0-2.062-.859-.75-.875-.75-2.375v-.188q0-.921.328-1.64.344-.719.969-1.11.64-.406 1.515-.406 1.063 0 1.766.64.719.626.766 1.657h-1.032q-.047-.625-.468-1.016-.422-.39-1.032-.39-.828 0-1.28.594-.454.593-.454 1.718v.203q0 1.094.453 1.688t1.281.594m4.547-4.813q.719-.875 1.875-.875 2.016 0 2.031 2.266v4.187h-1.093v-4.203q0-.672-.313-1-.297-.328-.953-.328-.531 0-.937.281-.391.282-.61.735v4.515h-1.078v-9h1.078zm8.547 5.703q-1.297 0-2.11-.843-.796-.86-.796-2.282v-.187q0-.953.36-1.688.359-.75 1-1.156.655-.422 1.405-.422 1.235 0 1.922.813.688.812.688 2.328v.453h-4.297q.031.937.547 1.516.531.578 1.344.578.562 0 .953-.235.406-.234.718-.625l.657.516q-.797 1.234-2.39 1.234m-.14-5.687q-.657 0-1.11.484-.437.469-.531 1.328h3.172v-.078q-.047-.828-.453-1.281-.391-.453-1.079-.453"/><path fill="#ff6d01" d="M612.55 145.583a6 6 0 1 1-12 0 6 6 0 0 1 12 0"/><path fill="#1a1a1a" d="M621.91 150.083v-5.5h-1v-.843h1v-.641q0-1.031.53-1.578.547-.563 1.547-.563.375 0 .75.094l-.062.89q-.281-.062-.578-.062-.531 0-.828.313-.282.312-.282.875v.672h1.36v.843h-1.36v5.5zm7.374 0q-.093-.187-.156-.672-.75.797-1.797.797-.937 0-1.547-.53-.593-.532-.593-1.36 0-.985.75-1.532.75-.546 2.125-.546h1.046v-.5q0-.563-.343-.891-.328-.344-1-.344-.578 0-.969.297-.39.281-.39.703h-1.094q0-.484.328-.922.343-.437.922-.687.578-.266 1.265-.266 1.11 0 1.719.547.625.547.656 1.5v2.922q0 .875.219 1.39v.094zm-1.797-.828q.516 0 .97-.265.452-.266.655-.688v-1.297h-.843q-2 0-2 1.172 0 .5.343.797.344.281.875.281m8.579-.86q0-.437-.344-.671-.328-.25-1.156-.422-.813-.172-1.297-.422-.485-.25-.719-.578-.219-.344-.219-.812 0-.782.656-1.313.657-.547 1.688-.547 1.078 0 1.734.563.672.547.672 1.406h-1.078q0-.438-.39-.75-.376-.328-.938-.328-.594 0-.937.265-.329.25-.329.657 0 .39.313.593.312.204 1.125.391.812.172 1.312.422t.735.61q.25.359.25.859 0 .86-.688 1.375-.672.515-1.75.515-.765 0-1.36-.265-.577-.282-.905-.766t-.329-1.047h1.079q.03.547.437.875.406.313 1.078.313.61 0 .985-.25t.375-.672m3.78-6.187v1.532h1.173v.843h-1.172v3.922q0 .39.156.578t.531.188q.188 0 .516-.063v.875q-.422.125-.828.125-.719 0-1.094-.437-.375-.453-.375-1.266v-3.922h-1.156v-.843h1.156v-1.532zm5.063 7.11q.578 0 1.016-.344.438-.36.484-.89h1.032q-.032.546-.391 1.046-.344.485-.922.781-.562.297-1.219.297-1.297 0-2.062-.859-.75-.875-.75-2.375v-.188q0-.921.328-1.64.344-.719.969-1.11.64-.406 1.515-.406 1.063 0 1.766.64.719.626.766 1.657h-1.032q-.047-.625-.468-1.016-.422-.39-1.032-.39-.828 0-1.28.594-.454.593-.454 1.718v.203q0 1.094.453 1.688t1.281.594m7.375.765q-.093-.187-.156-.672-.75.797-1.797.797-.937 0-1.547-.53-.593-.532-.593-1.36 0-.985.75-1.532.75-.546 2.125-.546h1.046v-.5q0-.563-.343-.891-.328-.344-1-.344-.578 0-.969.297-.39.281-.39.703h-1.094q0-.484.328-.922.343-.437.922-.687.578-.266 1.265-.266 1.11 0 1.719.547.625.547.656 1.5v2.922q0 .875.219 1.39v.094zm-1.797-.828q.516 0 .97-.265.452-.266.655-.688v-1.297h-.843q-2 0-2 1.172 0 .5.343.797.344.281.875.281m7.422.063q.578 0 1.016-.344.438-.36.484-.89h1.032q-.032.546-.391 1.046-.344.485-.922.781-.562.297-1.219.297-1.297 0-2.062-.859-.75-.875-.75-2.375v-.188q0-.921.328-1.64.344-.719.969-1.11.64-.406 1.515-.406 1.063 0 1.766.64.719.626.766 1.657h-1.032q-.047-.625-.468-1.016-.422-.39-1.032-.39-.828 0-1.28.594-.454.593-.454 1.718v.203q0 1.094.453 1.688t1.281.594m4.547-4.813q.719-.875 1.875-.875 2.016 0 2.031 2.266v4.187h-1.093v-4.203q0-.672-.313-1-.297-.328-.953-.328-.531 0-.937.281-.391.282-.61.735v4.515h-1.078v-9h1.078zm8.547 5.703q-1.297 0-2.11-.843-.796-.86-.796-2.282v-.187q0-.953.36-1.688.359-.75 1-1.156.655-.422 1.405-.422 1.235 0 1.922.813.688.812.688 2.328v.453h-4.297q.031.937.547 1.516.531.578 1.344.578.562 0 .953-.235.406-.234.718-.625l.657.516q-.797 1.234-2.39 1.234m-.14-5.687q-.657 0-1.11.484-.437.469-.531 1.328h3.172v-.078q-.047-.828-.453-1.281-.391-.453-1.079-.453"/><path fill="#46bdc6" d="M612.55 170.583a6 6 0 1 1-12 0 6 6 0 0 1 12 0"/><path fill="#1a1a1a" d="M621.113 171.865q0-1.485.687-2.36t1.813-.875q1.156 0 1.812.813l.047-.703h1v6.187q0 1.234-.735 1.938-.734.718-1.953.718-.687 0-1.343-.297-.657-.296-1-.796l.562-.657q.688.86 1.703.86.781 0 1.219-.453.453-.438.453-1.25v-.547q-.656.765-1.781.765-1.11 0-1.797-.89-.687-.907-.687-2.453m1.093.125q0 1.062.438 1.687.437.61 1.234.61 1.016 0 1.5-.938v-2.89q-.5-.907-1.5-.907-.781 0-1.234.61-.438.609-.438 1.828m5.875-.141q0-.922.36-1.672.375-.75 1.03-1.14.657-.407 1.485-.407 1.297 0 2.094.89.813.891.813 2.391v.079q0 .921-.36 1.656t-1.016 1.156q-.656.406-1.515.406-1.281 0-2.094-.89-.797-.907-.797-2.39zm1.094.14q0 1.047.484 1.688.5.64 1.313.64.828 0 1.312-.64.485-.656.485-1.828 0-1.031-.5-1.672-.485-.656-1.313-.656-.797 0-1.297.64-.484.625-.484 1.829m11.563 0q0 1.454-.672 2.344-.657.875-1.782.875-1.203 0-1.859-.859l-.062.734h-.985v-9h1.078v3.36q.656-.813 1.813-.813 1.156 0 1.812.875.656.86.656 2.39zm-1.079-.124q0-1.11-.437-1.704-.422-.609-1.219-.609-1.078 0-1.547.984v2.75q.5 1 1.547 1 .781 0 1.219-.609.437-.61.437-1.812m6.625 2.593q-.625.75-1.859.75-1.016 0-1.547-.593-.531-.594-.531-1.75v-4.125h1.078v4.093q0 1.453 1.172 1.453 1.25 0 1.656-.937v-4.61h1.094v6.344h-1.031zm6.157-4.75q-.25-.03-.532-.03-1.078 0-1.453.905v4.5h-1.078v-6.343h1.047l.016.734q.53-.844 1.515-.844.313 0 .485.078zm4 0q-.25-.03-.532-.03-1.078 0-1.453.905v4.5h-1.078v-6.343h1.047l.016.734q.53-.844 1.515-.844.313 0 .485.078zm.64 2.141q0-.922.36-1.672.375-.75 1.03-1.14.657-.407 1.485-.407 1.297 0 2.094.89.813.891.813 2.391v.079q0 .921-.36 1.656t-1.016 1.156q-.656.406-1.515.406-1.281 0-2.094-.89-.797-.907-.797-2.39zm1.094.14q0 1.047.484 1.688.5.64 1.313.64.828 0 1.312-.64.485-.656.485-1.828 0-1.031-.5-1.672-.485-.656-1.313-.656-.797 0-1.297.64-.484.625-.484 1.829m11.813 1.594 1.218-4.843h1.078l-1.843 6.343h-.875l-1.547-4.812-1.5 4.812h-.875l-1.844-6.343h1.078l1.25 4.75 1.484-4.75h.86z"/><path fill="#38761d" d="M612.55 195.583a6 6 0 1 1-12 0 6 6 0 0 1 12 0"/><path fill="#1a1a1a" d="M621.113 196.865q0-1.485.687-2.36t1.813-.875q1.156 0 1.812.813l.047-.703h1v6.187q0 1.234-.735 1.938-.734.718-1.953.718-.687 0-1.343-.297-.657-.296-1-.796l.562-.657q.688.86 1.703.86.781 0 1.219-.453.453-.438.453-1.25v-.547q-.656.765-1.781.765-1.11 0-1.797-.89-.687-.907-.687-2.453m1.093.125q0 1.062.438 1.687.437.61 1.234.61 1.016 0 1.5-.938v-2.89q-.5-.907-1.5-.907-.781 0-1.234.61-.438.609-.438 1.828m9.235-2.282q-.25-.03-.532-.03-1.078 0-1.453.905v4.5h-1.078v-6.343h1.047l.016.734q.53-.844 1.515-.844.313 0 .485.078zm.64 2.141q0-.922.36-1.672.375-.75 1.03-1.14.657-.407 1.485-.407 1.297 0 2.094.89.813.891.813 2.391v.079q0 .921-.36 1.656t-1.016 1.156q-.656.406-1.515.406-1.281 0-2.094-.89-.797-.907-.797-2.39zm1.094.14q0 1.047.484 1.688.5.64 1.313.64.828 0 1.312-.64.485-.656.485-1.828 0-1.031-.5-1.672-.485-.656-1.313-.656-.797 0-1.297.64-.484.625-.484 1.829m10.11 2.47q-.626.75-1.86.75-1.016 0-1.547-.594t-.531-1.75v-4.125h1.078v4.093q0 1.453 1.172 1.453 1.25 0 1.656-.937v-4.61h1.094v6.344h-1.031zm8.437-2.47q0 1.438-.656 2.329-.657.89-1.797.89-1.157 0-1.813-.734v3.047h-1.078v-8.781h.984l.047.703q.672-.813 1.844-.813 1.14 0 1.797.86.672.859.672 2.39zm-1.078-.124q0-1.079-.469-1.688-.453-.625-1.25-.625-.984 0-1.469.86v3.03q.485.876 1.485.876.78 0 1.234-.61.469-.625.469-1.843m5.265 2.453q.578 0 1.016-.344.438-.36.484-.89h1.032q-.032.546-.391 1.046-.344.485-.922.781-.562.297-1.219.297-1.297 0-2.062-.859-.75-.875-.75-2.375v-.188q0-.921.328-1.64.344-.719.969-1.11.64-.406 1.515-.406 1.063 0 1.766.64.719.626.766 1.657h-1.032q-.047-.625-.468-1.016-.422-.39-1.032-.39-.828 0-1.28.594-.454.593-.454 1.718v.203q0 1.094.453 1.688t1.281.594m7.375.765q-.093-.187-.156-.672-.75.797-1.797.797-.937 0-1.547-.53-.593-.532-.593-1.36 0-.985.75-1.532.75-.546 2.125-.546h1.046v-.5q0-.563-.343-.891-.328-.344-1-.344-.578 0-.969.297-.39.281-.39.703h-1.094q0-.484.328-.922.343-.437.922-.687.578-.266 1.265-.266 1.11 0 1.719.547.625.547.656 1.5v2.922q0 .875.219 1.39v.094zm-1.797-.828q.516 0 .97-.265.452-.266.655-.688v-1.297h-.843q-2 0-2 1.172 0 .5.343.797.344.281.875.281m7.422.063q.578 0 1.016-.344.438-.36.484-.89h1.032q-.032.546-.391 1.046-.344.485-.922.781-.562.297-1.219.297-1.297 0-2.062-.859-.75-.875-.75-2.375v-.188q0-.921.328-1.64.344-.719.969-1.11.64-.406 1.515-.406 1.063 0 1.766.64.719.626.766 1.657h-1.032q-.047-.625-.468-1.016-.422-.39-1.032-.39-.828 0-1.28.594-.454.593-.454 1.718v.203q0 1.094.453 1.688t1.281.594m4.547-4.813q.719-.875 1.875-.875 2.016 0 2.031 2.266v4.187h-1.093v-4.203q0-.672-.313-1-.297-.328-.953-.328-.531 0-.937.281-.391.282-.61.735v4.515h-1.078v-9h1.078zm8.547 5.703q-1.297 0-2.11-.843-.796-.86-.796-2.282v-.187q0-.953.36-1.688.359-.75 1-1.156.655-.422 1.405-.422 1.235 0 1.922.813.688.812.688 2.328v.453h-4.297q.031.937.547 1.516.531.578 1.344.578.562 0 .953-.235.406-.234.718-.625l.657.516q-.797 1.234-2.39 1.234m-.14-5.687q-.657 0-1.11.484-.437.469-.531 1.328h3.172v-.078q-.047-.828-.453-1.281-.391-.453-1.079-.453"/><path fill="#757575" d="M34.919 29.778h-4.563V42.45h-1.86V29.778h-4.562v-1.547H34.92zm3.703 3.39q1.203-1.484 3.125-1.484 3.36 0 3.375 3.782v6.984h-1.797v-7q-.016-1.14-.531-1.687-.5-.547-1.594-.547-.875 0-1.547.468-.656.47-1.031 1.235v7.531h-1.797v-15h1.797zm14.297.329q-.406-.063-.875-.063-1.781 0-2.422 1.516v7.5h-1.797V31.887h1.75l.031 1.22q.89-1.423 2.516-1.423.531 0 .797.141zm1.422 3.578q0-1.562.609-2.797.61-1.25 1.688-1.922 1.093-.672 2.5-.672 2.156 0 3.484 1.5 1.344 1.485 1.344 3.97v.124q0 1.547-.594 2.781-.594 1.22-1.703 1.907-1.094.687-2.516.687-2.14 0-3.484-1.5-1.328-1.5-1.328-3.953zm1.812.203q0 1.766.813 2.828.828 1.063 2.187 1.063 1.375 0 2.188-1.078.812-1.078.812-3.016 0-1.75-.828-2.828t-2.187-1.078q-1.344 0-2.172 1.062-.813 1.063-.813 3.047m16.188 4.125q-1.047 1.25-3.094 1.25-1.688 0-2.578-.984-.875-.985-.89-2.906v-6.875h1.812v6.828q0 2.39 1.953 2.39 2.062 0 2.75-1.531v-7.688h1.812V42.45h-1.718zm4.047-4.328q0-2.469 1.14-3.922 1.14-1.469 3.031-1.469 1.938 0 3.016 1.375l.094-1.171h1.64V42.2q0 2.047-1.218 3.219-1.203 1.187-3.266 1.187-1.14 0-2.234-.484t-1.672-1.344l.937-1.078q1.172 1.438 2.844 1.438 1.328 0 2.063-.75.734-.735.734-2.079v-.921q-1.078 1.265-2.953 1.265-1.86 0-3.016-1.5-1.14-1.5-1.14-4.078m1.812.203q0 1.797.734 2.813.735 1.015 2.047 1.015 1.719 0 2.516-1.547v-4.828q-.828-1.515-2.484-1.515-1.329 0-2.079 1.03-.734 1.032-.734 3.032m11.422-4.11q1.203-1.484 3.125-1.484 3.36 0 3.375 3.782v6.984h-1.797v-7q-.016-1.14-.531-1.687-.5-.547-1.594-.547-.875 0-1.547.468-.656.47-1.031 1.235v7.531h-1.797v-15h1.797zm18.125 4.11q0 2.422-1.11 3.906-1.093 1.47-2.984 1.47-1.922 0-3.031-1.235v5.094h-1.797V31.888h1.64l.094 1.171q1.094-1.375 3.063-1.375 1.906 0 3.016 1.438 1.109 1.437 1.109 4zm-1.813-.203q0-1.781-.765-2.812-.75-1.047-2.078-1.047-1.641 0-2.47 1.453v5.062q.813 1.438 2.485 1.438 1.297 0 2.063-1.031.765-1.032.765-3.063m10.407 4.328q-1.047 1.25-3.094 1.25-1.688 0-2.578-.984-.875-.985-.89-2.906v-6.875h1.812v6.828q0 2.39 1.953 2.39 2.062 0 2.75-1.531v-7.688h1.812V42.45h-1.718zm6.922-12.078v2.563h1.984v1.39h-1.984v6.547q0 .64.265.969.266.312.906.312.313 0 .86-.125v1.469q-.719.203-1.39.203-1.204 0-1.829-.734-.61-.735-.61-2.094v-6.547h-1.921v-1.39h1.922v-2.563zm13.312 7.828h-4.766V35.67h4.766zm12.734-.453h-3.328v5.75h-1.89V28.231h4.703q2.406 0 3.703 1.094t1.297 3.188q0 1.328-.719 2.312t-2 1.469l3.344 6.031v.125h-2.016zm-3.328-1.531h2.875q1.39 0 2.219-.719.828-.734.828-1.937 0-1.329-.797-2.032-.781-.703-2.265-.703h-2.86zm14.219 7.484q-2.14 0-3.5-1.406-1.344-1.422-1.344-3.781v-.344q0-1.563.594-2.797.61-1.234 1.688-1.937t2.343-.704q2.063 0 3.203 1.36 1.141 1.36 1.141 3.89v.75h-7.156q.031 1.563.906 2.532.875.953 2.219.953.968 0 1.625-.39.672-.392 1.172-1.032l1.093.86q-1.328 2.046-3.984 2.046m-.219-9.484q-1.094 0-1.844.797-.734.797-.906 2.234h5.281v-.14q-.078-1.376-.75-2.126-.656-.765-1.78-.765m13.36 9.281q-.157-.312-.25-1.11-1.266 1.313-3.016 1.313-1.562 0-2.562-.89-1-.891-1-2.25 0-1.641 1.25-2.547 1.265-.922 3.53-.922h1.766v-.828q0-.953-.578-1.516-.562-.562-1.656-.562-.969 0-1.625.5-.656.484-.656 1.171h-1.813q0-.78.563-1.515.562-.75 1.515-1.172.97-.438 2.125-.438 1.828 0 2.86.922 1.031.907 1.078 2.516v4.86q0 1.452.36 2.312v.156zm-3-1.375q.859 0 1.609-.437.766-.438 1.11-1.141v-2.172h-1.423q-3.312 0-3.312 1.938 0 .859.563 1.343.562.469 1.453.469m7.03-4q0-2.422 1.157-3.906 1.156-1.485 3.016-1.485t2.937 1.266v-5.5h1.813v15h-1.657l-.093-1.14q-1.078 1.343-3.016 1.343-1.828 0-3-1.5-1.156-1.515-1.156-3.937zm1.813.203q0 1.797.735 2.813.75 1.015 2.062 1.015 1.719 0 2.5-1.531v-4.86q-.797-1.5-2.484-1.5-1.328 0-2.078 1.032-.735 1.031-.735 3.031m14.563-.594q0-2.218.594-4.25.593-2.03 1.765-3.687 1.172-1.656 2.422-2.344l.375 1.188q-1.422 1.093-2.344 3.343-.906 2.25-1 5.032v.828q0 3.765 1.375 6.547.828 1.656 1.97 2.593l-.376 1.11q-1.297-.719-2.469-2.422-2.312-3.328-2.312-7.938m8.765 4.235h8.125v1.531h-10.343v-1.406l7.797-11.266h-7.672v-1.547h9.906v1.375zm12.266 1.531h-1.797V31.887h1.797zm-1.953-13.375q0-.437.266-.734.28-.313.796-.313.532 0 .797.313.282.296.282.734t-.282.734q-.265.297-.797.297-.515 0-.796-.297-.266-.297-.266-.734m13.922 8.203q0 2.422-1.11 3.906-1.093 1.47-2.984 1.47-1.922 0-3.031-1.235v5.094h-1.797V31.888h1.64l.094 1.171q1.094-1.375 3.063-1.375 1.906 0 3.015 1.438t1.11 4zm-1.813-.203q0-1.781-.765-2.812-.75-1.047-2.078-1.047-1.641 0-2.47 1.453v5.062q.813 1.438 2.485 1.438 1.297 0 2.063-1.031.765-1.032.765-3.063m4.766 5.375v-9.172h-1.656v-1.39h1.656v-1.094q0-1.688.906-2.61.922-.937 2.578-.937.625 0 1.235.156l-.094 1.469q-.453-.078-.969-.078-.89 0-1.375.515-.469.5-.469 1.453v1.125h2.25v1.391h-2.25v9.172zm8.078 0h-1.797V31.887h1.797zm-1.953-13.375q0-.437.266-.734.28-.313.796-.313.532 0 .797.313.282.296.282.734t-.282.734q-.265.297-.797.297-.515 0-.796-.297-.266-.297-.266-.734m11.516 13.375q-.157-.312-.25-1.11-1.266 1.313-3.016 1.313-1.562 0-2.562-.89-1-.891-1-2.25 0-1.641 1.25-2.547 1.265-.922 3.53-.922h1.766v-.828q0-.953-.578-1.516-.562-.562-1.656-.562-.969 0-1.625.5-.656.484-.656 1.171h-1.813q0-.78.563-1.515.562-.75 1.515-1.172.97-.438 2.125-.438 1.828 0 2.86.922 1.031.907 1.078 2.516v4.86q0 1.452.36 2.312v.156zm-3-1.375q.859 0 1.609-.437.766-.438 1.11-1.141v-2.172h-1.423q-3.312 0-3.312 1.938 0 .859.563 1.343.562.469 1.453.469m9.187-9.188.063 1.329q1.203-1.532 3.156-1.532 3.36 0 3.375 3.782v6.984h-1.797v-7q-.016-1.14-.531-1.687-.5-.547-1.594-.547-.875 0-1.547.468-.656.47-1.031 1.235v7.531h-1.797V31.887zm13.453 4.891q0 2.172-.578 4.172-.562 2-1.734 3.688-1.172 1.687-2.469 2.406l-.375-1.11q1.5-1.156 2.406-3.578.922-2.422.938-5.39v-.313q0-2.047-.438-3.812-.422-1.766-1.187-3.157-.766-1.39-1.719-2.172l.375-1.109q1.297.719 2.453 2.39 1.172 1.657 1.75 3.673t.578 4.312"/></svg>